<?xml version="1.0" encoding="UTF-8"?>
<!DOCTYPE svg PUBLIC "-//W3C//DTD SVG 1.1//EN" "http://www.w3.org/Graphics/SVG/1.1/DTD/svg11.dtd">
<!-- Creator: CorelDRAW 2021 (64-Bit) -->
<svg xmlns="http://www.w3.org/2000/svg" xml:space="preserve" width="255.621mm" height="111.828mm" version="1.1" style="shape-rendering:geometricPrecision; text-rendering:geometricPrecision; image-rendering:optimizeQuality; fill-rule:evenodd; clip-rule:evenodd"
viewBox="0 0 16821.15 7358.85"
 xmlns:xlink="http://www.w3.org/1999/xlink"
 xmlns:xodm="http://www.corel.com/coreldraw/odm/2003">
 <defs>
  <style type="text/css">
   <![CDATA[
    .fil2 {fill:none}
    .fil0 {fill:#07131F}
    .fil3 {fill:#07131F}
    .fil4 {fill:#EEEFEA}
    .fil6 {fill:url(#id17)}
    .fil1 {fill:url(#id18)}
    .fil5 {fill:url(#id19)}
   ]]>
  </style>
    <clipPath id="id0">
     <path d="M10886.21 7024.14l-1.67 -663.52c326.1,-25.57 643.96,-15.71 632.7,345.66 -5.15,166.16 -71.53,254.54 -197.34,298.2 -85.82,29.76 -348.08,63.14 -433.68,19.66zm0.53 -1424.55c148.67,-13.65 330.62,-24.46 440.51,49.16 121.12,81.13 147.22,395.93 -172.67,436.25 -31,3.87 -225.82,8.25 -247.37,1.42 -33.34,-10.56 -23.92,16.17 -23.1,-112.7 0.25,-41.74 0.18,-83.55 0.21,-125.32 0.04,-79.14 -4.55,-171.39 2.42,-248.82zm634.22 586.13c24.49,-24.32 57.13,-40.63 88.49,-67.23 255.93,-216.97 162.79,-560.03 -42.48,-699.78 -240.29,-163.64 -704.73,-122.11 -1036.76,-99.22l0.21 2004.39c272.53,16.67 746.74,34.13 998.05,-72.03 443.1,-187.14 429.59,-715.95 206.8,-931.71 -88.27,-85.5 -174.48,-101.71 -214.3,-134.41z"/>
    </clipPath>
    <clipPath id="id1">
     <path d="M6125.96 6138.29c37.97,29.43 686.06,886.42 752.93,971.24 46.71,59.26 82.55,105.66 126.28,163.01 59.97,78.78 53.18,94.88 196.88,74.44l-1.07 -1950.31 -325.19 0.28 -1.53 1152.23c-27.41,-13.94 -439.2,-548.48 -494.51,-617.34 -84.36,-105.05 -160.19,-209.36 -245.54,-313.38 -58.42,-71.14 -150.21,-216.25 -200.76,-222.4 -29.58,-3.59 -101.35,-0.39 -135.31,1.17l0.25 1928.55 324.65 -4.12 2.92 -1183.38z"/>
    </clipPath>
    <clipPath id="id2">
     <path d="M632.84 6639.59c18.45,-99.08 159.45,-488.5 206.9,-641.91 4.69,-15.11 9.13,-32.42 13.36,-44.19l20.73 -40.13c23.85,35.44 222.16,646.56 241.71,728.29l-482.71 -2.06zm-107.15 275.27l696.58 4.3 143.27 406.1 391.09 -1.56 -804.62 -2036.78 -156.04 1.35 -795.98 2037.41 389.53 -2.45 136.16 -408.37z"/>
    </clipPath>
    <clipPath id="id3">
     <path d="M7946.58 5696.18l880.34 -0.99 -2.06 -298.95 -1223.76 1.56 0.21 1927.81 1225.76 -0.78 -3.48 -298.06 -881.06 -0.46 5.01 -587.83 623.84 -4.02 -4.3 -281.56 -624.52 -0.46 4.02 -456.26z"/>
    </clipPath>
    <clipPath id="id4">
     <path d="M3804.71 5688.11c120.73,-18.2 317.72,-2.42 414.56,43.12 112.73,53.04 181.03,122.9 171.36,290.41 -16.35,282.84 -275.09,313.56 -500.7,305.2 -103.52,-3.84 -79.39,-8.39 -90.48,-25.49l5.26 -613.25zm-3.34 929.29c278.57,10.84 536.96,4.84 724.24,-143.2 156.92,-124.04 252.38,-362.72 201.47,-644.14 -42.77,-236.35 -220.49,-359.06 -459.14,-408.34 -187.92,-38.79 -638.53,-57.8 -806.93,-20.48l3.41 1924.65 335 -1.28 1.95 -707.21z"/>
    </clipPath>
    <clipPath id="id5">
     <path d="M10026.8 5778.48c22.86,-70.43 91.65,-232.9 97.44,-295.39 -153.51,-85.78 -238.72,-112.7 -451.88,-118.53 -635.54,-17.42 -777.46,618.05 -448.26,912.98 191.83,171.82 558.68,235.17 641.62,485.77 66.8,201.89 -81.59,288.25 -260.73,294.79 -213.91,7.75 -287.07,-68.11 -424.12,-139.43 -25.78,24.99 -120.34,268.44 -126.21,298.2 90.66,79.85 290.34,129.76 435.68,139.57 631.27,42.63 903.06,-489.5 617.27,-883.12 -154.33,-212.59 -512.86,-270.64 -669.42,-477.44 -147.46,-194.78 67.02,-445.49 407.48,-311 76.82,30.36 119.17,62.61 181.13,93.61z"/>
    </clipPath>
    <clipPath id="id6">
     <path d="M15223.18 5695.93l614.53 2.7 0.5 1626.98 339.47 -1.1 2.52 -1628.19 640.95 -3.7 -1.46 -296.32 -1596.26 0.72 -0.24 298.91z"/>
    </clipPath>
    <clipPath id="id7">
     <path d="M1964.29 7325.75l1213.7 -1.95 -3.02 -296.07c-152.27,-7.75 -795.45,11.66 -870.61,-6.72l-2.56 -1624.84 -337.8 1.21 0.29 1928.38z"/>
    </clipPath>
    <clipPath id="id8">
     <path d="M14103.12 7325.96l1200.76 -0.07c16.1,-43.23 9.78,-243.31 4.62,-299.09 -128.91,-1.28 -806.32,9.46 -871.59,-5.76l-2.06 -1625.17 -336.38 3.59 4.65 1926.49z"/>
    </clipPath>
    <clipPath id="id9">
     <path d="M12612.19 5423.36l38.43 338.47c124.85,-77.71 231.26,-136.94 429.77,-83.58 492.66,132.5 382.49,969.36 247.97,1153.98l15.68 422.2c87.67,-25.17 197.7,-141.95 245.87,-206.06 213.48,-284.26 250.17,-757.76 154.71,-1089.03 -112.66,-390.91 -370.58,-572.04 -747.27,-593.13 -228.09,-12.76 -261.4,34.42 -385.16,57.13z"/>
    </clipPath>
    <clipPath id="id10">
     <path d="M13332.27 7264.61l-72.77 -333.79c-208.58,177.01 -547.27,191.26 -690.72,-66.3 -116.01,-208.33 -156.96,-606.07 -61.04,-858.48 2.2,-63.32 -49.38,-433.19 -70.67,-466.22 -444.28,321.31 -498.21,1516.06 178.39,1769.25 203.78,76.25 545.6,59.12 716.81,-44.47z"/>
    </clipPath>
    <clipPath id="id11">
     <path d="M5051.76 7274.7c0.14,45.79 -4.48,51.08 42.1,52.33l296.03 -1.88c12.58,-602.55 4.59,-1313.53 0.61,-1928.91l-338.2 4.83 -0.53 1873.63z"/>
    </clipPath>
    <clipPath id="id12">
     <path d="M4135.57 4987.17c48.87,15.16 877.84,5.63 1002.42,5.78l2032.95 0.39c168.45,0.49 336.97,0.31 505.44,0.59 82.76,0.14 174.58,-1.9 251.13,4.32 41.06,3.34 83.3,-1.92 124.97,2.99 33.99,3.99 85.73,8.69 109.64,-5.68 -14.3,-41 -180.71,-61.14 -230.09,-66.38 -35.71,-3.82 -48.62,-20.82 -74.87,-29.49l-171.65 -35.06c-36.1,-6.95 -38.38,-17.29 -74.64,-25.08 -21.08,-4.53 -64.71,-13.87 -85.02,-21.21 -31.41,-11.37 -41.73,-12.67 -79.95,-19.35 -46.71,-8.15 -58.54,-21.66 -94.09,-33.03 -2.92,-0.94 -14.18,-5.17 -20.08,-7.4 -12.58,-4.74 -19.75,-9 -36.96,-12.93 -48.32,-11.04 -43.61,4.05 -87.47,-18.79 -30.55,-15.91 -47.31,-12.44 -77.39,-22.27 -53.55,-17.54 -10.19,-12.27 -83.95,-22.24 -46.47,-6.24 -125.19,-31.2 -158.9,-47.5 -36,-17.39 -51.17,-5.26 -83.66,-16.41 -28.11,-9.63 -41.66,-19.24 -76.37,-28.68 -34.71,-9.45 -31.44,-22.42 -71.17,-28.09 -36.04,-5.17 -51.2,-10.06 -82.35,-23.67 -47.75,-20.88 -128.97,-12.85 -191.3,-12.83l-610.99 -5.53c-48.22,-0.2 -169.83,15.06 -190.22,-17.97 -7.42,-12.02 -9.47,-26.37 -3.07,-42.29l50.1 -79.04c19.37,-25.84 36.99,-45.44 51.99,-75.36l119.32 -187.77c5.24,-10.56 12.09,-20.45 18.67,-30.78l42.04 -58.4c5.98,-9.18 3.09,-4.05 12.11,-14.4l74.16 -103.72c11.07,-15.73 6.8,-20.14 21.06,-34.55 34.36,-34.79 36.66,-60.28 61.66,-88.34l46.86 -58.11c0.88,-1.37 3.32,-5.61 4.26,-6.98l133.54 -216.96c14.87,-17.21 33.67,-38.19 44.96,-54.99 14.67,-21.8 24.14,-41.31 42.04,-63.28l80.22 -126.04c32.86,-52.82 -12.09,-71.62 -3.4,-175.81 2.6,-31.39 -4.3,-156.61 -13.04,-182.71 -34.89,-104.46 -14.75,-108.99 -30.14,-176.13 -6.09,-26.51 -15.02,-45.55 -17.31,-80.04 -2.68,-40.06 3.57,-62.7 -4.94,-101.86 -6.66,-30.63 -5.94,-61.16 -12.97,-87.92 -6.98,-26.66 -18.91,-48.75 -24.77,-79.99 -14.29,-76.02 10.14,-106.39 -21.11,-184.95 -30.22,-75.94 -22.8,-103.25 -41.43,-164.23 -25.45,9.24 -22.04,25.45 -33.69,49.01l-27.6 49.89c-9.02,16.5 -17.85,34.01 -27.62,50.26l-59.44 96.41c-0.57,1.05 -1.41,2.44 -2.01,3.44l-75.28 112.8c-0.99,1.27 -3.84,4.96 -4.8,6.27 -0.72,0.96 -1.62,2.36 -2.32,3.32 -0.7,0.98 -1.58,2.38 -2.3,3.36 -22.15,30.43 -22.82,25.26 -37.5,63.97 -6.62,17.5 -17.93,27.72 -34.44,41.5 -28.69,23.89 -38.98,69.75 -59.47,96.55 -6.37,8.34 -11.27,11.17 -17.19,21.29 -23.14,39.47 -43.58,85.04 -79.05,115.47l-44.61 55.43c-21.84,25.22 -34.94,56.76 -56.94,81.82 -23.65,26.91 -38.71,63.13 -56.95,98.87 -12.88,25.29 -20.74,21.35 -33.01,45.45 -18.23,35.8 -62.27,73.79 -87.35,106.18 -11.21,14.5 -6.95,14.67 -15.12,29.69 -10.17,18.66 -21.78,23.26 -33.53,43.79 -17.87,31.27 -36.76,49.32 -53.62,80.26 -0.6,1.11 -1.34,2.56 -1.95,3.65l-216.93 277.05c-24.22,29.55 -16.5,3.73 -32.52,46.13 -14.59,38.54 -43.75,56.57 -66.39,87.98 -13.71,19.02 -14.46,32.48 -29.32,48.44 -10.25,11.03 -9.09,6.15 -18.32,21.48 -7.53,12.58 -4.75,12.29 -14.04,24.45l-37.72 39.03c-16.99,13.13 -15.16,21.76 -28.88,38.38 -0.72,0.88 -1.84,2.09 -2.56,2.99l-85.57 119.44c-5.17,9.09 -8.9,15.9 -13.91,25.47 -15.17,28.86 -72.27,99.06 -97.66,141.69 -30.86,51.8 -69.89,88.36 -97.82,141.08 -3.69,6.97 -8.96,14.86 -15.67,22.68 -6.44,7.48 -14.22,13.61 -19.66,19.12 -21.92,22.31 -9.65,32.83 -25.3,52.85l-38.65 38.75c-23.81,25.18 -13.05,21.06 -30.08,48.46 -14.38,23.2 -37.62,42.71 -51.12,65.9 -9.84,16.93 -6.05,8.95 -15.58,22.29 -14.57,20.43 -12.07,32.28 -31.74,50.82 -46.31,43.66 -45.08,70.9 -79.32,115.87 -26.96,35.43 -77.88,109.73 -103.84,134.32 -29.57,28.01 -79.2,69.42 -77.87,116.84z"/>
    </clipPath>
    <clipPath id="id13">
     <path d="M7152.11 2280.77c23.6,-10.17 22.89,-11.29 25.78,-40.06 3.63,-36.08 3.05,-21.08 21.23,-38.34l37.32 -58.32c10,-21.74 27.8,-38.05 36.65,-57.66l24.59 -42.11c14.79,-27.09 20.24,-9.47 37.92,-56.07 17.42,-45.85 43.34,-53.21 54.59,-73.21l21.08 -39.73c22.27,-35.51 31.88,-35.51 39.75,-61.82 7.25,-24.28 6.27,-20.18 21.21,-38.09l14.36 -19.37c8.4,-11.13 6.25,-7.44 15.91,-16.94 25.24,-24.89 32.27,-53.03 54.03,-73.72l56.86 -71.33c8.63,-11.76 21.97,-18.36 28.42,-31.68l25.45 -41.86c10.02,-22.15 13.44,-24.8 21.37,-39.96 11.43,-21.87 6.59,-26.21 24.18,-41.78 22.24,-19.72 13.65,-29.14 34.49,-61.09l38.42 -57.16c16.33,-37.95 8.32,-5.46 27.3,-38.77 30.59,-53.72 -16.04,10.82 31.61,-44.23l18.81 -32.85c3.7,-6.49 6,-9.47 10.47,-16.66 16.52,-26.58 68.66,-133.58 81.45,-145.67l73.52 -115.28c9.24,-15.74 12.01,-29.53 21.74,-45.57 13.05,-21.52 12.27,-47.62 28.77,-65.12l15.24 -19.14c28.95,-45.41 57.15,-6.07 46.43,42.62 -8.36,38.07 -22.41,7.73 -25.37,101.14 -1.82,57.32 -20.16,64.34 -26.62,101.16 -6.66,37.91 -2.25,82.99 -12.85,115.86 -24.2,74.87 -11.39,32.95 -19.1,109.59 -3.99,39.94 -16.13,66.84 -23.18,102.98 -6.21,31.94 -2.97,86.74 -16.74,111.43 -36.76,65.96 -17.99,73.64 -44.28,143.76 -6.78,18.12 -5.65,35.7 -10.57,56.43 -7.33,30.94 -23.64,42.56 -33.48,93.01 -7.13,36.65 -21.72,61.96 -29.03,98.96 -8.09,40.9 -20.82,52.87 -28.64,99.83 -7.78,46.7 -30.74,34.28 -28.77,100.59 28.53,-6.99 44.06,-58.09 61.51,-84.16l95.09 -144.66c8.92,-18.18 7.69,-24.65 18.65,-35.78 9.83,-9.98 4.38,-2.13 15.88,-17.89 20.7,-28.36 17.27,-16.15 30.53,-48.4l108.78 -145.83c14.02,-24.83 34.83,-39.51 49.05,-61.84 9.92,-15.6 6.25,-7.71 17.93,-20.49 22.93,-25.14 36.76,-57.86 63.36,-81.24 18.2,-15.98 18.03,-24.53 50.81,-22.27 5.8,14.69 11.6,22.89 21.17,34.92 23.73,29.82 7.01,14.53 20.88,45.27 10.63,23.56 17.21,13.01 26.97,39.4l20.31 47.79c7.56,16.29 6.39,29.59 13.09,48.07 8.96,24.8 17.44,20.96 25.29,40.27 9.94,24.47 4.61,26.82 19.83,47.76 13.85,19.06 10.04,30.12 22.23,44.69 17.89,21.35 14.31,-2.27 22.38,36.72 4.22,20.45 32.15,72.91 44.61,90.03 17.23,23.73 8.11,23.28 19.54,47.66 14.16,30.17 50.63,48.79 17.81,91.19 -25.57,33.03 -8.94,-2.11 -21.39,46.02l-44.42 82.54c-11.27,21.23 -8.34,33.77 -16.25,51.37 -9.9,21.99 -11.98,2.24 -26.57,39.98 -7.17,18.59 -11.81,25.6 -22.15,44.02 -16.87,30.06 -33.11,53.79 -41.27,87.47 -6.49,26.84 -31.02,75.59 -46.31,97.21l-32.5 50.39c-4.94,5.76 -3.79,3.48 -7.78,9.32l-31.35 51.94c-21.52,49.32 -9.84,39.59 -40.31,87.49 -11.86,18.65 -17.46,19.53 -27.21,40.18 -3.44,7.28 -7.5,18.24 -10.25,22.81l-11.72 15.96c-12.54,18.87 -19,32.03 -20.55,58.36 33.3,-5.74 36.9,-20.79 58.09,-49.93 6.36,-8.71 7.13,-7.15 16.11,-16.29 11.56,-11.78 18.2,-23.91 30.51,-36.47 30.02,-30.66 37.46,-52.56 60.49,-72.6 21.85,-18.99 42.13,-49.71 59.82,-73.6 9.75,-13.19 20.37,-23.44 29.97,-36.82 24.98,-34.75 115.71,-123.68 127.72,-156.79 0.7,-1.95 2.54,-10.56 3.4,-13.75 8.07,-29.91 38.77,-47.45 60.45,-71.02 50.06,-54.4 17.45,-4.06 40.42,-55.45 19.88,-7.54 34.69,-7.91 42.81,12.93 3.81,9.83 3.55,17.27 6,27.58 5.31,22.25 1.8,10.27 12.38,27.07 14.48,22.95 10.27,57.4 19.72,85.08 14.42,42.29 25.96,17.99 27.09,82.02 0.76,43.85 1.72,32.3 19.32,55.66 12.34,16.37 8.83,33.8 14.49,56.39 4.73,18.99 19.5,29.9 24.63,46.9 6.21,20.51 0.08,43.61 13.01,61.7 37.58,52.6 29.57,182.08 3.15,240.46 -3.32,7.3 -1.09,0.43 -4.99,11.83 -11.66,33.87 -7.48,61.28 -26.54,101.59 -13.36,28.24 -11.59,34.82 -10.96,74.03 27.56,-4.67 46.21,-20.67 61.42,-42.9 29.71,-43.44 25.3,-28.4 51.63,-46.8 19.96,-13.98 10.48,-21.89 35.17,-35.67l18.29 -10.49c25.43,-15.31 35.13,-30.64 57.25,-43.06l108.6 -86.06c48.25,-50.67 98.72,-98.92 154.9,-139.15 11.97,-8.56 14.38,-10.9 29.39,-20.7 41.67,-27.19 93.42,-84.77 132.35,-117.76 16.1,-13.67 41.67,-31.59 54.11,-46.64 68.11,-82.39 163.6,-57.19 68.69,-199.01 -11.72,-17.54 -14.9,-14.38 -23.22,-26.47 -9.3,-13.52 -6.84,-23.77 -13.42,-36.61l-27.95 -38.67c-0.65,-1.07 -1.49,-2.45 -2.15,-3.5l-48.33 -79.36c-6.36,-9.63 -40.51,-86.15 -69.44,-130.61l-34.18 -65.86c-10.14,-18.89 -8.91,-12.05 -17.11,-33.78 -17.09,-45.35 -52.39,-73.46 -72.6,-120.38 -7.93,-18.4 -11.35,-18.5 -19.33,-31.18 -10.51,-16.72 -5.47,-14.29 -19.63,-30.76 -26.14,-30.41 -10.73,-37.95 -35.82,-64.16 -25.24,-26.39 -33.6,-66.9 -51.94,-97.92l-59.42 -89.21c-11.38,-20.84 -9.94,-8.51 -24.18,-26.74 -0.45,-0.55 -6.9,-12.15 -7.31,-13.07l-28.42 -50.64c-4.82,-7.93 -1.89,-6.35 -10.15,-13.97 -7.88,-7.28 0.43,-3.32 -14.44,-7.24 -1.33,-34.75 -9.94,-48.91 -27.21,-77.23 -9.05,-14.83 -7.95,-21.1 -16.33,-33.91 -16.1,-24.63 -11.27,-1.7 -21.37,-27.3 -9.9,-25.02 -14.82,-46.92 -33.61,-68.44 -37.8,-43.29 -17.03,-38.65 -37.75,-67.37 -13.4,-18.56 -21.95,-49.54 -35.3,-64.85 -11.78,-13.53 -12.38,-16.02 -18.71,-30.18 -10.47,-23.38 -8.67,-16.83 -21.72,-34.53 -15.53,-21.06 -29.91,-34.51 -38.97,-59.67 -12.03,-33.34 -27.5,-26.45 -31.37,-76.35 -32.11,-18.28 -28.88,-31.05 -47.33,-63.24 -8.53,-14.85 -5.21,-15.82 -11.5,-27.43 -15.98,-29.55 -13.77,1.4 -30.06,-41.04 -6.7,-17.46 -2.99,-13.36 -12.85,-27.01 -21.58,-29.88 -12.5,-29.9 -24.76,-47.64l-27.62 -49.12c-6.27,-15 -2.63,-5.94 -6.23,-11.33l-61.66 -116.03c-35.36,-48.12 -56.82,-94.13 -82.94,-144.54 -14.55,-28.12 -21.37,-13.57 -27.37,-49.14 -8.09,-47.97 -13.53,-30.66 -26.35,-47.03 -13.1,-16.67 1.36,-28.09 -21.56,-56.67l-5.1 -6.01c-39.22,-53.05 -47.06,-69.19 -106.45,-109.97 -13.83,-9.48 -105.45,-28.42 -131.14,-26.78 -29.05,1.87 -38.99,9.04 -65.32,14.14 -47.87,9.26 -105.22,57.52 -133.08,94.91 -13.1,17.58 -4.55,11.68 -11.9,27.77 -11.74,25.63 0.7,-1.41 -16.6,21.35l-54.24 95.61c-14.46,16.21 -16.84,28.91 -29.51,48.2l-84.15 143.88c-10.43,21.85 -18.54,25.72 -27.7,50.14 -20.02,53.42 -55.26,96.86 -80.41,147.59l-25.14 46.47c-11.83,13.71 -13.57,33.36 -27.19,50.74 -1.76,2.21 -7.73,8.07 -7.89,8.28 -10.5,12.97 -9,23.58 -18.46,37.95 -5.45,8.28 -10.53,10.78 -17.93,20.31 -23.91,30.8 -28.28,35.05 -40.88,74.95 -9.38,29.75 -43.85,64.65 -57.43,92.53l-49.03 106.84c-5.74,11.12 -7.13,16.02 -11.44,27.29 -6.35,16.64 -50.1,74.77 -66.71,121.3 -6.88,19.35 -21.15,30.04 -28.09,50.08 -4.84,13.92 -4.04,16.17 -11.11,28.57 -7.62,13.42 -5.96,5.7 -13.91,24.73 -4.9,11.79 -4.49,14.33 -9.94,23.77 -25.92,44.92 -39.92,80.94 -72.68,121.84 -14.35,17.93 -5.8,6.48 -12.54,27.48 -7.82,24.36 2.65,3.01 -13.23,24.89 -17.75,24.45 -9.49,27.76 -22.22,50.33 -11.33,20.14 -6.37,5.32 -16.72,21.6l-25.9 52.72c-15.63,30.2 -26.57,55.43 -14.32,89.73 26.1,72.99 18.95,162.27 35.12,270.41 6.57,44.08 24.26,67.99 25.47,123.83 1.34,61.64 1.87,84.34 14.53,140.45z"/>
    </clipPath>
     <clipPath id="id14">
      <path d="M10539.08 2709.03c-14.44,7.6 -18.34,9.13 -36.04,35.96 -13.42,20.31 -10.63,33.44 -9.96,62.09l-66.78 450.41c-10.04,31.28 -13.48,12.66 -16.66,54.83 -3.3,43.83 -4.98,96.36 -11.88,138.5 -9,55.01 -4.82,77.88 33.74,106.04l146.21 109.17c46.84,31.42 44.56,38.46 108.66,80.24l295.81 220.85c18.25,16.72 25.51,16.41 44.95,32.74 19.29,16.21 25.86,13.56 45.39,27.52 14.69,10.51 26.47,24.83 40.57,36.88 16.7,14.25 24.16,12.69 42.74,29.08l122.21 100.08c32.63,23.6 46.5,25.94 87.45,62.58 45.08,40.33 85.1,52.64 165.83,134.09 23.87,24.07 70.08,49.93 119.89,96.73 18.81,17.68 30.37,19.87 44.98,32.84l114.67 107.25c15.64,11.81 30.17,22.27 43.26,34.67 50.54,47.91 76.7,62.19 120.19,96.61 26.03,20.59 18.67,16.23 55.22,23.81l114.15 34.59c29.34,9.88 23.34,16.91 46.89,24.3 22.21,6.99 43.48,4.3 63.89,14.65 30.18,15.31 5.67,11.62 52.95,18.75 25.72,3.87 36.35,7.86 56.72,16.94 40.96,18.21 81.68,12 121.16,28.56 22.93,9.61 32.66,11.23 57.54,14.9 38.95,5.74 26.22,10.49 54.38,21.12 41.84,15.82 148.64,25.84 43.44,-75.5 -7.62,-7.36 -40.94,-55.8 -66.29,-78.11 -14.31,-12.6 -25,-25.1 -37.09,-40.65 -13.89,-17.87 -19.55,-21.95 -34.22,-37.95l-117.23 -138.55c-25.12,-38.79 -6.41,-17.81 -49.89,-60.98l-167.92 -204.46c-19.23,-27.05 -45.24,-45.08 -73.41,-76.27 -12.34,-13.64 -20.31,-25.04 -33.13,-39.13l-206.44 -243.22c-19.35,-19.73 -14.43,-23.28 -29.02,-43.56 -9.55,-13.26 -24.07,-25.55 -34.67,-37.32 -11.83,-13.17 -19.72,-25.43 -32.85,-39.38 -48.5,-51.54 -134.25,-166.16 -172.67,-205.07 -62.37,-63.15 -69.48,-47.6 -131.96,5.04 -21.06,17.75 -82.23,102.04 -103.17,124.61 -43.25,46.62 -57.5,28.5 -93.27,-6.75l-165.36 -200.72c-19.98,-37.33 -35.16,-42.83 -60.28,-90.18l-84.28 -138.72c-25.08,-68.44 -43.42,-33.74 -81.9,-141.63 -9.36,-26.23 -16.17,-23.28 -30.72,-45.47 -5.82,-8.85 -25.82,-39.06 -28.34,-44.24 -13.98,-28.52 5.08,-16.39 -50.2,-99.48 -19.37,-29.08 -11.39,-31.03 -25.45,-46.17 -19.86,-21.41 -9.32,6.35 -32.07,-40.29 -7.42,-15.2 -20.88,-31.53 -31.68,-45.88 -16.9,-22.43 -16.02,-17.39 -25.74,-46.53 -3.4,-10.19 -59.91,-106.02 -75.65,-113.34 -19.77,-9.2 -22.76,1.07 -26.66,3.12z"/>
     </clipPath>
     <clipPath id="id15">
      <path d="M7415.33 4200.29c-32.17,-1.4 -48.48,-34.63 -67.25,-54.01 -21.37,-22.06 -44,-32.8 -66.98,-55.1 -27.44,-26.62 -114.79,-86.45 -168.14,-86.43 0.02,55.04 16.8,53.28 48.31,117.02l62 105.08c50.1,64.09 31.56,114.05 150.46,177.36 31.72,16.91 46.6,15.33 73.75,37.19 26.25,21.14 142.02,77.33 178.37,93.97 13.05,5.98 27.01,8.63 40.16,15.57 15.92,8.42 15.78,11.81 33.99,20.66l183.39 94.48c15.98,10.16 24.22,7.93 40.47,15.71 19.38,9.3 8.13,11.02 35.14,20.35l76.31 34.42c25.3,11.68 75.41,40.12 109.35,51.06 22.87,7.4 21.89,9.77 38.48,17.81l110.65 55.02c15.06,6.86 25.96,7.25 41.6,14.2 45.43,20.12 31.51,16.96 90.83,21.23 69.77,4.99 142.49,4.57 216.65,5.3 80.55,0.82 135.95,6.11 211.19,10.57 275.54,16.31 587.59,15.75 865.66,5.41l-0.51 -27.15c-12.23,-6 -17.97,-5.92 -31.78,-10.25l-20.04 -8.61c-1.07,-0.59 -2.34,-1.55 -3.38,-2.19 -28.3,-16.98 -21.45,-8.85 -49.59,-16.74 -30.01,-8.42 -8.34,-6.9 -31.59,-18.52 -19.37,-9.67 -50.79,-8.85 -78.91,-21.93 -32.29,-15.04 -47.89,-4.65 -74.91,-24.67 -27.12,-20.08 -44.71,-11.06 -73.29,-26.66 -17.7,-9.65 -14.61,-12.27 -31.37,-17.17l-151.33 -50.55c-39.09,-7.8 -12.46,-9.04 -74.48,-25.63 -39.89,-10.68 10.17,-9.55 -71.73,-28.38 -18.77,-4.32 -18.75,-6.37 -36.17,-13.71 -63.13,-26.6 -35.1,3.44 -71.27,-28.09 -14.73,-12.85 -125.15,-39.38 -147.84,-52.19 -46.72,-26.37 -45.2,-5.37 -69.38,-31.23 -29.49,-31.51 -2.95,4.9 -67.33,-30.69l-82.2 -38.32c-15.17,-3.81 -8.46,-0.14 -22.91,-6.6 -16.72,-7.48 -13.48,-9.57 -33.36,-15.45 -11.52,-3.42 -5.51,-0.57 -17.79,-5.26 -26.9,-10.25 -10.98,-11.06 -56.98,-20.84 -49.45,-10.51 -72.15,-39.87 -145.01,-55.71 -21.68,-4.69 -17.97,-6.78 -35.18,-15.23 -16.97,-8.32 -18.96,-5.61 -40.58,-10.04l-70.2 -29.45c-15.75,-7.05 -14.71,-11.27 -33.38,-16.66l-106.2 -43.66c-19.37,-10.02 -14.73,-7.93 -36.77,-13.73l-172.45 -76.95c-14.22,-7.4 -55.24,-19.3 -74.38,-26.55 -21.45,-8.16 -17.17,-9.78 -30.47,-18.77 -16.45,-11.1 -18.25,-7.48 -38.98,-11.96 -26.74,-5.82 -12.81,-5.86 -32.99,-16.52 -14.18,-7.46 -21.66,-6.27 -36.52,-13.73 -17.7,-8.92 -11.15,-10.35 -32.23,-18.24 -57.88,-21.7 -38.44,-26.1 -70.71,-29.95 -21.51,-2.58 -30.51,-0.29 -46.92,-5.74 -2.4,85.34 5.65,55.65 10.43,108.44 3.32,36.84 6.46,79.73 -13.73,98.39z"/>
     </clipPath>
     <clipPath id="id16">
      <path d="M9383.56 4484.55c27.05,27.54 91.03,56.33 131.39,77.5l58.6 30.39c18.58,7.19 16.02,2.62 32.62,11.98 73.27,41.33 24.22,0.25 82.48,45.06 13.97,10.78 11.45,6.55 30.96,12.56 34.32,10.59 80.22,43.17 121.61,56.97 22.68,7.56 37.6,16.98 57.43,26.05l180.08 81.1c42.06,26.93 27.7,12.11 58.01,24.8 55.55,23.26 72.25,26.33 141.9,34.83 27.91,3.4 57.6,1.91 86.15,1.93 234.45,0.16 444.77,14.9 677.64,18.08 233.02,3.19 467.89,-0.25 694.45,-4.39 -1.76,-37.5 -16.12,-27.56 -49.05,-40.29 -27.21,-10.51 -32.6,-21.1 -65.55,-28.97l-31.8 -12.46c-11.31,-7.42 -16.96,-11.59 -33.69,-16.41 -27.62,-7.91 -52.93,-6.11 -75.9,-18.87 -17.09,-9.49 -6.84,-9.09 -28.63,-15.27 -11.7,-3.3 -25.49,-4.22 -37.54,-6.74 -43.89,-9.22 -18.54,-14.79 -69.79,-25.02 -45.2,-9.02 -32.76,-19.92 -66.39,-28.24 -14.38,-3.57 -27.93,-1.91 -40.29,-5.04 -15.96,-4.05 -16.02,-11.86 -28.54,-20.02 -18.94,-12.36 -41.7,-10.02 -65.82,-23.42 -52.17,-29.04 -32.34,-11.58 -68.93,-25.18 -17.54,-6.51 -11.41,-7.89 -30.47,-14.33 -16.7,-5.65 -24.39,-4.1 -39.77,-10.53 -36.19,-15.19 -13.36,-19.75 -66.92,-27.05 -53.7,-7.33 -15.88,-16.51 -100.69,-32.97 -28.09,-5.45 -14.02,-4.73 -32.78,-16.74 -21.39,-13.71 -48.12,-9.77 -72.89,-22.04 -14.69,-7.28 -13.04,-9.94 -29.76,-15.08 -16.06,-4.94 -25.53,-3.65 -41.06,-9 -26.76,-9.22 -26.94,-19.43 -58.62,-28.77 -30.76,-9.09 -44.65,-25.41 -62.46,-31.02 -44.92,-14.16 1.86,7.78 -70.75,-24.26 -100.9,-44.54 -147.86,-0.68 -237.12,3.48 -35.18,1.65 -55.86,-4.44 -92.13,2.87 -30.65,6.19 -52.29,9.63 -86.01,8.57 -58.9,-1.86 -108.66,-6.6 -170.57,1.74 -23.13,3.09 -49.38,13.54 -77.35,17.99 -30.61,4.86 -59.92,0.88 -89.56,4.63 -81.1,10.27 -30,20.47 -167.78,18.3 -36.64,-0.57 -144.03,10.23 -164.7,23.29z"/>
     </clipPath>
  <linearGradient id="id17" gradientUnits="objectBoundingBox" x1="100%" y1="50%" x2="0%" y2="50%">
   <stop offset="0" style="stop-opacity:1; stop-color:#1D4859"/>
   <stop offset="1" style="stop-opacity:1; stop-color:#9DC6CA"/>
  </linearGradient>
  <linearGradient id="id18" gradientUnits="objectBoundingBox" xlink:href="#id17" x1="1.27428e-05%" y1="50%" x2="100%" y2="50%">
  </linearGradient>
  <linearGradient id="id19" gradientUnits="objectBoundingBox" xlink:href="#id17" x1="2.16288e-14%" y1="50%" x2="100%" y2="50%">
  </linearGradient>
 </defs>
 <g id="Layer_x0020_1">
  <metadata id="CorelCorpID_0Corel-Layer"/>
  <g id="_2782066214112">
   <path class="fil0" d="M10886.21 7024.14l-1.67 -663.52c326.1,-25.57 643.96,-15.71 632.7,345.66 -5.15,166.16 -71.53,254.54 -197.34,298.2 -85.82,29.76 -348.08,63.14 -433.68,19.66zm0.53 -1424.55c148.67,-13.65 330.62,-24.46 440.51,49.16 121.12,81.13 147.22,395.93 -172.67,436.25 -31,3.87 -225.82,8.25 -247.37,1.42 -33.34,-10.56 -23.92,16.17 -23.1,-112.7 0.25,-41.74 0.18,-83.55 0.21,-125.32 0.04,-79.14 -4.55,-171.39 2.42,-248.82zm634.22 586.13c24.49,-24.32 57.13,-40.63 88.49,-67.23 255.93,-216.97 162.79,-560.03 -42.48,-699.78 -240.29,-163.64 -704.73,-122.11 -1036.76,-99.22l0.21 2004.39c272.53,16.67 746.74,34.13 998.05,-72.03 443.1,-187.14 429.59,-715.95 206.8,-931.71 -88.27,-85.5 -174.48,-101.71 -214.3,-134.41z"/>
   <g style="clip-path:url(#id0)">
    <g>
     <rect class="fil1" x="-2179.06" y="8404.87" width="19694.53" height="7832.63"/>
    </g>
   </g>
   <path class="fil2" d="M10886.21 7024.14l-1.67 -663.52c326.1,-25.57 643.96,-15.71 632.7,345.66 -5.15,166.16 -71.53,254.54 -197.34,298.2 -85.82,29.76 -348.08,63.14 -433.68,19.66zm0.53 -1424.55c148.67,-13.65 330.62,-24.46 440.51,49.16 121.12,81.13 147.22,395.93 -172.67,436.25 -31,3.87 -225.82,8.25 -247.37,1.42 -33.34,-10.56 -23.92,16.17 -23.1,-112.7 0.25,-41.74 0.18,-83.55 0.21,-125.32 0.04,-79.14 -4.55,-171.39 2.42,-248.82zm634.22 586.13c24.49,-24.32 57.13,-40.63 88.49,-67.23 255.93,-216.97 162.79,-560.03 -42.48,-699.78 -240.29,-163.64 -704.73,-122.11 -1036.76,-99.22l0.21 2004.39c272.53,16.67 746.74,34.13 998.05,-72.03 443.1,-187.14 429.59,-715.95 206.8,-931.71 -88.27,-85.5 -174.48,-101.71 -214.3,-134.41z"/>
   <path class="fil0" d="M6125.96 6138.29c37.97,29.43 686.06,886.42 752.93,971.24 46.71,59.26 82.55,105.66 126.28,163.01 59.97,78.78 53.18,94.88 196.88,74.44l-1.07 -1950.31 -325.19 0.28 -1.53 1152.23c-27.41,-13.94 -439.2,-548.48 -494.51,-617.34 -84.36,-105.05 -160.19,-209.36 -245.54,-313.38 -58.42,-71.14 -150.21,-216.25 -200.76,-222.4 -29.58,-3.59 -101.35,-0.39 -135.31,1.17l0.25 1928.55 324.65 -4.12 2.92 -1183.38z"/>
   <g style="clip-path:url(#id1)">
    <g>
     <rect class="fil1" x="-2179.06" y="8404.87" width="19694.53" height="7832.63"/>
    </g>
   </g>
   <path class="fil2" d="M6125.96 6138.29c37.97,29.43 686.06,886.42 752.93,971.24 46.71,59.26 82.55,105.66 126.28,163.01 59.97,78.78 53.18,94.88 196.88,74.44l-1.07 -1950.31 -325.19 0.28 -1.53 1152.23c-27.41,-13.94 -439.2,-548.48 -494.51,-617.34 -84.36,-105.05 -160.19,-209.36 -245.54,-313.38 -58.42,-71.14 -150.21,-216.25 -200.76,-222.4 -29.58,-3.59 -101.35,-0.39 -135.31,1.17l0.25 1928.55 324.65 -4.12 2.92 -1183.38z"/>
   <path class="fil0" d="M632.84 6639.59c18.45,-99.08 159.45,-488.5 206.9,-641.91 4.69,-15.11 9.13,-32.42 13.36,-44.19l20.73 -40.13c23.85,35.44 222.16,646.56 241.71,728.29l-482.71 -2.06zm-107.15 275.27l696.58 4.3 143.27 406.1 391.09 -1.56 -804.62 -2036.78 -156.04 1.35 -795.98 2037.41 389.53 -2.45 136.16 -408.37z"/>
   <g style="clip-path:url(#id2)">
    <g>
     <rect class="fil1" x="-2179.06" y="8404.87" width="19694.53" height="7832.63"/>
    </g>
   </g>
   <path class="fil2" d="M632.84 6639.59c18.45,-99.08 159.45,-488.5 206.9,-641.91 4.69,-15.11 9.13,-32.42 13.36,-44.19l20.73 -40.13c23.85,35.44 222.16,646.56 241.71,728.29l-482.71 -2.06zm-107.15 275.27l696.58 4.3 143.27 406.1 391.09 -1.56 -804.62 -2036.78 -156.04 1.35 -795.98 2037.41 389.53 -2.45 136.16 -408.37z"/>
   <polygon class="fil0" points="7946.58,5696.18 8826.92,5695.19 8824.86,5396.24 7601.1,5397.8 7601.31,7325.61 8827.07,7324.83 8823.59,7026.77 7942.53,7026.31 7947.55,6438.48 8571.39,6434.46 8567.09,6152.9 7942.56,6152.44 "/>
   <g style="clip-path:url(#id3)">
    <g>
     <rect class="fil1" x="-2179.06" y="8404.87" width="19694.53" height="7832.63"/>
    </g>
   </g>
   <polygon class="fil2" points="7946.58,5696.18 8826.92,5695.19 8824.86,5396.24 7601.1,5397.8 7601.31,7325.61 8827.07,7324.83 8823.59,7026.77 7942.53,7026.31 7947.55,6438.48 8571.39,6434.46 8567.09,6152.9 7942.56,6152.44 "/>
   <path class="fil0" d="M3804.71 5688.11c120.73,-18.2 317.72,-2.42 414.56,43.12 112.73,53.04 181.03,122.9 171.36,290.41 -16.35,282.84 -275.09,313.56 -500.7,305.2 -103.52,-3.84 -79.39,-8.39 -90.48,-25.49l5.26 -613.25zm-3.34 929.29c278.57,10.84 536.96,4.84 724.24,-143.2 156.92,-124.04 252.38,-362.72 201.47,-644.14 -42.77,-236.35 -220.49,-359.06 -459.14,-408.34 -187.92,-38.79 -638.53,-57.8 -806.93,-20.48l3.41 1924.65 335 -1.28 1.95 -707.21z"/>
   <g style="clip-path:url(#id4)">
    <g>
     <rect class="fil1" x="-2179.06" y="8404.87" width="19694.53" height="7832.63"/>
    </g>
   </g>
   <path class="fil2" d="M3804.71 5688.11c120.73,-18.2 317.72,-2.42 414.56,43.12 112.73,53.04 181.03,122.9 171.36,290.41 -16.35,282.84 -275.09,313.56 -500.7,305.2 -103.52,-3.84 -79.39,-8.39 -90.48,-25.49l5.26 -613.25zm-3.34 929.29c278.57,10.84 536.96,4.84 724.24,-143.2 156.92,-124.04 252.38,-362.72 201.47,-644.14 -42.77,-236.35 -220.49,-359.06 -459.14,-408.34 -187.92,-38.79 -638.53,-57.8 -806.93,-20.48l3.41 1924.65 335 -1.28 1.95 -707.21z"/>
   <path class="fil0" d="M10026.8 5778.48c22.86,-70.43 91.65,-232.9 97.44,-295.39 -153.51,-85.78 -238.72,-112.7 -451.88,-118.53 -635.54,-17.42 -777.46,618.05 -448.26,912.98 191.83,171.82 558.68,235.17 641.62,485.77 66.8,201.89 -81.59,288.25 -260.73,294.79 -213.91,7.75 -287.07,-68.11 -424.12,-139.43 -25.78,24.99 -120.34,268.44 -126.21,298.2 90.66,79.85 290.34,129.76 435.68,139.57 631.27,42.63 903.06,-489.5 617.27,-883.12 -154.33,-212.59 -512.86,-270.64 -669.42,-477.44 -147.46,-194.78 67.02,-445.49 407.48,-311 76.82,30.36 119.17,62.61 181.13,93.61z"/>
   <g style="clip-path:url(#id5)">
    <g>
     <rect class="fil1" x="-2179.06" y="8404.87" width="19694.53" height="7832.63"/>
    </g>
   </g>
   <path class="fil2" d="M10026.8 5778.48c22.86,-70.43 91.65,-232.9 97.44,-295.39 -153.51,-85.78 -238.72,-112.7 -451.88,-118.53 -635.54,-17.42 -777.46,618.05 -448.26,912.98 191.83,171.82 558.68,235.17 641.62,485.77 66.8,201.89 -81.59,288.25 -260.73,294.79 -213.91,7.75 -287.07,-68.11 -424.12,-139.43 -25.78,24.99 -120.34,268.44 -126.21,298.2 90.66,79.85 290.34,129.76 435.68,139.57 631.27,42.63 903.06,-489.5 617.27,-883.12 -154.33,-212.59 -512.86,-270.64 -669.42,-477.44 -147.46,-194.78 67.02,-445.49 407.48,-311 76.82,30.36 119.17,62.61 181.13,93.61z"/>
   <polygon class="fil0" points="15223.18,5695.93 15837.71,5698.63 15838.21,7325.61 16177.68,7324.51 16180.2,5696.32 16821.15,5692.63 16819.69,5396.31 15223.43,5397.02 "/>
   <g style="clip-path:url(#id6)">
    <g>
     <rect class="fil1" x="-2179.06" y="8404.87" width="19694.53" height="7832.63"/>
    </g>
   </g>
   <polygon class="fil2" points="15223.18,5695.93 15837.71,5698.63 15838.21,7325.61 16177.68,7324.51 16180.2,5696.32 16821.15,5692.63 16819.69,5396.31 15223.43,5397.02 "/>
   <path class="fil0" d="M1964.29 7325.75l1213.7 -1.95 -3.02 -296.07c-152.27,-7.75 -795.45,11.66 -870.61,-6.72l-2.56 -1624.84 -337.8 1.21 0.29 1928.38z"/>
   <g style="clip-path:url(#id7)">
    <g>
     <rect class="fil1" x="-2179.06" y="8404.87" width="19694.53" height="7832.63"/>
    </g>
   </g>
   <path class="fil2" d="M1964.29 7325.75l1213.7 -1.95 -3.02 -296.07c-152.27,-7.75 -795.45,11.66 -870.61,-6.72l-2.56 -1624.84 -337.8 1.21 0.29 1928.38z"/>
   <path class="fil0" d="M14103.12 7325.96l1200.76 -0.07c16.1,-43.23 9.78,-243.31 4.62,-299.09 -128.91,-1.28 -806.32,9.46 -871.59,-5.76l-2.06 -1625.17 -336.38 3.59 4.65 1926.49z"/>
   <g style="clip-path:url(#id8)">
    <g>
     <rect class="fil1" x="-2179.06" y="8404.87" width="19694.53" height="7832.63"/>
    </g>
   </g>
   <path class="fil2" d="M14103.12 7325.96l1200.76 -0.07c16.1,-43.23 9.78,-243.31 4.62,-299.09 -128.91,-1.28 -806.32,9.46 -871.59,-5.76l-2.06 -1625.17 -336.38 3.59 4.65 1926.49z"/>
   <path class="fil3" d="M12612.19 5423.36l38.43 338.47c124.85,-77.71 231.26,-136.94 429.77,-83.58 492.66,132.5 382.49,969.36 247.97,1153.98l15.68 422.2c87.67,-25.17 197.7,-141.95 245.87,-206.06 213.48,-284.26 250.17,-757.76 154.71,-1089.03 -112.66,-390.91 -370.58,-572.04 -747.27,-593.13 -228.09,-12.76 -261.4,34.42 -385.16,57.13z"/>
   <g style="clip-path:url(#id9)">
    <g>
     <rect class="fil1" x="-2179.06" y="8404.87" width="19694.53" height="7832.63"/>
    </g>
   </g>
   <path class="fil2" d="M12612.19 5423.36l38.43 338.47c124.85,-77.71 231.26,-136.94 429.77,-83.58 492.66,132.5 382.49,969.36 247.97,1153.98l15.68 422.2c87.67,-25.17 197.7,-141.95 245.87,-206.06 213.48,-284.26 250.17,-757.76 154.71,-1089.03 -112.66,-390.91 -370.58,-572.04 -747.27,-593.13 -228.09,-12.76 -261.4,34.42 -385.16,57.13z"/>
   <path class="fil0" d="M13332.27 7264.61l-72.77 -333.79c-208.58,177.01 -547.27,191.26 -690.72,-66.3 -116.01,-208.33 -156.96,-606.07 -61.04,-858.48 2.2,-63.32 -49.38,-433.19 -70.67,-466.22 -444.28,321.31 -498.21,1516.06 178.39,1769.25 203.78,76.25 545.6,59.12 716.81,-44.47z"/>
   <g style="clip-path:url(#id10)">
    <g>
     <rect class="fil1" x="-2179.06" y="8404.87" width="19694.53" height="7832.63"/>
    </g>
   </g>
   <path class="fil2" d="M13332.27 7264.61l-72.77 -333.79c-208.58,177.01 -547.27,191.26 -690.72,-66.3 -116.01,-208.33 -156.96,-606.07 -61.04,-858.48 2.2,-63.32 -49.38,-433.19 -70.67,-466.22 -444.28,321.31 -498.21,1516.06 178.39,1769.25 203.78,76.25 545.6,59.12 716.81,-44.47z"/>
   <path class="fil0" d="M5051.76 7274.7c0.14,45.79 -4.48,51.08 42.1,52.33l296.03 -1.88c12.58,-602.55 4.59,-1313.53 0.61,-1928.91l-338.2 4.83 -0.53 1873.63z"/>
   <g style="clip-path:url(#id11)">
    <g>
     <rect class="fil1" x="-2179.06" y="8404.87" width="19694.53" height="7832.63"/>
    </g>
   </g>
   <path class="fil2" d="M5051.76 7274.7c0.14,45.79 -4.48,51.08 42.1,52.33l296.03 -1.88c12.58,-602.55 4.59,-1313.53 0.61,-1928.91l-338.2 4.83 -0.53 1873.63z"/>
  </g>
  <path class="fil4" d="M12436.03 5550.12c21.29,33.03 72.88,402.9 70.67,466.22 23.07,32.81 58.8,344.3 67.58,410.5 51.41,-14.65 251.06,-198.73 317.71,-223.47l68.9 637.89c75.08,-11.38 180.28,-103.49 256.78,-114.68 13.65,33.42 41.35,176.44 40.78,214.54l72.77 333.79 11.77 -10.17 -15.68 -422.2 -18.7 -360.55c-63.49,22.89 -172.49,126.56 -234.42,140.18 -11.09,-102.07 -52.83,-602.8 -78.14,-652.43 -87.77,25.81 -227.7,160.79 -307.09,178.96l-39.39 -376.56 -38.43 -338.47 -19.87 -62.78c-53.79,27.62 -97.8,72.17 -151.66,104.74l-3.59 74.51z"/>
  <g id="_2782066217328">
   <path class="fil0" d="M4135.57 4987.17c48.87,15.16 877.84,5.63 1002.42,5.78l2032.95 0.39c168.45,0.49 336.97,0.31 505.44,0.59 82.76,0.14 174.58,-1.9 251.13,4.32 41.06,3.34 83.3,-1.92 124.97,2.99 33.99,3.99 85.73,8.69 109.64,-5.68 -14.3,-41 -180.71,-61.14 -230.09,-66.38 -35.71,-3.82 -48.62,-20.82 -74.87,-29.49l-171.65 -35.06c-36.1,-6.95 -38.38,-17.29 -74.64,-25.08 -21.08,-4.53 -64.71,-13.87 -85.02,-21.21 -31.41,-11.37 -41.73,-12.67 -79.95,-19.35 -46.71,-8.15 -58.54,-21.66 -94.09,-33.03 -2.92,-0.94 -14.18,-5.17 -20.08,-7.4 -12.58,-4.74 -19.75,-9 -36.96,-12.93 -48.32,-11.04 -43.61,4.05 -87.47,-18.79 -30.55,-15.91 -47.31,-12.44 -77.39,-22.27 -53.55,-17.54 -10.19,-12.27 -83.95,-22.24 -46.47,-6.24 -125.19,-31.2 -158.9,-47.5 -36,-17.39 -51.17,-5.26 -83.66,-16.41 -28.11,-9.63 -41.66,-19.24 -76.37,-28.68 -34.71,-9.45 -31.44,-22.42 -71.17,-28.09 -36.04,-5.17 -51.2,-10.06 -82.35,-23.67 -47.75,-20.88 -128.97,-12.85 -191.3,-12.83l-610.99 -5.53c-48.22,-0.2 -169.83,15.06 -190.22,-17.97 -7.42,-12.02 -9.47,-26.37 -3.07,-42.29l50.1 -79.04c19.37,-25.84 36.99,-45.44 51.99,-75.36l119.32 -187.77c5.24,-10.56 12.09,-20.45 18.67,-30.78l42.04 -58.4c5.98,-9.18 3.09,-4.05 12.11,-14.4l74.16 -103.72c11.07,-15.73 6.8,-20.14 21.06,-34.55 34.36,-34.79 36.66,-60.28 61.66,-88.34l46.86 -58.11c0.88,-1.37 3.32,-5.61 4.26,-6.98l133.54 -216.96c14.87,-17.21 33.67,-38.19 44.96,-54.99 14.67,-21.8 24.14,-41.31 42.04,-63.28l80.22 -126.04c32.86,-52.82 -12.09,-71.62 -3.4,-175.81 2.6,-31.39 -4.3,-156.61 -13.04,-182.71 -34.89,-104.46 -14.75,-108.99 -30.14,-176.13 -6.09,-26.51 -15.02,-45.55 -17.31,-80.04 -2.68,-40.06 3.57,-62.7 -4.94,-101.86 -6.66,-30.63 -5.94,-61.16 -12.97,-87.92 -6.98,-26.66 -18.91,-48.75 -24.77,-79.99 -14.29,-76.02 10.14,-106.39 -21.11,-184.95 -30.22,-75.94 -22.8,-103.25 -41.43,-164.23 -25.45,9.24 -22.04,25.45 -33.69,49.01l-27.6 49.89c-9.02,16.5 -17.85,34.01 -27.62,50.26l-59.44 96.41c-0.57,1.05 -1.41,2.44 -2.01,3.44l-75.28 112.8c-0.99,1.27 -3.84,4.96 -4.8,6.27 -0.72,0.96 -1.62,2.36 -2.32,3.32 -0.7,0.98 -1.58,2.38 -2.3,3.36 -22.15,30.43 -22.82,25.26 -37.5,63.97 -6.62,17.5 -17.93,27.72 -34.44,41.5 -28.69,23.89 -38.98,69.75 -59.47,96.55 -6.37,8.34 -11.27,11.17 -17.19,21.29 -23.14,39.47 -43.58,85.04 -79.05,115.47l-44.61 55.43c-21.84,25.22 -34.94,56.76 -56.94,81.82 -23.65,26.91 -38.71,63.13 -56.95,98.87 -12.88,25.29 -20.74,21.35 -33.01,45.45 -18.23,35.8 -62.27,73.79 -87.35,106.18 -11.21,14.5 -6.95,14.67 -15.12,29.69 -10.17,18.66 -21.78,23.26 -33.53,43.79 -17.87,31.27 -36.76,49.32 -53.62,80.26 -0.6,1.11 -1.34,2.56 -1.95,3.65l-216.93 277.05c-24.22,29.55 -16.5,3.73 -32.52,46.13 -14.59,38.54 -43.75,56.57 -66.39,87.98 -13.71,19.02 -14.46,32.48 -29.32,48.44 -10.25,11.03 -9.09,6.15 -18.32,21.48 -7.53,12.58 -4.75,12.29 -14.04,24.45l-37.72 39.03c-16.99,13.13 -15.16,21.76 -28.88,38.38 -0.72,0.88 -1.84,2.09 -2.56,2.99l-85.57 119.44c-5.17,9.09 -8.9,15.9 -13.91,25.47 -15.17,28.86 -72.27,99.06 -97.66,141.69 -30.86,51.8 -69.89,88.36 -97.82,141.08 -3.69,6.97 -8.96,14.86 -15.67,22.68 -6.44,7.48 -14.22,13.61 -19.66,19.12 -21.92,22.31 -9.65,32.83 -25.3,52.85l-38.65 38.75c-23.81,25.18 -13.05,21.06 -30.08,48.46 -14.38,23.2 -37.62,42.71 -51.12,65.9 -9.84,16.93 -6.05,8.95 -15.58,22.29 -14.57,20.43 -12.07,32.28 -31.74,50.82 -46.31,43.66 -45.08,70.9 -79.32,115.87 -26.96,35.43 -77.88,109.73 -103.84,134.32 -29.57,28.01 -79.2,69.42 -77.87,116.84z"/>
   <g style="clip-path:url(#id12)">
    <g>
     <rect class="fil5" x="-3701.04" y="-9855.57" width="5130.24" height="4514.54"/>
    </g>
   </g>
   <path class="fil2" d="M4135.57 4987.17c48.87,15.16 877.84,5.63 1002.42,5.78l2032.95 0.39c168.45,0.49 336.97,0.31 505.44,0.59 82.76,0.14 174.58,-1.9 251.13,4.32 41.06,3.34 83.3,-1.92 124.97,2.99 33.99,3.99 85.73,8.69 109.64,-5.68 -14.3,-41 -180.71,-61.14 -230.09,-66.38 -35.71,-3.82 -48.62,-20.82 -74.87,-29.49l-171.65 -35.06c-36.1,-6.95 -38.38,-17.29 -74.64,-25.08 -21.08,-4.53 -64.71,-13.87 -85.02,-21.21 -31.41,-11.37 -41.73,-12.67 -79.95,-19.35 -46.71,-8.15 -58.54,-21.66 -94.09,-33.03 -2.92,-0.94 -14.18,-5.17 -20.08,-7.4 -12.58,-4.74 -19.75,-9 -36.96,-12.93 -48.32,-11.04 -43.61,4.05 -87.47,-18.79 -30.55,-15.91 -47.31,-12.44 -77.39,-22.27 -53.55,-17.54 -10.19,-12.27 -83.95,-22.24 -46.47,-6.24 -125.19,-31.2 -158.9,-47.5 -36,-17.39 -51.17,-5.26 -83.66,-16.41 -28.11,-9.63 -41.66,-19.24 -76.37,-28.68 -34.71,-9.45 -31.44,-22.42 -71.17,-28.09 -36.04,-5.17 -51.2,-10.06 -82.35,-23.67 -47.75,-20.88 -128.97,-12.85 -191.3,-12.83l-610.99 -5.53c-48.22,-0.2 -169.83,15.06 -190.22,-17.97 -7.42,-12.02 -9.47,-26.37 -3.07,-42.29l50.1 -79.04c19.37,-25.84 36.99,-45.44 51.99,-75.36l119.32 -187.77c5.24,-10.56 12.09,-20.45 18.67,-30.78l42.04 -58.4c5.98,-9.18 3.09,-4.05 12.11,-14.4l74.16 -103.72c11.07,-15.73 6.8,-20.14 21.06,-34.55 34.36,-34.79 36.66,-60.28 61.66,-88.34l46.86 -58.11c0.88,-1.37 3.32,-5.61 4.26,-6.98l133.54 -216.96c14.87,-17.21 33.67,-38.19 44.96,-54.99 14.67,-21.8 24.14,-41.31 42.04,-63.28l80.22 -126.04c32.86,-52.82 -12.09,-71.62 -3.4,-175.81 2.6,-31.39 -4.3,-156.61 -13.04,-182.71 -34.89,-104.46 -14.75,-108.99 -30.14,-176.13 -6.09,-26.51 -15.02,-45.55 -17.31,-80.04 -2.68,-40.06 3.57,-62.7 -4.94,-101.86 -6.66,-30.63 -5.94,-61.16 -12.97,-87.92 -6.98,-26.66 -18.91,-48.75 -24.77,-79.99 -14.29,-76.02 10.14,-106.39 -21.11,-184.95 -30.22,-75.94 -22.8,-103.25 -41.43,-164.23 -25.45,9.24 -22.04,25.45 -33.69,49.01l-27.6 49.89c-9.02,16.5 -17.85,34.01 -27.62,50.26l-59.44 96.41c-0.57,1.05 -1.41,2.44 -2.01,3.44l-75.28 112.8c-0.99,1.27 -3.84,4.96 -4.8,6.27 -0.72,0.96 -1.62,2.36 -2.32,3.32 -0.7,0.98 -1.58,2.38 -2.3,3.36 -22.15,30.43 -22.82,25.26 -37.5,63.97 -6.62,17.5 -17.93,27.72 -34.44,41.5 -28.69,23.89 -38.98,69.75 -59.47,96.55 -6.37,8.34 -11.27,11.17 -17.19,21.29 -23.14,39.47 -43.58,85.04 -79.05,115.47l-44.61 55.43c-21.84,25.22 -34.94,56.76 -56.94,81.82 -23.65,26.91 -38.71,63.13 -56.95,98.87 -12.88,25.29 -20.74,21.35 -33.01,45.45 -18.23,35.8 -62.27,73.79 -87.35,106.18 -11.21,14.5 -6.95,14.67 -15.12,29.69 -10.17,18.66 -21.78,23.26 -33.53,43.79 -17.87,31.27 -36.76,49.32 -53.62,80.26 -0.6,1.11 -1.34,2.56 -1.95,3.65l-216.93 277.05c-24.22,29.55 -16.5,3.73 -32.52,46.13 -14.59,38.54 -43.75,56.57 -66.39,87.98 -13.71,19.02 -14.46,32.48 -29.32,48.44 -10.25,11.03 -9.09,6.15 -18.32,21.48 -7.53,12.58 -4.75,12.29 -14.04,24.45l-37.72 39.03c-16.99,13.13 -15.16,21.76 -28.88,38.38 -0.72,0.88 -1.84,2.09 -2.56,2.99l-85.57 119.44c-5.17,9.09 -8.9,15.9 -13.91,25.47 -15.17,28.86 -72.27,99.06 -97.66,141.69 -30.86,51.8 -69.89,88.36 -97.82,141.08 -3.69,6.97 -8.96,14.86 -15.67,22.68 -6.44,7.48 -14.22,13.61 -19.66,19.12 -21.92,22.31 -9.65,32.83 -25.3,52.85l-38.65 38.75c-23.81,25.18 -13.05,21.06 -30.08,48.46 -14.38,23.2 -37.62,42.71 -51.12,65.9 -9.84,16.93 -6.05,8.95 -15.58,22.29 -14.57,20.43 -12.07,32.28 -31.74,50.82 -46.31,43.66 -45.08,70.9 -79.32,115.87 -26.96,35.43 -77.88,109.73 -103.84,134.32 -29.57,28.01 -79.2,69.42 -77.87,116.84z"/>
   <path class="fil3" d="M7152.11 2280.77c23.6,-10.17 22.89,-11.29 25.78,-40.06 3.63,-36.08 3.05,-21.08 21.23,-38.34l37.32 -58.32c10,-21.74 27.8,-38.05 36.65,-57.66l24.59 -42.11c14.79,-27.09 20.24,-9.47 37.92,-56.07 17.42,-45.85 43.34,-53.21 54.59,-73.21l21.08 -39.73c22.27,-35.51 31.88,-35.51 39.75,-61.82 7.25,-24.28 6.27,-20.18 21.21,-38.09l14.36 -19.37c8.4,-11.13 6.25,-7.44 15.91,-16.94 25.24,-24.89 32.27,-53.03 54.03,-73.72l56.86 -71.33c8.63,-11.76 21.97,-18.36 28.42,-31.68l25.45 -41.86c10.02,-22.15 13.44,-24.8 21.37,-39.96 11.43,-21.87 6.59,-26.21 24.18,-41.78 22.24,-19.72 13.65,-29.14 34.49,-61.09l38.42 -57.16c16.33,-37.95 8.32,-5.46 27.3,-38.77 30.59,-53.72 -16.04,10.82 31.61,-44.23l18.81 -32.85c3.7,-6.49 6,-9.47 10.47,-16.66 16.52,-26.58 68.66,-133.58 81.45,-145.67l73.52 -115.28c9.24,-15.74 12.01,-29.53 21.74,-45.57 13.05,-21.52 12.27,-47.62 28.77,-65.12l15.24 -19.14c28.95,-45.41 57.15,-6.07 46.43,42.62 -8.36,38.07 -22.41,7.73 -25.37,101.14 -1.82,57.32 -20.16,64.34 -26.62,101.16 -6.66,37.91 -2.25,82.99 -12.85,115.86 -24.2,74.87 -11.39,32.95 -19.1,109.59 -3.99,39.94 -16.13,66.84 -23.18,102.98 -6.21,31.94 -2.97,86.74 -16.74,111.43 -36.76,65.96 -17.99,73.64 -44.28,143.76 -6.78,18.12 -5.65,35.7 -10.57,56.43 -7.33,30.94 -23.64,42.56 -33.48,93.01 -7.13,36.65 -21.72,61.96 -29.03,98.96 -8.09,40.9 -20.82,52.87 -28.64,99.83 -7.78,46.7 -30.74,34.28 -28.77,100.59 28.53,-6.99 44.06,-58.09 61.51,-84.16l95.09 -144.66c8.92,-18.18 7.69,-24.65 18.65,-35.78 9.83,-9.98 4.38,-2.13 15.88,-17.89 20.7,-28.36 17.27,-16.15 30.53,-48.4l108.78 -145.83c14.02,-24.83 34.83,-39.51 49.05,-61.84 9.92,-15.6 6.25,-7.71 17.93,-20.49 22.93,-25.14 36.76,-57.86 63.36,-81.24 18.2,-15.98 18.03,-24.53 50.81,-22.27 5.8,14.69 11.6,22.89 21.17,34.92 23.73,29.82 7.01,14.53 20.88,45.27 10.63,23.56 17.21,13.01 26.97,39.4l20.31 47.79c7.56,16.29 6.39,29.59 13.09,48.07 8.96,24.8 17.44,20.96 25.29,40.27 9.94,24.47 4.61,26.82 19.83,47.76 13.85,19.06 10.04,30.12 22.23,44.69 17.89,21.35 14.31,-2.27 22.38,36.72 4.22,20.45 32.15,72.91 44.61,90.03 17.23,23.73 8.11,23.28 19.54,47.66 14.16,30.17 50.63,48.79 17.81,91.19 -25.57,33.03 -8.94,-2.11 -21.39,46.02l-44.42 82.54c-11.27,21.23 -8.34,33.77 -16.25,51.37 -9.9,21.99 -11.98,2.24 -26.57,39.98 -7.17,18.59 -11.81,25.6 -22.15,44.02 -16.87,30.06 -33.11,53.79 -41.27,87.47 -6.49,26.84 -31.02,75.59 -46.31,97.21l-32.5 50.39c-4.94,5.76 -3.79,3.48 -7.78,9.32l-31.35 51.94c-21.52,49.32 -9.84,39.59 -40.31,87.49 -11.86,18.65 -17.46,19.53 -27.21,40.18 -3.44,7.28 -7.5,18.24 -10.25,22.81l-11.72 15.96c-12.54,18.87 -19,32.03 -20.55,58.36 33.3,-5.74 36.9,-20.79 58.09,-49.93 6.36,-8.71 7.13,-7.15 16.11,-16.29 11.56,-11.78 18.2,-23.91 30.51,-36.47 30.02,-30.66 37.46,-52.56 60.49,-72.6 21.85,-18.99 42.13,-49.71 59.82,-73.6 9.75,-13.19 20.37,-23.44 29.97,-36.82 24.98,-34.75 115.71,-123.68 127.72,-156.79 0.7,-1.95 2.54,-10.56 3.4,-13.75 8.07,-29.91 38.77,-47.45 60.45,-71.02 50.06,-54.4 17.45,-4.06 40.42,-55.45 19.88,-7.54 34.69,-7.91 42.81,12.93 3.81,9.83 3.55,17.27 6,27.58 5.31,22.25 1.8,10.27 12.38,27.07 14.48,22.95 10.27,57.4 19.72,85.08 14.42,42.29 25.96,17.99 27.09,82.02 0.76,43.85 1.72,32.3 19.32,55.66 12.34,16.37 8.83,33.8 14.49,56.39 4.73,18.99 19.5,29.9 24.63,46.9 6.21,20.51 0.08,43.61 13.01,61.7 37.58,52.6 29.57,182.08 3.15,240.46 -3.32,7.3 -1.09,0.43 -4.99,11.83 -11.66,33.87 -7.48,61.28 -26.54,101.59 -13.36,28.24 -11.59,34.82 -10.96,74.03 27.56,-4.67 46.21,-20.67 61.42,-42.9 29.71,-43.44 25.3,-28.4 51.63,-46.8 19.96,-13.98 10.48,-21.89 35.17,-35.67l18.29 -10.49c25.43,-15.31 35.13,-30.64 57.25,-43.06l108.6 -86.06c48.25,-50.67 98.72,-98.92 154.9,-139.15 11.97,-8.56 14.38,-10.9 29.39,-20.7 41.67,-27.19 93.42,-84.77 132.35,-117.76 16.1,-13.67 41.67,-31.59 54.11,-46.64 68.11,-82.39 163.6,-57.19 68.69,-199.01 -11.72,-17.54 -14.9,-14.38 -23.22,-26.47 -9.3,-13.52 -6.84,-23.77 -13.42,-36.61l-27.95 -38.67c-0.65,-1.07 -1.49,-2.45 -2.15,-3.5l-48.33 -79.36c-6.36,-9.63 -40.51,-86.15 -69.44,-130.61l-34.18 -65.86c-10.14,-18.89 -8.91,-12.05 -17.11,-33.78 -17.09,-45.35 -52.39,-73.46 -72.6,-120.38 -7.93,-18.4 -11.35,-18.5 -19.33,-31.18 -10.51,-16.72 -5.47,-14.29 -19.63,-30.76 -26.14,-30.41 -10.73,-37.95 -35.82,-64.16 -25.24,-26.39 -33.6,-66.9 -51.94,-97.92l-59.42 -89.21c-11.38,-20.84 -9.94,-8.51 -24.18,-26.74 -0.45,-0.55 -6.9,-12.15 -7.31,-13.07l-28.42 -50.64c-4.82,-7.93 -1.89,-6.35 -10.15,-13.97 -7.88,-7.28 0.43,-3.32 -14.44,-7.24 -1.33,-34.75 -9.94,-48.91 -27.21,-77.23 -9.05,-14.83 -7.95,-21.1 -16.33,-33.91 -16.1,-24.63 -11.27,-1.7 -21.37,-27.3 -9.9,-25.02 -14.82,-46.92 -33.61,-68.44 -37.8,-43.29 -17.03,-38.65 -37.75,-67.37 -13.4,-18.56 -21.95,-49.54 -35.3,-64.85 -11.78,-13.53 -12.38,-16.02 -18.71,-30.18 -10.47,-23.38 -8.67,-16.83 -21.72,-34.53 -15.53,-21.06 -29.91,-34.51 -38.97,-59.67 -12.03,-33.34 -27.5,-26.45 -31.37,-76.35 -32.11,-18.28 -28.88,-31.05 -47.33,-63.24 -8.53,-14.85 -5.21,-15.82 -11.5,-27.43 -15.98,-29.55 -13.77,1.4 -30.06,-41.04 -6.7,-17.46 -2.99,-13.36 -12.85,-27.01 -21.58,-29.88 -12.5,-29.9 -24.76,-47.64l-27.62 -49.12c-6.27,-15 -2.63,-5.94 -6.23,-11.33l-61.66 -116.03c-35.36,-48.12 -56.82,-94.13 -82.94,-144.54 -14.55,-28.12 -21.37,-13.57 -27.37,-49.14 -8.09,-47.97 -13.53,-30.66 -26.35,-47.03 -13.1,-16.67 1.36,-28.09 -21.56,-56.67l-5.1 -6.01c-39.22,-53.05 -47.06,-69.19 -106.45,-109.97 -13.83,-9.48 -105.45,-28.42 -131.14,-26.78 -29.05,1.87 -38.99,9.04 -65.32,14.14 -47.87,9.26 -105.22,57.52 -133.08,94.91 -13.1,17.58 -4.55,11.68 -11.9,27.77 -11.74,25.63 0.7,-1.41 -16.6,21.35l-54.24 95.61c-14.46,16.21 -16.84,28.91 -29.51,48.2l-84.15 143.88c-10.43,21.85 -18.54,25.72 -27.7,50.14 -20.02,53.42 -55.26,96.86 -80.41,147.59l-25.14 46.47c-11.83,13.71 -13.57,33.36 -27.19,50.74 -1.76,2.21 -7.73,8.07 -7.89,8.28 -10.5,12.97 -9,23.58 -18.46,37.95 -5.45,8.28 -10.53,10.78 -17.93,20.31 -23.91,30.8 -28.28,35.05 -40.88,74.95 -9.38,29.75 -43.85,64.65 -57.43,92.53l-49.03 106.84c-5.74,11.12 -7.13,16.02 -11.44,27.29 -6.35,16.64 -50.1,74.77 -66.71,121.3 -6.88,19.35 -21.15,30.04 -28.09,50.08 -4.84,13.92 -4.04,16.17 -11.11,28.57 -7.62,13.42 -5.96,5.7 -13.91,24.73 -4.9,11.79 -4.49,14.33 -9.94,23.77 -25.92,44.92 -39.92,80.94 -72.68,121.84 -14.35,17.93 -5.8,6.48 -12.54,27.48 -7.82,24.36 2.65,3.01 -13.23,24.89 -17.75,24.45 -9.49,27.76 -22.22,50.33 -11.33,20.14 -6.37,5.32 -16.72,21.6l-25.9 52.72c-15.63,30.2 -26.57,55.43 -14.32,89.73 26.1,72.99 18.95,162.27 35.12,270.41 6.57,44.08 24.26,67.99 25.47,123.83 1.34,61.64 1.87,84.34 14.53,140.45z"/>
   <g style="clip-path:url(#id13)">
    <g>
     <rect class="fil5" x="8699.46" y="-8632.1" width="3911.42" height="4514.54"/>
    </g>
   </g>
   <path class="fil2" d="M7152.11 2280.77c23.6,-10.17 22.89,-11.29 25.78,-40.06 3.63,-36.08 3.05,-21.08 21.23,-38.34l37.32 -58.32c10,-21.74 27.8,-38.05 36.65,-57.66l24.59 -42.11c14.79,-27.09 20.24,-9.47 37.92,-56.07 17.42,-45.85 43.34,-53.21 54.59,-73.21l21.08 -39.73c22.27,-35.51 31.88,-35.51 39.75,-61.82 7.25,-24.28 6.27,-20.18 21.21,-38.09l14.36 -19.37c8.4,-11.13 6.25,-7.44 15.91,-16.94 25.24,-24.89 32.27,-53.03 54.03,-73.72l56.86 -71.33c8.63,-11.76 21.97,-18.36 28.42,-31.68l25.45 -41.86c10.02,-22.15 13.44,-24.8 21.37,-39.96 11.43,-21.87 6.59,-26.21 24.18,-41.78 22.24,-19.72 13.65,-29.14 34.49,-61.09l38.42 -57.16c16.33,-37.95 8.32,-5.46 27.3,-38.77 30.59,-53.72 -16.04,10.82 31.61,-44.23l18.81 -32.85c3.7,-6.49 6,-9.47 10.47,-16.66 16.52,-26.58 68.66,-133.58 81.45,-145.67l73.52 -115.28c9.24,-15.74 12.01,-29.53 21.74,-45.57 13.05,-21.52 12.27,-47.62 28.77,-65.12l15.24 -19.14c28.95,-45.41 57.15,-6.07 46.43,42.62 -8.36,38.07 -22.41,7.73 -25.37,101.14 -1.82,57.32 -20.16,64.34 -26.62,101.16 -6.66,37.91 -2.25,82.99 -12.85,115.86 -24.2,74.87 -11.39,32.95 -19.1,109.59 -3.99,39.94 -16.13,66.84 -23.18,102.98 -6.21,31.94 -2.97,86.74 -16.74,111.43 -36.76,65.96 -17.99,73.64 -44.28,143.76 -6.78,18.12 -5.65,35.7 -10.57,56.43 -7.33,30.94 -23.64,42.56 -33.48,93.01 -7.13,36.65 -21.72,61.96 -29.03,98.96 -8.09,40.9 -20.82,52.87 -28.64,99.83 -7.78,46.7 -30.74,34.28 -28.77,100.59 28.53,-6.99 44.06,-58.09 61.51,-84.16l95.09 -144.66c8.92,-18.18 7.69,-24.65 18.65,-35.78 9.83,-9.98 4.38,-2.13 15.88,-17.89 20.7,-28.36 17.27,-16.15 30.53,-48.4l108.78 -145.83c14.02,-24.83 34.83,-39.51 49.05,-61.84 9.92,-15.6 6.25,-7.71 17.93,-20.49 22.93,-25.14 36.76,-57.86 63.36,-81.24 18.2,-15.98 18.03,-24.53 50.81,-22.27 5.8,14.69 11.6,22.89 21.17,34.92 23.73,29.82 7.01,14.53 20.88,45.27 10.63,23.56 17.21,13.01 26.97,39.4l20.31 47.79c7.56,16.29 6.39,29.59 13.09,48.07 8.96,24.8 17.44,20.96 25.29,40.27 9.94,24.47 4.61,26.82 19.83,47.76 13.85,19.06 10.04,30.12 22.23,44.69 17.89,21.35 14.31,-2.27 22.38,36.72 4.22,20.45 32.15,72.91 44.61,90.03 17.23,23.73 8.11,23.28 19.54,47.66 14.16,30.17 50.63,48.79 17.81,91.19 -25.57,33.03 -8.94,-2.11 -21.39,46.02l-44.42 82.54c-11.27,21.23 -8.34,33.77 -16.25,51.37 -9.9,21.99 -11.98,2.24 -26.57,39.98 -7.17,18.59 -11.81,25.6 -22.15,44.02 -16.87,30.06 -33.11,53.79 -41.27,87.47 -6.49,26.84 -31.02,75.59 -46.31,97.21l-32.5 50.39c-4.94,5.76 -3.79,3.48 -7.78,9.32l-31.35 51.94c-21.52,49.32 -9.84,39.59 -40.31,87.49 -11.86,18.65 -17.46,19.53 -27.21,40.18 -3.44,7.28 -7.5,18.24 -10.25,22.81l-11.72 15.96c-12.54,18.87 -19,32.03 -20.55,58.36 33.3,-5.74 36.9,-20.79 58.09,-49.93 6.36,-8.71 7.13,-7.15 16.11,-16.29 11.56,-11.78 18.2,-23.91 30.51,-36.47 30.02,-30.66 37.46,-52.56 60.49,-72.6 21.85,-18.99 42.13,-49.71 59.82,-73.6 9.75,-13.19 20.37,-23.44 29.97,-36.82 24.98,-34.75 115.71,-123.68 127.72,-156.79 0.7,-1.95 2.54,-10.56 3.4,-13.75 8.07,-29.91 38.77,-47.45 60.45,-71.02 50.06,-54.4 17.45,-4.06 40.42,-55.45 19.88,-7.54 34.69,-7.91 42.81,12.93 3.81,9.83 3.55,17.27 6,27.58 5.31,22.25 1.8,10.27 12.38,27.07 14.48,22.95 10.27,57.4 19.72,85.08 14.42,42.29 25.96,17.99 27.09,82.02 0.76,43.85 1.72,32.3 19.32,55.66 12.34,16.37 8.83,33.8 14.49,56.39 4.73,18.99 19.5,29.9 24.63,46.9 6.21,20.51 0.08,43.61 13.01,61.7 37.58,52.6 29.57,182.08 3.15,240.46 -3.32,7.3 -1.09,0.43 -4.99,11.83 -11.66,33.87 -7.48,61.28 -26.54,101.59 -13.36,28.24 -11.59,34.82 -10.96,74.03 27.56,-4.67 46.21,-20.67 61.42,-42.9 29.71,-43.44 25.3,-28.4 51.63,-46.8 19.96,-13.98 10.48,-21.89 35.17,-35.67l18.29 -10.49c25.43,-15.31 35.13,-30.64 57.25,-43.06l108.6 -86.06c48.25,-50.67 98.72,-98.92 154.9,-139.15 11.97,-8.56 14.38,-10.9 29.39,-20.7 41.67,-27.19 93.42,-84.77 132.35,-117.76 16.1,-13.67 41.67,-31.59 54.11,-46.64 68.11,-82.39 163.6,-57.19 68.69,-199.01 -11.72,-17.54 -14.9,-14.38 -23.22,-26.47 -9.3,-13.52 -6.84,-23.77 -13.42,-36.61l-27.95 -38.67c-0.65,-1.07 -1.49,-2.45 -2.15,-3.5l-48.33 -79.36c-6.36,-9.63 -40.51,-86.15 -69.44,-130.61l-34.18 -65.86c-10.14,-18.89 -8.91,-12.05 -17.11,-33.78 -17.09,-45.35 -52.39,-73.46 -72.6,-120.38 -7.93,-18.4 -11.35,-18.5 -19.33,-31.18 -10.51,-16.72 -5.47,-14.29 -19.63,-30.76 -26.14,-30.41 -10.73,-37.95 -35.82,-64.16 -25.24,-26.39 -33.6,-66.9 -51.94,-97.92l-59.42 -89.21c-11.38,-20.84 -9.94,-8.51 -24.18,-26.74 -0.45,-0.55 -6.9,-12.15 -7.31,-13.07l-28.42 -50.64c-4.82,-7.93 -1.89,-6.35 -10.15,-13.97 -7.88,-7.28 0.43,-3.32 -14.44,-7.24 -1.33,-34.75 -9.94,-48.91 -27.21,-77.23 -9.05,-14.83 -7.95,-21.1 -16.33,-33.91 -16.1,-24.63 -11.27,-1.7 -21.37,-27.3 -9.9,-25.02 -14.82,-46.92 -33.61,-68.44 -37.8,-43.29 -17.03,-38.65 -37.75,-67.37 -13.4,-18.56 -21.95,-49.54 -35.3,-64.85 -11.78,-13.53 -12.38,-16.02 -18.71,-30.18 -10.47,-23.38 -8.67,-16.83 -21.72,-34.53 -15.53,-21.06 -29.91,-34.51 -38.97,-59.67 -12.03,-33.34 -27.5,-26.45 -31.37,-76.35 -32.11,-18.28 -28.88,-31.05 -47.33,-63.24 -8.53,-14.85 -5.21,-15.82 -11.5,-27.43 -15.98,-29.55 -13.77,1.4 -30.06,-41.04 -6.7,-17.46 -2.99,-13.36 -12.85,-27.01 -21.58,-29.88 -12.5,-29.9 -24.76,-47.64l-27.62 -49.12c-6.27,-15 -2.63,-5.94 -6.23,-11.33l-61.66 -116.03c-35.36,-48.12 -56.82,-94.13 -82.94,-144.54 -14.55,-28.12 -21.37,-13.57 -27.37,-49.14 -8.09,-47.97 -13.53,-30.66 -26.35,-47.03 -13.1,-16.67 1.36,-28.09 -21.56,-56.67l-5.1 -6.01c-39.22,-53.05 -47.06,-69.19 -106.45,-109.97 -13.83,-9.48 -105.45,-28.42 -131.14,-26.78 -29.05,1.87 -38.99,9.04 -65.32,14.14 -47.87,9.26 -105.22,57.52 -133.08,94.91 -13.1,17.58 -4.55,11.68 -11.9,27.77 -11.74,25.63 0.7,-1.41 -16.6,21.35l-54.24 95.61c-14.46,16.21 -16.84,28.91 -29.51,48.2l-84.15 143.88c-10.43,21.85 -18.54,25.72 -27.7,50.14 -20.02,53.42 -55.26,96.86 -80.41,147.59l-25.14 46.47c-11.83,13.71 -13.57,33.36 -27.19,50.74 -1.76,2.21 -7.73,8.07 -7.89,8.28 -10.5,12.97 -9,23.58 -18.46,37.95 -5.45,8.28 -10.53,10.78 -17.93,20.31 -23.91,30.8 -28.28,35.05 -40.88,74.95 -9.38,29.75 -43.85,64.65 -57.43,92.53l-49.03 106.84c-5.74,11.12 -7.13,16.02 -11.44,27.29 -6.35,16.64 -50.1,74.77 -66.71,121.3 -6.88,19.35 -21.15,30.04 -28.09,50.08 -4.84,13.92 -4.04,16.17 -11.11,28.57 -7.62,13.42 -5.96,5.7 -13.91,24.73 -4.9,11.79 -4.49,14.33 -9.94,23.77 -25.92,44.92 -39.92,80.94 -72.68,121.84 -14.35,17.93 -5.8,6.48 -12.54,27.48 -7.82,24.36 2.65,3.01 -13.23,24.89 -17.75,24.45 -9.49,27.76 -22.22,50.33 -11.33,20.14 -6.37,5.32 -16.72,21.6l-25.9 52.72c-15.63,30.2 -26.57,55.43 -14.32,89.73 26.1,72.99 18.95,162.27 35.12,270.41 6.57,44.08 24.26,67.99 25.47,123.83 1.34,61.64 1.87,84.34 14.53,140.45z"/>
   <path class="fil3" d="M9877.26 1950.49l650.79 -0.58c-20.43,32.56 -738.17,699.2 -764.4,722.62l-253.45 240.09c23.42,12.35 172.17,37.74 210.95,44.91 42.83,7.91 183,28.71 211.28,43.95 -7.44,17.27 -11.95,16.11 -25.98,30.45 -10.46,10.69 -16.33,18.13 -26.25,29.3l-107.47 114.75c-130.32,144.6 -303.2,313.26 -432.46,456.22l-270.02 291.46c14.12,-7.64 33.94,-26.7 43.71,-34.5 14.71,-11.77 27.68,-24.14 42,-35.88l1177.72 -1016.19c25.82,-22.44 62.62,-59.4 87.99,-73.4 -1.29,-0.98 -3.44,-3.7 -4.24,-2.42 -0.78,1.29 -3.17,-1.8 -4.26,-2.21l-37.54 -5.7c-19.77,-0.94 -39.79,-2.26 -59.55,-3.63l-337.17 -20.57c8.2,-19.77 233.92,-225.83 262.32,-251.16l198.42 -184.85c45.55,-49.16 203.98,-185.77 266.46,-250.09l133.39 -122.23c23.58,-20.99 41.9,-41.8 65.53,-62.13 23.51,-20.22 41.78,-41.41 65.67,-62.03 13.48,-11.61 58.54,-48.33 65.05,-64.91l-592.11 -46.54c10.31,-17.93 511.44,-492.2 538.43,-516.02 14.96,-13.19 26.07,-23.03 40.98,-36.74 14.15,-12.97 24.12,-26.86 38.07,-39.75l311.93 -293.51c26.68,-29.75 49.18,-47.81 77.02,-72.98 26.37,-23.87 49.83,-49.53 76.29,-73.65l153.06 -148.68c-63.25,-4.9 -134.01,-2.66 -198.18,-3.7 -125.63,-2.01 -120.61,-16.58 -169.17,38.13 -62.46,70.34 -138.55,134.95 -204.94,200.52l-412.01 404.5c-200.89,203.02 -409.01,401.8 -613.8,602.65 -34.67,34.01 -67.6,69.87 -102.21,103.29 -24.95,24.12 -86.43,77.31 -101.84,101.16z"/>
   <path class="fil3" d="M6674.13 1537.33l-372.95 45.98c-0.68,20.75 312.95,468.54 331.45,495.6 25.84,37.77 325.47,470.16 338.14,500.49l-279.27 29.09c5.86,23.12 279.13,384.85 317.81,438.05 143.22,196.95 336.93,466.92 483.84,654.71 16.96,21.7 40.2,49.73 53.54,70.77 -25.92,-57.09 -415.73,-695.86 -478.51,-801.08 -19.96,-33.46 -56.82,-86.33 -68.87,-119.71l270.19 -83.66c-10.53,-27.01 -300.31,-447.16 -323.26,-480.15 -37.19,-53.49 -318.52,-460.73 -323.67,-483.99l411.58 0.18c-14.38,-38.32 -777.87,-1200.83 -880.05,-1362.42 -18.03,-28.5 -39.08,-64.42 -60.74,-90.59l-203.8 3.85c1.72,21.35 31.4,54.38 44.26,73.81 17.52,26.47 32.42,48.56 49.12,73.07l296.46 442.21c29.4,44.56 383.48,562.36 394.73,593.77z"/>
   <g>
    <path class="fil3" d="M10539.08 2709.03c-14.44,7.6 -18.34,9.13 -36.04,35.96 -13.42,20.31 -10.63,33.44 -9.96,62.09l-66.78 450.41c-10.04,31.28 -13.48,12.66 -16.66,54.83 -3.3,43.83 -4.98,96.36 -11.88,138.5 -9,55.01 -4.82,77.88 33.74,106.04l146.21 109.17c46.84,31.42 44.56,38.46 108.66,80.24l295.81 220.85c18.25,16.72 25.51,16.41 44.95,32.74 19.29,16.21 25.86,13.56 45.39,27.52 14.69,10.51 26.47,24.83 40.57,36.88 16.7,14.25 24.16,12.69 42.74,29.08l122.21 100.08c32.63,23.6 46.5,25.94 87.45,62.58 45.08,40.33 85.1,52.64 165.83,134.09 23.87,24.07 70.08,49.93 119.89,96.73 18.81,17.68 30.37,19.87 44.98,32.84l114.67 107.25c15.64,11.81 30.17,22.27 43.26,34.67 50.54,47.91 76.7,62.19 120.19,96.61 26.03,20.59 18.67,16.23 55.22,23.81l114.15 34.59c29.34,9.88 23.34,16.91 46.89,24.3 22.21,6.99 43.48,4.3 63.89,14.65 30.18,15.31 5.67,11.62 52.95,18.75 25.72,3.87 36.35,7.86 56.72,16.94 40.96,18.21 81.68,12 121.16,28.56 22.93,9.61 32.66,11.23 57.54,14.9 38.95,5.74 26.22,10.49 54.38,21.12 41.84,15.82 148.64,25.84 43.44,-75.5 -7.62,-7.36 -40.94,-55.8 -66.29,-78.11 -14.31,-12.6 -25,-25.1 -37.09,-40.65 -13.89,-17.87 -19.55,-21.95 -34.22,-37.95l-117.23 -138.55c-25.12,-38.79 -6.41,-17.81 -49.89,-60.98l-167.92 -204.46c-19.23,-27.05 -45.24,-45.08 -73.41,-76.27 -12.34,-13.64 -20.31,-25.04 -33.13,-39.13l-206.44 -243.22c-19.35,-19.73 -14.43,-23.28 -29.02,-43.56 -9.55,-13.26 -24.07,-25.55 -34.67,-37.32 -11.83,-13.17 -19.72,-25.43 -32.85,-39.38 -48.5,-51.54 -134.25,-166.16 -172.67,-205.07 -62.37,-63.15 -69.48,-47.6 -131.96,5.04 -21.06,17.75 -82.23,102.04 -103.17,124.61 -43.25,46.62 -57.5,28.5 -93.27,-6.75l-165.36 -200.72c-19.98,-37.33 -35.16,-42.83 -60.28,-90.18l-84.28 -138.72c-25.08,-68.44 -43.42,-33.74 -81.9,-141.63 -9.36,-26.23 -16.17,-23.28 -30.72,-45.47 -5.82,-8.85 -25.82,-39.06 -28.34,-44.24 -13.98,-28.52 5.08,-16.39 -50.2,-99.48 -19.37,-29.08 -11.39,-31.03 -25.45,-46.17 -19.86,-21.41 -9.32,6.35 -32.07,-40.29 -7.42,-15.2 -20.88,-31.53 -31.68,-45.88 -16.9,-22.43 -16.02,-17.39 -25.74,-46.53 -3.4,-10.19 -59.91,-106.02 -75.65,-113.34 -19.77,-9.2 -22.76,1.07 -26.66,3.12z"/>
    <g style="clip-path:url(#id14)">
     <g>
      <rect class="fil6" x="15555.9" y="4831.38" width="5869.73" height="3463.49"/>
     </g>
    </g>
    <path class="fil2" d="M10539.08 2709.03c-14.44,7.6 -18.34,9.13 -36.04,35.96 -13.42,20.31 -10.63,33.44 -9.96,62.09l-66.78 450.41c-10.04,31.28 -13.48,12.66 -16.66,54.83 -3.3,43.83 -4.98,96.36 -11.88,138.5 -9,55.01 -4.82,77.88 33.74,106.04l146.21 109.17c46.84,31.42 44.56,38.46 108.66,80.24l295.81 220.85c18.25,16.72 25.51,16.41 44.95,32.74 19.29,16.21 25.86,13.56 45.39,27.52 14.69,10.51 26.47,24.83 40.57,36.88 16.7,14.25 24.16,12.69 42.74,29.08l122.21 100.08c32.63,23.6 46.5,25.94 87.45,62.58 45.08,40.33 85.1,52.64 165.83,134.09 23.87,24.07 70.08,49.93 119.89,96.73 18.81,17.68 30.37,19.87 44.98,32.84l114.67 107.25c15.64,11.81 30.17,22.27 43.26,34.67 50.54,47.91 76.7,62.19 120.19,96.61 26.03,20.59 18.67,16.23 55.22,23.81l114.15 34.59c29.34,9.88 23.34,16.91 46.89,24.3 22.21,6.99 43.48,4.3 63.89,14.65 30.18,15.31 5.67,11.62 52.95,18.75 25.72,3.87 36.35,7.86 56.72,16.94 40.96,18.21 81.68,12 121.16,28.56 22.93,9.61 32.66,11.23 57.54,14.9 38.95,5.74 26.22,10.49 54.38,21.12 41.84,15.82 148.64,25.84 43.44,-75.5 -7.62,-7.36 -40.94,-55.8 -66.29,-78.11 -14.31,-12.6 -25,-25.1 -37.09,-40.65 -13.89,-17.87 -19.55,-21.95 -34.22,-37.95l-117.23 -138.55c-25.12,-38.79 -6.41,-17.81 -49.89,-60.98l-167.92 -204.46c-19.23,-27.05 -45.24,-45.08 -73.41,-76.27 -12.34,-13.64 -20.31,-25.04 -33.13,-39.13l-206.44 -243.22c-19.35,-19.73 -14.43,-23.28 -29.02,-43.56 -9.55,-13.26 -24.07,-25.55 -34.67,-37.32 -11.83,-13.17 -19.72,-25.43 -32.85,-39.38 -48.5,-51.54 -134.25,-166.16 -172.67,-205.07 -62.37,-63.15 -69.48,-47.6 -131.96,5.04 -21.06,17.75 -82.23,102.04 -103.17,124.61 -43.25,46.62 -57.5,28.5 -93.27,-6.75l-165.36 -200.72c-19.98,-37.33 -35.16,-42.83 -60.28,-90.18l-84.28 -138.72c-25.08,-68.44 -43.42,-33.74 -81.9,-141.63 -9.36,-26.23 -16.17,-23.28 -30.72,-45.47 -5.82,-8.85 -25.82,-39.06 -28.34,-44.24 -13.98,-28.52 5.08,-16.39 -50.2,-99.48 -19.37,-29.08 -11.39,-31.03 -25.45,-46.17 -19.86,-21.41 -9.32,6.35 -32.07,-40.29 -7.42,-15.2 -20.88,-31.53 -31.68,-45.88 -16.9,-22.43 -16.02,-17.39 -25.74,-46.53 -3.4,-10.19 -59.91,-106.02 -75.65,-113.34 -19.77,-9.2 -22.76,1.07 -26.66,3.12z"/>
    <path class="fil3" d="M7415.33 4200.29c-32.17,-1.4 -48.48,-34.63 -67.25,-54.01 -21.37,-22.06 -44,-32.8 -66.98,-55.1 -27.44,-26.62 -114.79,-86.45 -168.14,-86.43 0.02,55.04 16.8,53.28 48.31,117.02l62 105.08c50.1,64.09 31.56,114.05 150.46,177.36 31.72,16.91 46.6,15.33 73.75,37.19 26.25,21.14 142.02,77.33 178.37,93.97 13.05,5.98 27.01,8.63 40.16,15.57 15.92,8.42 15.78,11.81 33.99,20.66l183.39 94.48c15.98,10.16 24.22,7.93 40.47,15.71 19.38,9.3 8.13,11.02 35.14,20.35l76.31 34.42c25.3,11.68 75.41,40.12 109.35,51.06 22.87,7.4 21.89,9.77 38.48,17.81l110.65 55.02c15.06,6.86 25.96,7.25 41.6,14.2 45.43,20.12 31.51,16.96 90.83,21.23 69.77,4.99 142.49,4.57 216.65,5.3 80.55,0.82 135.95,6.11 211.19,10.57 275.54,16.31 587.59,15.75 865.66,5.41l-0.51 -27.15c-12.23,-6 -17.97,-5.92 -31.78,-10.25l-20.04 -8.61c-1.07,-0.59 -2.34,-1.55 -3.38,-2.19 -28.3,-16.98 -21.45,-8.85 -49.59,-16.74 -30.01,-8.42 -8.34,-6.9 -31.59,-18.52 -19.37,-9.67 -50.79,-8.85 -78.91,-21.93 -32.29,-15.04 -47.89,-4.65 -74.91,-24.67 -27.12,-20.08 -44.71,-11.06 -73.29,-26.66 -17.7,-9.65 -14.61,-12.27 -31.37,-17.17l-151.33 -50.55c-39.09,-7.8 -12.46,-9.04 -74.48,-25.63 -39.89,-10.68 10.17,-9.55 -71.73,-28.38 -18.77,-4.32 -18.75,-6.37 -36.17,-13.71 -63.13,-26.6 -35.1,3.44 -71.27,-28.09 -14.73,-12.85 -125.15,-39.38 -147.84,-52.19 -46.72,-26.37 -45.2,-5.37 -69.38,-31.23 -29.49,-31.51 -2.95,4.9 -67.33,-30.69l-82.2 -38.32c-15.17,-3.81 -8.46,-0.14 -22.91,-6.6 -16.72,-7.48 -13.48,-9.57 -33.36,-15.45 -11.52,-3.42 -5.51,-0.57 -17.79,-5.26 -26.9,-10.25 -10.98,-11.06 -56.98,-20.84 -49.45,-10.51 -72.15,-39.87 -145.01,-55.71 -21.68,-4.69 -17.97,-6.78 -35.18,-15.23 -16.97,-8.32 -18.96,-5.61 -40.58,-10.04l-70.2 -29.45c-15.75,-7.05 -14.71,-11.27 -33.38,-16.66l-106.2 -43.66c-19.37,-10.02 -14.73,-7.93 -36.77,-13.73l-172.45 -76.95c-14.22,-7.4 -55.24,-19.3 -74.38,-26.55 -21.45,-8.16 -17.17,-9.78 -30.47,-18.77 -16.45,-11.1 -18.25,-7.48 -38.98,-11.96 -26.74,-5.82 -12.81,-5.86 -32.99,-16.52 -14.18,-7.46 -21.66,-6.27 -36.52,-13.73 -17.7,-8.92 -11.15,-10.35 -32.23,-18.24 -57.88,-21.7 -38.44,-26.1 -70.71,-29.95 -21.51,-2.58 -30.51,-0.29 -46.92,-5.74 -2.4,85.34 5.65,55.65 10.43,108.44 3.32,36.84 6.46,79.73 -13.73,98.39z"/>
    <g style="clip-path:url(#id15)">
     <g>
      <rect class="fil6" x="15555.9" y="4831.38" width="5869.73" height="3463.49"/>
     </g>
    </g>
    <path class="fil2" d="M7415.33 4200.29c-32.17,-1.4 -48.48,-34.63 -67.25,-54.01 -21.37,-22.06 -44,-32.8 -66.98,-55.1 -27.44,-26.62 -114.79,-86.45 -168.14,-86.43 0.02,55.04 16.8,53.28 48.31,117.02l62 105.08c50.1,64.09 31.56,114.05 150.46,177.36 31.72,16.91 46.6,15.33 73.75,37.19 26.25,21.14 142.02,77.33 178.37,93.97 13.05,5.98 27.01,8.63 40.16,15.57 15.92,8.42 15.78,11.81 33.99,20.66l183.39 94.48c15.98,10.16 24.22,7.93 40.47,15.71 19.38,9.3 8.13,11.02 35.14,20.35l76.31 34.42c25.3,11.68 75.41,40.12 109.35,51.06 22.87,7.4 21.89,9.77 38.48,17.81l110.65 55.02c15.06,6.86 25.96,7.25 41.6,14.2 45.43,20.12 31.51,16.96 90.83,21.23 69.77,4.99 142.49,4.57 216.65,5.3 80.55,0.82 135.95,6.11 211.19,10.57 275.54,16.31 587.59,15.75 865.66,5.41l-0.51 -27.15c-12.23,-6 -17.97,-5.92 -31.78,-10.25l-20.04 -8.61c-1.07,-0.59 -2.34,-1.55 -3.38,-2.19 -28.3,-16.98 -21.45,-8.85 -49.59,-16.74 -30.01,-8.42 -8.34,-6.9 -31.59,-18.52 -19.37,-9.67 -50.79,-8.85 -78.91,-21.93 -32.29,-15.04 -47.89,-4.65 -74.91,-24.67 -27.12,-20.08 -44.71,-11.06 -73.29,-26.66 -17.7,-9.65 -14.61,-12.27 -31.37,-17.17l-151.33 -50.55c-39.09,-7.8 -12.46,-9.04 -74.48,-25.63 -39.89,-10.68 10.17,-9.55 -71.73,-28.38 -18.77,-4.32 -18.75,-6.37 -36.17,-13.71 -63.13,-26.6 -35.1,3.44 -71.27,-28.09 -14.73,-12.85 -125.15,-39.38 -147.84,-52.19 -46.72,-26.37 -45.2,-5.37 -69.38,-31.23 -29.49,-31.51 -2.95,4.9 -67.33,-30.69l-82.2 -38.32c-15.17,-3.81 -8.46,-0.14 -22.91,-6.6 -16.72,-7.48 -13.48,-9.57 -33.36,-15.45 -11.52,-3.42 -5.51,-0.57 -17.79,-5.26 -26.9,-10.25 -10.98,-11.06 -56.98,-20.84 -49.45,-10.51 -72.15,-39.87 -145.01,-55.71 -21.68,-4.69 -17.97,-6.78 -35.18,-15.23 -16.97,-8.32 -18.96,-5.61 -40.58,-10.04l-70.2 -29.45c-15.75,-7.05 -14.71,-11.27 -33.38,-16.66l-106.2 -43.66c-19.37,-10.02 -14.73,-7.93 -36.77,-13.73l-172.45 -76.95c-14.22,-7.4 -55.24,-19.3 -74.38,-26.55 -21.45,-8.16 -17.17,-9.78 -30.47,-18.77 -16.45,-11.1 -18.25,-7.48 -38.98,-11.96 -26.74,-5.82 -12.81,-5.86 -32.99,-16.52 -14.18,-7.46 -21.66,-6.27 -36.52,-13.73 -17.7,-8.92 -11.15,-10.35 -32.23,-18.24 -57.88,-21.7 -38.44,-26.1 -70.71,-29.95 -21.51,-2.58 -30.51,-0.29 -46.92,-5.74 -2.4,85.34 5.65,55.65 10.43,108.44 3.32,36.84 6.46,79.73 -13.73,98.39z"/>
    <path class="fil3" d="M9383.56 4484.55c27.05,27.54 91.03,56.33 131.39,77.5l58.6 30.39c18.58,7.19 16.02,2.62 32.62,11.98 73.27,41.33 24.22,0.25 82.48,45.06 13.97,10.78 11.45,6.55 30.96,12.56 34.32,10.59 80.22,43.17 121.61,56.97 22.68,7.56 37.6,16.98 57.43,26.05l180.08 81.1c42.06,26.93 27.7,12.11 58.01,24.8 55.55,23.26 72.25,26.33 141.9,34.83 27.91,3.4 57.6,1.91 86.15,1.93 234.45,0.16 444.77,14.9 677.64,18.08 233.02,3.19 467.89,-0.25 694.45,-4.39 -1.76,-37.5 -16.12,-27.56 -49.05,-40.29 -27.21,-10.51 -32.6,-21.1 -65.55,-28.97l-31.8 -12.46c-11.31,-7.42 -16.96,-11.59 -33.69,-16.41 -27.62,-7.91 -52.93,-6.11 -75.9,-18.87 -17.09,-9.49 -6.84,-9.09 -28.63,-15.27 -11.7,-3.3 -25.49,-4.22 -37.54,-6.74 -43.89,-9.22 -18.54,-14.79 -69.79,-25.02 -45.2,-9.02 -32.76,-19.92 -66.39,-28.24 -14.38,-3.57 -27.93,-1.91 -40.29,-5.04 -15.96,-4.05 -16.02,-11.86 -28.54,-20.02 -18.94,-12.36 -41.7,-10.02 -65.82,-23.42 -52.17,-29.04 -32.34,-11.58 -68.93,-25.18 -17.54,-6.51 -11.41,-7.89 -30.47,-14.33 -16.7,-5.65 -24.39,-4.1 -39.77,-10.53 -36.19,-15.19 -13.36,-19.75 -66.92,-27.05 -53.7,-7.33 -15.88,-16.51 -100.69,-32.97 -28.09,-5.45 -14.02,-4.73 -32.78,-16.74 -21.39,-13.71 -48.12,-9.77 -72.89,-22.04 -14.69,-7.28 -13.04,-9.94 -29.76,-15.08 -16.06,-4.94 -25.53,-3.65 -41.06,-9 -26.76,-9.22 -26.94,-19.43 -58.62,-28.77 -30.76,-9.09 -44.65,-25.41 -62.46,-31.02 -44.92,-14.16 1.86,7.78 -70.75,-24.26 -100.9,-44.54 -147.86,-0.68 -237.12,3.48 -35.18,1.65 -55.86,-4.44 -92.13,2.87 -30.65,6.19 -52.29,9.63 -86.01,8.57 -58.9,-1.86 -108.66,-6.6 -170.57,1.74 -23.13,3.09 -49.38,13.54 -77.35,17.99 -30.61,4.86 -59.92,0.88 -89.56,4.63 -81.1,10.27 -30,20.47 -167.78,18.3 -36.64,-0.57 -144.03,10.23 -164.7,23.29z"/>
    <g style="clip-path:url(#id16)">
     <g>
      <rect class="fil6" x="15555.9" y="4831.38" width="5869.73" height="3463.49"/>
     </g>
    </g>
    <path class="fil2" d="M9383.56 4484.55c27.05,27.54 91.03,56.33 131.39,77.5l58.6 30.39c18.58,7.19 16.02,2.62 32.62,11.98 73.27,41.33 24.22,0.25 82.48,45.06 13.97,10.78 11.45,6.55 30.96,12.56 34.32,10.59 80.22,43.17 121.61,56.97 22.68,7.56 37.6,16.98 57.43,26.05l180.08 81.1c42.06,26.93 27.7,12.11 58.01,24.8 55.55,23.26 72.25,26.33 141.9,34.83 27.91,3.4 57.6,1.91 86.15,1.93 234.45,0.16 444.77,14.9 677.64,18.08 233.02,3.19 467.89,-0.25 694.45,-4.39 -1.76,-37.5 -16.12,-27.56 -49.05,-40.29 -27.21,-10.51 -32.6,-21.1 -65.55,-28.97l-31.8 -12.46c-11.31,-7.42 -16.96,-11.59 -33.69,-16.41 -27.62,-7.91 -52.93,-6.11 -75.9,-18.87 -17.09,-9.49 -6.84,-9.09 -28.63,-15.27 -11.7,-3.3 -25.49,-4.22 -37.54,-6.74 -43.89,-9.22 -18.54,-14.79 -69.79,-25.02 -45.2,-9.02 -32.76,-19.92 -66.39,-28.24 -14.38,-3.57 -27.93,-1.91 -40.29,-5.04 -15.96,-4.05 -16.02,-11.86 -28.54,-20.02 -18.94,-12.36 -41.7,-10.02 -65.82,-23.42 -52.17,-29.04 -32.34,-11.58 -68.93,-25.18 -17.54,-6.51 -11.41,-7.89 -30.47,-14.33 -16.7,-5.65 -24.39,-4.1 -39.77,-10.53 -36.19,-15.19 -13.36,-19.75 -66.92,-27.05 -53.7,-7.33 -15.88,-16.51 -100.69,-32.97 -28.09,-5.45 -14.02,-4.73 -32.78,-16.74 -21.39,-13.71 -48.12,-9.77 -72.89,-22.04 -14.69,-7.28 -13.04,-9.94 -29.76,-15.08 -16.06,-4.94 -25.53,-3.65 -41.06,-9 -26.76,-9.22 -26.94,-19.43 -58.62,-28.77 -30.76,-9.09 -44.65,-25.41 -62.46,-31.02 -44.92,-14.16 1.86,7.78 -70.75,-24.26 -100.9,-44.54 -147.86,-0.68 -237.12,3.48 -35.18,1.65 -55.86,-4.44 -92.13,2.87 -30.65,6.19 -52.29,9.63 -86.01,8.57 -58.9,-1.86 -108.66,-6.6 -170.57,1.74 -23.13,3.09 -49.38,13.54 -77.35,17.99 -30.61,4.86 -59.92,0.88 -89.56,4.63 -81.1,10.27 -30,20.47 -167.78,18.3 -36.64,-0.57 -144.03,10.23 -164.7,23.29z"/>
   </g>
  </g>
 </g>
</svg>
