<?xml version="1.0" encoding="UTF-8"?>
<!DOCTYPE svg PUBLIC "-//W3C//DTD SVG 1.1//EN" "http://www.w3.org/Graphics/SVG/1.1/DTD/svg11.dtd">
<!-- Creator: CorelDRAW 2021 (64-Bit) -->
<svg xmlns="http://www.w3.org/2000/svg" xml:space="preserve" width="384.801mm" height="76.0626mm" version="1.1" style="shape-rendering:geometricPrecision; text-rendering:geometricPrecision; image-rendering:optimizeQuality; fill-rule:evenodd; clip-rule:evenodd"
viewBox="0 0 113819.26 22498.37"
 xmlns:xlink="http://www.w3.org/1999/xlink"
 xmlns:xodm="http://www.corel.com/coreldraw/odm/2003">
 <defs>
  <style type="text/css">
   <![CDATA[
    .fil2 {fill:none}
    .fil0 {fill:#07131F}
    .fil3 {fill:#07131F}
    .fil4 {fill:#B4C9CC}
    .fil5 {fill:url(#id17)}
    .fil7 {fill:url(#id18)}
    .fil1 {fill:url(#id19)}
    .fil6 {fill:url(#id20)}
   ]]>
  </style>
    <clipPath id="id0">
     <path d="M87142.21 14401.31l-7.51 -2982.46c1465.8,-114.91 2894.55,-70.63 2843.91,1553.71 -23.16,746.86 -321.52,1144.14 -887.04,1340.36 -385.77,133.76 -1564.57,283.81 -1949.36,88.38zm2.4 -6403.24c668.27,-61.38 1486.1,-109.94 1980.03,220.98 544.43,364.68 661.74,1779.67 -776.12,1960.89 -139.35,17.39 -1015.05,37.06 -1111.9,6.39 -149.88,-47.47 -107.52,72.7 -103.85,-506.57 1.12,-187.62 0.8,-375.53 0.95,-563.3 0.18,-355.71 -20.44,-770.38 10.88,-1118.4zm2850.77 2634.58c110.09,-109.32 256.8,-182.65 397.75,-302.18 1150.38,-975.24 731.72,-2517.3 -190.96,-3145.46 -1080.07,-735.53 -3167.68,-548.89 -4660.16,-445.99l0.95 9009.54c1225,74.92 3356.54,153.4 4486.15,-323.77 1991.72,-841.16 1930.99,-3218.14 929.54,-4187.97 -396.77,-384.32 -784.28,-457.17 -963.26,-604.18z"/>
    </clipPath>
    <clipPath id="id1">
     <path d="M65745.32 10419.47c170.67,132.31 3083.76,3984.38 3384.34,4365.65 209.98,266.39 371.07,474.92 567.62,732.7 269.58,354.09 239.06,426.5 884.97,334.59l-4.79 -8766.46 -1461.69 1.27 -6.86 5179.18c-123.2,-62.65 -1974.15,-2465.36 -2222.78,-2774.87 -379.2,-472.2 -720.04,-941.05 -1103.7,-1408.63 -262.57,-319.75 -675.16,-972.05 -902.39,-999.67 -132.96,-16.15 -455.57,-1.77 -608.2,5.27l1.12 8668.68 1459.27 -18.52 13.1 -5319.18z"/>
    </clipPath>
    <clipPath id="id2">
     <path d="M41054.25 12672.78c82.91,-445.37 716.69,-2195.78 930.02,-2885.32 21.09,-67.91 41.06,-145.73 60.07,-198.62l93.17 -180.4c107.22,159.31 998.58,2906.23 1086.46,3273.6l-2169.72 -9.26zm-481.63 1237.31l3131.06 19.31 643.99 1825.36 1757.92 -7.01 -3616.68 -9155.13 -701.37 6.06 -3577.85 9158 1750.88 -11.03 612.04 -1835.57z"/>
    </clipPath>
    <clipPath id="id3">
     <path d="M73928.88 8432.22l3957.05 -4.47 -9.26 -1343.73 -5500.7 7.01 0.95 8665.33 5509.66 -3.49 -15.65 -1339.77 -3960.27 -2.07 22.54 -2642.24 2804.13 -18.07 -19.34 -1265.59 -2807.17 -2.07 18.07 -2050.84z"/>
    </clipPath>
    <clipPath id="id4">
     <path d="M55311.51 8395.96c542.68,-81.81 1428.12,-10.88 1863.4,193.83 506.71,238.4 813.71,552.41 770.23,1305.37 -73.5,1271.35 -1236.51,1409.43 -2250.59,1371.86 -465.33,-17.24 -356.84,-37.71 -406.68,-114.56l23.63 -2756.5zm-15 4177.08c1252.16,48.75 2413.57,21.74 3255.38,-643.66 705.34,-557.53 1134.4,-1630.41 905.58,-2895.35 -192.23,-1062.35 -991.07,-1613.96 -2063.8,-1835.45 -844.68,-174.34 -2870.12,-259.82 -3627.07,-92.05l15.32 8651.14 1505.8 -5.77 8.78 -3178.86z"/>
    </clipPath>
    <clipPath id="id5">
     <path d="M83279.26 8802.16c102.76,-316.58 411.97,-1046.85 438,-1327.76 -690.01,-385.59 -1073.03,-506.57 -2031.17,-532.77 -2856.72,-78.29 -3494.61,2778.07 -2014.9,4103.76 862.28,772.3 2511.24,1057.06 2884.05,2183.47 300.25,907.48 -366.75,1295.64 -1171.97,1325.04 -961.49,34.84 -1290.37,-306.17 -1906.38,-626.71 -115.86,112.34 -540.91,1206.61 -567.29,1340.36 407.51,358.91 1305.07,583.26 1958.32,627.37 2837.52,191.61 4059.18,-2200.25 2774.58,-3969.53 -693.68,-955.57 -2305.25,-1216.52 -3008.99,-2146.06 -662.83,-875.53 301.23,-2002.42 1831.61,-1397.92 345.3,136.48 535.64,281.41 814.16,420.76z"/>
    </clipPath>
    <clipPath id="id6">
     <path d="M106636.54 8431.1l2762.24 12.16 2.25 7313.11 1525.91 -4.94 11.33 -7318.55 2881 -16.62 -6.57 -1331.93 -7175.07 3.22 -1.09 1343.56z"/>
    </clipPath>
    <clipPath id="id7">
     <path d="M47038.98 15757.02l5455.48 -8.78 -13.58 -1330.81c-684.42,-34.81 -3575.48,52.41 -3913.3,-30.2l-11.51 -7303.53 -1518.4 5.44 1.3 8667.88z"/>
    </clipPath>
    <clipPath id="id8">
     <path d="M101601.94 15757.96l5397.32 -0.3c72.38,-194.33 43.95,-1093.67 20.76,-1344.38 -579.42,-5.77 -3624.34,42.5 -3917.74,-25.88l-9.26 -7304.98 -1512.01 16.12 20.91 8659.42z"/>
    </clipPath>
    <clipPath id="id9">
     <path d="M94900.37 7205.95l172.74 1521.41c561.2,-349.3 1039.49,-615.53 1931.79,-375.68 2214.47,595.57 1719.27,4357.19 1114.59,5187.02l70.49 1897.77c394.05,-113.14 888.63,-638.07 1105.15,-926.2 959.56,-1277.74 1124.5,-3406.08 695.43,-4895.08 -506.39,-1757.13 -1665.73,-2571.28 -3358.93,-2666.05 -1025.26,-57.35 -1174.99,154.7 -1731.24,256.8z"/>
    </clipPath>
    <clipPath id="id10">
     <path d="M98137.05 15482.17l-327.08 -1500.35c-937.56,795.64 -2459.95,859.71 -3104.7,-298.01 -521.44,-936.43 -705.51,-2724.23 -274.37,-3858.79 9.91,-284.61 -221.96,-1947.14 -317.68,-2095.6 -1997.01,1444.24 -2239.41,6814.56 801.85,7952.63 915.97,342.76 2452.4,265.74 3221.98,-199.89z"/>
    </clipPath>
    <clipPath id="id11">
     <path d="M60916.89 15527.55c0.65,205.81 -20.14,229.62 189.22,235.21l1330.63 -8.46c56.55,-2708.41 20.62,-5904.19 2.72,-8670.27l-1520.17 21.71 -2.4 8421.81z"/>
    </clipPath>
   <clipPath id="id12">
    <path d="M0.12 22416.88c219.65,68.15 3945.81,25.32 4505.79,25.97l9137.94 1.75c757.19,2.22 1514.64,1.39 2271.91,2.66 371.98,0.65 784.72,-8.55 1128.81,19.43 184.57,15.03 374.41,-8.64 561.73,13.46 152.8,17.95 385.35,39.04 492.84,-25.53 -64.27,-184.28 -812.26,-274.82 -1034.22,-298.39 -160.52,-17.16 -218.56,-93.59 -336.55,-132.54l-771.56 -157.6c-162.27,-31.24 -172.5,-77.73 -335.51,-112.72 -94.77,-20.38 -290.88,-62.35 -382.16,-95.33 -141.18,-51.11 -187.59,-56.94 -359.38,-86.96 -209.98,-36.65 -263.13,-97.34 -422.92,-148.46 -13.1,-4.23 -63.74,-23.22 -90.27,-33.25 -56.55,-21.3 -88.8,-40.43 -166.14,-58.12 -217.2,-49.63 -196.02,18.22 -393.19,-84.45 -137.33,-71.49 -212.67,-55.93 -347.88,-100.12 -240.68,-78.86 -45.79,-55.16 -377.37,-99.95 -208.89,-28.07 -562.74,-140.26 -714.24,-213.5 -161.83,-78.18 -230,-23.66 -376.06,-73.77 -126.36,-43.27 -187.26,-86.49 -343.26,-128.93 -156.03,-42.48 -141.3,-100.77 -319.89,-126.27 -162,-23.22 -230.15,-45.23 -370.15,-106.39 -214.62,-93.85 -579.71,-57.74 -859.88,-57.65l-2746.33 -24.88c-216.72,-0.92 -763.37,67.71 -855,-80.78 -33.34,-54.04 -42.56,-118.52 -13.81,-190.07l225.18 -355.27c87.05,-116.13 166.26,-204.27 233.67,-338.74l536.32 -844.03c23.57,-47.44 54.34,-91.93 83.91,-138.34l188.98 -262.51c26.89,-41.26 13.9,-18.22 54.42,-64.75l333.32 -466.22c49.75,-70.72 30.58,-90.54 94.68,-155.29 154.46,-156.38 164.78,-270.97 277.15,-397.07l210.63 -261.21c3.96,-6.15 14.94,-25.23 19.17,-31.38l600.24 -975.21c66.85,-77.35 151.32,-171.68 202.08,-247.19 65.93,-97.99 108.49,-185.7 188.98,-284.43l360.59 -566.52c147.72,-237.43 -54.34,-321.91 -15.29,-790.26 11.68,-141.09 -19.34,-703.94 -58.6,-821.28 -156.83,-469.53 -66.32,-489.88 -135.47,-791.71 -27.36,-119.17 -67.5,-204.74 -77.82,-359.77 -12.07,-180.05 16.03,-281.83 -22.21,-457.85 -29.93,-137.69 -26.71,-274.9 -58.3,-395.2 -31.38,-119.82 -85.01,-219.12 -111.33,-359.56 -64.22,-341.72 45.58,-478.2 -94.89,-831.34 -135.83,-341.34 -102.49,-464.12 -186.23,-738.2 -114.38,41.53 -99.09,114.38 -151.41,220.3l-124.05 224.27c-40.52,74.15 -80.22,152.89 -124.17,225.92l-267.18 433.36c-2.57,4.7 -6.36,10.97 -9.02,15.47l-338.38 507.04c-4.44,5.71 -17.24,22.27 -21.56,28.19 -3.22,4.32 -7.28,10.59 -10.41,14.91 -3.14,4.41 -7.1,10.68 -10.32,15.11 -99.56,136.77 -102.58,113.55 -168.54,287.54 -29.76,78.65 -80.57,124.62 -154.82,186.52 -128.96,107.37 -175.19,313.51 -267.3,433.98 -28.63,37.48 -50.64,50.2 -77.26,95.69 -104,177.41 -195.9,382.25 -355.33,519.02l-200.51 249.14c-98.17,113.38 -157.03,255.12 -255.94,367.75 -106.31,120.95 -173.98,283.78 -255.97,444.39 -57.92,113.67 -93.2,95.98 -148.37,204.3 -81.96,160.91 -279.9,331.67 -392.63,477.28 -50.4,65.19 -31.24,65.93 -67.97,133.46 -45.7,83.89 -97.91,104.53 -150.7,196.82 -80.31,140.56 -165.23,221.69 -241.01,360.77 -2.69,4.97 -6,11.51 -8.76,16.39l-975.09 1245.32c-108.88,132.81 -74.15,16.77 -146.18,207.35 -65.58,173.24 -196.64,254.29 -298.42,395.47 -61.61,85.48 -65.01,146 -131.8,217.73 -46.05,49.57 -40.88,27.66 -82.35,96.55 -33.87,56.55 -21.36,55.25 -63.09,109.89l-169.55 175.43c-76.37,59.04 -68.15,97.82 -129.79,172.53 -3.22,3.93 -8.28,9.38 -11.51,13.43l-384.61 536.88c-23.22,40.88 -39.99,71.46 -62.53,114.47 -68.18,129.7 -324.86,445.25 -438.98,636.89 -138.69,232.84 -314.16,397.15 -439.69,634.14 -16.59,31.32 -40.26,66.79 -70.46,101.96 -28.93,33.63 -63.92,61.17 -88.35,85.93 -98.53,100.3 -43.36,147.57 -113.73,237.55l-173.72 174.16c-107.02,113.2 -58.65,94.68 -135.2,217.82 -64.66,104.27 -169.1,191.97 -229.8,296.23 -44.22,76.08 -27.18,40.23 -70.01,100.18 -65.49,91.84 -54.25,145.08 -142.66,228.44 -208.15,196.26 -202.61,318.68 -356.54,520.82 -121.18,159.25 -350.06,493.23 -466.75,603.76 -132.93,125.89 -355.98,312.03 -350.01,525.17z"/>
   </clipPath>
   <clipPath id="id13">
    <path d="M13559.2 10251.88c106.1,-45.7 102.87,-50.76 115.86,-180.08 16.3,-162.18 13.72,-94.77 95.42,-172.33l167.74 -262.13c44.93,-97.73 124.97,-171.02 164.75,-259.17l110.54 -189.27c66.49,-121.78 90.98,-42.56 170.46,-252.01 78.29,-206.1 194.81,-239.17 245.39,-329.06l94.77 -178.6c100.12,-159.61 143.31,-159.61 178.69,-277.89 32.6,-109.12 28.19,-90.72 95.33,-171.2l64.54 -87.05c37.77,-50.02 28.1,-33.42 71.49,-76.17 113.46,-111.9 145.05,-238.38 242.87,-331.37l255.59 -320.63c38.78,-52.86 98.73,-82.52 127.75,-142.39l114.38 -188.15c45.05,-99.56 60.43,-111.45 96.07,-179.6 51.38,-98.29 29.64,-117.81 108.67,-187.8 99.95,-88.62 61.35,-130.97 155.02,-274.58l172.68 -256.95c73.41,-170.58 37.39,-24.52 122.69,-174.28 137.51,-241.48 -72.11,48.63 142.1,-198.83l84.57 -147.66c16.65,-29.19 26.98,-42.56 47.06,-74.86 74.24,-119.47 308.62,-600.45 366.1,-654.78l330.48 -518.16c41.53,-70.75 53.98,-132.72 97.73,-204.83 58.65,-96.72 55.16,-214.06 129.32,-292.71l68.5 -86.02c130.15,-204.12 256.89,-27.27 208.71,191.55 -37.57,171.14 -100.75,34.73 -114.03,454.63 -8.19,257.63 -90.63,289.22 -119.65,454.71 -29.93,170.4 -10.12,373.02 -57.74,520.76 -108.76,336.55 -51.2,148.1 -85.84,492.58 -17.95,179.51 -72.5,300.43 -104.18,462.91 -27.89,143.58 -13.34,389.88 -75.25,500.86 -165.23,296.47 -80.87,331.02 -199.04,646.18 -30.5,81.43 -25.41,160.46 -47.53,253.67 -32.95,139.08 -106.28,191.29 -150.5,418.07 -32.03,164.75 -97.61,278.51 -130.5,444.83 -36.38,183.86 -93.59,237.64 -128.76,448.74 -34.99,209.92 -138.16,154.11 -129.32,452.14 128.22,-31.41 198.03,-261.12 276.5,-378.28l427.44 -650.23c40.08,-81.7 34.55,-110.8 83.83,-160.82 44.19,-44.84 19.7,-9.58 71.37,-80.4 93.03,-127.48 77.64,-72.59 137.25,-217.55l488.97 -655.49c63,-111.63 156.56,-177.59 220.48,-277.98 44.6,-70.1 28.1,-34.64 80.6,-92.11 103.05,-113.02 165.23,-260.09 284.78,-365.18 81.79,-71.85 81.05,-110.24 228.41,-100.12 26.09,66.05 52.15,102.87 95.15,156.94 106.66,134.02 31.5,65.31 93.85,203.47 47.8,105.89 77.38,58.48 121.21,177.09l91.28 214.8c33.99,73.21 28.72,132.99 58.83,216.07 40.26,111.45 78.38,94.21 113.67,180.99 44.66,109.97 20.71,120.56 89.15,214.68 62.26,85.66 45.14,135.38 99.92,200.87 80.42,95.98 64.3,-10.2 100.6,165.05 18.96,91.93 144.49,327.7 200.51,404.7 77.44,106.66 36.47,104.65 87.85,214.24 63.65,135.59 227.58,219.3 80.04,409.87 -114.94,148.46 -40.17,-9.49 -96.16,206.84l-199.69 371.01c-50.64,95.42 -37.48,151.8 -73.03,230.89 -44.49,98.82 -53.86,10.06 -119.44,179.69 -32.24,83.56 -53.06,115.06 -99.56,197.85 -75.81,135.12 -148.84,241.78 -185.52,393.19 -29.19,120.65 -139.43,339.77 -208.15,436.94l-146.09 226.48c-22.18,25.88 -17.04,15.65 -34.99,41.91l-140.91 233.47c-96.72,221.69 -44.22,177.95 -181.17,393.28 -53.33,83.83 -78.47,87.79 -122.31,180.61 -15.47,32.71 -33.72,81.99 -46.05,102.52l-52.68 71.76c-56.38,84.83 -85.39,143.96 -92.37,262.3 149.67,-25.79 165.88,-93.47 261.09,-224.44 28.57,-39.16 32.06,-32.15 72.41,-73.24 51.94,-52.95 81.79,-107.49 137.13,-163.93 134.94,-137.81 168.39,-236.25 271.89,-326.34 98.2,-85.36 189.39,-223.44 268.87,-330.84 43.84,-59.31 91.55,-105.36 134.73,-165.49 112.28,-156.21 520.11,-555.93 574.09,-704.77 3.14,-8.76 11.42,-47.44 15.29,-61.82 36.29,-134.47 174.25,-213.29 271.71,-319.21 225.01,-244.53 78.44,-18.25 181.7,-249.23 89.36,-33.9 155.94,-35.55 192.41,58.12 17.13,44.19 15.94,77.64 26.98,123.96 23.87,100.01 8.1,46.14 55.64,121.66 65.1,103.17 46.14,257.99 88.62,382.42 64.84,190.1 116.69,80.87 121.75,368.67 3.4,197.11 7.75,145.17 86.84,250.18 55.46,73.59 39.69,151.95 65.13,253.46 21.27,85.36 87.67,134.38 110.71,210.81 27.89,92.2 0.35,196.02 58.48,277.33 168.92,236.42 132.9,818.44 14.17,1080.84 -14.91,32.8 -4.88,1.92 -22.45,53.15 -52.41,152.24 -33.63,275.47 -119.29,456.64 -60.04,126.92 -52.12,156.5 -49.28,332.76 123.88,-21 207.7,-92.91 276.06,-192.85 133.55,-195.25 113.73,-127.66 232.07,-210.36 89.71,-62.83 47.09,-98.38 158.07,-160.35l82.23 -47.15c114.32,-68.8 157.89,-137.72 257.34,-193.53l488.17 -386.83c216.9,-227.76 443.74,-444.66 696.28,-625.47 53.8,-38.48 64.66,-48.98 132.1,-93.03 187.32,-122.22 419.9,-381.03 594.89,-529.31 72.38,-61.44 187.32,-142.01 243.23,-209.62 306.17,-370.36 735.36,-257.07 308.74,-894.52 -52.68,-78.83 -66.97,-64.63 -104.35,-119 -41.82,-60.78 -30.76,-106.84 -60.31,-164.58l-125.65 -173.8c-2.93,-4.79 -6.71,-11.03 -9.67,-15.74l-217.26 -356.72c-28.57,-43.3 -182.09,-387.22 -312.14,-587.08l-153.63 -296.02c-45.58,-84.92 -40.05,-54.16 -76.9,-151.86 -76.82,-203.83 -235.51,-330.19 -326.31,-541.11 -35.64,-82.7 -51.02,-83.18 -86.87,-140.17 -47.24,-75.16 -24.58,-64.22 -88.23,-138.25 -117.52,-136.68 -48.24,-170.58 -161,-288.39 -113.46,-118.61 -151.03,-300.7 -233.47,-440.16l-267.1 -401c-51.14,-93.68 -44.69,-38.25 -108.7,-120.21 -2.01,-2.48 -31.03,-54.6 -32.86,-58.74l-127.75 -227.61c-21.65,-35.64 -8.49,-28.54 -45.61,-62.8 -35.44,-32.71 1.95,-14.94 -64.93,-32.54 -5.97,-156.21 -44.66,-219.83 -122.31,-347.14 -40.7,-66.67 -35.73,-94.86 -73.41,-152.42 -72.38,-110.71 -50.64,-7.63 -96.04,-122.69 -44.49,-112.46 -66.61,-210.9 -151.06,-307.62 -169.93,-194.6 -76.55,-173.72 -169.66,-302.83 -60.22,-83.44 -98.65,-222.7 -158.69,-291.5 -52.95,-60.81 -55.64,-72.02 -84.09,-135.68 -47.06,-105.09 -38.96,-75.63 -97.64,-155.2 -69.81,-94.68 -134.47,-155.11 -175.17,-268.19 -54.07,-149.88 -123.61,-118.91 -141,-343.17 -144.34,-82.17 -129.79,-139.55 -212.76,-284.25 -38.33,-66.76 -23.4,-71.11 -51.67,-123.31 -71.85,-132.81 -61.91,6.27 -135.12,-184.48 -30.11,-78.47 -13.46,-60.04 -57.74,-121.39 -96.99,-134.29 -56.2,-134.38 -111.28,-214.15l-124.14 -220.78c-28.19,-67.41 -11.8,-26.71 -28.01,-50.93l-277.15 -521.56c-158.96,-216.28 -255.38,-423.12 -372.81,-649.7 -65.4,-126.39 -96.07,-60.99 -123.05,-220.86 -36.38,-215.63 -60.81,-137.81 -118.46,-211.4 -58.86,-74.95 6.09,-126.27 -96.9,-254.73l-22.92 -27.01c-176.29,-238.43 -211.55,-311.02 -478.47,-494.32 -62.17,-42.62 -473.97,-127.75 -589.48,-120.39 -130.59,8.4 -175.25,40.64 -293.63,63.56 -215.16,41.62 -472.93,258.55 -598.2,426.61 -58.86,79.03 -20.44,52.5 -53.51,124.82 -52.77,115.21 3.14,-6.36 -74.6,95.95l-243.82 429.75c-65.01,72.85 -75.69,129.97 -132.63,216.63l-378.25 646.74c-46.88,98.2 -83.35,115.59 -124.53,225.39 -89.98,240.12 -248.4,435.37 -361.42,663.42l-112.99 208.89c-53.15,61.61 -60.99,149.93 -122.22,228.05 -7.93,9.94 -34.73,36.29 -35.46,37.21 -47.18,58.3 -40.43,106.01 -83,170.58 -24.49,37.21 -47.33,48.45 -80.57,91.28 -107.49,138.43 -127.13,157.57 -183.77,336.9 -42.18,133.73 -197.08,290.58 -258.16,415.94l-220.39 480.24c-25.79,49.99 -32.06,72.02 -51.41,122.66 -28.54,74.8 -225.18,336.1 -299.87,545.25 -30.94,86.96 -95.07,135.03 -126.27,225.09 -21.74,62.56 -18.16,72.68 -49.93,128.4 -34.25,60.34 -26.8,25.62 -62.53,111.16 -22.01,52.98 -20.17,64.39 -44.66,106.84 -116.51,201.9 -179.42,363.82 -326.7,547.65 -64.48,80.6 -26.06,29.11 -56.38,123.52 -35.17,109.5 11.89,13.55 -59.48,111.9 -79.77,109.89 -42.65,124.79 -99.86,226.22 -50.93,90.54 -28.63,23.93 -75.16,97.08l-116.42 236.99c-70.25,135.74 -119.44,249.14 -64.36,403.31 117.34,328.09 85.19,729.38 157.86,1215.48 29.55,198.12 109.06,305.61 114.47,556.58 6,277.06 8.4,379.11 65.31,631.3z"/>
   </clipPath>
    <clipPath id="id14">
     <path d="M28783.33 12176.83c-64.93,34.16 -82.44,41.06 -162,161.62 -60.34,91.28 -47.8,150.32 -44.75,279.08l-300.17 2024.55c-45.14,140.62 -60.61,56.91 -74.89,246.45 -14.82,197.02 -22.39,433.15 -53.42,622.54 -40.43,247.28 -21.65,350.06 151.68,476.63l657.18 490.71c210.54,141.21 200.31,172.89 488.4,360.68l1329.62 992.69c82.05,75.16 114.65,73.77 202.05,147.18 86.7,72.85 116.24,60.96 204.03,123.7 66.02,47.24 119,111.63 182.35,165.76 75.07,64.04 108.58,57.03 192.11,130.71l549.31 449.83c146.65,106.1 209,116.6 393.1,281.29 202.64,181.26 382.51,236.6 745.38,602.73 107.31,108.2 315.01,224.44 538.9,434.81 84.57,79.48 136.51,89.33 202.17,147.63l515.41 482.07c70.28,53.06 135.59,100.12 194.45,155.85 227.19,215.33 344.74,279.52 540.26,434.28 116.98,92.55 83.91,72.94 248.22,107.02l513.1 155.47c131.89,44.4 104.92,75.99 210.75,109.23 99.83,31.41 195.43,19.34 287.18,65.84 135.65,68.8 25.5,52.24 237.99,84.3 115.59,17.39 163.39,35.35 254.94,76.17 184.1,81.87 367.13,53.95 544.6,128.37 103.05,43.21 146.8,50.49 258.64,66.97 175.08,25.79 117.87,47.15 244.44,94.95 188.06,71.11 668.12,116.16 195.25,-339.39 -34.25,-33.07 -184.01,-250.8 -297.95,-351.1 -64.3,-56.64 -112.37,-112.81 -166.71,-182.74 -62.44,-80.31 -87.88,-98.65 -153.81,-170.58l-526.95 -622.78c-112.9,-174.37 -28.81,-80.04 -224.27,-274.11l-754.79 -919.01c-86.46,-121.57 -203.35,-202.61 -329.98,-342.82 -55.46,-61.32 -91.28,-112.55 -148.93,-175.9l-927.94 -1093.26c-86.96,-88.71 -64.87,-104.65 -130.44,-195.81 -42.92,-59.6 -108.2,-114.85 -155.82,-167.74 -53.15,-59.22 -88.62,-114.29 -147.66,-177 -218,-231.66 -603.44,-746.86 -776.15,-921.79 -280.35,-283.84 -312.32,-213.94 -593.14,22.66 -94.68,79.77 -369.62,458.68 -463.74,560.1 -194.42,209.54 -258.46,128.11 -419.25,-30.32l-743.28 -902.24c-89.8,-167.8 -158.04,-192.5 -270.97,-405.35l-378.82 -623.55c-112.72,-307.62 -195.16,-151.68 -368.14,-636.59 -42.09,-117.9 -72.68,-104.65 -138.07,-204.39 -26.15,-39.78 -116.04,-175.55 -127.37,-198.86 -62.83,-128.19 22.83,-73.68 -225.66,-447.14 -87.05,-130.71 -51.2,-139.46 -114.38,-207.52 -89.27,-96.25 -41.91,28.54 -144.17,-181.08 -33.34,-68.33 -93.85,-141.74 -142.39,-206.22 -75.96,-100.83 -72.02,-78.18 -115.68,-209.15 -15.26,-45.79 -269.29,-476.54 -340.04,-509.43 -88.88,-41.35 -102.31,4.79 -119.82,14.02z"/>
    </clipPath>
    <clipPath id="id15">
     <path d="M14742.35 18879.91c-144.58,-6.27 -217.91,-155.64 -302.27,-242.78 -96.07,-99.18 -197.76,-147.45 -301.08,-247.66 -123.34,-119.65 -515.97,-388.58 -755.8,-388.49 0.09,247.4 75.51,239.47 217.17,526l278.69 472.31c225.21,288.1 141.86,512.63 676.32,797.24 142.6,75.99 209.45,68.89 331.49,167.18 117.99,95.04 638.37,347.58 801.76,422.38 58.65,26.89 121.39,38.78 180.52,69.98 71.58,37.86 70.93,53.06 152.8,92.85l824.33 424.69c71.85,45.67 108.85,35.64 181.91,70.63 87.11,41.82 36.56,49.54 157.95,91.46l343 154.73c113.73,52.5 338.94,180.34 491.54,229.53 102.79,33.25 98.38,43.92 172.98,80.04l497.37 247.31c67.68,30.85 116.69,32.6 186.97,63.83 204.18,90.42 141.65,76.25 408.28,95.42 313.62,22.45 640.5,20.53 973.82,23.84 362.04,3.7 611.1,27.45 949.3,47.53 1238.52,73.3 2641.18,70.81 3891.09,24.31l-2.28 -122.04c-54.99,-26.98 -80.78,-26.62 -142.87,-46.05l-90.07 -38.69c-4.79,-2.66 -10.5,-6.98 -15.2,-9.85 -127.19,-76.34 -96.43,-39.78 -222.91,-75.25 -134.91,-37.86 -37.48,-31.03 -142.01,-83.26 -87.05,-43.48 -228.32,-39.78 -354.71,-98.56 -145.14,-67.59 -215.24,-20.88 -336.72,-110.89 -121.92,-90.24 -200.96,-49.72 -329.45,-119.82 -79.57,-43.36 -65.66,-55.16 -141,-77.17l-680.19 -227.22c-175.73,-35.08 -55.99,-40.61 -334.8,-115.21 -179.31,-48.01 45.7,-42.92 -322.44,-127.57 -84.36,-19.43 -84.27,-28.63 -162.56,-61.61 -283.78,-119.56 -157.77,15.47 -320.34,-126.27 -66.23,-57.77 -562.56,-177.03 -664.52,-234.59 -210.01,-118.55 -203.18,-24.14 -311.88,-140.38 -132.54,-141.65 -13.25,22.01 -302.65,-137.96l-369.5 -172.24c-68.18,-17.13 -38.04,-0.65 -102.99,-29.67 -75.16,-33.6 -60.61,-43.01 -149.93,-69.45 -51.76,-15.38 -24.79,-2.57 -79.95,-23.66 -120.92,-46.05 -49.37,-49.72 -256.12,-93.68 -222.25,-47.24 -324.3,-179.22 -651.83,-250.41 -97.43,-21.09 -80.78,-30.5 -158.13,-68.45 -76.28,-37.39 -85.22,-25.23 -182.38,-45.11l-315.55 -132.36c-70.81,-31.68 -66.14,-50.67 -150.02,-74.89l-477.37 -196.26c-87.05,-45.05 -66.23,-35.64 -165.26,-61.7l-775.14 -345.86c-63.92,-33.25 -248.28,-86.75 -334.33,-119.35 -96.43,-36.68 -77.17,-43.95 -136.95,-84.39 -73.95,-49.9 -82.05,-33.6 -175.19,-53.77 -120.18,-26.18 -57.56,-26.35 -148.28,-74.24 -63.74,-33.51 -97.34,-28.19 -164.13,-61.7 -79.57,-40.08 -50.11,-46.53 -144.88,-81.99 -260.17,-97.52 -172.77,-117.34 -317.85,-134.64 -96.69,-11.59 -137.13,-1.3 -210.9,-25.79 -10.8,383.61 25.41,250.15 46.88,487.43 14.91,165.58 29.02,358.38 -61.73,442.26z"/>
    </clipPath>
    <clipPath id="id16">
     <path d="M23589.35 20157.66c121.57,123.79 409.19,253.19 590.57,348.35l263.4 136.59c83.53,32.33 72.02,11.77 146.62,53.86 329.36,185.78 108.88,1.12 370.74,202.56 62.8,48.45 51.47,29.46 139.17,56.44 154.25,47.62 360.57,194.07 546.62,256.06 101.96,33.99 169.01,76.34 258.16,117.07l809.42 364.53c189.07,121.04 124.53,54.42 260.74,111.45 249.67,104.53 324.75,118.34 637.81,156.56 125.44,15.29 258.9,8.58 387.22,8.67 1053.83,0.74 1999.2,66.97 3045.93,81.25 1047.41,14.35 2103.11,-1.12 3121.48,-19.73 -7.93,-168.54 -72.47,-123.88 -220.48,-181.08 -122.31,-47.24 -146.53,-94.86 -294.63,-130.24l-142.95 -55.99c-50.85,-33.34 -76.25,-52.12 -151.41,-73.77 -124.17,-35.55 -237.9,-27.45 -341.16,-84.83 -76.82,-42.65 -30.76,-40.88 -128.67,-68.62 -52.59,-14.82 -114.56,-18.96 -168.72,-30.29 -197.29,-41.44 -83.35,-66.49 -313.71,-112.46 -203.18,-40.52 -147.27,-89.53 -298.42,-126.92 -64.66,-16.03 -125.53,-8.58 -181.08,-22.66 -71.73,-18.22 -72.02,-53.33 -128.28,-89.98 -85.13,-55.55 -187.44,-45.05 -295.85,-105.27 -234.5,-130.53 -145.35,-52.06 -309.84,-113.2 -78.83,-29.28 -51.29,-35.46 -136.95,-64.39 -75.07,-25.41 -109.62,-18.43 -178.77,-47.33 -162.65,-68.27 -60.04,-88.8 -300.82,-121.6 -241.39,-32.95 -71.37,-74.21 -452.58,-148.19 -126.27,-24.49 -63,-21.27 -147.36,-75.25 -96.16,-61.61 -216.28,-43.92 -327.61,-99.09 -66.05,-32.71 -58.6,-44.66 -133.76,-67.79 -72.2,-22.18 -114.74,-16.39 -184.57,-40.43 -120.27,-41.44 -121.1,-87.32 -263.49,-129.32 -138.25,-40.88 -200.69,-114.2 -280.73,-139.43 -201.9,-63.65 8.37,34.99 -318.03,-109.06 -453.53,-200.22 -664.63,-3.05 -1065.84,15.65 -158.13,7.39 -251.06,-19.97 -414.1,12.9 -137.78,27.83 -235.03,43.3 -386.62,38.51 -264.73,-8.37 -488.43,-29.67 -766.68,7.84 -103.97,13.9 -221.96,60.87 -347.7,80.87 -137.6,21.83 -269.31,3.96 -402.57,20.79 -364.56,46.14 -134.85,92.02 -754.14,82.26 -164.69,-2.57 -647.39,45.97 -740.33,104.71z"/>
    </clipPath>
  <linearGradient id="id17" gradientUnits="userSpaceOnUse" x1="-35224.75" y1="-34153.67" x2="-12164.8" y2="-34153.67">
   <stop offset="0" style="stop-opacity:1; stop-color:#1D4859"/>
   <stop offset="1" style="stop-opacity:1; stop-color:#9DC6CA"/>
  </linearGradient>
  <linearGradient id="id18" gradientUnits="objectBoundingBox" xlink:href="#id17" x1="100%" y1="50%" x2="0%" y2="50%">
  </linearGradient>
  <linearGradient id="id19" gradientUnits="objectBoundingBox" xlink:href="#id17" x1="1.27428e-05%" y1="50%" x2="100%" y2="50%">
  </linearGradient>
  <linearGradient id="id20" gradientUnits="userSpaceOnUse" xlink:href="#id17" x1="20514.38" y1="-28654.3" x2="38095.87" y2="-28654.3">
  </linearGradient>
 </defs>
 <g id="Layer_x0020_1">
  <metadata id="CorelCorpID_0Corel-Layer"/>
  <g id="_2781494197856">
   <path class="fil0" d="M87142.21 14401.31l-7.51 -2982.46c1465.8,-114.91 2894.55,-70.63 2843.91,1553.71 -23.16,746.86 -321.52,1144.14 -887.04,1340.36 -385.77,133.76 -1564.57,283.81 -1949.36,88.38zm2.4 -6403.24c668.27,-61.38 1486.1,-109.94 1980.03,220.98 544.43,364.68 661.74,1779.67 -776.12,1960.89 -139.35,17.39 -1015.05,37.06 -1111.9,6.39 -149.88,-47.47 -107.52,72.7 -103.85,-506.57 1.12,-187.62 0.8,-375.53 0.95,-563.3 0.18,-355.71 -20.44,-770.38 10.88,-1118.4zm2850.77 2634.58c110.09,-109.32 256.8,-182.65 397.75,-302.18 1150.38,-975.24 731.72,-2517.3 -190.96,-3145.46 -1080.07,-735.53 -3167.68,-548.89 -4660.16,-445.99l0.95 9009.54c1225,74.92 3356.54,153.4 4486.15,-323.77 1991.72,-841.16 1930.99,-3218.14 929.54,-4187.97 -396.77,-384.32 -784.28,-457.17 -963.26,-604.18z"/>
   <g style="clip-path:url(#id0)">
    <g>
     <rect class="fil1" x="28415.01" y="20607.57" width="88525.15" height="35206.97"/>
    </g>
   </g>
   <path class="fil2" d="M87142.21 14401.31l-7.51 -2982.46c1465.8,-114.91 2894.55,-70.63 2843.91,1553.71 -23.16,746.86 -321.52,1144.14 -887.04,1340.36 -385.77,133.76 -1564.57,283.81 -1949.36,88.38zm2.4 -6403.24c668.27,-61.38 1486.1,-109.94 1980.03,220.98 544.43,364.68 661.74,1779.67 -776.12,1960.89 -139.35,17.39 -1015.05,37.06 -1111.9,6.39 -149.88,-47.47 -107.52,72.7 -103.85,-506.57 1.12,-187.62 0.8,-375.53 0.95,-563.3 0.18,-355.71 -20.44,-770.38 10.88,-1118.4zm2850.77 2634.58c110.09,-109.32 256.8,-182.65 397.75,-302.18 1150.38,-975.24 731.72,-2517.3 -190.96,-3145.46 -1080.07,-735.53 -3167.68,-548.89 -4660.16,-445.99l0.95 9009.54c1225,74.92 3356.54,153.4 4486.15,-323.77 1991.72,-841.16 1930.99,-3218.14 929.54,-4187.97 -396.77,-384.32 -784.28,-457.17 -963.26,-604.18z"/>
   <path class="fil0" d="M65745.32 10419.47c170.67,132.31 3083.76,3984.38 3384.34,4365.65 209.98,266.39 371.07,474.92 567.62,732.7 269.58,354.09 239.06,426.5 884.97,334.59l-4.79 -8766.46 -1461.69 1.27 -6.86 5179.18c-123.2,-62.65 -1974.15,-2465.36 -2222.78,-2774.87 -379.2,-472.2 -720.04,-941.05 -1103.7,-1408.63 -262.57,-319.75 -675.16,-972.05 -902.39,-999.67 -132.96,-16.15 -455.57,-1.77 -608.2,5.27l1.12 8668.68 1459.27 -18.52 13.1 -5319.18z"/>
   <g style="clip-path:url(#id1)">
    <g>
     <rect class="fil1" x="28415.01" y="20607.57" width="88525.15" height="35206.97"/>
    </g>
   </g>
   <path class="fil2" d="M65745.32 10419.47c170.67,132.31 3083.76,3984.38 3384.34,4365.65 209.98,266.39 371.07,474.92 567.62,732.7 269.58,354.09 239.06,426.5 884.97,334.59l-4.79 -8766.46 -1461.69 1.27 -6.86 5179.18c-123.2,-62.65 -1974.15,-2465.36 -2222.78,-2774.87 -379.2,-472.2 -720.04,-941.05 -1103.7,-1408.63 -262.57,-319.75 -675.16,-972.05 -902.39,-999.67 -132.96,-16.15 -455.57,-1.77 -608.2,5.27l1.12 8668.68 1459.27 -18.52 13.1 -5319.18z"/>
   <path class="fil0" d="M41054.25 12672.78c82.91,-445.37 716.69,-2195.78 930.02,-2885.32 21.09,-67.91 41.06,-145.73 60.07,-198.62l93.17 -180.4c107.22,159.31 998.58,2906.23 1086.46,3273.6l-2169.72 -9.26zm-481.63 1237.31l3131.06 19.31 643.99 1825.36 1757.92 -7.01 -3616.68 -9155.13 -701.37 6.06 -3577.85 9158 1750.88 -11.03 612.04 -1835.57z"/>
   <g style="clip-path:url(#id2)">
    <g>
     <rect class="fil1" x="28415.01" y="20607.57" width="88525.15" height="35206.97"/>
    </g>
   </g>
   <path class="fil2" d="M41054.25 12672.78c82.91,-445.37 716.69,-2195.78 930.02,-2885.32 21.09,-67.91 41.06,-145.73 60.07,-198.62l93.17 -180.4c107.22,159.31 998.58,2906.23 1086.46,3273.6l-2169.72 -9.26zm-481.63 1237.31l3131.06 19.31 643.99 1825.36 1757.92 -7.01 -3616.68 -9155.13 -701.37 6.06 -3577.85 9158 1750.88 -11.03 612.04 -1835.57z"/>
   <polygon class="fil0" points="73928.88,8432.22 77885.93,8427.76 77876.67,7084.02 72375.97,7091.03 72376.91,15756.37 77886.58,15752.88 77870.93,14413.11 73910.66,14411.04 73933.2,11768.8 76737.32,11750.72 76717.98,10485.14 73910.81,10483.07 "/>
   <g style="clip-path:url(#id3)">
    <g>
     <rect class="fil1" x="28415.01" y="20607.57" width="88525.15" height="35206.97"/>
    </g>
   </g>
   <polygon class="fil2" points="73928.88,8432.22 77885.93,8427.76 77876.67,7084.02 72375.97,7091.03 72376.91,15756.37 77886.58,15752.88 77870.93,14413.11 73910.66,14411.04 73933.2,11768.8 76737.32,11750.72 76717.98,10485.14 73910.81,10483.07 "/>
   <path class="fil0" d="M55311.51 8395.96c542.68,-81.81 1428.12,-10.88 1863.4,193.83 506.71,238.4 813.71,552.41 770.23,1305.37 -73.5,1271.35 -1236.51,1409.43 -2250.59,1371.86 -465.33,-17.24 -356.84,-37.71 -406.68,-114.56l23.63 -2756.5zm-15 4177.08c1252.16,48.75 2413.57,21.74 3255.38,-643.66 705.34,-557.53 1134.4,-1630.41 905.58,-2895.35 -192.23,-1062.35 -991.07,-1613.96 -2063.8,-1835.45 -844.68,-174.34 -2870.12,-259.82 -3627.07,-92.05l15.32 8651.14 1505.8 -5.77 8.78 -3178.86z"/>
   <g style="clip-path:url(#id4)">
    <g>
     <rect class="fil1" x="28415.01" y="20607.57" width="88525.15" height="35206.97"/>
    </g>
   </g>
   <path class="fil2" d="M55311.51 8395.96c542.68,-81.81 1428.12,-10.88 1863.4,193.83 506.71,238.4 813.71,552.41 770.23,1305.37 -73.5,1271.35 -1236.51,1409.43 -2250.59,1371.86 -465.33,-17.24 -356.84,-37.71 -406.68,-114.56l23.63 -2756.5zm-15 4177.08c1252.16,48.75 2413.57,21.74 3255.38,-643.66 705.34,-557.53 1134.4,-1630.41 905.58,-2895.35 -192.23,-1062.35 -991.07,-1613.96 -2063.8,-1835.45 -844.68,-174.34 -2870.12,-259.82 -3627.07,-92.05l15.32 8651.14 1505.8 -5.77 8.78 -3178.86z"/>
   <path class="fil0" d="M83279.26 8802.16c102.76,-316.58 411.97,-1046.85 438,-1327.76 -690.01,-385.59 -1073.03,-506.57 -2031.17,-532.77 -2856.72,-78.29 -3494.61,2778.07 -2014.9,4103.76 862.28,772.3 2511.24,1057.06 2884.05,2183.47 300.25,907.48 -366.75,1295.64 -1171.97,1325.04 -961.49,34.84 -1290.37,-306.17 -1906.38,-626.71 -115.86,112.34 -540.91,1206.61 -567.29,1340.36 407.51,358.91 1305.07,583.26 1958.32,627.37 2837.52,191.61 4059.18,-2200.25 2774.58,-3969.53 -693.68,-955.57 -2305.25,-1216.52 -3008.99,-2146.06 -662.83,-875.53 301.23,-2002.42 1831.61,-1397.92 345.3,136.48 535.64,281.41 814.16,420.76z"/>
   <g style="clip-path:url(#id5)">
    <g>
     <rect class="fil1" x="28415.01" y="20607.57" width="88525.15" height="35206.97"/>
    </g>
   </g>
   <path class="fil2" d="M83279.26 8802.16c102.76,-316.58 411.97,-1046.85 438,-1327.76 -690.01,-385.59 -1073.03,-506.57 -2031.17,-532.77 -2856.72,-78.29 -3494.61,2778.07 -2014.9,4103.76 862.28,772.3 2511.24,1057.06 2884.05,2183.47 300.25,907.48 -366.75,1295.64 -1171.97,1325.04 -961.49,34.84 -1290.37,-306.17 -1906.38,-626.71 -115.86,112.34 -540.91,1206.61 -567.29,1340.36 407.51,358.91 1305.07,583.26 1958.32,627.37 2837.52,191.61 4059.18,-2200.25 2774.58,-3969.53 -693.68,-955.57 -2305.25,-1216.52 -3008.99,-2146.06 -662.83,-875.53 301.23,-2002.42 1831.61,-1397.92 345.3,136.48 535.64,281.41 814.16,420.76z"/>
   <polygon class="fil0" points="106636.54,8431.1 109398.78,8443.26 109401.03,15756.37 110926.94,15751.43 110938.26,8432.87 113819.26,8416.25 113812.7,7084.32 106637.63,7087.54 "/>
   <g style="clip-path:url(#id6)">
    <g>
     <rect class="fil1" x="28415.01" y="20607.57" width="88525.15" height="35206.97"/>
    </g>
   </g>
   <polygon class="fil2" points="106636.54,8431.1 109398.78,8443.26 109401.03,15756.37 110926.94,15751.43 110938.26,8432.87 113819.26,8416.25 113812.7,7084.32 106637.63,7087.54 "/>
   <path class="fil0" d="M47038.98 15757.02l5455.48 -8.78 -13.58 -1330.81c-684.42,-34.81 -3575.48,52.41 -3913.3,-30.2l-11.51 -7303.53 -1518.4 5.44 1.3 8667.88z"/>
   <g style="clip-path:url(#id7)">
    <g>
     <rect class="fil1" x="28415.01" y="20607.57" width="88525.15" height="35206.97"/>
    </g>
   </g>
   <path class="fil2" d="M47038.98 15757.02l5455.48 -8.78 -13.58 -1330.81c-684.42,-34.81 -3575.48,52.41 -3913.3,-30.2l-11.51 -7303.53 -1518.4 5.44 1.3 8667.88z"/>
   <path class="fil0" d="M101601.94 15757.96l5397.32 -0.3c72.38,-194.33 43.95,-1093.67 20.76,-1344.38 -579.42,-5.77 -3624.34,42.5 -3917.74,-25.88l-9.26 -7304.98 -1512.01 16.12 20.91 8659.42z"/>
   <g style="clip-path:url(#id8)">
    <g>
     <rect class="fil1" x="28415.01" y="20607.57" width="88525.15" height="35206.97"/>
    </g>
   </g>
   <path class="fil2" d="M101601.94 15757.96l5397.32 -0.3c72.38,-194.33 43.95,-1093.67 20.76,-1344.38 -579.42,-5.77 -3624.34,42.5 -3917.74,-25.88l-9.26 -7304.98 -1512.01 16.12 20.91 8659.42z"/>
   <path class="fil3" d="M94900.37 7205.95l172.74 1521.41c561.2,-349.3 1039.49,-615.53 1931.79,-375.68 2214.47,595.57 1719.27,4357.19 1114.59,5187.02l70.49 1897.77c394.05,-113.14 888.63,-638.07 1105.15,-926.2 959.56,-1277.74 1124.5,-3406.08 695.43,-4895.08 -506.39,-1757.13 -1665.73,-2571.28 -3358.93,-2666.05 -1025.26,-57.35 -1174.99,154.7 -1731.24,256.8z"/>
   <g style="clip-path:url(#id9)">
    <g>
     <rect class="fil1" x="28415.01" y="20607.57" width="88525.15" height="35206.97"/>
    </g>
   </g>
   <path class="fil2" d="M94900.37 7205.95l172.74 1521.41c561.2,-349.3 1039.49,-615.53 1931.79,-375.68 2214.47,595.57 1719.27,4357.19 1114.59,5187.02l70.49 1897.77c394.05,-113.14 888.63,-638.07 1105.15,-926.2 959.56,-1277.74 1124.5,-3406.08 695.43,-4895.08 -506.39,-1757.13 -1665.73,-2571.28 -3358.93,-2666.05 -1025.26,-57.35 -1174.99,154.7 -1731.24,256.8z"/>
   <path class="fil0" d="M98137.05 15482.17l-327.08 -1500.35c-937.56,795.64 -2459.95,859.71 -3104.7,-298.01 -521.44,-936.43 -705.51,-2724.23 -274.37,-3858.79 9.91,-284.61 -221.96,-1947.14 -317.68,-2095.6 -1997.01,1444.24 -2239.41,6814.56 801.85,7952.63 915.97,342.76 2452.4,265.74 3221.98,-199.89z"/>
   <g style="clip-path:url(#id10)">
    <g>
     <rect class="fil1" x="28415.01" y="20607.57" width="88525.15" height="35206.97"/>
    </g>
   </g>
   <path class="fil2" d="M98137.05 15482.17l-327.08 -1500.35c-937.56,795.64 -2459.95,859.71 -3104.7,-298.01 -521.44,-936.43 -705.51,-2724.23 -274.37,-3858.79 9.91,-284.61 -221.96,-1947.14 -317.68,-2095.6 -1997.01,1444.24 -2239.41,6814.56 801.85,7952.63 915.97,342.76 2452.4,265.74 3221.98,-199.89z"/>
   <path class="fil0" d="M60916.89 15527.55c0.65,205.81 -20.14,229.62 189.22,235.21l1330.63 -8.46c56.55,-2708.41 20.62,-5904.19 2.72,-8670.27l-1520.17 21.71 -2.4 8421.81z"/>
   <g style="clip-path:url(#id11)">
    <g>
     <rect class="fil1" x="28415.01" y="20607.57" width="88525.15" height="35206.97"/>
    </g>
   </g>
   <path class="fil2" d="M60916.89 15527.55c0.65,205.81 -20.14,229.62 189.22,235.21l1330.63 -8.46c56.55,-2708.41 20.62,-5904.19 2.72,-8670.27l-1520.17 21.71 -2.4 8421.81z"/>
  </g>
  <path class="fil4" d="M94113.22 7775.69c95.72,148.46 327.58,1810.99 317.68,2095.6 103.7,147.48 264.29,1547.62 303.77,1845.18 231.07,-65.84 1128.49,-893.28 1428.09,-1004.49l309.69 2867.25c337.49,-51.14 810.34,-465.19 1154.22,-515.5 61.35,150.2 185.84,793.07 183.3,964.36l327.08 1500.35 52.92 -45.7 -70.49 -1897.77 -84.06 -1620.65c-285.38,102.9 -775.32,568.86 -1053.68,630.09 -49.87,-458.8 -237.46,-2709.53 -351.25,-2932.62 -394.52,116.01 -1023.48,722.76 -1380.32,804.42l-177.06 -1692.59 -172.74 -1521.41 -89.33 -282.21c-241.78,124.17 -439.6,324.39 -681.7,470.78l-16.12 334.92z"/>
  <path class="fil0" d="M0.12 22416.88c219.65,68.15 3945.81,25.32 4505.79,25.97l9137.94 1.75c757.19,2.22 1514.64,1.39 2271.91,2.66 371.98,0.65 784.72,-8.55 1128.81,19.43 184.57,15.03 374.41,-8.64 561.73,13.46 152.8,17.95 385.35,39.04 492.84,-25.53 -64.27,-184.28 -812.26,-274.82 -1034.22,-298.39 -160.52,-17.16 -218.56,-93.59 -336.55,-132.54l-771.56 -157.6c-162.27,-31.24 -172.5,-77.73 -335.51,-112.72 -94.77,-20.38 -290.88,-62.35 -382.16,-95.33 -141.18,-51.11 -187.59,-56.94 -359.38,-86.96 -209.98,-36.65 -263.13,-97.34 -422.92,-148.46 -13.1,-4.23 -63.74,-23.22 -90.27,-33.25 -56.55,-21.3 -88.8,-40.43 -166.14,-58.12 -217.2,-49.63 -196.02,18.22 -393.19,-84.45 -137.33,-71.49 -212.67,-55.93 -347.88,-100.12 -240.68,-78.86 -45.79,-55.16 -377.37,-99.95 -208.89,-28.07 -562.74,-140.26 -714.24,-213.5 -161.83,-78.18 -230,-23.66 -376.06,-73.77 -126.36,-43.27 -187.26,-86.49 -343.26,-128.93 -156.03,-42.48 -141.3,-100.77 -319.89,-126.27 -162,-23.22 -230.15,-45.23 -370.15,-106.39 -214.62,-93.85 -579.71,-57.74 -859.88,-57.65l-2746.33 -24.88c-216.72,-0.92 -763.37,67.71 -855,-80.78 -33.34,-54.04 -42.56,-118.52 -13.81,-190.07l225.18 -355.27c87.05,-116.13 166.26,-204.27 233.67,-338.74l536.32 -844.03c23.57,-47.44 54.34,-91.93 83.91,-138.34l188.98 -262.51c26.89,-41.26 13.9,-18.22 54.42,-64.75l333.32 -466.22c49.75,-70.72 30.58,-90.54 94.68,-155.29 154.46,-156.38 164.78,-270.97 277.15,-397.07l210.63 -261.21c3.96,-6.15 14.94,-25.23 19.17,-31.38l600.24 -975.21c66.85,-77.35 151.32,-171.68 202.08,-247.19 65.93,-97.99 108.49,-185.7 188.98,-284.43l360.59 -566.52c147.72,-237.43 -54.34,-321.91 -15.29,-790.26 11.68,-141.09 -19.34,-703.94 -58.6,-821.28 -156.83,-469.53 -66.32,-489.88 -135.47,-791.71 -27.36,-119.17 -67.5,-204.74 -77.82,-359.77 -12.07,-180.05 16.03,-281.83 -22.21,-457.85 -29.93,-137.69 -26.71,-274.9 -58.3,-395.2 -31.38,-119.82 -85.01,-219.12 -111.33,-359.56 -64.22,-341.72 45.58,-478.2 -94.89,-831.34 -135.83,-341.34 -102.49,-464.12 -186.23,-738.2 -114.38,41.53 -99.09,114.38 -151.41,220.3l-124.05 224.27c-40.52,74.15 -80.22,152.89 -124.17,225.92l-267.18 433.36c-2.57,4.7 -6.36,10.97 -9.02,15.47l-338.38 507.04c-4.44,5.71 -17.24,22.27 -21.56,28.19 -3.22,4.32 -7.28,10.59 -10.41,14.91 -3.14,4.41 -7.1,10.68 -10.32,15.11 -99.56,136.77 -102.58,113.55 -168.54,287.54 -29.76,78.65 -80.57,124.62 -154.82,186.52 -128.96,107.37 -175.19,313.51 -267.3,433.98 -28.63,37.48 -50.64,50.2 -77.26,95.69 -104,177.41 -195.9,382.25 -355.33,519.02l-200.51 249.14c-98.17,113.38 -157.03,255.12 -255.94,367.75 -106.31,120.95 -173.98,283.78 -255.97,444.39 -57.92,113.67 -93.2,95.98 -148.37,204.3 -81.96,160.91 -279.9,331.67 -392.63,477.28 -50.4,65.19 -31.24,65.93 -67.97,133.46 -45.7,83.89 -97.91,104.53 -150.7,196.82 -80.31,140.56 -165.23,221.69 -241.01,360.77 -2.69,4.97 -6,11.51 -8.76,16.39l-975.09 1245.32c-108.88,132.81 -74.15,16.77 -146.18,207.35 -65.58,173.24 -196.64,254.29 -298.42,395.47 -61.61,85.48 -65.01,146 -131.8,217.73 -46.05,49.57 -40.88,27.66 -82.35,96.55 -33.87,56.55 -21.36,55.25 -63.09,109.89l-169.55 175.43c-76.37,59.04 -68.15,97.82 -129.79,172.53 -3.22,3.93 -8.28,9.38 -11.51,13.43l-384.61 536.88c-23.22,40.88 -39.99,71.46 -62.53,114.47 -68.18,129.7 -324.86,445.25 -438.98,636.89 -138.69,232.84 -314.16,397.15 -439.69,634.14 -16.59,31.32 -40.26,66.79 -70.46,101.96 -28.93,33.63 -63.92,61.17 -88.35,85.93 -98.53,100.3 -43.36,147.57 -113.73,237.55l-173.72 174.16c-107.02,113.2 -58.65,94.68 -135.2,217.82 -64.66,104.27 -169.1,191.97 -229.8,296.23 -44.22,76.08 -27.18,40.23 -70.01,100.18 -65.49,91.84 -54.25,145.08 -142.66,228.44 -208.15,196.26 -202.61,318.68 -356.54,520.82 -121.18,159.25 -350.06,493.23 -466.75,603.76 -132.93,125.89 -355.98,312.03 -350.01,525.17z"/>
  <g style="clip-path:url(#id12)">
   <g id="_2781494172272">
    <rect class="fil5" x="-35224.75" y="-44299.9" width="23059.95" height="20292.44"/>
   </g>
  </g>
  <path class="fil2" d="M0.12 22416.88c219.65,68.15 3945.81,25.32 4505.79,25.97l9137.94 1.75c757.19,2.22 1514.64,1.39 2271.91,2.66 371.98,0.65 784.72,-8.55 1128.81,19.43 184.57,15.03 374.41,-8.64 561.73,13.46 152.8,17.95 385.35,39.04 492.84,-25.53 -64.27,-184.28 -812.26,-274.82 -1034.22,-298.39 -160.52,-17.16 -218.56,-93.59 -336.55,-132.54l-771.56 -157.6c-162.27,-31.24 -172.5,-77.73 -335.51,-112.72 -94.77,-20.38 -290.88,-62.35 -382.16,-95.33 -141.18,-51.11 -187.59,-56.94 -359.38,-86.96 -209.98,-36.65 -263.13,-97.34 -422.92,-148.46 -13.1,-4.23 -63.74,-23.22 -90.27,-33.25 -56.55,-21.3 -88.8,-40.43 -166.14,-58.12 -217.2,-49.63 -196.02,18.22 -393.19,-84.45 -137.33,-71.49 -212.67,-55.93 -347.88,-100.12 -240.68,-78.86 -45.79,-55.16 -377.37,-99.95 -208.89,-28.07 -562.74,-140.26 -714.24,-213.5 -161.83,-78.18 -230,-23.66 -376.06,-73.77 -126.36,-43.27 -187.26,-86.49 -343.26,-128.93 -156.03,-42.48 -141.3,-100.77 -319.89,-126.27 -162,-23.22 -230.15,-45.23 -370.15,-106.39 -214.62,-93.85 -579.71,-57.74 -859.88,-57.65l-2746.33 -24.88c-216.72,-0.92 -763.37,67.71 -855,-80.78 -33.34,-54.04 -42.56,-118.52 -13.81,-190.07l225.18 -355.27c87.05,-116.13 166.26,-204.27 233.67,-338.74l536.32 -844.03c23.57,-47.44 54.34,-91.93 83.91,-138.34l188.98 -262.51c26.89,-41.26 13.9,-18.22 54.42,-64.75l333.32 -466.22c49.75,-70.72 30.58,-90.54 94.68,-155.29 154.46,-156.38 164.78,-270.97 277.15,-397.07l210.63 -261.21c3.96,-6.15 14.94,-25.23 19.17,-31.38l600.24 -975.21c66.85,-77.35 151.32,-171.68 202.08,-247.19 65.93,-97.99 108.49,-185.7 188.98,-284.43l360.59 -566.52c147.72,-237.43 -54.34,-321.91 -15.29,-790.26 11.68,-141.09 -19.34,-703.94 -58.6,-821.28 -156.83,-469.53 -66.32,-489.88 -135.47,-791.71 -27.36,-119.17 -67.5,-204.74 -77.82,-359.77 -12.07,-180.05 16.03,-281.83 -22.21,-457.85 -29.93,-137.69 -26.71,-274.9 -58.3,-395.2 -31.38,-119.82 -85.01,-219.12 -111.33,-359.56 -64.22,-341.72 45.58,-478.2 -94.89,-831.34 -135.83,-341.34 -102.49,-464.12 -186.23,-738.2 -114.38,41.53 -99.09,114.38 -151.41,220.3l-124.05 224.27c-40.52,74.15 -80.22,152.89 -124.17,225.92l-267.18 433.36c-2.57,4.7 -6.36,10.97 -9.02,15.47l-338.38 507.04c-4.44,5.71 -17.24,22.27 -21.56,28.19 -3.22,4.32 -7.28,10.59 -10.41,14.91 -3.14,4.41 -7.1,10.68 -10.32,15.11 -99.56,136.77 -102.58,113.55 -168.54,287.54 -29.76,78.65 -80.57,124.62 -154.82,186.52 -128.96,107.37 -175.19,313.51 -267.3,433.98 -28.63,37.48 -50.64,50.2 -77.26,95.69 -104,177.41 -195.9,382.25 -355.33,519.02l-200.51 249.14c-98.17,113.38 -157.03,255.12 -255.94,367.75 -106.31,120.95 -173.98,283.78 -255.97,444.39 -57.92,113.67 -93.2,95.98 -148.37,204.3 -81.96,160.91 -279.9,331.67 -392.63,477.28 -50.4,65.19 -31.24,65.93 -67.97,133.46 -45.7,83.89 -97.91,104.53 -150.7,196.82 -80.31,140.56 -165.23,221.69 -241.01,360.77 -2.69,4.97 -6,11.51 -8.76,16.39l-975.09 1245.32c-108.88,132.81 -74.15,16.77 -146.18,207.35 -65.58,173.24 -196.64,254.29 -298.42,395.47 -61.61,85.48 -65.01,146 -131.8,217.73 -46.05,49.57 -40.88,27.66 -82.35,96.55 -33.87,56.55 -21.36,55.25 -63.09,109.89l-169.55 175.43c-76.37,59.04 -68.15,97.82 -129.79,172.53 -3.22,3.93 -8.28,9.38 -11.51,13.43l-384.61 536.88c-23.22,40.88 -39.99,71.46 -62.53,114.47 -68.18,129.7 -324.86,445.25 -438.98,636.89 -138.69,232.84 -314.16,397.15 -439.69,634.14 -16.59,31.32 -40.26,66.79 -70.46,101.96 -28.93,33.63 -63.92,61.17 -88.35,85.93 -98.53,100.3 -43.36,147.57 -113.73,237.55l-173.72 174.16c-107.02,113.2 -58.65,94.68 -135.2,217.82 -64.66,104.27 -169.1,191.97 -229.8,296.23 -44.22,76.08 -27.18,40.23 -70.01,100.18 -65.49,91.84 -54.25,145.08 -142.66,228.44 -208.15,196.26 -202.61,318.68 -356.54,520.82 -121.18,159.25 -350.06,493.23 -466.75,603.76 -132.93,125.89 -355.98,312.03 -350.01,525.17z"/>
  <path class="fil3" d="M13559.2 10251.88c106.1,-45.7 102.87,-50.76 115.86,-180.08 16.3,-162.18 13.72,-94.77 95.42,-172.33l167.74 -262.13c44.93,-97.73 124.97,-171.02 164.75,-259.17l110.54 -189.27c66.49,-121.78 90.98,-42.56 170.46,-252.01 78.29,-206.1 194.81,-239.17 245.39,-329.06l94.77 -178.6c100.12,-159.61 143.31,-159.61 178.69,-277.89 32.6,-109.12 28.19,-90.72 95.33,-171.2l64.54 -87.05c37.77,-50.02 28.1,-33.42 71.49,-76.17 113.46,-111.9 145.05,-238.38 242.87,-331.37l255.59 -320.63c38.78,-52.86 98.73,-82.52 127.75,-142.39l114.38 -188.15c45.05,-99.56 60.43,-111.45 96.07,-179.6 51.38,-98.29 29.64,-117.81 108.67,-187.8 99.95,-88.62 61.35,-130.97 155.02,-274.58l172.68 -256.95c73.41,-170.58 37.39,-24.52 122.69,-174.28 137.51,-241.48 -72.11,48.63 142.1,-198.83l84.57 -147.66c16.65,-29.19 26.98,-42.56 47.06,-74.86 74.24,-119.47 308.62,-600.45 366.1,-654.78l330.48 -518.16c41.53,-70.75 53.98,-132.72 97.73,-204.83 58.65,-96.72 55.16,-214.06 129.32,-292.71l68.5 -86.02c130.15,-204.12 256.89,-27.27 208.71,191.55 -37.57,171.14 -100.75,34.73 -114.03,454.63 -8.19,257.63 -90.63,289.22 -119.65,454.71 -29.93,170.4 -10.12,373.02 -57.74,520.76 -108.76,336.55 -51.2,148.1 -85.84,492.58 -17.95,179.51 -72.5,300.43 -104.18,462.91 -27.89,143.58 -13.34,389.88 -75.25,500.86 -165.23,296.47 -80.87,331.02 -199.04,646.18 -30.5,81.43 -25.41,160.46 -47.53,253.67 -32.95,139.08 -106.28,191.29 -150.5,418.07 -32.03,164.75 -97.61,278.51 -130.5,444.83 -36.38,183.86 -93.59,237.64 -128.76,448.74 -34.99,209.92 -138.16,154.11 -129.32,452.14 128.22,-31.41 198.03,-261.12 276.5,-378.28l427.44 -650.23c40.08,-81.7 34.55,-110.8 83.83,-160.82 44.19,-44.84 19.7,-9.58 71.37,-80.4 93.03,-127.48 77.64,-72.59 137.25,-217.55l488.97 -655.49c63,-111.63 156.56,-177.59 220.48,-277.98 44.6,-70.1 28.1,-34.64 80.6,-92.11 103.05,-113.02 165.23,-260.09 284.78,-365.18 81.79,-71.85 81.05,-110.24 228.41,-100.12 26.09,66.05 52.15,102.87 95.15,156.94 106.66,134.02 31.5,65.31 93.85,203.47 47.8,105.89 77.38,58.48 121.21,177.09l91.28 214.8c33.99,73.21 28.72,132.99 58.83,216.07 40.26,111.45 78.38,94.21 113.67,180.99 44.66,109.97 20.71,120.56 89.15,214.68 62.26,85.66 45.14,135.38 99.92,200.87 80.42,95.98 64.3,-10.2 100.6,165.05 18.96,91.93 144.49,327.7 200.51,404.7 77.44,106.66 36.47,104.65 87.85,214.24 63.65,135.59 227.58,219.3 80.04,409.87 -114.94,148.46 -40.17,-9.49 -96.16,206.84l-199.69 371.01c-50.64,95.42 -37.48,151.8 -73.03,230.89 -44.49,98.82 -53.86,10.06 -119.44,179.69 -32.24,83.56 -53.06,115.06 -99.56,197.85 -75.81,135.12 -148.84,241.78 -185.52,393.19 -29.19,120.65 -139.43,339.77 -208.15,436.94l-146.09 226.48c-22.18,25.88 -17.04,15.65 -34.99,41.91l-140.91 233.47c-96.72,221.69 -44.22,177.95 -181.17,393.28 -53.33,83.83 -78.47,87.79 -122.31,180.61 -15.47,32.71 -33.72,81.99 -46.05,102.52l-52.68 71.76c-56.38,84.83 -85.39,143.96 -92.37,262.3 149.67,-25.79 165.88,-93.47 261.09,-224.44 28.57,-39.16 32.06,-32.15 72.41,-73.24 51.94,-52.95 81.79,-107.49 137.13,-163.93 134.94,-137.81 168.39,-236.25 271.89,-326.34 98.2,-85.36 189.39,-223.44 268.87,-330.84 43.84,-59.31 91.55,-105.36 134.73,-165.49 112.28,-156.21 520.11,-555.93 574.09,-704.77 3.14,-8.76 11.42,-47.44 15.29,-61.82 36.29,-134.47 174.25,-213.29 271.71,-319.21 225.01,-244.53 78.44,-18.25 181.7,-249.23 89.36,-33.9 155.94,-35.55 192.41,58.12 17.13,44.19 15.94,77.64 26.98,123.96 23.87,100.01 8.1,46.14 55.64,121.66 65.1,103.17 46.14,257.99 88.62,382.42 64.84,190.1 116.69,80.87 121.75,368.67 3.4,197.11 7.75,145.17 86.84,250.18 55.46,73.59 39.69,151.95 65.13,253.46 21.27,85.36 87.67,134.38 110.71,210.81 27.89,92.2 0.35,196.02 58.48,277.33 168.92,236.42 132.9,818.44 14.17,1080.84 -14.91,32.8 -4.88,1.92 -22.45,53.15 -52.41,152.24 -33.63,275.47 -119.29,456.64 -60.04,126.92 -52.12,156.5 -49.28,332.76 123.88,-21 207.7,-92.91 276.06,-192.85 133.55,-195.25 113.73,-127.66 232.07,-210.36 89.71,-62.83 47.09,-98.38 158.07,-160.35l82.23 -47.15c114.32,-68.8 157.89,-137.72 257.34,-193.53l488.17 -386.83c216.9,-227.76 443.74,-444.66 696.28,-625.47 53.8,-38.48 64.66,-48.98 132.1,-93.03 187.32,-122.22 419.9,-381.03 594.89,-529.31 72.38,-61.44 187.32,-142.01 243.23,-209.62 306.17,-370.36 735.36,-257.07 308.74,-894.52 -52.68,-78.83 -66.97,-64.63 -104.35,-119 -41.82,-60.78 -30.76,-106.84 -60.31,-164.58l-125.65 -173.8c-2.93,-4.79 -6.71,-11.03 -9.67,-15.74l-217.26 -356.72c-28.57,-43.3 -182.09,-387.22 -312.14,-587.08l-153.63 -296.02c-45.58,-84.92 -40.05,-54.16 -76.9,-151.86 -76.82,-203.83 -235.51,-330.19 -326.31,-541.11 -35.64,-82.7 -51.02,-83.18 -86.87,-140.17 -47.24,-75.16 -24.58,-64.22 -88.23,-138.25 -117.52,-136.68 -48.24,-170.58 -161,-288.39 -113.46,-118.61 -151.03,-300.7 -233.47,-440.16l-267.1 -401c-51.14,-93.68 -44.69,-38.25 -108.7,-120.21 -2.01,-2.48 -31.03,-54.6 -32.86,-58.74l-127.75 -227.61c-21.65,-35.64 -8.49,-28.54 -45.61,-62.8 -35.44,-32.71 1.95,-14.94 -64.93,-32.54 -5.97,-156.21 -44.66,-219.83 -122.31,-347.14 -40.7,-66.67 -35.73,-94.86 -73.41,-152.42 -72.38,-110.71 -50.64,-7.63 -96.04,-122.69 -44.49,-112.46 -66.61,-210.9 -151.06,-307.62 -169.93,-194.6 -76.55,-173.72 -169.66,-302.83 -60.22,-83.44 -98.65,-222.7 -158.69,-291.5 -52.95,-60.81 -55.64,-72.02 -84.09,-135.68 -47.06,-105.09 -38.96,-75.63 -97.64,-155.2 -69.81,-94.68 -134.47,-155.11 -175.17,-268.19 -54.07,-149.88 -123.61,-118.91 -141,-343.17 -144.34,-82.17 -129.79,-139.55 -212.76,-284.25 -38.33,-66.76 -23.4,-71.11 -51.67,-123.31 -71.85,-132.81 -61.91,6.27 -135.12,-184.48 -30.11,-78.47 -13.46,-60.04 -57.74,-121.39 -96.99,-134.29 -56.2,-134.38 -111.28,-214.15l-124.14 -220.78c-28.19,-67.41 -11.8,-26.71 -28.01,-50.93l-277.15 -521.56c-158.96,-216.28 -255.38,-423.12 -372.81,-649.7 -65.4,-126.39 -96.07,-60.99 -123.05,-220.86 -36.38,-215.63 -60.81,-137.81 -118.46,-211.4 -58.86,-74.95 6.09,-126.27 -96.9,-254.73l-22.92 -27.01c-176.29,-238.43 -211.55,-311.02 -478.47,-494.32 -62.17,-42.62 -473.97,-127.75 -589.48,-120.39 -130.59,8.4 -175.25,40.64 -293.63,63.56 -215.16,41.62 -472.93,258.55 -598.2,426.61 -58.86,79.03 -20.44,52.5 -53.51,124.82 -52.77,115.21 3.14,-6.36 -74.6,95.95l-243.82 429.75c-65.01,72.85 -75.69,129.97 -132.63,216.63l-378.25 646.74c-46.88,98.2 -83.35,115.59 -124.53,225.39 -89.98,240.12 -248.4,435.37 -361.42,663.42l-112.99 208.89c-53.15,61.61 -60.99,149.93 -122.22,228.05 -7.93,9.94 -34.73,36.29 -35.46,37.21 -47.18,58.3 -40.43,106.01 -83,170.58 -24.49,37.21 -47.33,48.45 -80.57,91.28 -107.49,138.43 -127.13,157.57 -183.77,336.9 -42.18,133.73 -197.08,290.58 -258.16,415.94l-220.39 480.24c-25.79,49.99 -32.06,72.02 -51.41,122.66 -28.54,74.8 -225.18,336.1 -299.87,545.25 -30.94,86.96 -95.07,135.03 -126.27,225.09 -21.74,62.56 -18.16,72.68 -49.93,128.4 -34.25,60.34 -26.8,25.62 -62.53,111.16 -22.01,52.98 -20.17,64.39 -44.66,106.84 -116.51,201.9 -179.42,363.82 -326.7,547.65 -64.48,80.6 -26.06,29.11 -56.38,123.52 -35.17,109.5 11.89,13.55 -59.48,111.9 -79.77,109.89 -42.65,124.79 -99.86,226.22 -50.93,90.54 -28.63,23.93 -75.16,97.08l-116.42 236.99c-70.25,135.74 -119.44,249.14 -64.36,403.31 117.34,328.09 85.19,729.38 157.86,1215.48 29.55,198.12 109.06,305.61 114.47,556.58 6,277.06 8.4,379.11 65.31,631.3z"/>
  <g style="clip-path:url(#id13)">
   <g id="_2781494174000">
    <rect class="fil6" x="20514.37" y="-38800.53" width="17581.49" height="20292.44"/>
   </g>
  </g>
  <path class="fil2" d="M13559.2 10251.88c106.1,-45.7 102.87,-50.76 115.86,-180.08 16.3,-162.18 13.72,-94.77 95.42,-172.33l167.74 -262.13c44.93,-97.73 124.97,-171.02 164.75,-259.17l110.54 -189.27c66.49,-121.78 90.98,-42.56 170.46,-252.01 78.29,-206.1 194.81,-239.17 245.39,-329.06l94.77 -178.6c100.12,-159.61 143.31,-159.61 178.69,-277.89 32.6,-109.12 28.19,-90.72 95.33,-171.2l64.54 -87.05c37.77,-50.02 28.1,-33.42 71.49,-76.17 113.46,-111.9 145.05,-238.38 242.87,-331.37l255.59 -320.63c38.78,-52.86 98.73,-82.52 127.75,-142.39l114.38 -188.15c45.05,-99.56 60.43,-111.45 96.07,-179.6 51.38,-98.29 29.64,-117.81 108.67,-187.8 99.95,-88.62 61.35,-130.97 155.02,-274.58l172.68 -256.95c73.41,-170.58 37.39,-24.52 122.69,-174.28 137.51,-241.48 -72.11,48.63 142.1,-198.83l84.57 -147.66c16.65,-29.19 26.98,-42.56 47.06,-74.86 74.24,-119.47 308.62,-600.45 366.1,-654.78l330.48 -518.16c41.53,-70.75 53.98,-132.72 97.73,-204.83 58.65,-96.72 55.16,-214.06 129.32,-292.71l68.5 -86.02c130.15,-204.12 256.89,-27.27 208.71,191.55 -37.57,171.14 -100.75,34.73 -114.03,454.63 -8.19,257.63 -90.63,289.22 -119.65,454.71 -29.93,170.4 -10.12,373.02 -57.74,520.76 -108.76,336.55 -51.2,148.1 -85.84,492.58 -17.95,179.51 -72.5,300.43 -104.18,462.91 -27.89,143.58 -13.34,389.88 -75.25,500.86 -165.23,296.47 -80.87,331.02 -199.04,646.18 -30.5,81.43 -25.41,160.46 -47.53,253.67 -32.95,139.08 -106.28,191.29 -150.5,418.07 -32.03,164.75 -97.61,278.51 -130.5,444.83 -36.38,183.86 -93.59,237.64 -128.76,448.74 -34.99,209.92 -138.16,154.11 -129.32,452.14 128.22,-31.41 198.03,-261.12 276.5,-378.28l427.44 -650.23c40.08,-81.7 34.55,-110.8 83.83,-160.82 44.19,-44.84 19.7,-9.58 71.37,-80.4 93.03,-127.48 77.64,-72.59 137.25,-217.55l488.97 -655.49c63,-111.63 156.56,-177.59 220.48,-277.98 44.6,-70.1 28.1,-34.64 80.6,-92.11 103.05,-113.02 165.23,-260.09 284.78,-365.18 81.79,-71.85 81.05,-110.24 228.41,-100.12 26.09,66.05 52.15,102.87 95.15,156.94 106.66,134.02 31.5,65.31 93.85,203.47 47.8,105.89 77.38,58.48 121.21,177.09l91.28 214.8c33.99,73.21 28.72,132.99 58.83,216.07 40.26,111.45 78.38,94.21 113.67,180.99 44.66,109.97 20.71,120.56 89.15,214.68 62.26,85.66 45.14,135.38 99.92,200.87 80.42,95.98 64.3,-10.2 100.6,165.05 18.96,91.93 144.49,327.7 200.51,404.7 77.44,106.66 36.47,104.65 87.85,214.24 63.65,135.59 227.58,219.3 80.04,409.87 -114.94,148.46 -40.17,-9.49 -96.16,206.84l-199.69 371.01c-50.64,95.42 -37.48,151.8 -73.03,230.89 -44.49,98.82 -53.86,10.06 -119.44,179.69 -32.24,83.56 -53.06,115.06 -99.56,197.85 -75.81,135.12 -148.84,241.78 -185.52,393.19 -29.19,120.65 -139.43,339.77 -208.15,436.94l-146.09 226.48c-22.18,25.88 -17.04,15.65 -34.99,41.91l-140.91 233.47c-96.72,221.69 -44.22,177.95 -181.17,393.28 -53.33,83.83 -78.47,87.79 -122.31,180.61 -15.47,32.71 -33.72,81.99 -46.05,102.52l-52.68 71.76c-56.38,84.83 -85.39,143.96 -92.37,262.3 149.67,-25.79 165.88,-93.47 261.09,-224.44 28.57,-39.16 32.06,-32.15 72.41,-73.24 51.94,-52.95 81.79,-107.49 137.13,-163.93 134.94,-137.81 168.39,-236.25 271.89,-326.34 98.2,-85.36 189.39,-223.44 268.87,-330.84 43.84,-59.31 91.55,-105.36 134.73,-165.49 112.28,-156.21 520.11,-555.93 574.09,-704.77 3.14,-8.76 11.42,-47.44 15.29,-61.82 36.29,-134.47 174.25,-213.29 271.71,-319.21 225.01,-244.53 78.44,-18.25 181.7,-249.23 89.36,-33.9 155.94,-35.55 192.41,58.12 17.13,44.19 15.94,77.64 26.98,123.96 23.87,100.01 8.1,46.14 55.64,121.66 65.1,103.17 46.14,257.99 88.62,382.42 64.84,190.1 116.69,80.87 121.75,368.67 3.4,197.11 7.75,145.17 86.84,250.18 55.46,73.59 39.69,151.95 65.13,253.46 21.27,85.36 87.67,134.38 110.71,210.81 27.89,92.2 0.35,196.02 58.48,277.33 168.92,236.42 132.9,818.44 14.17,1080.84 -14.91,32.8 -4.88,1.92 -22.45,53.15 -52.41,152.24 -33.63,275.47 -119.29,456.64 -60.04,126.92 -52.12,156.5 -49.28,332.76 123.88,-21 207.7,-92.91 276.06,-192.85 133.55,-195.25 113.73,-127.66 232.07,-210.36 89.71,-62.83 47.09,-98.38 158.07,-160.35l82.23 -47.15c114.32,-68.8 157.89,-137.72 257.34,-193.53l488.17 -386.83c216.9,-227.76 443.74,-444.66 696.28,-625.47 53.8,-38.48 64.66,-48.98 132.1,-93.03 187.32,-122.22 419.9,-381.03 594.89,-529.31 72.38,-61.44 187.32,-142.01 243.23,-209.62 306.17,-370.36 735.36,-257.07 308.74,-894.52 -52.68,-78.83 -66.97,-64.63 -104.35,-119 -41.82,-60.78 -30.76,-106.84 -60.31,-164.58l-125.65 -173.8c-2.93,-4.79 -6.71,-11.03 -9.67,-15.74l-217.26 -356.72c-28.57,-43.3 -182.09,-387.22 -312.14,-587.08l-153.63 -296.02c-45.58,-84.92 -40.05,-54.16 -76.9,-151.86 -76.82,-203.83 -235.51,-330.19 -326.31,-541.11 -35.64,-82.7 -51.02,-83.18 -86.87,-140.17 -47.24,-75.16 -24.58,-64.22 -88.23,-138.25 -117.52,-136.68 -48.24,-170.58 -161,-288.39 -113.46,-118.61 -151.03,-300.7 -233.47,-440.16l-267.1 -401c-51.14,-93.68 -44.69,-38.25 -108.7,-120.21 -2.01,-2.48 -31.03,-54.6 -32.86,-58.74l-127.75 -227.61c-21.65,-35.64 -8.49,-28.54 -45.61,-62.8 -35.44,-32.71 1.95,-14.94 -64.93,-32.54 -5.97,-156.21 -44.66,-219.83 -122.31,-347.14 -40.7,-66.67 -35.73,-94.86 -73.41,-152.42 -72.38,-110.71 -50.64,-7.63 -96.04,-122.69 -44.49,-112.46 -66.61,-210.9 -151.06,-307.62 -169.93,-194.6 -76.55,-173.72 -169.66,-302.83 -60.22,-83.44 -98.65,-222.7 -158.69,-291.5 -52.95,-60.81 -55.64,-72.02 -84.09,-135.68 -47.06,-105.09 -38.96,-75.63 -97.64,-155.2 -69.81,-94.68 -134.47,-155.11 -175.17,-268.19 -54.07,-149.88 -123.61,-118.91 -141,-343.17 -144.34,-82.17 -129.79,-139.55 -212.76,-284.25 -38.33,-66.76 -23.4,-71.11 -51.67,-123.31 -71.85,-132.81 -61.91,6.27 -135.12,-184.48 -30.11,-78.47 -13.46,-60.04 -57.74,-121.39 -96.99,-134.29 -56.2,-134.38 -111.28,-214.15l-124.14 -220.78c-28.19,-67.41 -11.8,-26.71 -28.01,-50.93l-277.15 -521.56c-158.96,-216.28 -255.38,-423.12 -372.81,-649.7 -65.4,-126.39 -96.07,-60.99 -123.05,-220.86 -36.38,-215.63 -60.81,-137.81 -118.46,-211.4 -58.86,-74.95 6.09,-126.27 -96.9,-254.73l-22.92 -27.01c-176.29,-238.43 -211.55,-311.02 -478.47,-494.32 -62.17,-42.62 -473.97,-127.75 -589.48,-120.39 -130.59,8.4 -175.25,40.64 -293.63,63.56 -215.16,41.62 -472.93,258.55 -598.2,426.61 -58.86,79.03 -20.44,52.5 -53.51,124.82 -52.77,115.21 3.14,-6.36 -74.6,95.95l-243.82 429.75c-65.01,72.85 -75.69,129.97 -132.63,216.63l-378.25 646.74c-46.88,98.2 -83.35,115.59 -124.53,225.39 -89.98,240.12 -248.4,435.37 -361.42,663.42l-112.99 208.89c-53.15,61.61 -60.99,149.93 -122.22,228.05 -7.93,9.94 -34.73,36.29 -35.46,37.21 -47.18,58.3 -40.43,106.01 -83,170.58 -24.49,37.21 -47.33,48.45 -80.57,91.28 -107.49,138.43 -127.13,157.57 -183.77,336.9 -42.18,133.73 -197.08,290.58 -258.16,415.94l-220.39 480.24c-25.79,49.99 -32.06,72.02 -51.41,122.66 -28.54,74.8 -225.18,336.1 -299.87,545.25 -30.94,86.96 -95.07,135.03 -126.27,225.09 -21.74,62.56 -18.16,72.68 -49.93,128.4 -34.25,60.34 -26.8,25.62 -62.53,111.16 -22.01,52.98 -20.17,64.39 -44.66,106.84 -116.51,201.9 -179.42,363.82 -326.7,547.65 -64.48,80.6 -26.06,29.11 -56.38,123.52 -35.17,109.5 11.89,13.55 -59.48,111.9 -79.77,109.89 -42.65,124.79 -99.86,226.22 -50.93,90.54 -28.63,23.93 -75.16,97.08l-116.42 236.99c-70.25,135.74 -119.44,249.14 -64.36,403.31 117.34,328.09 85.19,729.38 157.86,1215.48 29.55,198.12 109.06,305.61 114.47,556.58 6,277.06 8.4,379.11 65.31,631.3z"/>
  <path class="fil3" d="M25808.47 8767.26l2925.22 -2.6c-91.84,146.36 -3318.03,3142.86 -3435.93,3248.13l-1139.23 1079.18c105.27,55.52 773.87,169.63 948.21,201.88 192.5,35.55 822.59,129.05 949.69,197.56 -33.42,77.64 -53.72,72.41 -116.78,136.89 -47,48.07 -73.41,81.49 -117.99,131.68l-483.08 515.79c-585.78,649.96 -1362.87,1408.07 -1943.86,2050.67l-1213.73 1310.07c63.48,-34.34 152.54,-120 196.46,-155.08 66.14,-52.89 124.44,-108.49 188.8,-161.29l5293.74 -4567.67c116.04,-100.86 281.47,-267.01 395.5,-329.92 -5.8,-4.41 -15.47,-16.65 -19.08,-10.86 -3.49,5.8 -14.26,-8.1 -19.17,-9.94l-168.72 -25.62c-88.88,-4.23 -178.86,-10.15 -267.66,-16.3l-1515.56 -92.46c36.86,-88.88 1051.47,-1015.08 1179.1,-1128.93l891.86 -830.87c204.74,-220.95 916.88,-835.01 1197.7,-1124.11l599.59 -549.4c106.01,-94.33 188.36,-187.88 294.55,-279.25 105.66,-90.9 187.8,-186.14 295.2,-278.81 60.61,-52.21 263.13,-217.26 292.42,-291.76l-2661.5 -209.18c46.32,-80.57 2298.89,-2212.4 2420.19,-2319.45 67.23,-59.31 117.16,-103.5 184.22,-165.14 63.62,-58.3 108.41,-120.74 171.11,-178.66l1402.09 -1319.3c119.91,-133.73 221.04,-214.89 346.22,-328.06 118.52,-107.31 224,-222.64 342.91,-331.05l688 -668.3c-284.31,-22.01 -602.34,-11.95 -890.82,-16.65 -564.69,-9.02 -542.12,-74.51 -760.41,171.41 -280.73,316.17 -622.78,606.57 -921.2,901.32l-1851.93 1818.21c-902.98,912.56 -1838.47,1806.05 -2758.96,2708.85 -155.85,152.89 -303.86,314.07 -459.42,464.3 -112.16,108.41 -388.49,347.49 -457.76,454.71z"/>
  <path class="fil3" d="M11410.72 6910.16l-1676.38 206.7c-3.05,93.29 1406.68,2106.04 1489.85,2227.69 116.16,169.75 1462.97,2113.31 1519.9,2249.64l-1255.29 130.77c26.35,103.91 1254.64,1729.88 1428.54,1969 643.78,885.29 1514.46,2098.76 2174.84,2942.88 76.25,97.52 180.7,223.53 240.65,318.12 -116.51,-256.6 -1868.67,-3127.84 -2150.88,-3600.77 -89.71,-150.41 -255.41,-388.04 -309.57,-538.07l1214.47 -376.06c-47.33,-121.39 -1349.86,-2009.97 -1453.03,-2158.24 -167.15,-240.42 -1431.73,-2070.96 -1454.86,-2175.49l1850 0.83c-64.66,-172.24 -3496.45,-5397.62 -3955.74,-6123.96 -81.05,-128.11 -175.64,-289.58 -273.01,-407.18l-916.05 17.3c7.75,95.98 141.12,244.44 198.95,331.76 78.74,119 145.7,218.29 220.78,328.44l1332.55 1987.69c132.16,200.31 1723.7,2527.77 1774.28,2668.95z"/>
  <g id="_2781494172752">
   <path class="fil3" d="M28783.33 12176.83c-64.93,34.16 -82.44,41.06 -162,161.62 -60.34,91.28 -47.8,150.32 -44.75,279.08l-300.17 2024.55c-45.14,140.62 -60.61,56.91 -74.89,246.45 -14.82,197.02 -22.39,433.15 -53.42,622.54 -40.43,247.28 -21.65,350.06 151.68,476.63l657.18 490.71c210.54,141.21 200.31,172.89 488.4,360.68l1329.62 992.69c82.05,75.16 114.65,73.77 202.05,147.18 86.7,72.85 116.24,60.96 204.03,123.7 66.02,47.24 119,111.63 182.35,165.76 75.07,64.04 108.58,57.03 192.11,130.71l549.31 449.83c146.65,106.1 209,116.6 393.1,281.29 202.64,181.26 382.51,236.6 745.38,602.73 107.31,108.2 315.01,224.44 538.9,434.81 84.57,79.48 136.51,89.33 202.17,147.63l515.41 482.07c70.28,53.06 135.59,100.12 194.45,155.85 227.19,215.33 344.74,279.52 540.26,434.28 116.98,92.55 83.91,72.94 248.22,107.02l513.1 155.47c131.89,44.4 104.92,75.99 210.75,109.23 99.83,31.41 195.43,19.34 287.18,65.84 135.65,68.8 25.5,52.24 237.99,84.3 115.59,17.39 163.39,35.35 254.94,76.17 184.1,81.87 367.13,53.95 544.6,128.37 103.05,43.21 146.8,50.49 258.64,66.97 175.08,25.79 117.87,47.15 244.44,94.95 188.06,71.11 668.12,116.16 195.25,-339.39 -34.25,-33.07 -184.01,-250.8 -297.95,-351.1 -64.3,-56.64 -112.37,-112.81 -166.71,-182.74 -62.44,-80.31 -87.88,-98.65 -153.81,-170.58l-526.95 -622.78c-112.9,-174.37 -28.81,-80.04 -224.27,-274.11l-754.79 -919.01c-86.46,-121.57 -203.35,-202.61 -329.98,-342.82 -55.46,-61.32 -91.28,-112.55 -148.93,-175.9l-927.94 -1093.26c-86.96,-88.71 -64.87,-104.65 -130.44,-195.81 -42.92,-59.6 -108.2,-114.85 -155.82,-167.74 -53.15,-59.22 -88.62,-114.29 -147.66,-177 -218,-231.66 -603.44,-746.86 -776.15,-921.79 -280.35,-283.84 -312.32,-213.94 -593.14,22.66 -94.68,79.77 -369.62,458.68 -463.74,560.1 -194.42,209.54 -258.46,128.11 -419.25,-30.32l-743.28 -902.24c-89.8,-167.8 -158.04,-192.5 -270.97,-405.35l-378.82 -623.55c-112.72,-307.62 -195.16,-151.68 -368.14,-636.59 -42.09,-117.9 -72.68,-104.65 -138.07,-204.39 -26.15,-39.78 -116.04,-175.55 -127.37,-198.86 -62.83,-128.19 22.83,-73.68 -225.66,-447.14 -87.05,-130.71 -51.2,-139.46 -114.38,-207.52 -89.27,-96.25 -41.91,28.54 -144.17,-181.08 -33.34,-68.33 -93.85,-141.74 -142.39,-206.22 -75.96,-100.83 -72.02,-78.18 -115.68,-209.15 -15.26,-45.79 -269.29,-476.54 -340.04,-509.43 -88.88,-41.35 -102.31,4.79 -119.82,14.02z"/>
   <g style="clip-path:url(#id14)">
    <g>
     <rect class="fil7" x="51333.46" y="21716.63" width="26383.93" height="15568.06"/>
    </g>
   </g>
   <path class="fil2" d="M28783.33 12176.83c-64.93,34.16 -82.44,41.06 -162,161.62 -60.34,91.28 -47.8,150.32 -44.75,279.08l-300.17 2024.55c-45.14,140.62 -60.61,56.91 -74.89,246.45 -14.82,197.02 -22.39,433.15 -53.42,622.54 -40.43,247.28 -21.65,350.06 151.68,476.63l657.18 490.71c210.54,141.21 200.31,172.89 488.4,360.68l1329.62 992.69c82.05,75.16 114.65,73.77 202.05,147.18 86.7,72.85 116.24,60.96 204.03,123.7 66.02,47.24 119,111.63 182.35,165.76 75.07,64.04 108.58,57.03 192.11,130.71l549.31 449.83c146.65,106.1 209,116.6 393.1,281.29 202.64,181.26 382.51,236.6 745.38,602.73 107.31,108.2 315.01,224.44 538.9,434.81 84.57,79.48 136.51,89.33 202.17,147.63l515.41 482.07c70.28,53.06 135.59,100.12 194.45,155.85 227.19,215.33 344.74,279.52 540.26,434.28 116.98,92.55 83.91,72.94 248.22,107.02l513.1 155.47c131.89,44.4 104.92,75.99 210.75,109.23 99.83,31.41 195.43,19.34 287.18,65.84 135.65,68.8 25.5,52.24 237.99,84.3 115.59,17.39 163.39,35.35 254.94,76.17 184.1,81.87 367.13,53.95 544.6,128.37 103.05,43.21 146.8,50.49 258.64,66.97 175.08,25.79 117.87,47.15 244.44,94.95 188.06,71.11 668.12,116.16 195.25,-339.39 -34.25,-33.07 -184.01,-250.8 -297.95,-351.1 -64.3,-56.64 -112.37,-112.81 -166.71,-182.74 -62.44,-80.31 -87.88,-98.65 -153.81,-170.58l-526.95 -622.78c-112.9,-174.37 -28.81,-80.04 -224.27,-274.11l-754.79 -919.01c-86.46,-121.57 -203.35,-202.61 -329.98,-342.82 -55.46,-61.32 -91.28,-112.55 -148.93,-175.9l-927.94 -1093.26c-86.96,-88.71 -64.87,-104.65 -130.44,-195.81 -42.92,-59.6 -108.2,-114.85 -155.82,-167.74 -53.15,-59.22 -88.62,-114.29 -147.66,-177 -218,-231.66 -603.44,-746.86 -776.15,-921.79 -280.35,-283.84 -312.32,-213.94 -593.14,22.66 -94.68,79.77 -369.62,458.68 -463.74,560.1 -194.42,209.54 -258.46,128.11 -419.25,-30.32l-743.28 -902.24c-89.8,-167.8 -158.04,-192.5 -270.97,-405.35l-378.82 -623.55c-112.72,-307.62 -195.16,-151.68 -368.14,-636.59 -42.09,-117.9 -72.68,-104.65 -138.07,-204.39 -26.15,-39.78 -116.04,-175.55 -127.37,-198.86 -62.83,-128.19 22.83,-73.68 -225.66,-447.14 -87.05,-130.71 -51.2,-139.46 -114.38,-207.52 -89.27,-96.25 -41.91,28.54 -144.17,-181.08 -33.34,-68.33 -93.85,-141.74 -142.39,-206.22 -75.96,-100.83 -72.02,-78.18 -115.68,-209.15 -15.26,-45.79 -269.29,-476.54 -340.04,-509.43 -88.88,-41.35 -102.31,4.79 -119.82,14.02z"/>
   <path class="fil3" d="M14742.35 18879.91c-144.58,-6.27 -217.91,-155.64 -302.27,-242.78 -96.07,-99.18 -197.76,-147.45 -301.08,-247.66 -123.34,-119.65 -515.97,-388.58 -755.8,-388.49 0.09,247.4 75.51,239.47 217.17,526l278.69 472.31c225.21,288.1 141.86,512.63 676.32,797.24 142.6,75.99 209.45,68.89 331.49,167.18 117.99,95.04 638.37,347.58 801.76,422.38 58.65,26.89 121.39,38.78 180.52,69.98 71.58,37.86 70.93,53.06 152.8,92.85l824.33 424.69c71.85,45.67 108.85,35.64 181.91,70.63 87.11,41.82 36.56,49.54 157.95,91.46l343 154.73c113.73,52.5 338.94,180.34 491.54,229.53 102.79,33.25 98.38,43.92 172.98,80.04l497.37 247.31c67.68,30.85 116.69,32.6 186.97,63.83 204.18,90.42 141.65,76.25 408.28,95.42 313.62,22.45 640.5,20.53 973.82,23.84 362.04,3.7 611.1,27.45 949.3,47.53 1238.52,73.3 2641.18,70.81 3891.09,24.31l-2.28 -122.04c-54.99,-26.98 -80.78,-26.62 -142.87,-46.05l-90.07 -38.69c-4.79,-2.66 -10.5,-6.98 -15.2,-9.85 -127.19,-76.34 -96.43,-39.78 -222.91,-75.25 -134.91,-37.86 -37.48,-31.03 -142.01,-83.26 -87.05,-43.48 -228.32,-39.78 -354.71,-98.56 -145.14,-67.59 -215.24,-20.88 -336.72,-110.89 -121.92,-90.24 -200.96,-49.72 -329.45,-119.82 -79.57,-43.36 -65.66,-55.16 -141,-77.17l-680.19 -227.22c-175.73,-35.08 -55.99,-40.61 -334.8,-115.21 -179.31,-48.01 45.7,-42.92 -322.44,-127.57 -84.36,-19.43 -84.27,-28.63 -162.56,-61.61 -283.78,-119.56 -157.77,15.47 -320.34,-126.27 -66.23,-57.77 -562.56,-177.03 -664.52,-234.59 -210.01,-118.55 -203.18,-24.14 -311.88,-140.38 -132.54,-141.65 -13.25,22.01 -302.65,-137.96l-369.5 -172.24c-68.18,-17.13 -38.04,-0.65 -102.99,-29.67 -75.16,-33.6 -60.61,-43.01 -149.93,-69.45 -51.76,-15.38 -24.79,-2.57 -79.95,-23.66 -120.92,-46.05 -49.37,-49.72 -256.12,-93.68 -222.25,-47.24 -324.3,-179.22 -651.83,-250.41 -97.43,-21.09 -80.78,-30.5 -158.13,-68.45 -76.28,-37.39 -85.22,-25.23 -182.38,-45.11l-315.55 -132.36c-70.81,-31.68 -66.14,-50.67 -150.02,-74.89l-477.37 -196.26c-87.05,-45.05 -66.23,-35.64 -165.26,-61.7l-775.14 -345.86c-63.92,-33.25 -248.28,-86.75 -334.33,-119.35 -96.43,-36.68 -77.17,-43.95 -136.95,-84.39 -73.95,-49.9 -82.05,-33.6 -175.19,-53.77 -120.18,-26.18 -57.56,-26.35 -148.28,-74.24 -63.74,-33.51 -97.34,-28.19 -164.13,-61.7 -79.57,-40.08 -50.11,-46.53 -144.88,-81.99 -260.17,-97.52 -172.77,-117.34 -317.85,-134.64 -96.69,-11.59 -137.13,-1.3 -210.9,-25.79 -10.8,383.61 25.41,250.15 46.88,487.43 14.91,165.58 29.02,358.38 -61.73,442.26z"/>
   <g style="clip-path:url(#id15)">
    <g>
     <rect class="fil7" x="51333.46" y="21716.63" width="26383.93" height="15568.06"/>
    </g>
   </g>
   <path class="fil2" d="M14742.35 18879.91c-144.58,-6.27 -217.91,-155.64 -302.27,-242.78 -96.07,-99.18 -197.76,-147.45 -301.08,-247.66 -123.34,-119.65 -515.97,-388.58 -755.8,-388.49 0.09,247.4 75.51,239.47 217.17,526l278.69 472.31c225.21,288.1 141.86,512.63 676.32,797.24 142.6,75.99 209.45,68.89 331.49,167.18 117.99,95.04 638.37,347.58 801.76,422.38 58.65,26.89 121.39,38.78 180.52,69.98 71.58,37.86 70.93,53.06 152.8,92.85l824.33 424.69c71.85,45.67 108.85,35.64 181.91,70.63 87.11,41.82 36.56,49.54 157.95,91.46l343 154.73c113.73,52.5 338.94,180.34 491.54,229.53 102.79,33.25 98.38,43.92 172.98,80.04l497.37 247.31c67.68,30.85 116.69,32.6 186.97,63.83 204.18,90.42 141.65,76.25 408.28,95.42 313.62,22.45 640.5,20.53 973.82,23.84 362.04,3.7 611.1,27.45 949.3,47.53 1238.52,73.3 2641.18,70.81 3891.09,24.31l-2.28 -122.04c-54.99,-26.98 -80.78,-26.62 -142.87,-46.05l-90.07 -38.69c-4.79,-2.66 -10.5,-6.98 -15.2,-9.85 -127.19,-76.34 -96.43,-39.78 -222.91,-75.25 -134.91,-37.86 -37.48,-31.03 -142.01,-83.26 -87.05,-43.48 -228.32,-39.78 -354.71,-98.56 -145.14,-67.59 -215.24,-20.88 -336.72,-110.89 -121.92,-90.24 -200.96,-49.72 -329.45,-119.82 -79.57,-43.36 -65.66,-55.16 -141,-77.17l-680.19 -227.22c-175.73,-35.08 -55.99,-40.61 -334.8,-115.21 -179.31,-48.01 45.7,-42.92 -322.44,-127.57 -84.36,-19.43 -84.27,-28.63 -162.56,-61.61 -283.78,-119.56 -157.77,15.47 -320.34,-126.27 -66.23,-57.77 -562.56,-177.03 -664.52,-234.59 -210.01,-118.55 -203.18,-24.14 -311.88,-140.38 -132.54,-141.65 -13.25,22.01 -302.65,-137.96l-369.5 -172.24c-68.18,-17.13 -38.04,-0.65 -102.99,-29.67 -75.16,-33.6 -60.61,-43.01 -149.93,-69.45 -51.76,-15.38 -24.79,-2.57 -79.95,-23.66 -120.92,-46.05 -49.37,-49.72 -256.12,-93.68 -222.25,-47.24 -324.3,-179.22 -651.83,-250.41 -97.43,-21.09 -80.78,-30.5 -158.13,-68.45 -76.28,-37.39 -85.22,-25.23 -182.38,-45.11l-315.55 -132.36c-70.81,-31.68 -66.14,-50.67 -150.02,-74.89l-477.37 -196.26c-87.05,-45.05 -66.23,-35.64 -165.26,-61.7l-775.14 -345.86c-63.92,-33.25 -248.28,-86.75 -334.33,-119.35 -96.43,-36.68 -77.17,-43.95 -136.95,-84.39 -73.95,-49.9 -82.05,-33.6 -175.19,-53.77 -120.18,-26.18 -57.56,-26.35 -148.28,-74.24 -63.74,-33.51 -97.34,-28.19 -164.13,-61.7 -79.57,-40.08 -50.11,-46.53 -144.88,-81.99 -260.17,-97.52 -172.77,-117.34 -317.85,-134.64 -96.69,-11.59 -137.13,-1.3 -210.9,-25.79 -10.8,383.61 25.41,250.15 46.88,487.43 14.91,165.58 29.02,358.38 -61.73,442.26z"/>
   <path class="fil3" d="M23589.35 20157.66c121.57,123.79 409.19,253.19 590.57,348.35l263.4 136.59c83.53,32.33 72.02,11.77 146.62,53.86 329.36,185.78 108.88,1.12 370.74,202.56 62.8,48.45 51.47,29.46 139.17,56.44 154.25,47.62 360.57,194.07 546.62,256.06 101.96,33.99 169.01,76.34 258.16,117.07l809.42 364.53c189.07,121.04 124.53,54.42 260.74,111.45 249.67,104.53 324.75,118.34 637.81,156.56 125.44,15.29 258.9,8.58 387.22,8.67 1053.83,0.74 1999.2,66.97 3045.93,81.25 1047.41,14.35 2103.11,-1.12 3121.48,-19.73 -7.93,-168.54 -72.47,-123.88 -220.48,-181.08 -122.31,-47.24 -146.53,-94.86 -294.63,-130.24l-142.95 -55.99c-50.85,-33.34 -76.25,-52.12 -151.41,-73.77 -124.17,-35.55 -237.9,-27.45 -341.16,-84.83 -76.82,-42.65 -30.76,-40.88 -128.67,-68.62 -52.59,-14.82 -114.56,-18.96 -168.72,-30.29 -197.29,-41.44 -83.35,-66.49 -313.71,-112.46 -203.18,-40.52 -147.27,-89.53 -298.42,-126.92 -64.66,-16.03 -125.53,-8.58 -181.08,-22.66 -71.73,-18.22 -72.02,-53.33 -128.28,-89.98 -85.13,-55.55 -187.44,-45.05 -295.85,-105.27 -234.5,-130.53 -145.35,-52.06 -309.84,-113.2 -78.83,-29.28 -51.29,-35.46 -136.95,-64.39 -75.07,-25.41 -109.62,-18.43 -178.77,-47.33 -162.65,-68.27 -60.04,-88.8 -300.82,-121.6 -241.39,-32.95 -71.37,-74.21 -452.58,-148.19 -126.27,-24.49 -63,-21.27 -147.36,-75.25 -96.16,-61.61 -216.28,-43.92 -327.61,-99.09 -66.05,-32.71 -58.6,-44.66 -133.76,-67.79 -72.2,-22.18 -114.74,-16.39 -184.57,-40.43 -120.27,-41.44 -121.1,-87.32 -263.49,-129.32 -138.25,-40.88 -200.69,-114.2 -280.73,-139.43 -201.9,-63.65 8.37,34.99 -318.03,-109.06 -453.53,-200.22 -664.63,-3.05 -1065.84,15.65 -158.13,7.39 -251.06,-19.97 -414.1,12.9 -137.78,27.83 -235.03,43.3 -386.62,38.51 -264.73,-8.37 -488.43,-29.67 -766.68,7.84 -103.97,13.9 -221.96,60.87 -347.7,80.87 -137.6,21.83 -269.31,3.96 -402.57,20.79 -364.56,46.14 -134.85,92.02 -754.14,82.26 -164.69,-2.57 -647.39,45.97 -740.33,104.71z"/>
   <g style="clip-path:url(#id16)">
    <g>
     <rect class="fil7" x="51333.46" y="21716.63" width="26383.93" height="15568.06"/>
    </g>
   </g>
   <path class="fil2" d="M23589.35 20157.66c121.57,123.79 409.19,253.19 590.57,348.35l263.4 136.59c83.53,32.33 72.02,11.77 146.62,53.86 329.36,185.78 108.88,1.12 370.74,202.56 62.8,48.45 51.47,29.46 139.17,56.44 154.25,47.62 360.57,194.07 546.62,256.06 101.96,33.99 169.01,76.34 258.16,117.07l809.42 364.53c189.07,121.04 124.53,54.42 260.74,111.45 249.67,104.53 324.75,118.34 637.81,156.56 125.44,15.29 258.9,8.58 387.22,8.67 1053.83,0.74 1999.2,66.97 3045.93,81.25 1047.41,14.35 2103.11,-1.12 3121.48,-19.73 -7.93,-168.54 -72.47,-123.88 -220.48,-181.08 -122.31,-47.24 -146.53,-94.86 -294.63,-130.24l-142.95 -55.99c-50.85,-33.34 -76.25,-52.12 -151.41,-73.77 -124.17,-35.55 -237.9,-27.45 -341.16,-84.83 -76.82,-42.65 -30.76,-40.88 -128.67,-68.62 -52.59,-14.82 -114.56,-18.96 -168.72,-30.29 -197.29,-41.44 -83.35,-66.49 -313.71,-112.46 -203.18,-40.52 -147.27,-89.53 -298.42,-126.92 -64.66,-16.03 -125.53,-8.58 -181.08,-22.66 -71.73,-18.22 -72.02,-53.33 -128.28,-89.98 -85.13,-55.55 -187.44,-45.05 -295.85,-105.27 -234.5,-130.53 -145.35,-52.06 -309.84,-113.2 -78.83,-29.28 -51.29,-35.46 -136.95,-64.39 -75.07,-25.41 -109.62,-18.43 -178.77,-47.33 -162.65,-68.27 -60.04,-88.8 -300.82,-121.6 -241.39,-32.95 -71.37,-74.21 -452.58,-148.19 -126.27,-24.49 -63,-21.27 -147.36,-75.25 -96.16,-61.61 -216.28,-43.92 -327.61,-99.09 -66.05,-32.71 -58.6,-44.66 -133.76,-67.79 -72.2,-22.18 -114.74,-16.39 -184.57,-40.43 -120.27,-41.44 -121.1,-87.32 -263.49,-129.32 -138.25,-40.88 -200.69,-114.2 -280.73,-139.43 -201.9,-63.65 8.37,34.99 -318.03,-109.06 -453.53,-200.22 -664.63,-3.05 -1065.84,15.65 -158.13,7.39 -251.06,-19.97 -414.1,12.9 -137.78,27.83 -235.03,43.3 -386.62,38.51 -264.73,-8.37 -488.43,-29.67 -766.68,7.84 -103.97,13.9 -221.96,60.87 -347.7,80.87 -137.6,21.83 -269.31,3.96 -402.57,20.79 -364.56,46.14 -134.85,92.02 -754.14,82.26 -164.69,-2.57 -647.39,45.97 -740.33,104.71z"/>
  </g>
 </g>
</svg>
