<?xml version="1.0" encoding="UTF-8"?>
<!DOCTYPE svg PUBLIC "-//W3C//DTD SVG 1.1//EN" "http://www.w3.org/Graphics/SVG/1.1/DTD/svg11.dtd">
<!-- Creator: CorelDRAW 2021 (64-Bit) -->
<svg xmlns="http://www.w3.org/2000/svg" xml:space="preserve" width="129.93mm" height="76.0626mm" version="1.1" style="shape-rendering:geometricPrecision; text-rendering:geometricPrecision; image-rendering:optimizeQuality; fill-rule:evenodd; clip-rule:evenodd"
viewBox="0 0 12976.72 7596.71"
 xmlns:xlink="http://www.w3.org/1999/xlink"
 xmlns:xodm="http://www.corel.com/coreldraw/odm/2003">
 <defs>
  <style type="text/css">
   <![CDATA[
    .fil2 {fill:none}
    .fil0 {fill:#07131F}
    .fil3 {fill:#07131F}
    .fil4 {fill:#B4C9CC}
    .fil1 {fill:url(#id5)}
    .fil5 {fill:url(#id6)}
   ]]>
  </style>
    <clipPath id="id0">
     <path d="M0.04 7569.2c74.17,23.01 1332.33,8.55 1521.41,8.77l3085.48 0.59c255.67,0.75 511.43,0.47 767.13,0.9 125.6,0.22 264.97,-2.89 381.15,6.56 62.32,5.07 126.42,-2.92 189.67,4.54 51.6,6.06 130.12,13.18 166.41,-8.62 -21.7,-62.22 -274.27,-92.79 -349.21,-100.75 -54.2,-5.79 -73.8,-31.6 -113.64,-44.75l-260.52 -53.21c-54.79,-10.55 -58.25,-26.25 -113.29,-38.06 -32,-6.88 -98.22,-21.05 -129.04,-32.19 -47.67,-17.26 -63.34,-19.23 -121.35,-29.36 -70.9,-12.37 -88.85,-32.87 -142.8,-50.13 -4.42,-1.43 -21.52,-7.84 -30.48,-11.23 -19.1,-7.19 -29.98,-13.65 -56.1,-19.63 -73.34,-16.76 -66.19,6.15 -132.76,-28.51 -46.37,-24.14 -71.81,-18.89 -117.46,-33.81 -81.27,-26.63 -15.46,-18.63 -127.42,-33.75 -70.53,-9.48 -190.01,-47.36 -241.17,-72.09 -54.64,-26.4 -77.66,-7.99 -126.98,-24.91 -42.67,-14.61 -63.23,-29.2 -115.9,-43.54 -52.68,-14.34 -47.71,-34.03 -108.01,-42.64 -54.7,-7.84 -77.71,-15.27 -124.98,-35.92 -72.47,-31.69 -195.74,-19.5 -290.35,-19.47l-927.31 -8.4c-73.18,-0.31 -257.76,22.86 -288.7,-27.28 -11.26,-18.25 -14.37,-40.02 -4.66,-64.18l76.03 -119.96c29.39,-39.21 56.14,-68.97 78.9,-114.38l181.09 -284.99c7.96,-16.02 18.35,-31.04 28.33,-46.71l63.81 -88.64c9.08,-13.93 4.69,-6.15 18.38,-21.86l112.55 -157.42c16.8,-23.88 10.33,-30.57 31.97,-52.43 52.15,-52.8 55.64,-91.5 93.58,-134.07l71.12 -88.2c1.34,-2.08 5.04,-8.52 6.47,-10.6l202.68 -329.29c22.57,-26.12 51.1,-57.97 68.23,-83.47 22.26,-33.09 36.63,-62.7 63.81,-96.04l121.76 -191.29c49.88,-80.17 -18.35,-108.69 -5.16,-266.83 3.95,-47.64 -6.53,-237.69 -19.79,-277.31 -52.95,-158.54 -22.39,-165.41 -45.74,-267.32 -9.24,-40.24 -22.79,-69.13 -26.28,-121.48 -4.07,-60.79 5.41,-95.16 -7.5,-154.6 -10.11,-46.49 -9.02,-92.82 -19.69,-133.44 -10.6,-40.46 -28.7,-73.99 -37.59,-121.41 -21.68,-115.38 15.39,-161.47 -32.04,-280.71 -45.86,-115.26 -34.61,-156.71 -62.88,-249.26 -38.62,14.02 -33.46,38.62 -51.13,74.39l-41.89 75.72c-13.68,25.04 -27.09,51.63 -41.93,76.28l-90.22 146.33c-0.87,1.59 -2.15,3.71 -3.05,5.22l-114.26 171.2c-1.5,1.93 -5.82,7.52 -7.28,9.52 -1.09,1.46 -2.46,3.58 -3.52,5.03 -1.06,1.49 -2.4,3.61 -3.49,5.1 -33.62,46.18 -34.64,38.34 -56.91,97.09 -10.05,26.56 -27.21,42.08 -52.27,62.98 -43.55,36.25 -59.16,105.86 -90.26,146.54 -9.67,12.65 -17.1,16.95 -26.09,32.31 -35.12,59.9 -66.15,129.07 -119.98,175.25l-67.7 84.12c-33.15,38.28 -53.02,86.14 -86.42,124.17 -35.89,40.84 -58.75,95.82 -86.43,150.05 -19.56,38.38 -31.47,32.41 -50.1,68.98 -27.68,54.33 -94.51,111.99 -132.57,161.16 -17.02,22.01 -10.55,22.26 -22.95,45.06 -15.43,28.32 -33.06,35.3 -50.89,66.46 -27.12,47.46 -55.79,74.86 -81.38,121.82 -0.91,1.68 -2.03,3.89 -2.96,5.53l-329.25 420.49c-36.76,44.84 -25.04,5.66 -49.36,70.01 -22.14,58.5 -66.4,85.86 -100.76,133.53 -20.8,28.86 -21.95,49.3 -44.5,73.52 -15.55,16.74 -13.8,9.34 -27.81,32.6 -11.44,19.1 -7.21,18.66 -21.3,37.1l-57.25 59.24c-25.79,19.93 -23.01,33.03 -43.82,58.26 -1.09,1.33 -2.8,3.17 -3.89,4.53l-129.87 181.28c-7.84,13.8 -13.5,24.13 -21.11,38.65 -23.02,43.79 -109.69,150.34 -148.22,215.05 -46.83,78.62 -106.08,134.1 -148.46,214.12 -5.6,10.58 -13.59,22.55 -23.79,34.43 -9.77,11.36 -21.58,20.65 -29.83,29.01 -33.27,33.87 -14.64,49.83 -38.4,80.21l-58.66 58.81c-36.13,38.22 -19.81,31.97 -45.65,73.55 -21.83,35.21 -57.1,64.82 -77.59,100.02 -14.93,25.69 -9.18,13.58 -23.64,33.83 -22.11,31.01 -18.32,48.99 -48.17,77.13 -70.28,66.27 -68.41,107.6 -120.39,175.86 -40.92,53.77 -118.2,166.54 -157.6,203.86 -44.88,42.51 -120.2,105.36 -118.18,177.33z"/>
    </clipPath>
    <clipPath id="id1">
     <path d="M4578.35 3461.61c35.82,-15.43 34.74,-17.14 39.12,-60.8 5.5,-54.76 4.63,-32 32.22,-58.19l56.64 -88.51c15.17,-33 42.2,-57.75 55.63,-87.51l37.32 -63.91c22.45,-41.12 30.72,-14.37 57.56,-85.09 26.44,-69.59 65.78,-80.76 82.86,-111.11l32 -60.3c33.81,-53.89 48.39,-53.89 60.33,-93.83 11.01,-36.84 9.52,-30.63 32.19,-57.81l21.79 -29.39c12.75,-16.89 9.49,-11.29 24.14,-25.72 38.31,-37.78 48.98,-80.49 82.01,-111.89l86.3 -108.26c13.09,-17.85 33.34,-27.86 43.14,-48.08l38.62 -63.53c15.21,-33.62 20.4,-37.63 32.44,-60.64 17.35,-33.19 10.01,-39.78 36.69,-63.41 33.75,-29.92 20.71,-44.22 52.34,-92.71l58.31 -86.76c24.79,-57.6 12.62,-8.28 41.43,-58.85 46.43,-81.54 -24.35,16.42 47.98,-67.14l28.55 -49.86c5.62,-9.86 9.11,-14.37 15.89,-25.28 25.07,-40.34 104.21,-202.75 123.61,-221.09l111.59 -174.96c14.02,-23.89 18.23,-44.81 33,-69.16 19.81,-32.66 18.63,-72.28 43.67,-98.84l23.13 -29.04c43.94,-68.92 86.74,-9.21 70.47,64.68 -12.68,57.79 -34.02,11.73 -38.5,153.51 -2.77,86.99 -30.6,97.66 -40.4,153.54 -10.11,57.54 -3.42,125.95 -19.5,175.84 -36.72,113.64 -17.29,50.01 -28.98,166.32 -6.06,60.61 -24.48,101.44 -35.18,156.3 -9.42,48.48 -4.5,131.64 -25.41,169.12 -55.79,100.1 -27.31,111.77 -67.21,218.19 -10.3,27.5 -8.58,54.18 -16.05,85.65 -11.13,46.96 -35.88,64.59 -50.82,141.16 -10.82,55.63 -32.96,94.04 -44.06,150.2 -12.28,62.08 -31.6,80.24 -43.48,151.52 -11.82,70.88 -46.65,52.03 -43.67,152.67 43.3,-10.61 66.87,-88.17 93.36,-127.73l144.33 -219.55c13.53,-27.59 11.67,-37.41 28.3,-54.3 14.92,-15.14 6.65,-3.24 24.1,-27.15 31.41,-43.05 26.22,-24.51 46.34,-73.46l165.1 -221.33c21.27,-37.69 52.86,-59.96 74.45,-93.86 15.06,-23.67 9.49,-11.7 27.22,-31.1 34.8,-38.16 55.79,-87.82 96.16,-123.31 27.62,-24.26 27.37,-37.22 77.12,-33.81 8.81,22.3 17.61,34.74 32.13,52.99 36.01,45.25 10.64,22.05 31.69,68.7 16.14,35.76 26.13,19.75 40.93,59.79l30.82 72.53c11.48,24.72 9.7,44.9 19.87,72.96 13.59,37.63 26.47,31.81 38.38,61.11 15.08,37.13 6.99,40.71 30.1,72.49 21.02,28.92 15.24,45.71 33.74,67.82 27.16,32.41 21.71,-3.45 33.97,55.73 6.4,31.04 48.79,110.65 67.7,136.65 26.15,36.01 12.31,35.34 29.66,72.34 21.49,45.78 76.84,74.05 27.03,138.4 -38.81,50.13 -13.56,-3.21 -32.47,69.84l-67.43 125.27c-17.1,32.22 -12.65,51.26 -24.66,77.96 -15.02,33.37 -18.19,3.4 -40.33,60.67 -10.89,28.21 -17.92,38.85 -33.62,66.81 -25.6,45.62 -50.26,81.64 -62.64,132.76 -9.86,40.74 -47.08,114.73 -70.28,147.53l-49.33 76.47c-7.49,8.74 -5.75,5.28 -11.82,14.15l-47.58 78.83c-32.66,74.86 -14.93,60.08 -61.17,132.79 -18.01,28.3 -26.5,29.64 -41.3,60.98 -5.22,11.05 -11.39,27.69 -15.55,34.62l-17.79 24.23c-19.04,28.64 -28.83,48.61 -31.19,88.57 50.54,-8.71 56.01,-31.56 88.16,-75.78 9.65,-13.22 10.83,-10.86 24.45,-24.73 17.54,-17.88 27.62,-36.29 46.3,-55.35 45.56,-46.53 56.86,-79.77 91.8,-110.19 33.16,-28.82 63.95,-75.45 90.79,-111.71 14.8,-20.02 30.91,-35.58 45.49,-55.88 37.91,-52.74 175.62,-187.71 193.85,-237.97 1.06,-2.96 3.86,-16.02 5.16,-20.87 12.25,-45.4 58.84,-72.02 91.74,-107.78 75.97,-82.57 26.49,-6.16 61.35,-84.15 30.17,-11.45 52.65,-12 64.97,19.63 5.78,14.92 5.38,26.22 9.11,41.86 8.06,33.77 2.74,15.58 18.79,41.08 21.98,34.84 15.58,87.11 29.92,129.13 21.89,64.19 39.4,27.31 41.11,124.48 1.15,66.56 2.62,49.02 29.32,84.47 18.73,24.85 13.4,51.31 21.99,85.58 7.18,28.82 29.6,45.37 37.38,71.18 9.42,31.13 0.12,66.19 19.75,93.64 57.04,79.83 44.87,276.35 4.78,364.95 -5.03,11.08 -1.65,0.65 -7.58,17.95 -17.7,51.41 -11.36,93.01 -40.28,154.19 -20.27,42.86 -17.6,52.84 -16.64,112.36 41.83,-7.09 70.13,-31.37 93.21,-65.12 45.09,-65.93 38.4,-43.11 78.36,-71.03 30.29,-21.21 15.9,-33.22 53.37,-54.14l27.77 -15.92c38.6,-23.23 53.31,-46.5 86.89,-65.35l164.83 -130.62c73.24,-76.9 149.83,-150.14 235.1,-211.19 18.17,-12.99 21.83,-16.54 44.6,-31.41 63.25,-41.27 141.78,-128.66 200.87,-178.73 24.44,-20.74 63.25,-47.95 82.13,-70.78 103.38,-125.05 248.3,-86.8 104.25,-302.04 -17.79,-26.62 -22.61,-21.82 -35.24,-40.18 -14.12,-20.52 -10.39,-36.07 -20.36,-55.57l-42.43 -58.69c-0.99,-1.62 -2.27,-3.73 -3.27,-5.31l-73.36 -120.45c-9.65,-14.62 -61.48,-130.75 -105.4,-198.23l-51.87 -99.95c-15.39,-28.67 -13.52,-18.29 -25.97,-51.28 -25.94,-68.82 -79.52,-111.49 -110.18,-182.71 -12.03,-27.92 -17.23,-28.08 -29.33,-47.33 -15.95,-25.38 -8.3,-21.68 -29.79,-46.68 -39.68,-46.15 -16.29,-57.6 -54.36,-97.38 -38.31,-40.05 -51,-101.53 -78.83,-148.62l-90.19 -135.4c-17.27,-31.63 -15.09,-12.91 -36.7,-40.59 -0.68,-0.84 -10.48,-18.44 -11.1,-19.84l-43.14 -76.85c-7.31,-12.03 -2.87,-9.64 -15.4,-21.2 -11.96,-11.05 0.66,-5.04 -21.92,-10.99 -2.02,-52.74 -15.08,-74.23 -41.3,-117.21 -13.74,-22.51 -12.06,-32.03 -24.79,-51.47 -24.44,-37.38 -17.1,-2.58 -32.43,-41.43 -15.02,-37.97 -22.49,-71.21 -51.01,-103.87 -57.38,-65.71 -25.85,-58.66 -57.29,-102.25 -20.33,-28.17 -33.31,-75.2 -53.58,-98.43 -17.88,-20.53 -18.79,-24.32 -28.39,-45.81 -15.89,-35.49 -13.15,-25.54 -32.97,-52.4 -23.57,-31.97 -45.4,-52.37 -59.15,-90.56 -18.26,-50.61 -41.74,-40.15 -47.61,-115.87 -48.74,-27.75 -43.82,-47.12 -71.84,-95.98 -12.94,-22.54 -7.9,-24.01 -17.45,-41.64 -24.26,-44.84 -20.9,2.12 -45.62,-62.29 -10.17,-26.5 -4.54,-20.27 -19.5,-40.99 -32.75,-45.34 -18.98,-45.37 -37.57,-72.31l-41.92 -74.55c-9.52,-22.76 -3.98,-9.02 -9.46,-17.2l-93.58 -176.11c-53.67,-73.03 -86.23,-142.87 -125.88,-219.37 -22.08,-42.68 -32.44,-20.59 -41.55,-74.58 -12.28,-72.81 -20.53,-46.53 -40,-71.38 -19.88,-25.31 2.06,-42.64 -32.72,-86.01l-7.74 -9.12c-59.53,-80.51 -71.43,-105.02 -161.56,-166.91 -20.99,-14.39 -160.04,-43.14 -199.04,-40.65 -44.09,2.84 -59.18,13.72 -99.15,21.46 -72.65,14.05 -159.69,87.3 -201.99,144.05 -19.88,26.69 -6.9,17.73 -18.07,42.15 -17.82,38.9 1.06,-2.15 -25.19,32.4l-82.33 145.11c-21.95,24.6 -25.56,43.88 -44.78,73.15l-127.72 218.38c-15.83,33.16 -28.14,39.03 -42.05,76.1 -30.38,81.08 -83.87,147.01 -122.04,224.01l-38.15 70.53c-17.95,20.8 -20.59,50.63 -41.27,77 -2.68,3.36 -11.73,12.25 -11.97,12.56 -15.93,19.69 -13.65,35.8 -28.02,57.6 -8.27,12.56 -15.98,16.36 -27.21,30.82 -36.29,46.74 -42.93,53.2 -62.05,113.76 -14.24,45.15 -66.55,98.12 -87.17,140.44l-74.42 162.16c-8.71,16.88 -10.83,24.32 -17.36,41.42 -9.64,25.26 -76.03,113.49 -101.25,184.11 -10.45,29.36 -32.1,45.59 -42.64,76 -7.34,21.12 -6.13,24.54 -16.86,43.36 -11.57,20.37 -9.05,8.65 -21.11,37.53 -7.43,17.89 -6.81,21.74 -15.08,36.07 -39.34,68.17 -60.58,122.85 -110.31,184.92 -21.77,27.22 -8.8,9.83 -19.04,41.71 -11.88,36.97 4.01,4.57 -20.08,37.78 -26.94,37.1 -14.4,42.14 -33.72,76.38 -17.2,30.57 -9.67,8.08 -25.38,32.78l-39.31 80.02c-23.72,45.83 -40.33,84.12 -21.73,136.18 39.62,110.78 28.76,246.28 53.3,410.41 9.98,66.9 36.82,103.19 38.65,187.93 2.03,93.55 2.84,128.01 22.05,213.16z"/>
    </clipPath>
     <clipPath id="id2">
      <path d="M9718.87 4111.58c-21.92,11.54 -27.84,13.86 -54.7,54.57 -20.37,30.82 -16.14,50.76 -15.11,94.23l-101.35 683.6c-15.24,47.48 -20.46,19.22 -25.29,83.22 -5,66.53 -7.56,146.26 -18.04,210.21 -13.65,83.5 -7.31,118.2 51.22,160.94l221.9 165.69c71.09,47.68 67.63,58.38 164.91,121.79l448.96 335.19c27.71,25.38 38.71,24.91 68.22,49.7 29.27,24.6 39.25,20.58 68.89,41.77 22.29,15.95 40.18,37.69 61.57,55.97 25.35,21.62 36.66,19.26 64.87,44.13l185.48 151.89c49.52,35.82 70.57,39.37 132.73,94.98 68.42,61.2 129.16,79.89 251.68,203.51 36.23,36.53 106.37,75.78 181.96,146.82 28.55,26.84 46.09,30.16 68.26,49.85l174.03 162.78c23.73,17.92 45.78,33.81 65.66,52.62 76.71,72.71 116.4,94.38 182.42,146.64 39.5,31.25 28.33,24.63 83.81,36.13l173.25 52.49c44.53,14.99 35.43,25.66 71.16,36.88 33.71,10.61 65.99,6.53 96.97,22.23 45.8,23.23 8.61,17.64 80.36,28.46 39.03,5.87 55.17,11.93 86.08,25.72 62.16,27.65 123.96,18.22 183.89,43.35 34.8,14.59 49.57,17.05 87.33,22.61 59.12,8.71 39.8,15.92 82.54,32.06 63.5,24.01 225.6,39.22 65.93,-114.6 -11.57,-11.17 -62.13,-84.68 -100.6,-118.55 -21.71,-19.13 -37.94,-38.09 -56.29,-61.7 -21.08,-27.12 -29.67,-33.31 -51.93,-57.6l-177.93 -210.29c-38.12,-58.88 -9.73,-27.03 -75.72,-92.55l-254.86 -310.31c-29.19,-41.05 -68.66,-68.41 -111.42,-115.75 -18.73,-20.7 -30.82,-38 -50.29,-59.4l-313.33 -369.15c-29.36,-29.95 -21.9,-35.34 -44.04,-66.12 -14.49,-20.12 -36.53,-38.78 -52.61,-56.64 -17.95,-19.99 -29.92,-38.59 -49.86,-59.76 -73.61,-78.22 -203.75,-252.18 -262.07,-311.25 -94.66,-95.84 -105.46,-72.24 -200.28,7.65 -31.97,26.94 -124.8,154.88 -156.58,189.12 -65.65,70.75 -87.27,43.26 -141.56,-10.24l-250.97 -304.65c-30.32,-56.66 -53.36,-65 -91.5,-136.87l-127.91 -210.55c-38.06,-103.87 -65.9,-51.22 -124.3,-214.95 -14.21,-39.81 -24.54,-35.34 -46.62,-69.01 -8.83,-13.43 -39.18,-59.28 -43.01,-67.15 -21.21,-43.29 7.71,-24.88 -76.19,-150.98 -29.39,-44.13 -17.29,-47.09 -38.62,-70.07 -30.14,-32.5 -14.15,9.64 -48.68,-61.14 -11.26,-23.07 -31.69,-47.86 -48.08,-69.63 -25.65,-34.05 -24.32,-26.4 -39.06,-70.62 -5.15,-15.46 -90.93,-160.91 -114.82,-172.01 -30.01,-13.96 -34.55,1.62 -40.46,4.73z"/>
     </clipPath>
     <clipPath id="id3">
      <path d="M4977.84 6374.92c-48.82,-2.12 -73.58,-52.55 -102.06,-81.98 -32.44,-33.49 -66.78,-49.79 -101.66,-83.62 -41.65,-40.4 -174.22,-131.21 -255.2,-131.18 0.03,83.54 25.5,80.86 73.33,177.61l94.1 159.48c76.04,97.28 47.9,173.09 228.36,269.19 48.15,25.66 70.72,23.26 111.93,56.45 39.84,32.09 215.55,117.36 270.72,142.62 19.81,9.08 40.99,13.09 60.95,23.63 24.17,12.78 23.95,17.92 51.6,31.35l278.34 143.4c24.26,15.42 36.75,12.03 61.42,23.85 29.41,14.12 12.34,16.73 53.33,30.88l115.81 52.24c38.4,17.73 114.45,60.89 165.97,77.5 34.71,11.23 33.22,14.83 58.41,27.03l167.94 83.51c22.85,10.42 39.4,11.01 63.13,21.55 68.94,30.53 47.83,25.75 137.86,32.22 105.9,7.58 216.27,6.93 328.82,8.05 122.25,1.25 206.34,9.27 320.54,16.05 418.19,24.75 891.81,23.91 1313.85,8.21l-0.77 -41.21c-18.57,-9.11 -27.28,-8.99 -48.24,-15.55l-30.41 -13.06c-1.62,-0.9 -3.55,-2.36 -5.13,-3.33 -42.95,-25.78 -32.56,-13.43 -75.27,-25.41 -45.55,-12.78 -12.65,-10.48 -47.95,-28.11 -29.39,-14.68 -77.09,-13.43 -119.77,-33.28 -49.01,-22.82 -72.68,-7.05 -113.7,-37.44 -41.17,-30.47 -67.85,-16.79 -111.24,-40.46 -26.87,-14.64 -22.17,-18.63 -47.61,-26.06l-229.67 -76.72c-59.34,-11.85 -18.91,-13.71 -113.05,-38.9 -60.54,-16.21 15.43,-14.49 -108.87,-43.08 -28.48,-6.56 -28.45,-9.67 -54.89,-20.8 -95.82,-40.37 -53.27,5.22 -108.16,-42.64 -22.36,-19.51 -189.95,-59.77 -224.38,-79.21 -70.91,-40.03 -68.6,-8.15 -105.31,-47.4 -44.75,-47.83 -4.47,7.43 -102.19,-46.58l-124.76 -58.16c-23.02,-5.78 -12.84,-0.22 -34.78,-10.02 -25.38,-11.35 -20.46,-14.52 -50.63,-23.45 -17.48,-5.19 -8.37,-0.87 -27,-7.99 -40.83,-15.55 -16.67,-16.79 -86.48,-31.63 -75.05,-15.95 -109.5,-60.51 -220.09,-84.55 -32.9,-7.12 -27.28,-10.3 -53.39,-23.11 -25.76,-12.62 -28.77,-8.52 -61.58,-15.23l-106.55 -44.69c-23.91,-10.7 -22.33,-17.11 -50.66,-25.29l-161.19 -66.27c-29.39,-15.21 -22.36,-12.03 -55.8,-20.83l-261.73 -116.78c-21.58,-11.23 -83.83,-29.29 -112.89,-40.3 -32.56,-12.38 -26.06,-14.84 -46.24,-28.49 -24.97,-16.85 -27.71,-11.35 -59.16,-18.16 -40.58,-8.84 -19.44,-8.9 -50.07,-25.07 -21.52,-11.32 -32.87,-9.52 -55.42,-20.83 -26.87,-13.53 -16.92,-15.71 -48.92,-27.69 -87.85,-32.93 -58.34,-39.62 -107.33,-45.46 -32.65,-3.92 -46.3,-0.44 -71.21,-8.71 -3.65,129.53 8.58,84.46 15.83,164.58 5.03,55.91 9.8,121.01 -20.84,149.33z"/>
     </clipPath>
     <clipPath id="id4">
      <path d="M7965.09 6806.36c41.05,41.8 138.17,85.49 199.41,117.62l88.94 46.12c28.2,10.92 24.32,3.98 49.51,18.19 111.21,62.73 36.76,0.38 125.18,68.39 21.2,16.36 17.38,9.95 46.99,19.06 52.08,16.08 121.75,65.53 184.57,86.46 34.43,11.48 57.07,25.78 87.17,39.53l273.31 123.09c63.84,40.87 42.05,18.38 88.04,37.63 84.3,35.3 109.65,39.96 215.36,52.86 42.36,5.16 87.42,2.9 130.75,2.93 355.83,0.25 675.04,22.61 1028.48,27.44 353.67,4.84 710.13,-0.38 1053.99,-6.66 -2.68,-56.91 -24.47,-41.83 -74.45,-61.14 -41.3,-15.95 -49.48,-32.03 -99.48,-43.97l-48.27 -18.91c-17.17,-11.26 -25.75,-17.6 -51.13,-24.91 -41.93,-12 -80.33,-9.27 -115.2,-28.64 -25.94,-14.4 -10.39,-13.8 -43.45,-23.17 -17.76,-5 -38.68,-6.4 -56.97,-10.23 -66.62,-13.99 -28.14,-22.45 -105.93,-37.97 -68.6,-13.68 -49.73,-30.23 -100.76,-42.86 -21.83,-5.41 -42.39,-2.9 -61.14,-7.65 -24.22,-6.15 -24.32,-18.01 -43.32,-30.38 -28.74,-18.76 -63.29,-15.21 -99.89,-35.55 -79.18,-44.07 -49.08,-17.58 -104.62,-38.22 -26.62,-9.89 -17.32,-11.97 -46.24,-21.74 -25.35,-8.58 -37.01,-6.22 -60.36,-15.98 -54.92,-23.05 -20.27,-29.98 -101.57,-41.06 -81.51,-11.13 -24.1,-25.06 -152.82,-50.04 -42.64,-8.27 -21.27,-7.18 -49.76,-25.41 -32.47,-20.8 -73.03,-14.83 -110.62,-33.46 -22.3,-11.05 -19.79,-15.08 -45.16,-22.89 -24.38,-7.49 -38.74,-5.53 -62.32,-13.65 -40.61,-13.99 -40.89,-29.48 -88.97,-43.67 -46.68,-13.8 -67.76,-38.56 -94.79,-47.08 -68.17,-21.49 2.83,11.82 -107.39,-36.82 -153.14,-67.61 -224.42,-1.03 -359.89,5.28 -53.39,2.5 -84.77,-6.74 -139.82,4.35 -46.52,9.4 -79.36,14.62 -130.55,13 -89.39,-2.83 -164.92,-10.02 -258.87,2.65 -35.11,4.69 -74.95,20.55 -117.4,27.31 -46.46,7.37 -90.94,1.34 -135.93,7.02 -123.1,15.58 -45.53,31.07 -254.64,27.78 -55.61,-0.87 -218.6,15.52 -249.98,35.36z"/>
     </clipPath>
  <linearGradient id="id5" gradientUnits="objectBoundingBox" x1="0%" y1="50%" x2="100%" y2="50%">
   <stop offset="0" style="stop-opacity:1; stop-color:#1D4859"/>
   <stop offset="1" style="stop-opacity:1; stop-color:#9DC6CA"/>
  </linearGradient>
  <linearGradient id="id6" gradientUnits="objectBoundingBox" xlink:href="#id5" x1="100%" y1="50%" x2="0%" y2="50%">
  </linearGradient>
 </defs>
 <g id="Layer_x0020_1">
  <metadata id="CorelCorpID_0Corel-Layer"/>
  <g id="_2781926061456">
   <path class="fil0" d="M0.04 7569.2c74.17,23.01 1332.33,8.55 1521.41,8.77l3085.48 0.59c255.67,0.75 511.43,0.47 767.13,0.9 125.6,0.22 264.97,-2.89 381.15,6.56 62.32,5.07 126.42,-2.92 189.67,4.54 51.6,6.06 130.12,13.18 166.41,-8.62 -21.7,-62.22 -274.27,-92.79 -349.21,-100.75 -54.2,-5.79 -73.8,-31.6 -113.64,-44.75l-260.52 -53.21c-54.79,-10.55 -58.25,-26.25 -113.29,-38.06 -32,-6.88 -98.22,-21.05 -129.04,-32.19 -47.67,-17.26 -63.34,-19.23 -121.35,-29.36 -70.9,-12.37 -88.85,-32.87 -142.8,-50.13 -4.42,-1.43 -21.52,-7.84 -30.48,-11.23 -19.1,-7.19 -29.98,-13.65 -56.1,-19.63 -73.34,-16.76 -66.19,6.15 -132.76,-28.51 -46.37,-24.14 -71.81,-18.89 -117.46,-33.81 -81.27,-26.63 -15.46,-18.63 -127.42,-33.75 -70.53,-9.48 -190.01,-47.36 -241.17,-72.09 -54.64,-26.4 -77.66,-7.99 -126.98,-24.91 -42.67,-14.61 -63.23,-29.2 -115.9,-43.54 -52.68,-14.34 -47.71,-34.03 -108.01,-42.64 -54.7,-7.84 -77.71,-15.27 -124.98,-35.92 -72.47,-31.69 -195.74,-19.5 -290.35,-19.47l-927.31 -8.4c-73.18,-0.31 -257.76,22.86 -288.7,-27.28 -11.26,-18.25 -14.37,-40.02 -4.66,-64.18l76.03 -119.96c29.39,-39.21 56.14,-68.97 78.9,-114.38l181.09 -284.99c7.96,-16.02 18.35,-31.04 28.33,-46.71l63.81 -88.64c9.08,-13.93 4.69,-6.15 18.38,-21.86l112.55 -157.42c16.8,-23.88 10.33,-30.57 31.97,-52.43 52.15,-52.8 55.64,-91.5 93.58,-134.07l71.12 -88.2c1.34,-2.08 5.04,-8.52 6.47,-10.6l202.68 -329.29c22.57,-26.12 51.1,-57.97 68.23,-83.47 22.26,-33.09 36.63,-62.7 63.81,-96.04l121.76 -191.29c49.88,-80.17 -18.35,-108.69 -5.16,-266.83 3.95,-47.64 -6.53,-237.69 -19.79,-277.31 -52.95,-158.54 -22.39,-165.41 -45.74,-267.32 -9.24,-40.24 -22.79,-69.13 -26.28,-121.48 -4.07,-60.79 5.41,-95.16 -7.5,-154.6 -10.11,-46.49 -9.02,-92.82 -19.69,-133.44 -10.6,-40.46 -28.7,-73.99 -37.59,-121.41 -21.68,-115.38 15.39,-161.47 -32.04,-280.71 -45.86,-115.26 -34.61,-156.71 -62.88,-249.26 -38.62,14.02 -33.46,38.62 -51.13,74.39l-41.89 75.72c-13.68,25.04 -27.09,51.63 -41.93,76.28l-90.22 146.33c-0.87,1.59 -2.15,3.71 -3.05,5.22l-114.26 171.2c-1.5,1.93 -5.82,7.52 -7.28,9.52 -1.09,1.46 -2.46,3.58 -3.52,5.03 -1.06,1.49 -2.4,3.61 -3.49,5.1 -33.62,46.18 -34.64,38.34 -56.91,97.09 -10.05,26.56 -27.21,42.08 -52.27,62.98 -43.55,36.25 -59.16,105.86 -90.26,146.54 -9.67,12.65 -17.1,16.95 -26.09,32.31 -35.12,59.9 -66.15,129.07 -119.98,175.25l-67.7 84.12c-33.15,38.28 -53.02,86.14 -86.42,124.17 -35.89,40.84 -58.75,95.82 -86.43,150.05 -19.56,38.38 -31.47,32.41 -50.1,68.98 -27.68,54.33 -94.51,111.99 -132.57,161.16 -17.02,22.01 -10.55,22.26 -22.95,45.06 -15.43,28.32 -33.06,35.3 -50.89,66.46 -27.12,47.46 -55.79,74.86 -81.38,121.82 -0.91,1.68 -2.03,3.89 -2.96,5.53l-329.25 420.49c-36.76,44.84 -25.04,5.66 -49.36,70.01 -22.14,58.5 -66.4,85.86 -100.76,133.53 -20.8,28.86 -21.95,49.3 -44.5,73.52 -15.55,16.74 -13.8,9.34 -27.81,32.6 -11.44,19.1 -7.21,18.66 -21.3,37.1l-57.25 59.24c-25.79,19.93 -23.01,33.03 -43.82,58.26 -1.09,1.33 -2.8,3.17 -3.89,4.53l-129.87 181.28c-7.84,13.8 -13.5,24.13 -21.11,38.65 -23.02,43.79 -109.69,150.34 -148.22,215.05 -46.83,78.62 -106.08,134.1 -148.46,214.12 -5.6,10.58 -13.59,22.55 -23.79,34.43 -9.77,11.36 -21.58,20.65 -29.83,29.01 -33.27,33.87 -14.64,49.83 -38.4,80.21l-58.66 58.81c-36.13,38.22 -19.81,31.97 -45.65,73.55 -21.83,35.21 -57.1,64.82 -77.59,100.02 -14.93,25.69 -9.18,13.58 -23.64,33.83 -22.11,31.01 -18.32,48.99 -48.17,77.13 -70.28,66.27 -68.41,107.6 -120.39,175.86 -40.92,53.77 -118.2,166.54 -157.6,203.86 -44.88,42.51 -120.2,105.36 -118.18,177.33z"/>
   <g style="clip-path:url(#id0)">
    <g>
     <rect class="fil1" x="-11893.85" y="-14958.13" width="7786.33" height="6851.87"/>
    </g>
   </g>
   <path class="fil2" d="M0.04 7569.2c74.17,23.01 1332.33,8.55 1521.41,8.77l3085.48 0.59c255.67,0.75 511.43,0.47 767.13,0.9 125.6,0.22 264.97,-2.89 381.15,6.56 62.32,5.07 126.42,-2.92 189.67,4.54 51.6,6.06 130.12,13.18 166.41,-8.62 -21.7,-62.22 -274.27,-92.79 -349.21,-100.75 -54.2,-5.79 -73.8,-31.6 -113.64,-44.75l-260.52 -53.21c-54.79,-10.55 -58.25,-26.25 -113.29,-38.06 -32,-6.88 -98.22,-21.05 -129.04,-32.19 -47.67,-17.26 -63.34,-19.23 -121.35,-29.36 -70.9,-12.37 -88.85,-32.87 -142.8,-50.13 -4.42,-1.43 -21.52,-7.84 -30.48,-11.23 -19.1,-7.19 -29.98,-13.65 -56.1,-19.63 -73.34,-16.76 -66.19,6.15 -132.76,-28.51 -46.37,-24.14 -71.81,-18.89 -117.46,-33.81 -81.27,-26.63 -15.46,-18.63 -127.42,-33.75 -70.53,-9.48 -190.01,-47.36 -241.17,-72.09 -54.64,-26.4 -77.66,-7.99 -126.98,-24.91 -42.67,-14.61 -63.23,-29.2 -115.9,-43.54 -52.68,-14.34 -47.71,-34.03 -108.01,-42.64 -54.7,-7.84 -77.71,-15.27 -124.98,-35.92 -72.47,-31.69 -195.74,-19.5 -290.35,-19.47l-927.31 -8.4c-73.18,-0.31 -257.76,22.86 -288.7,-27.28 -11.26,-18.25 -14.37,-40.02 -4.66,-64.18l76.03 -119.96c29.39,-39.21 56.14,-68.97 78.9,-114.38l181.09 -284.99c7.96,-16.02 18.35,-31.04 28.33,-46.71l63.81 -88.64c9.08,-13.93 4.69,-6.15 18.38,-21.86l112.55 -157.42c16.8,-23.88 10.33,-30.57 31.97,-52.43 52.15,-52.8 55.64,-91.5 93.58,-134.07l71.12 -88.2c1.34,-2.08 5.04,-8.52 6.47,-10.6l202.68 -329.29c22.57,-26.12 51.1,-57.97 68.23,-83.47 22.26,-33.09 36.63,-62.7 63.81,-96.04l121.76 -191.29c49.88,-80.17 -18.35,-108.69 -5.16,-266.83 3.95,-47.64 -6.53,-237.69 -19.79,-277.31 -52.95,-158.54 -22.39,-165.41 -45.74,-267.32 -9.24,-40.24 -22.79,-69.13 -26.28,-121.48 -4.07,-60.79 5.41,-95.16 -7.5,-154.6 -10.11,-46.49 -9.02,-92.82 -19.69,-133.44 -10.6,-40.46 -28.7,-73.99 -37.59,-121.41 -21.68,-115.38 15.39,-161.47 -32.04,-280.71 -45.86,-115.26 -34.61,-156.71 -62.88,-249.26 -38.62,14.02 -33.46,38.62 -51.13,74.39l-41.89 75.72c-13.68,25.04 -27.09,51.63 -41.93,76.28l-90.22 146.33c-0.87,1.59 -2.15,3.71 -3.05,5.22l-114.26 171.2c-1.5,1.93 -5.82,7.52 -7.28,9.52 -1.09,1.46 -2.46,3.58 -3.52,5.03 -1.06,1.49 -2.4,3.61 -3.49,5.1 -33.62,46.18 -34.64,38.34 -56.91,97.09 -10.05,26.56 -27.21,42.08 -52.27,62.98 -43.55,36.25 -59.16,105.86 -90.26,146.54 -9.67,12.65 -17.1,16.95 -26.09,32.31 -35.12,59.9 -66.15,129.07 -119.98,175.25l-67.7 84.12c-33.15,38.28 -53.02,86.14 -86.42,124.17 -35.89,40.84 -58.75,95.82 -86.43,150.05 -19.56,38.38 -31.47,32.41 -50.1,68.98 -27.68,54.33 -94.51,111.99 -132.57,161.16 -17.02,22.01 -10.55,22.26 -22.95,45.06 -15.43,28.32 -33.06,35.3 -50.89,66.46 -27.12,47.46 -55.79,74.86 -81.38,121.82 -0.91,1.68 -2.03,3.89 -2.96,5.53l-329.25 420.49c-36.76,44.84 -25.04,5.66 -49.36,70.01 -22.14,58.5 -66.4,85.86 -100.76,133.53 -20.8,28.86 -21.95,49.3 -44.5,73.52 -15.55,16.74 -13.8,9.34 -27.81,32.6 -11.44,19.1 -7.21,18.66 -21.3,37.1l-57.25 59.24c-25.79,19.93 -23.01,33.03 -43.82,58.26 -1.09,1.33 -2.8,3.17 -3.89,4.53l-129.87 181.28c-7.84,13.8 -13.5,24.13 -21.11,38.65 -23.02,43.79 -109.69,150.34 -148.22,215.05 -46.83,78.62 -106.08,134.1 -148.46,214.12 -5.6,10.58 -13.59,22.55 -23.79,34.43 -9.77,11.36 -21.58,20.65 -29.83,29.01 -33.27,33.87 -14.64,49.83 -38.4,80.21l-58.66 58.81c-36.13,38.22 -19.81,31.97 -45.65,73.55 -21.83,35.21 -57.1,64.82 -77.59,100.02 -14.93,25.69 -9.18,13.58 -23.64,33.83 -22.11,31.01 -18.32,48.99 -48.17,77.13 -70.28,66.27 -68.41,107.6 -120.39,175.86 -40.92,53.77 -118.2,166.54 -157.6,203.86 -44.88,42.51 -120.2,105.36 -118.18,177.33z"/>
   <path class="fil3" d="M4578.35 3461.61c35.82,-15.43 34.74,-17.14 39.12,-60.8 5.5,-54.76 4.63,-32 32.22,-58.19l56.64 -88.51c15.17,-33 42.2,-57.75 55.63,-87.51l37.32 -63.91c22.45,-41.12 30.72,-14.37 57.56,-85.09 26.44,-69.59 65.78,-80.76 82.86,-111.11l32 -60.3c33.81,-53.89 48.39,-53.89 60.33,-93.83 11.01,-36.84 9.52,-30.63 32.19,-57.81l21.79 -29.39c12.75,-16.89 9.49,-11.29 24.14,-25.72 38.31,-37.78 48.98,-80.49 82.01,-111.89l86.3 -108.26c13.09,-17.85 33.34,-27.86 43.14,-48.08l38.62 -63.53c15.21,-33.62 20.4,-37.63 32.44,-60.64 17.35,-33.19 10.01,-39.78 36.69,-63.41 33.75,-29.92 20.71,-44.22 52.34,-92.71l58.31 -86.76c24.79,-57.6 12.62,-8.28 41.43,-58.85 46.43,-81.54 -24.35,16.42 47.98,-67.14l28.55 -49.86c5.62,-9.86 9.11,-14.37 15.89,-25.28 25.07,-40.34 104.21,-202.75 123.61,-221.09l111.59 -174.96c14.02,-23.89 18.23,-44.81 33,-69.16 19.81,-32.66 18.63,-72.28 43.67,-98.84l23.13 -29.04c43.94,-68.92 86.74,-9.21 70.47,64.68 -12.68,57.79 -34.02,11.73 -38.5,153.51 -2.77,86.99 -30.6,97.66 -40.4,153.54 -10.11,57.54 -3.42,125.95 -19.5,175.84 -36.72,113.64 -17.29,50.01 -28.98,166.32 -6.06,60.61 -24.48,101.44 -35.18,156.3 -9.42,48.48 -4.5,131.64 -25.41,169.12 -55.79,100.1 -27.31,111.77 -67.21,218.19 -10.3,27.5 -8.58,54.18 -16.05,85.65 -11.13,46.96 -35.88,64.59 -50.82,141.16 -10.82,55.63 -32.96,94.04 -44.06,150.2 -12.28,62.08 -31.6,80.24 -43.48,151.52 -11.82,70.88 -46.65,52.03 -43.67,152.67 43.3,-10.61 66.87,-88.17 93.36,-127.73l144.33 -219.55c13.53,-27.59 11.67,-37.41 28.3,-54.3 14.92,-15.14 6.65,-3.24 24.1,-27.15 31.41,-43.05 26.22,-24.51 46.34,-73.46l165.1 -221.33c21.27,-37.69 52.86,-59.96 74.45,-93.86 15.06,-23.67 9.49,-11.7 27.22,-31.1 34.8,-38.16 55.79,-87.82 96.16,-123.31 27.62,-24.26 27.37,-37.22 77.12,-33.81 8.81,22.3 17.61,34.74 32.13,52.99 36.01,45.25 10.64,22.05 31.69,68.7 16.14,35.76 26.13,19.75 40.93,59.79l30.82 72.53c11.48,24.72 9.7,44.9 19.87,72.96 13.59,37.63 26.47,31.81 38.38,61.11 15.08,37.13 6.99,40.71 30.1,72.49 21.02,28.92 15.24,45.71 33.74,67.82 27.16,32.41 21.71,-3.45 33.97,55.73 6.4,31.04 48.79,110.65 67.7,136.65 26.15,36.01 12.31,35.34 29.66,72.34 21.49,45.78 76.84,74.05 27.03,138.4 -38.81,50.13 -13.56,-3.21 -32.47,69.84l-67.43 125.27c-17.1,32.22 -12.65,51.26 -24.66,77.96 -15.02,33.37 -18.19,3.4 -40.33,60.67 -10.89,28.21 -17.92,38.85 -33.62,66.81 -25.6,45.62 -50.26,81.64 -62.64,132.76 -9.86,40.74 -47.08,114.73 -70.28,147.53l-49.33 76.47c-7.49,8.74 -5.75,5.28 -11.82,14.15l-47.58 78.83c-32.66,74.86 -14.93,60.08 -61.17,132.79 -18.01,28.3 -26.5,29.64 -41.3,60.98 -5.22,11.05 -11.39,27.69 -15.55,34.62l-17.79 24.23c-19.04,28.64 -28.83,48.61 -31.19,88.57 50.54,-8.71 56.01,-31.56 88.16,-75.78 9.65,-13.22 10.83,-10.86 24.45,-24.73 17.54,-17.88 27.62,-36.29 46.3,-55.35 45.56,-46.53 56.86,-79.77 91.8,-110.19 33.16,-28.82 63.95,-75.45 90.79,-111.71 14.8,-20.02 30.91,-35.58 45.49,-55.88 37.91,-52.74 175.62,-187.71 193.85,-237.97 1.06,-2.96 3.86,-16.02 5.16,-20.87 12.25,-45.4 58.84,-72.02 91.74,-107.78 75.97,-82.57 26.49,-6.16 61.35,-84.15 30.17,-11.45 52.65,-12 64.97,19.63 5.78,14.92 5.38,26.22 9.11,41.86 8.06,33.77 2.74,15.58 18.79,41.08 21.98,34.84 15.58,87.11 29.92,129.13 21.89,64.19 39.4,27.31 41.11,124.48 1.15,66.56 2.62,49.02 29.32,84.47 18.73,24.85 13.4,51.31 21.99,85.58 7.18,28.82 29.6,45.37 37.38,71.18 9.42,31.13 0.12,66.19 19.75,93.64 57.04,79.83 44.87,276.35 4.78,364.95 -5.03,11.08 -1.65,0.65 -7.58,17.95 -17.7,51.41 -11.36,93.01 -40.28,154.19 -20.27,42.86 -17.6,52.84 -16.64,112.36 41.83,-7.09 70.13,-31.37 93.21,-65.12 45.09,-65.93 38.4,-43.11 78.36,-71.03 30.29,-21.21 15.9,-33.22 53.37,-54.14l27.77 -15.92c38.6,-23.23 53.31,-46.5 86.89,-65.35l164.83 -130.62c73.24,-76.9 149.83,-150.14 235.1,-211.19 18.17,-12.99 21.83,-16.54 44.6,-31.41 63.25,-41.27 141.78,-128.66 200.87,-178.73 24.44,-20.74 63.25,-47.95 82.13,-70.78 103.38,-125.05 248.3,-86.8 104.25,-302.04 -17.79,-26.62 -22.61,-21.82 -35.24,-40.18 -14.12,-20.52 -10.39,-36.07 -20.36,-55.57l-42.43 -58.69c-0.99,-1.62 -2.27,-3.73 -3.27,-5.31l-73.36 -120.45c-9.65,-14.62 -61.48,-130.75 -105.4,-198.23l-51.87 -99.95c-15.39,-28.67 -13.52,-18.29 -25.97,-51.28 -25.94,-68.82 -79.52,-111.49 -110.18,-182.71 -12.03,-27.92 -17.23,-28.08 -29.33,-47.33 -15.95,-25.38 -8.3,-21.68 -29.79,-46.68 -39.68,-46.15 -16.29,-57.6 -54.36,-97.38 -38.31,-40.05 -51,-101.53 -78.83,-148.62l-90.19 -135.4c-17.27,-31.63 -15.09,-12.91 -36.7,-40.59 -0.68,-0.84 -10.48,-18.44 -11.1,-19.84l-43.14 -76.85c-7.31,-12.03 -2.87,-9.64 -15.4,-21.2 -11.96,-11.05 0.66,-5.04 -21.92,-10.99 -2.02,-52.74 -15.08,-74.23 -41.3,-117.21 -13.74,-22.51 -12.06,-32.03 -24.79,-51.47 -24.44,-37.38 -17.1,-2.58 -32.43,-41.43 -15.02,-37.97 -22.49,-71.21 -51.01,-103.87 -57.38,-65.71 -25.85,-58.66 -57.29,-102.25 -20.33,-28.17 -33.31,-75.2 -53.58,-98.43 -17.88,-20.53 -18.79,-24.32 -28.39,-45.81 -15.89,-35.49 -13.15,-25.54 -32.97,-52.4 -23.57,-31.97 -45.4,-52.37 -59.15,-90.56 -18.26,-50.61 -41.74,-40.15 -47.61,-115.87 -48.74,-27.75 -43.82,-47.12 -71.84,-95.98 -12.94,-22.54 -7.9,-24.01 -17.45,-41.64 -24.26,-44.84 -20.9,2.12 -45.62,-62.29 -10.17,-26.5 -4.54,-20.27 -19.5,-40.99 -32.75,-45.34 -18.98,-45.37 -37.57,-72.31l-41.92 -74.55c-9.52,-22.76 -3.98,-9.02 -9.46,-17.2l-93.58 -176.11c-53.67,-73.03 -86.23,-142.87 -125.88,-219.37 -22.08,-42.68 -32.44,-20.59 -41.55,-74.58 -12.28,-72.81 -20.53,-46.53 -40,-71.38 -19.88,-25.31 2.06,-42.64 -32.72,-86.01l-7.74 -9.12c-59.53,-80.51 -71.43,-105.02 -161.56,-166.91 -20.99,-14.39 -160.04,-43.14 -199.04,-40.65 -44.09,2.84 -59.18,13.72 -99.15,21.46 -72.65,14.05 -159.69,87.3 -201.99,144.05 -19.88,26.69 -6.9,17.73 -18.07,42.15 -17.82,38.9 1.06,-2.15 -25.19,32.4l-82.33 145.11c-21.95,24.6 -25.56,43.88 -44.78,73.15l-127.72 218.38c-15.83,33.16 -28.14,39.03 -42.05,76.1 -30.38,81.08 -83.87,147.01 -122.04,224.01l-38.15 70.53c-17.95,20.8 -20.59,50.63 -41.27,77 -2.68,3.36 -11.73,12.25 -11.97,12.56 -15.93,19.69 -13.65,35.8 -28.02,57.6 -8.27,12.56 -15.98,16.36 -27.21,30.82 -36.29,46.74 -42.93,53.2 -62.05,113.76 -14.24,45.15 -66.55,98.12 -87.17,140.44l-74.42 162.16c-8.71,16.88 -10.83,24.32 -17.36,41.42 -9.64,25.26 -76.03,113.49 -101.25,184.11 -10.45,29.36 -32.1,45.59 -42.64,76 -7.34,21.12 -6.13,24.54 -16.86,43.36 -11.57,20.37 -9.05,8.65 -21.11,37.53 -7.43,17.89 -6.81,21.74 -15.08,36.07 -39.34,68.17 -60.58,122.85 -110.31,184.92 -21.77,27.22 -8.8,9.83 -19.04,41.71 -11.88,36.97 4.01,4.57 -20.08,37.78 -26.94,37.1 -14.4,42.14 -33.72,76.38 -17.2,30.57 -9.67,8.08 -25.38,32.78l-39.31 80.02c-23.72,45.83 -40.33,84.12 -21.73,136.18 39.62,110.78 28.76,246.28 53.3,410.41 9.98,66.9 36.82,103.19 38.65,187.93 2.03,93.55 2.84,128.01 22.05,213.16z"/>
   <g style="clip-path:url(#id1)">
    <g>
     <rect class="fil1" x="6926.8" y="-13101.23" width="5936.5" height="6851.87"/>
    </g>
   </g>
   <path class="fil2" d="M4578.35 3461.61c35.82,-15.43 34.74,-17.14 39.12,-60.8 5.5,-54.76 4.63,-32 32.22,-58.19l56.64 -88.51c15.17,-33 42.2,-57.75 55.63,-87.51l37.32 -63.91c22.45,-41.12 30.72,-14.37 57.56,-85.09 26.44,-69.59 65.78,-80.76 82.86,-111.11l32 -60.3c33.81,-53.89 48.39,-53.89 60.33,-93.83 11.01,-36.84 9.52,-30.63 32.19,-57.81l21.79 -29.39c12.75,-16.89 9.49,-11.29 24.14,-25.72 38.31,-37.78 48.98,-80.49 82.01,-111.89l86.3 -108.26c13.09,-17.85 33.34,-27.86 43.14,-48.08l38.62 -63.53c15.21,-33.62 20.4,-37.63 32.44,-60.64 17.35,-33.19 10.01,-39.78 36.69,-63.41 33.75,-29.92 20.71,-44.22 52.34,-92.71l58.31 -86.76c24.79,-57.6 12.62,-8.28 41.43,-58.85 46.43,-81.54 -24.35,16.42 47.98,-67.14l28.55 -49.86c5.62,-9.86 9.11,-14.37 15.89,-25.28 25.07,-40.34 104.21,-202.75 123.61,-221.09l111.59 -174.96c14.02,-23.89 18.23,-44.81 33,-69.16 19.81,-32.66 18.63,-72.28 43.67,-98.84l23.13 -29.04c43.94,-68.92 86.74,-9.21 70.47,64.68 -12.68,57.79 -34.02,11.73 -38.5,153.51 -2.77,86.99 -30.6,97.66 -40.4,153.54 -10.11,57.54 -3.42,125.95 -19.5,175.84 -36.72,113.64 -17.29,50.01 -28.98,166.32 -6.06,60.61 -24.48,101.44 -35.18,156.3 -9.42,48.48 -4.5,131.64 -25.41,169.12 -55.79,100.1 -27.31,111.77 -67.21,218.19 -10.3,27.5 -8.58,54.18 -16.05,85.65 -11.13,46.96 -35.88,64.59 -50.82,141.16 -10.82,55.63 -32.96,94.04 -44.06,150.2 -12.28,62.08 -31.6,80.24 -43.48,151.52 -11.82,70.88 -46.65,52.03 -43.67,152.67 43.3,-10.61 66.87,-88.17 93.36,-127.73l144.33 -219.55c13.53,-27.59 11.67,-37.41 28.3,-54.3 14.92,-15.14 6.65,-3.24 24.1,-27.15 31.41,-43.05 26.22,-24.51 46.34,-73.46l165.1 -221.33c21.27,-37.69 52.86,-59.96 74.45,-93.86 15.06,-23.67 9.49,-11.7 27.22,-31.1 34.8,-38.16 55.79,-87.82 96.16,-123.31 27.62,-24.26 27.37,-37.22 77.12,-33.81 8.81,22.3 17.61,34.74 32.13,52.99 36.01,45.25 10.64,22.05 31.69,68.7 16.14,35.76 26.13,19.75 40.93,59.79l30.82 72.53c11.48,24.72 9.7,44.9 19.87,72.96 13.59,37.63 26.47,31.81 38.38,61.11 15.08,37.13 6.99,40.71 30.1,72.49 21.02,28.92 15.24,45.71 33.74,67.82 27.16,32.41 21.71,-3.45 33.97,55.73 6.4,31.04 48.79,110.65 67.7,136.65 26.15,36.01 12.31,35.34 29.66,72.34 21.49,45.78 76.84,74.05 27.03,138.4 -38.81,50.13 -13.56,-3.21 -32.47,69.84l-67.43 125.27c-17.1,32.22 -12.65,51.26 -24.66,77.96 -15.02,33.37 -18.19,3.4 -40.33,60.67 -10.89,28.21 -17.92,38.85 -33.62,66.81 -25.6,45.62 -50.26,81.64 -62.64,132.76 -9.86,40.74 -47.08,114.73 -70.28,147.53l-49.33 76.47c-7.49,8.74 -5.75,5.28 -11.82,14.15l-47.58 78.83c-32.66,74.86 -14.93,60.08 -61.17,132.79 -18.01,28.3 -26.5,29.64 -41.3,60.98 -5.22,11.05 -11.39,27.69 -15.55,34.62l-17.79 24.23c-19.04,28.64 -28.83,48.61 -31.19,88.57 50.54,-8.71 56.01,-31.56 88.16,-75.78 9.65,-13.22 10.83,-10.86 24.45,-24.73 17.54,-17.88 27.62,-36.29 46.3,-55.35 45.56,-46.53 56.86,-79.77 91.8,-110.19 33.16,-28.82 63.95,-75.45 90.79,-111.71 14.8,-20.02 30.91,-35.58 45.49,-55.88 37.91,-52.74 175.62,-187.71 193.85,-237.97 1.06,-2.96 3.86,-16.02 5.16,-20.87 12.25,-45.4 58.84,-72.02 91.74,-107.78 75.97,-82.57 26.49,-6.16 61.35,-84.15 30.17,-11.45 52.65,-12 64.97,19.63 5.78,14.92 5.38,26.22 9.11,41.86 8.06,33.77 2.74,15.58 18.79,41.08 21.98,34.84 15.58,87.11 29.92,129.13 21.89,64.19 39.4,27.31 41.11,124.48 1.15,66.56 2.62,49.02 29.32,84.47 18.73,24.85 13.4,51.31 21.99,85.58 7.18,28.82 29.6,45.37 37.38,71.18 9.42,31.13 0.12,66.19 19.75,93.64 57.04,79.83 44.87,276.35 4.78,364.95 -5.03,11.08 -1.65,0.65 -7.58,17.95 -17.7,51.41 -11.36,93.01 -40.28,154.19 -20.27,42.86 -17.6,52.84 -16.64,112.36 41.83,-7.09 70.13,-31.37 93.21,-65.12 45.09,-65.93 38.4,-43.11 78.36,-71.03 30.29,-21.21 15.9,-33.22 53.37,-54.14l27.77 -15.92c38.6,-23.23 53.31,-46.5 86.89,-65.35l164.83 -130.62c73.24,-76.9 149.83,-150.14 235.1,-211.19 18.17,-12.99 21.83,-16.54 44.6,-31.41 63.25,-41.27 141.78,-128.66 200.87,-178.73 24.44,-20.74 63.25,-47.95 82.13,-70.78 103.38,-125.05 248.3,-86.8 104.25,-302.04 -17.79,-26.62 -22.61,-21.82 -35.24,-40.18 -14.12,-20.52 -10.39,-36.07 -20.36,-55.57l-42.43 -58.69c-0.99,-1.62 -2.27,-3.73 -3.27,-5.31l-73.36 -120.45c-9.65,-14.62 -61.48,-130.75 -105.4,-198.23l-51.87 -99.95c-15.39,-28.67 -13.52,-18.29 -25.97,-51.28 -25.94,-68.82 -79.52,-111.49 -110.18,-182.71 -12.03,-27.92 -17.23,-28.08 -29.33,-47.33 -15.95,-25.38 -8.3,-21.68 -29.79,-46.68 -39.68,-46.15 -16.29,-57.6 -54.36,-97.38 -38.31,-40.05 -51,-101.53 -78.83,-148.62l-90.19 -135.4c-17.27,-31.63 -15.09,-12.91 -36.7,-40.59 -0.68,-0.84 -10.48,-18.44 -11.1,-19.84l-43.14 -76.85c-7.31,-12.03 -2.87,-9.64 -15.4,-21.2 -11.96,-11.05 0.66,-5.04 -21.92,-10.99 -2.02,-52.74 -15.08,-74.23 -41.3,-117.21 -13.74,-22.51 -12.06,-32.03 -24.79,-51.47 -24.44,-37.38 -17.1,-2.58 -32.43,-41.43 -15.02,-37.97 -22.49,-71.21 -51.01,-103.87 -57.38,-65.71 -25.85,-58.66 -57.29,-102.25 -20.33,-28.17 -33.31,-75.2 -53.58,-98.43 -17.88,-20.53 -18.79,-24.32 -28.39,-45.81 -15.89,-35.49 -13.15,-25.54 -32.97,-52.4 -23.57,-31.97 -45.4,-52.37 -59.15,-90.56 -18.26,-50.61 -41.74,-40.15 -47.61,-115.87 -48.74,-27.75 -43.82,-47.12 -71.84,-95.98 -12.94,-22.54 -7.9,-24.01 -17.45,-41.64 -24.26,-44.84 -20.9,2.12 -45.62,-62.29 -10.17,-26.5 -4.54,-20.27 -19.5,-40.99 -32.75,-45.34 -18.98,-45.37 -37.57,-72.31l-41.92 -74.55c-9.52,-22.76 -3.98,-9.02 -9.46,-17.2l-93.58 -176.11c-53.67,-73.03 -86.23,-142.87 -125.88,-219.37 -22.08,-42.68 -32.44,-20.59 -41.55,-74.58 -12.28,-72.81 -20.53,-46.53 -40,-71.38 -19.88,-25.31 2.06,-42.64 -32.72,-86.01l-7.74 -9.12c-59.53,-80.51 -71.43,-105.02 -161.56,-166.91 -20.99,-14.39 -160.04,-43.14 -199.04,-40.65 -44.09,2.84 -59.18,13.72 -99.15,21.46 -72.65,14.05 -159.69,87.3 -201.99,144.05 -19.88,26.69 -6.9,17.73 -18.07,42.15 -17.82,38.9 1.06,-2.15 -25.19,32.4l-82.33 145.11c-21.95,24.6 -25.56,43.88 -44.78,73.15l-127.72 218.38c-15.83,33.16 -28.14,39.03 -42.05,76.1 -30.38,81.08 -83.87,147.01 -122.04,224.01l-38.15 70.53c-17.95,20.8 -20.59,50.63 -41.27,77 -2.68,3.36 -11.73,12.25 -11.97,12.56 -15.93,19.69 -13.65,35.8 -28.02,57.6 -8.27,12.56 -15.98,16.36 -27.21,30.82 -36.29,46.74 -42.93,53.2 -62.05,113.76 -14.24,45.15 -66.55,98.12 -87.17,140.44l-74.42 162.16c-8.71,16.88 -10.83,24.32 -17.36,41.42 -9.64,25.26 -76.03,113.49 -101.25,184.11 -10.45,29.36 -32.1,45.59 -42.64,76 -7.34,21.12 -6.13,24.54 -16.86,43.36 -11.57,20.37 -9.05,8.65 -21.11,37.53 -7.43,17.89 -6.81,21.74 -15.08,36.07 -39.34,68.17 -60.58,122.85 -110.31,184.92 -21.77,27.22 -8.8,9.83 -19.04,41.71 -11.88,36.97 4.01,4.57 -20.08,37.78 -26.94,37.1 -14.4,42.14 -33.72,76.38 -17.2,30.57 -9.67,8.08 -25.38,32.78l-39.31 80.02c-23.72,45.83 -40.33,84.12 -21.73,136.18 39.62,110.78 28.76,246.28 53.3,410.41 9.98,66.9 36.82,103.19 38.65,187.93 2.03,93.55 2.84,128.01 22.05,213.16z"/>
   <path class="fil4" d="M8714.39 2960.32l987.72 -0.88c-31.01,49.42 -1120.35,1061.21 -1160.16,1096.75l-384.67 364.39c35.55,18.75 261.3,57.28 320.17,68.16 65,12 277.75,43.58 320.67,66.71 -11.29,26.22 -18.14,24.45 -39.43,46.22 -15.87,16.23 -24.79,27.52 -39.84,44.46l-163.11 174.16c-197.79,219.46 -460.18,475.44 -656.36,692.42l-409.82 442.35c21.43,-11.6 51.51,-40.52 66.34,-52.36 22.33,-17.86 42.02,-36.63 63.75,-54.46l1787.46 -1542.3c39.18,-34.06 95.04,-90.16 133.54,-111.4 -1.96,-1.49 -5.22,-5.62 -6.44,-3.67 -1.18,1.96 -4.81,-2.74 -6.47,-3.36l-56.97 -8.65c-30.01,-1.43 -60.39,-3.43 -90.38,-5.5l-511.74 -31.22c12.44,-30.01 355.03,-342.75 398.13,-381.19l301.14 -280.55c69.13,-74.61 309.59,-281.95 404.41,-379.56l202.46 -185.51c35.8,-31.85 63.6,-63.44 99.46,-94.29 35.68,-30.69 63.41,-62.85 99.67,-94.14 20.46,-17.63 88.85,-73.36 98.74,-98.52l-898.67 -70.63c15.64,-27.21 776.23,-747.03 817.19,-783.18 22.7,-20.02 39.56,-34.95 62.2,-55.76 21.48,-19.69 36.6,-40.77 57.78,-60.32l473.42 -445.47c40.49,-45.15 74.64,-72.56 116.9,-110.77 40.02,-36.23 75.63,-75.18 115.78,-111.78l232.31 -225.66c-96,-7.43 -203.38,-4.03 -300.79,-5.62 -190.67,-3.05 -183.05,-25.16 -256.76,57.88 -94.79,106.76 -210.29,204.81 -311.05,304.34l-625.31 613.93c-304.9,308.13 -620.77,609.82 -931.58,914.66 -52.62,51.63 -102.6,106.05 -155.13,156.77 -37.87,36.6 -131.18,117.33 -154.57,153.54z"/>
   <path class="fil4" d="M3852.9 2333.26l-566.04 69.79c-1.03,31.5 474.97,711.12 503.06,752.19 39.22,57.32 493.98,713.57 513.2,759.61l-423.86 44.15c8.9,35.09 423.64,584.11 482.35,664.84 217.38,298.92 511.37,708.66 734.35,993.68 25.75,32.93 61.01,75.48 81.26,107.41 -39.34,-86.64 -630.97,-1056.13 -726.26,-1215.82 -30.29,-50.79 -86.24,-131.03 -104.53,-181.68l410.07 -126.98c-15.98,-40.99 -455.79,-678.68 -490.62,-728.74 -56.44,-81.18 -483.43,-699.27 -491.24,-734.57l624.66 0.28c-21.83,-58.16 -1180.6,-1822.54 -1335.68,-2067.79 -27.37,-43.26 -59.31,-97.78 -92.18,-137.49l-309.31 5.84c2.62,32.41 47.65,82.54 67.18,112.02 26.59,40.18 49.2,73.71 74.55,110.9l449.94 671.16c44.62,67.63 582.02,853.52 599.1,901.19z"/>
   <g>
    <path class="fil3" d="M9718.87 4111.58c-21.92,11.54 -27.84,13.86 -54.7,54.57 -20.37,30.82 -16.14,50.76 -15.11,94.23l-101.35 683.6c-15.24,47.48 -20.46,19.22 -25.29,83.22 -5,66.53 -7.56,146.26 -18.04,210.21 -13.65,83.5 -7.31,118.2 51.22,160.94l221.9 165.69c71.09,47.68 67.63,58.38 164.91,121.79l448.96 335.19c27.71,25.38 38.71,24.91 68.22,49.7 29.27,24.6 39.25,20.58 68.89,41.77 22.29,15.95 40.18,37.69 61.57,55.97 25.35,21.62 36.66,19.26 64.87,44.13l185.48 151.89c49.52,35.82 70.57,39.37 132.73,94.98 68.42,61.2 129.16,79.89 251.68,203.51 36.23,36.53 106.37,75.78 181.96,146.82 28.55,26.84 46.09,30.16 68.26,49.85l174.03 162.78c23.73,17.92 45.78,33.81 65.66,52.62 76.71,72.71 116.4,94.38 182.42,146.64 39.5,31.25 28.33,24.63 83.81,36.13l173.25 52.49c44.53,14.99 35.43,25.66 71.16,36.88 33.71,10.61 65.99,6.53 96.97,22.23 45.8,23.23 8.61,17.64 80.36,28.46 39.03,5.87 55.17,11.93 86.08,25.72 62.16,27.65 123.96,18.22 183.89,43.35 34.8,14.59 49.57,17.05 87.33,22.61 59.12,8.71 39.8,15.92 82.54,32.06 63.5,24.01 225.6,39.22 65.93,-114.6 -11.57,-11.17 -62.13,-84.68 -100.6,-118.55 -21.71,-19.13 -37.94,-38.09 -56.29,-61.7 -21.08,-27.12 -29.67,-33.31 -51.93,-57.6l-177.93 -210.29c-38.12,-58.88 -9.73,-27.03 -75.72,-92.55l-254.86 -310.31c-29.19,-41.05 -68.66,-68.41 -111.42,-115.75 -18.73,-20.7 -30.82,-38 -50.29,-59.4l-313.33 -369.15c-29.36,-29.95 -21.9,-35.34 -44.04,-66.12 -14.49,-20.12 -36.53,-38.78 -52.61,-56.64 -17.95,-19.99 -29.92,-38.59 -49.86,-59.76 -73.61,-78.22 -203.75,-252.18 -262.07,-311.25 -94.66,-95.84 -105.46,-72.24 -200.28,7.65 -31.97,26.94 -124.8,154.88 -156.58,189.12 -65.65,70.75 -87.27,43.26 -141.56,-10.24l-250.97 -304.65c-30.32,-56.66 -53.36,-65 -91.5,-136.87l-127.91 -210.55c-38.06,-103.87 -65.9,-51.22 -124.3,-214.95 -14.21,-39.81 -24.54,-35.34 -46.62,-69.01 -8.83,-13.43 -39.18,-59.28 -43.01,-67.15 -21.21,-43.29 7.71,-24.88 -76.19,-150.98 -29.39,-44.13 -17.29,-47.09 -38.62,-70.07 -30.14,-32.5 -14.15,9.64 -48.68,-61.14 -11.26,-23.07 -31.69,-47.86 -48.08,-69.63 -25.65,-34.05 -24.32,-26.4 -39.06,-70.62 -5.15,-15.46 -90.93,-160.91 -114.82,-172.01 -30.01,-13.96 -34.55,1.62 -40.46,4.73z"/>
    <g style="clip-path:url(#id2)">
     <g>
      <rect class="fil5" x="17333.06" y="7332.75" width="8908.69" height="5256.65"/>
     </g>
    </g>
    <path class="fil2" d="M9718.87 4111.58c-21.92,11.54 -27.84,13.86 -54.7,54.57 -20.37,30.82 -16.14,50.76 -15.11,94.23l-101.35 683.6c-15.24,47.48 -20.46,19.22 -25.29,83.22 -5,66.53 -7.56,146.26 -18.04,210.21 -13.65,83.5 -7.31,118.2 51.22,160.94l221.9 165.69c71.09,47.68 67.63,58.38 164.91,121.79l448.96 335.19c27.71,25.38 38.71,24.91 68.22,49.7 29.27,24.6 39.25,20.58 68.89,41.77 22.29,15.95 40.18,37.69 61.57,55.97 25.35,21.62 36.66,19.26 64.87,44.13l185.48 151.89c49.52,35.82 70.57,39.37 132.73,94.98 68.42,61.2 129.16,79.89 251.68,203.51 36.23,36.53 106.37,75.78 181.96,146.82 28.55,26.84 46.09,30.16 68.26,49.85l174.03 162.78c23.73,17.92 45.78,33.81 65.66,52.62 76.71,72.71 116.4,94.38 182.42,146.64 39.5,31.25 28.33,24.63 83.81,36.13l173.25 52.49c44.53,14.99 35.43,25.66 71.16,36.88 33.71,10.61 65.99,6.53 96.97,22.23 45.8,23.23 8.61,17.64 80.36,28.46 39.03,5.87 55.17,11.93 86.08,25.72 62.16,27.65 123.96,18.22 183.89,43.35 34.8,14.59 49.57,17.05 87.33,22.61 59.12,8.71 39.8,15.92 82.54,32.06 63.5,24.01 225.6,39.22 65.93,-114.6 -11.57,-11.17 -62.13,-84.68 -100.6,-118.55 -21.71,-19.13 -37.94,-38.09 -56.29,-61.7 -21.08,-27.12 -29.67,-33.31 -51.93,-57.6l-177.93 -210.29c-38.12,-58.88 -9.73,-27.03 -75.72,-92.55l-254.86 -310.31c-29.19,-41.05 -68.66,-68.41 -111.42,-115.75 -18.73,-20.7 -30.82,-38 -50.29,-59.4l-313.33 -369.15c-29.36,-29.95 -21.9,-35.34 -44.04,-66.12 -14.49,-20.12 -36.53,-38.78 -52.61,-56.64 -17.95,-19.99 -29.92,-38.59 -49.86,-59.76 -73.61,-78.22 -203.75,-252.18 -262.07,-311.25 -94.66,-95.84 -105.46,-72.24 -200.28,7.65 -31.97,26.94 -124.8,154.88 -156.58,189.12 -65.65,70.75 -87.27,43.26 -141.56,-10.24l-250.97 -304.65c-30.32,-56.66 -53.36,-65 -91.5,-136.87l-127.91 -210.55c-38.06,-103.87 -65.9,-51.22 -124.3,-214.95 -14.21,-39.81 -24.54,-35.34 -46.62,-69.01 -8.83,-13.43 -39.18,-59.28 -43.01,-67.15 -21.21,-43.29 7.71,-24.88 -76.19,-150.98 -29.39,-44.13 -17.29,-47.09 -38.62,-70.07 -30.14,-32.5 -14.15,9.64 -48.68,-61.14 -11.26,-23.07 -31.69,-47.86 -48.08,-69.63 -25.65,-34.05 -24.32,-26.4 -39.06,-70.62 -5.15,-15.46 -90.93,-160.91 -114.82,-172.01 -30.01,-13.96 -34.55,1.62 -40.46,4.73z"/>
    <path class="fil3" d="M4977.84 6374.92c-48.82,-2.12 -73.58,-52.55 -102.06,-81.98 -32.44,-33.49 -66.78,-49.79 -101.66,-83.62 -41.65,-40.4 -174.22,-131.21 -255.2,-131.18 0.03,83.54 25.5,80.86 73.33,177.61l94.1 159.48c76.04,97.28 47.9,173.09 228.36,269.19 48.15,25.66 70.72,23.26 111.93,56.45 39.84,32.09 215.55,117.36 270.72,142.62 19.81,9.08 40.99,13.09 60.95,23.63 24.17,12.78 23.95,17.92 51.6,31.35l278.34 143.4c24.26,15.42 36.75,12.03 61.42,23.85 29.41,14.12 12.34,16.73 53.33,30.88l115.81 52.24c38.4,17.73 114.45,60.89 165.97,77.5 34.71,11.23 33.22,14.83 58.41,27.03l167.94 83.51c22.85,10.42 39.4,11.01 63.13,21.55 68.94,30.53 47.83,25.75 137.86,32.22 105.9,7.58 216.27,6.93 328.82,8.05 122.25,1.25 206.34,9.27 320.54,16.05 418.19,24.75 891.81,23.91 1313.85,8.21l-0.77 -41.21c-18.57,-9.11 -27.28,-8.99 -48.24,-15.55l-30.41 -13.06c-1.62,-0.9 -3.55,-2.36 -5.13,-3.33 -42.95,-25.78 -32.56,-13.43 -75.27,-25.41 -45.55,-12.78 -12.65,-10.48 -47.95,-28.11 -29.39,-14.68 -77.09,-13.43 -119.77,-33.28 -49.01,-22.82 -72.68,-7.05 -113.7,-37.44 -41.17,-30.47 -67.85,-16.79 -111.24,-40.46 -26.87,-14.64 -22.17,-18.63 -47.61,-26.06l-229.67 -76.72c-59.34,-11.85 -18.91,-13.71 -113.05,-38.9 -60.54,-16.21 15.43,-14.49 -108.87,-43.08 -28.48,-6.56 -28.45,-9.67 -54.89,-20.8 -95.82,-40.37 -53.27,5.22 -108.16,-42.64 -22.36,-19.51 -189.95,-59.77 -224.38,-79.21 -70.91,-40.03 -68.6,-8.15 -105.31,-47.4 -44.75,-47.83 -4.47,7.43 -102.19,-46.58l-124.76 -58.16c-23.02,-5.78 -12.84,-0.22 -34.78,-10.02 -25.38,-11.35 -20.46,-14.52 -50.63,-23.45 -17.48,-5.19 -8.37,-0.87 -27,-7.99 -40.83,-15.55 -16.67,-16.79 -86.48,-31.63 -75.05,-15.95 -109.5,-60.51 -220.09,-84.55 -32.9,-7.12 -27.28,-10.3 -53.39,-23.11 -25.76,-12.62 -28.77,-8.52 -61.58,-15.23l-106.55 -44.69c-23.91,-10.7 -22.33,-17.11 -50.66,-25.29l-161.19 -66.27c-29.39,-15.21 -22.36,-12.03 -55.8,-20.83l-261.73 -116.78c-21.58,-11.23 -83.83,-29.29 -112.89,-40.3 -32.56,-12.38 -26.06,-14.84 -46.24,-28.49 -24.97,-16.85 -27.71,-11.35 -59.16,-18.16 -40.58,-8.84 -19.44,-8.9 -50.07,-25.07 -21.52,-11.32 -32.87,-9.52 -55.42,-20.83 -26.87,-13.53 -16.92,-15.71 -48.92,-27.69 -87.85,-32.93 -58.34,-39.62 -107.33,-45.46 -32.65,-3.92 -46.3,-0.44 -71.21,-8.71 -3.65,129.53 8.58,84.46 15.83,164.58 5.03,55.91 9.8,121.01 -20.84,149.33z"/>
    <g style="clip-path:url(#id3)">
     <g>
      <rect class="fil5" x="17333.06" y="7332.75" width="8908.69" height="5256.65"/>
     </g>
    </g>
    <path class="fil2" d="M4977.84 6374.92c-48.82,-2.12 -73.58,-52.55 -102.06,-81.98 -32.44,-33.49 -66.78,-49.79 -101.66,-83.62 -41.65,-40.4 -174.22,-131.21 -255.2,-131.18 0.03,83.54 25.5,80.86 73.33,177.61l94.1 159.48c76.04,97.28 47.9,173.09 228.36,269.19 48.15,25.66 70.72,23.26 111.93,56.45 39.84,32.09 215.55,117.36 270.72,142.62 19.81,9.08 40.99,13.09 60.95,23.63 24.17,12.78 23.95,17.92 51.6,31.35l278.34 143.4c24.26,15.42 36.75,12.03 61.42,23.85 29.41,14.12 12.34,16.73 53.33,30.88l115.81 52.24c38.4,17.73 114.45,60.89 165.97,77.5 34.71,11.23 33.22,14.83 58.41,27.03l167.94 83.51c22.85,10.42 39.4,11.01 63.13,21.55 68.94,30.53 47.83,25.75 137.86,32.22 105.9,7.58 216.27,6.93 328.82,8.05 122.25,1.25 206.34,9.27 320.54,16.05 418.19,24.75 891.81,23.91 1313.85,8.21l-0.77 -41.21c-18.57,-9.11 -27.28,-8.99 -48.24,-15.55l-30.41 -13.06c-1.62,-0.9 -3.55,-2.36 -5.13,-3.33 -42.95,-25.78 -32.56,-13.43 -75.27,-25.41 -45.55,-12.78 -12.65,-10.48 -47.95,-28.11 -29.39,-14.68 -77.09,-13.43 -119.77,-33.28 -49.01,-22.82 -72.68,-7.05 -113.7,-37.44 -41.17,-30.47 -67.85,-16.79 -111.24,-40.46 -26.87,-14.64 -22.17,-18.63 -47.61,-26.06l-229.67 -76.72c-59.34,-11.85 -18.91,-13.71 -113.05,-38.9 -60.54,-16.21 15.43,-14.49 -108.87,-43.08 -28.48,-6.56 -28.45,-9.67 -54.89,-20.8 -95.82,-40.37 -53.27,5.22 -108.16,-42.64 -22.36,-19.51 -189.95,-59.77 -224.38,-79.21 -70.91,-40.03 -68.6,-8.15 -105.31,-47.4 -44.75,-47.83 -4.47,7.43 -102.19,-46.58l-124.76 -58.16c-23.02,-5.78 -12.84,-0.22 -34.78,-10.02 -25.38,-11.35 -20.46,-14.52 -50.63,-23.45 -17.48,-5.19 -8.37,-0.87 -27,-7.99 -40.83,-15.55 -16.67,-16.79 -86.48,-31.63 -75.05,-15.95 -109.5,-60.51 -220.09,-84.55 -32.9,-7.12 -27.28,-10.3 -53.39,-23.11 -25.76,-12.62 -28.77,-8.52 -61.58,-15.23l-106.55 -44.69c-23.91,-10.7 -22.33,-17.11 -50.66,-25.29l-161.19 -66.27c-29.39,-15.21 -22.36,-12.03 -55.8,-20.83l-261.73 -116.78c-21.58,-11.23 -83.83,-29.29 -112.89,-40.3 -32.56,-12.38 -26.06,-14.84 -46.24,-28.49 -24.97,-16.85 -27.71,-11.35 -59.16,-18.16 -40.58,-8.84 -19.44,-8.9 -50.07,-25.07 -21.52,-11.32 -32.87,-9.52 -55.42,-20.83 -26.87,-13.53 -16.92,-15.71 -48.92,-27.69 -87.85,-32.93 -58.34,-39.62 -107.33,-45.46 -32.65,-3.92 -46.3,-0.44 -71.21,-8.71 -3.65,129.53 8.58,84.46 15.83,164.58 5.03,55.91 9.8,121.01 -20.84,149.33z"/>
    <path class="fil3" d="M7965.09 6806.36c41.05,41.8 138.17,85.49 199.41,117.62l88.94 46.12c28.2,10.92 24.32,3.98 49.51,18.19 111.21,62.73 36.76,0.38 125.18,68.39 21.2,16.36 17.38,9.95 46.99,19.06 52.08,16.08 121.75,65.53 184.57,86.46 34.43,11.48 57.07,25.78 87.17,39.53l273.31 123.09c63.84,40.87 42.05,18.38 88.04,37.63 84.3,35.3 109.65,39.96 215.36,52.86 42.36,5.16 87.42,2.9 130.75,2.93 355.83,0.25 675.04,22.61 1028.48,27.44 353.67,4.84 710.13,-0.38 1053.99,-6.66 -2.68,-56.91 -24.47,-41.83 -74.45,-61.14 -41.3,-15.95 -49.48,-32.03 -99.48,-43.97l-48.27 -18.91c-17.17,-11.26 -25.75,-17.6 -51.13,-24.91 -41.93,-12 -80.33,-9.27 -115.2,-28.64 -25.94,-14.4 -10.39,-13.8 -43.45,-23.17 -17.76,-5 -38.68,-6.4 -56.97,-10.23 -66.62,-13.99 -28.14,-22.45 -105.93,-37.97 -68.6,-13.68 -49.73,-30.23 -100.76,-42.86 -21.83,-5.41 -42.39,-2.9 -61.14,-7.65 -24.22,-6.15 -24.32,-18.01 -43.32,-30.38 -28.74,-18.76 -63.29,-15.21 -99.89,-35.55 -79.18,-44.07 -49.08,-17.58 -104.62,-38.22 -26.62,-9.89 -17.32,-11.97 -46.24,-21.74 -25.35,-8.58 -37.01,-6.22 -60.36,-15.98 -54.92,-23.05 -20.27,-29.98 -101.57,-41.06 -81.51,-11.13 -24.1,-25.06 -152.82,-50.04 -42.64,-8.27 -21.27,-7.18 -49.76,-25.41 -32.47,-20.8 -73.03,-14.83 -110.62,-33.46 -22.3,-11.05 -19.79,-15.08 -45.16,-22.89 -24.38,-7.49 -38.74,-5.53 -62.32,-13.65 -40.61,-13.99 -40.89,-29.48 -88.97,-43.67 -46.68,-13.8 -67.76,-38.56 -94.79,-47.08 -68.17,-21.49 2.83,11.82 -107.39,-36.82 -153.14,-67.61 -224.42,-1.03 -359.89,5.28 -53.39,2.5 -84.77,-6.74 -139.82,4.35 -46.52,9.4 -79.36,14.62 -130.55,13 -89.39,-2.83 -164.92,-10.02 -258.87,2.65 -35.11,4.69 -74.95,20.55 -117.4,27.31 -46.46,7.37 -90.94,1.34 -135.93,7.02 -123.1,15.58 -45.53,31.07 -254.64,27.78 -55.61,-0.87 -218.6,15.52 -249.98,35.36z"/>
    <g style="clip-path:url(#id4)">
     <g>
      <rect class="fil5" x="17333.06" y="7332.75" width="8908.69" height="5256.65"/>
     </g>
    </g>
    <path class="fil2" d="M7965.09 6806.36c41.05,41.8 138.17,85.49 199.41,117.62l88.94 46.12c28.2,10.92 24.32,3.98 49.51,18.19 111.21,62.73 36.76,0.38 125.18,68.39 21.2,16.36 17.38,9.95 46.99,19.06 52.08,16.08 121.75,65.53 184.57,86.46 34.43,11.48 57.07,25.78 87.17,39.53l273.31 123.09c63.84,40.87 42.05,18.38 88.04,37.63 84.3,35.3 109.65,39.96 215.36,52.86 42.36,5.16 87.42,2.9 130.75,2.93 355.83,0.25 675.04,22.61 1028.48,27.44 353.67,4.84 710.13,-0.38 1053.99,-6.66 -2.68,-56.91 -24.47,-41.83 -74.45,-61.14 -41.3,-15.95 -49.48,-32.03 -99.48,-43.97l-48.27 -18.91c-17.17,-11.26 -25.75,-17.6 -51.13,-24.91 -41.93,-12 -80.33,-9.27 -115.2,-28.64 -25.94,-14.4 -10.39,-13.8 -43.45,-23.17 -17.76,-5 -38.68,-6.4 -56.97,-10.23 -66.62,-13.99 -28.14,-22.45 -105.93,-37.97 -68.6,-13.68 -49.73,-30.23 -100.76,-42.86 -21.83,-5.41 -42.39,-2.9 -61.14,-7.65 -24.22,-6.15 -24.32,-18.01 -43.32,-30.38 -28.74,-18.76 -63.29,-15.21 -99.89,-35.55 -79.18,-44.07 -49.08,-17.58 -104.62,-38.22 -26.62,-9.89 -17.32,-11.97 -46.24,-21.74 -25.35,-8.58 -37.01,-6.22 -60.36,-15.98 -54.92,-23.05 -20.27,-29.98 -101.57,-41.06 -81.51,-11.13 -24.1,-25.06 -152.82,-50.04 -42.64,-8.27 -21.27,-7.18 -49.76,-25.41 -32.47,-20.8 -73.03,-14.83 -110.62,-33.46 -22.3,-11.05 -19.79,-15.08 -45.16,-22.89 -24.38,-7.49 -38.74,-5.53 -62.32,-13.65 -40.61,-13.99 -40.89,-29.48 -88.97,-43.67 -46.68,-13.8 -67.76,-38.56 -94.79,-47.08 -68.17,-21.49 2.83,11.82 -107.39,-36.82 -153.14,-67.61 -224.42,-1.03 -359.89,5.28 -53.39,2.5 -84.77,-6.74 -139.82,4.35 -46.52,9.4 -79.36,14.62 -130.55,13 -89.39,-2.83 -164.92,-10.02 -258.87,2.65 -35.11,4.69 -74.95,20.55 -117.4,27.31 -46.46,7.37 -90.94,1.34 -135.93,7.02 -123.1,15.58 -45.53,31.07 -254.64,27.78 -55.61,-0.87 -218.6,15.52 -249.98,35.36z"/>
   </g>
  </g>
 </g>
</svg>
