<?xml version="1.0" encoding="UTF-8"?>
<!DOCTYPE svg PUBLIC "-//W3C//DTD SVG 1.1//EN" "http://www.w3.org/Graphics/SVG/1.1/DTD/svg11.dtd">
<!-- Creator: CorelDRAW 2021 (64-Bit) -->
<svg xmlns="http://www.w3.org/2000/svg" xml:space="preserve" width="255.621mm" height="120.235mm" version="1.1" style="shape-rendering:geometricPrecision; text-rendering:geometricPrecision; image-rendering:optimizeQuality; fill-rule:evenodd; clip-rule:evenodd"
viewBox="0 0 6168.21 2901.31"
 xmlns:xlink="http://www.w3.org/1999/xlink"
 xmlns:xodm="http://www.corel.com/coreldraw/odm/2003">
 <defs>
  <style type="text/css">
   <![CDATA[
    .fil2 {fill:none}
    .fil0 {fill:#07131F}
    .fil3 {fill:#07131F}
    .fil4 {fill:#B4C9CC}
    .fil6 {fill:url(#id17)}
    .fil1 {fill:url(#id18)}
    .fil5 {fill:url(#id19)}
   ]]>
  </style>
   <clipPath id="id0">
    <path d="M1651.76 1828.76c17.92,5.56 321.9,2.07 367.58,2.12l745.47 0.14c61.77,0.18 123.56,0.11 185.34,0.22 30.35,0.05 64.02,-0.7 92.09,1.59 15.06,1.23 30.54,-0.7 45.83,1.1 12.47,1.46 31.44,3.19 40.21,-2.08 -5.24,-15.03 -66.26,-22.42 -84.37,-24.34 -13.1,-1.4 -17.83,-7.63 -27.46,-10.81l-62.94 -12.86c-13.24,-2.55 -14.07,-6.34 -27.37,-9.2 -7.73,-1.66 -23.73,-5.09 -31.18,-7.78 -11.52,-4.17 -15.3,-4.65 -29.32,-7.09 -17.13,-2.99 -21.47,-7.94 -34.5,-12.11 -1.07,-0.35 -5.2,-1.89 -7.36,-2.71 -4.61,-1.74 -7.24,-3.3 -13.55,-4.74 -17.72,-4.05 -15.99,1.49 -32.08,-6.89 -11.2,-5.83 -17.35,-4.56 -28.38,-8.17 -19.63,-6.43 -3.74,-4.5 -30.79,-8.15 -17.04,-2.29 -45.91,-11.44 -58.27,-17.42 -13.2,-6.38 -18.76,-1.93 -30.68,-6.02 -10.31,-3.53 -15.28,-7.06 -28,-10.52 -12.73,-3.47 -11.53,-8.22 -26.1,-10.3 -13.22,-1.89 -18.78,-3.69 -30.2,-8.68 -17.51,-7.66 -47.29,-4.71 -70.15,-4.7l-224.04 -2.03c-17.68,-0.07 -62.28,5.52 -69.75,-6.59 -2.72,-4.41 -3.47,-9.67 -1.13,-15.51l18.37 -28.98c7.1,-9.47 13.56,-16.66 19.06,-27.63l43.75 -68.86c1.92,-3.87 4.43,-7.5 6.85,-11.29l15.42 -21.42c2.19,-3.37 1.13,-1.49 4.44,-5.28l27.19 -38.03c4.06,-5.77 2.5,-7.39 7.72,-12.67 12.6,-12.76 13.44,-22.11 22.61,-32.39l17.18 -21.31c0.32,-0.5 1.22,-2.06 1.56,-2.56l48.97 -79.56c5.45,-6.31 12.35,-14.01 16.49,-20.17 5.38,-7.99 8.85,-15.15 15.42,-23.2l29.42 -46.22c12.05,-19.37 -4.43,-26.26 -1.25,-64.47 0.95,-11.51 -1.58,-57.43 -4.78,-67 -12.79,-38.3 -5.41,-39.96 -11.05,-64.59 -2.23,-9.72 -5.51,-16.7 -6.35,-29.35 -0.98,-14.69 1.31,-22.99 -1.81,-37.35 -2.44,-11.23 -2.18,-22.43 -4.76,-32.24 -2.56,-9.78 -6.94,-17.88 -9.08,-29.33 -5.24,-27.88 3.72,-39.01 -7.74,-67.82 -11.08,-27.85 -8.36,-37.86 -15.19,-60.22 -9.33,3.39 -8.08,9.33 -12.35,17.97l-10.12 18.3c-3.31,6.05 -6.54,12.47 -10.13,18.43l-21.8 35.35c-0.21,0.38 -0.52,0.9 -0.74,1.26l-27.61 41.36c-0.36,0.47 -1.41,1.82 -1.76,2.3 -0.26,0.35 -0.59,0.86 -0.85,1.22 -0.26,0.36 -0.58,0.87 -0.84,1.23 -8.12,11.16 -8.37,9.26 -13.75,23.46 -2.43,6.42 -6.57,10.17 -12.63,15.22 -10.52,8.76 -14.29,25.58 -21.81,35.4 -2.34,3.06 -4.13,4.09 -6.3,7.81 -8.48,14.47 -15.98,31.18 -28.99,42.34l-16.36 20.32c-8.01,9.25 -12.81,20.81 -20.88,30 -8.67,9.87 -14.19,23.15 -20.88,36.25 -4.72,9.27 -7.6,7.83 -12.1,16.67 -6.69,13.13 -22.83,27.06 -32.03,38.94 -4.11,5.32 -2.55,5.38 -5.55,10.89 -3.73,6.84 -7.99,8.53 -12.29,16.06 -6.55,11.47 -13.48,18.09 -19.66,29.43 -0.22,0.41 -0.49,0.94 -0.71,1.34l-79.55 101.59c-8.88,10.83 -6.05,1.37 -11.93,16.92 -5.35,14.13 -16.04,20.74 -24.35,32.26 -5.03,6.97 -5.3,11.91 -10.75,17.76 -3.76,4.04 -3.33,2.26 -6.72,7.88 -2.76,4.61 -1.74,4.51 -5.15,8.96l-13.83 14.31c-6.23,4.82 -5.56,7.98 -10.59,14.08 -0.26,0.32 -0.68,0.76 -0.94,1.1l-31.38 43.8c-1.89,3.33 -3.26,5.83 -5.1,9.34 -5.56,10.58 -26.5,36.32 -35.81,51.96 -11.31,19 -25.63,32.4 -35.87,51.73 -1.35,2.56 -3.28,5.45 -5.75,8.32 -2.36,2.74 -5.21,4.99 -7.21,7.01 -8.04,8.18 -3.54,12.04 -9.28,19.38l-14.17 14.21c-8.73,9.23 -4.79,7.72 -11.03,17.77 -5.27,8.51 -13.8,15.66 -18.75,24.17 -3.61,6.21 -2.22,3.28 -5.71,8.17 -5.34,7.49 -4.43,11.84 -11.64,18.64 -16.98,16.01 -16.53,26 -29.09,42.49 -9.89,12.99 -28.56,40.24 -38.08,49.25 -10.84,10.27 -29.04,25.46 -28.55,42.84z"/>
   </clipPath>
   <clipPath id="id1">
    <path d="M2757.91 836.35c8.66,-3.73 8.39,-4.14 9.45,-14.69 1.33,-13.23 1.12,-7.73 7.78,-14.06l13.68 -21.38c3.67,-7.97 10.2,-13.95 13.44,-21.14l9.02 -15.44c5.42,-9.93 7.42,-3.47 13.91,-20.56 6.39,-16.81 15.89,-19.51 20.02,-26.84l7.73 -14.57c8.17,-13.02 11.69,-13.02 14.58,-22.67 2.66,-8.9 2.3,-7.4 7.78,-13.97l5.27 -7.1c3.08,-4.08 2.29,-2.73 5.83,-6.21 9.26,-9.13 11.83,-19.45 19.81,-27.03l20.85 -26.16c3.16,-4.31 8.05,-6.73 10.42,-11.62l9.33 -15.35c3.68,-8.12 4.93,-9.09 7.84,-14.65 4.19,-8.02 2.42,-9.61 8.87,-15.32 8.15,-7.23 5,-10.68 12.65,-22.4l14.09 -20.96c5.99,-13.92 3.05,-2 10.01,-14.22 11.22,-19.7 -5.88,3.97 11.59,-16.22l6.9 -12.05c1.36,-2.38 2.2,-3.47 3.84,-6.11 6.06,-9.75 25.18,-48.98 29.87,-53.42l26.96 -42.27c3.39,-5.77 4.4,-10.83 7.97,-16.71 4.79,-7.89 4.5,-17.46 10.55,-23.88l5.59 -7.02c10.62,-16.65 20.96,-2.22 17.03,15.63 -3.06,13.96 -8.22,2.83 -9.3,37.09 -0.67,21.02 -7.39,23.59 -9.76,37.1 -2.44,13.9 -0.83,30.43 -4.71,42.48 -8.87,27.46 -4.18,12.08 -7,40.18 -1.46,14.64 -5.91,24.51 -8.5,37.76 -2.28,11.71 -1.09,31.81 -6.14,40.86 -13.48,24.19 -6.6,27 -16.24,52.71 -2.49,6.64 -2.07,13.09 -3.88,20.69 -2.69,11.35 -8.67,15.61 -12.28,34.11 -2.61,13.44 -7.96,22.72 -10.65,36.29 -2.97,15 -7.63,19.39 -10.5,36.61 -2.85,17.13 -11.27,12.57 -10.55,36.89 10.46,-2.56 16.16,-21.3 22.56,-30.86l34.87 -53.05c3.27,-6.66 2.82,-9.04 6.84,-13.12 3.61,-3.66 1.61,-0.78 5.82,-6.56 7.59,-10.4 6.33,-5.92 11.2,-17.75l39.89 -53.48c5.14,-9.11 12.77,-14.49 17.99,-22.68 3.64,-5.72 2.29,-2.83 6.58,-7.51 8.41,-9.22 13.48,-21.22 23.23,-29.79 6.67,-5.86 6.61,-8.99 18.63,-8.17 2.13,5.39 4.25,8.39 7.76,12.8 8.7,10.93 2.57,5.33 7.66,16.6 3.9,8.64 6.31,4.77 9.89,14.45l7.45 17.52c2.77,5.97 2.34,10.85 4.8,17.63 3.28,9.09 6.39,7.69 9.27,14.77 3.64,8.97 1.69,9.84 7.27,17.51 5.08,6.99 3.68,11.04 8.15,16.39 6.56,7.83 5.25,-0.83 8.21,13.46 1.55,7.5 11.79,26.73 16.36,33.02 6.32,8.7 2.98,8.54 7.17,17.48 5.19,11.06 18.57,17.89 6.53,33.44 -9.38,12.11 -3.28,-0.77 -7.84,16.87l-16.29 30.27c-4.13,7.78 -3.06,12.38 -5.96,18.84 -3.63,8.06 -4.39,0.82 -9.74,14.66 -2.63,6.82 -4.33,9.39 -8.12,16.14 -6.18,11.02 -12.14,19.72 -15.13,32.08 -2.38,9.84 -11.38,27.72 -16.98,35.65l-11.92 18.48c-1.81,2.11 -1.39,1.28 -2.85,3.42l-11.5 19.05c-7.89,18.09 -3.61,14.52 -14.78,32.08 -4.35,6.84 -6.4,7.16 -9.98,14.73 -1.26,2.67 -2.75,6.69 -3.76,8.36l-4.3 5.85c-4.6,6.92 -6.97,11.74 -7.54,21.4 12.21,-2.1 13.53,-7.63 21.3,-18.31 2.33,-3.19 2.62,-2.62 5.91,-5.97 4.24,-4.32 6.67,-8.77 11.19,-13.37 11.01,-11.24 13.74,-19.27 22.18,-26.62 8.01,-6.96 15.45,-18.23 21.93,-26.99 3.58,-4.84 7.47,-8.6 10.99,-13.5 9.16,-12.74 42.43,-45.35 46.83,-57.5 0.26,-0.71 0.93,-3.87 1.25,-5.04 2.96,-10.97 14.22,-17.4 22.17,-26.04 18.36,-19.95 6.4,-1.49 14.82,-20.33 7.29,-2.77 12.72,-2.9 15.7,4.74 1.4,3.61 1.3,6.33 2.2,10.11 1.95,8.16 0.66,3.76 4.54,9.92 5.31,8.42 3.76,21.05 7.23,31.2 5.29,15.51 9.52,6.6 9.93,30.08 0.28,16.08 0.63,11.84 7.08,20.41 4.52,6 3.24,12.4 5.31,20.68 1.73,6.96 7.15,10.96 9.03,17.2 2.28,7.52 0.03,15.99 4.77,22.62 13.78,19.29 10.84,66.77 1.16,88.17 -1.22,2.68 -0.4,0.16 -1.83,4.34 -4.28,12.42 -2.74,22.47 -9.73,37.25 -4.9,10.35 -4.25,12.77 -4.02,27.15 10.11,-1.71 16.94,-7.58 22.52,-15.73 10.89,-15.93 9.28,-10.41 18.93,-17.16 7.32,-5.13 3.84,-8.03 12.9,-13.08l6.71 -3.85c9.33,-5.61 12.88,-11.24 20.99,-15.79l39.82 -31.56c17.69,-18.58 36.2,-36.28 56.8,-51.03 4.39,-3.14 5.27,-4 10.78,-7.59 15.28,-9.97 34.26,-31.08 48.53,-43.18 5.9,-5.01 15.28,-11.58 19.84,-17.1 24.98,-30.21 59.99,-20.97 25.19,-72.97 -4.3,-6.43 -5.46,-5.27 -8.51,-9.71 -3.41,-4.96 -2.51,-8.72 -4.92,-13.43l-10.25 -14.18c-0.24,-0.39 -0.55,-0.9 -0.79,-1.28l-17.72 -29.1c-2.33,-3.53 -14.85,-31.59 -25.46,-47.89l-12.53 -24.15c-3.72,-6.93 -3.27,-4.42 -6.27,-12.39 -6.27,-16.63 -19.21,-26.94 -26.62,-44.14 -2.91,-6.75 -4.16,-6.79 -7.09,-11.44 -3.85,-6.13 -2.01,-5.24 -7.2,-11.28 -9.59,-11.15 -3.94,-13.92 -13.13,-23.53 -9.26,-9.68 -12.32,-24.53 -19.05,-35.91l-21.79 -32.71c-4.17,-7.64 -3.65,-3.12 -8.87,-9.81 -0.16,-0.2 -2.53,-4.45 -2.68,-4.79l-10.42 -18.57c-1.77,-2.91 -0.69,-2.33 -3.72,-5.12 -2.89,-2.67 0.16,-1.22 -5.3,-2.65 -0.49,-12.74 -3.64,-17.93 -9.98,-28.32 -3.32,-5.44 -2.91,-7.74 -5.99,-12.43 -5.9,-9.03 -4.13,-0.62 -7.84,-10.01 -3.63,-9.17 -5.43,-17.2 -12.32,-25.1 -13.86,-15.88 -6.24,-14.17 -13.84,-24.7 -4.91,-6.81 -8.05,-18.17 -12.95,-23.78 -4.32,-4.96 -4.54,-5.88 -6.86,-11.07 -3.84,-8.57 -3.18,-6.17 -7.97,-12.66 -5.69,-7.72 -10.97,-12.65 -14.29,-21.88 -4.41,-12.23 -10.08,-9.7 -11.5,-28 -11.78,-6.7 -10.59,-11.38 -17.36,-23.19 -3.13,-5.45 -1.91,-5.8 -4.22,-10.06 -5.86,-10.83 -5.05,0.51 -11.02,-15.05 -2.46,-6.4 -1.1,-4.9 -4.71,-9.9 -7.91,-10.96 -4.58,-10.96 -9.08,-17.47l-10.13 -18.01c-2.3,-5.5 -0.96,-2.18 -2.29,-4.16l-22.61 -42.55c-12.97,-17.64 -20.83,-34.52 -30.41,-53 -5.34,-10.31 -7.84,-4.98 -10.04,-18.02 -2.97,-17.59 -4.96,-11.24 -9.66,-17.25 -4.8,-6.11 0.5,-10.3 -7.91,-20.78l-1.87 -2.2c-14.38,-19.45 -17.26,-25.37 -39.03,-40.33 -5.07,-3.48 -38.67,-10.42 -48.09,-9.82 -10.65,0.69 -14.3,3.32 -23.95,5.19 -17.55,3.4 -38.58,21.09 -48.8,34.8 -4.8,6.45 -1.67,4.28 -4.37,10.18 -4.3,9.4 0.26,-0.52 -6.09,7.83l-19.89 35.06c-5.3,5.94 -6.17,10.6 -10.82,17.67l-30.86 52.76c-3.82,8.01 -6.8,9.43 -10.16,18.39 -7.34,19.59 -20.26,35.52 -29.48,54.12l-9.22 17.04c-4.34,5.03 -4.98,12.23 -9.97,18.6 -0.65,0.81 -2.83,2.96 -2.89,3.04 -3.85,4.76 -3.3,8.65 -6.77,13.92 -2,3.04 -3.86,3.95 -6.57,7.45 -8.77,11.29 -10.37,12.85 -14.99,27.48 -3.44,10.91 -16.08,23.71 -21.06,33.93l-17.98 39.18c-2.1,4.08 -2.62,5.88 -4.19,10.01 -2.33,6.1 -18.37,27.42 -24.46,44.48 -2.52,7.09 -7.76,11.02 -10.3,18.36 -1.77,5.1 -1.48,5.93 -4.07,10.47 -2.79,4.92 -2.19,2.09 -5.1,9.07 -1.8,4.32 -1.65,5.25 -3.64,8.72 -9.5,16.47 -14.64,29.68 -26.65,44.68 -5.26,6.58 -2.13,2.37 -4.6,10.08 -2.87,8.93 0.97,1.11 -4.85,9.13 -6.51,8.96 -3.48,10.18 -8.15,18.45 -4.16,7.39 -2.34,1.95 -6.13,7.92l-9.5 19.33c-5.73,11.07 -9.74,20.32 -5.25,32.9 9.57,26.77 6.95,59.5 12.88,99.16 2.41,16.16 8.9,24.93 9.34,45.41 0.49,22.6 0.69,30.93 5.33,51.5z"/>
   </clipPath>
    <clipPath id="id2">
     <path d="M3999.89 993.38c-5.3,2.79 -6.73,3.35 -13.22,13.18 -4.92,7.45 -3.9,12.26 -3.65,22.77l-24.49 165.16c-3.68,11.47 -4.94,4.64 -6.11,20.11 -1.21,16.07 -1.83,35.34 -4.36,50.79 -3.3,20.17 -1.77,28.56 12.37,38.88l53.61 40.03c17.18,11.52 16.34,14.1 39.84,29.42l108.47 80.98c6.69,6.13 9.35,6.02 16.48,12.01 7.07,5.94 9.48,4.97 16.65,10.09 5.39,3.85 9.71,9.11 14.88,13.52 6.12,5.22 8.86,4.65 15.67,10.66l44.81 36.7c11.96,8.66 17.05,9.51 32.07,22.95 16.53,14.79 31.21,19.3 60.81,49.17 8.75,8.83 25.7,18.31 43.96,35.47 6.9,6.48 11.14,7.29 16.49,12.04l42.05 39.33c5.73,4.33 11.06,8.17 15.86,12.71 18.53,17.57 28.12,22.8 44.07,35.43 9.54,7.55 6.85,5.95 20.25,8.73l41.86 12.68c10.76,3.62 8.56,6.2 17.19,8.91 8.14,2.56 15.94,1.58 23.43,5.37 11.07,5.61 2.08,4.26 19.42,6.88 9.43,1.42 13.33,2.88 20.8,6.21 15.02,6.68 29.95,4.4 44.43,10.47 8.41,3.53 11.98,4.12 21.1,5.46 14.28,2.1 9.62,3.85 19.94,7.75 15.34,5.8 54.51,9.48 15.93,-27.69 -2.79,-2.7 -15.01,-20.46 -24.31,-28.64 -5.25,-4.62 -9.17,-9.2 -13.6,-14.91 -5.09,-6.55 -7.17,-8.05 -12.55,-13.92l-42.99 -50.81c-9.21,-14.22 -2.35,-6.53 -18.3,-22.36l-61.58 -74.97c-7.05,-9.92 -16.59,-16.53 -26.92,-27.97 -4.52,-5 -7.45,-9.18 -12.15,-14.35l-75.7 -89.19c-7.09,-7.24 -5.29,-8.54 -10.64,-15.97 -3.5,-4.86 -8.83,-9.37 -12.71,-13.68 -4.34,-4.83 -7.23,-9.32 -12.05,-14.44 -17.78,-18.9 -49.23,-60.93 -63.32,-75.2 -22.87,-23.16 -25.48,-17.45 -48.39,1.85 -7.72,6.51 -30.15,37.42 -37.83,45.69 -15.86,17.09 -21.09,10.45 -34.2,-2.47l-60.64 -73.6c-7.33,-13.69 -12.89,-15.7 -22.11,-33.07l-30.9 -50.87c-9.2,-25.1 -15.92,-12.37 -30.03,-51.93 -3.43,-9.62 -5.93,-8.54 -11.26,-16.67 -2.13,-3.25 -9.47,-14.32 -10.39,-16.22 -5.13,-10.46 1.86,-6.01 -18.41,-36.48 -7.1,-10.66 -4.18,-11.38 -9.33,-16.93 -7.28,-7.85 -3.42,2.33 -11.76,-14.77 -2.72,-5.57 -7.66,-11.56 -11.62,-16.82 -6.2,-8.23 -5.88,-6.38 -9.44,-17.06 -1.25,-3.74 -21.97,-38.88 -27.74,-41.56 -7.25,-3.37 -8.35,0.39 -9.78,1.14z"/>
    </clipPath>
    <clipPath id="id3">
     <path d="M2854.43 1540.22c-11.79,-0.51 -17.78,-12.7 -24.66,-19.81 -7.84,-8.09 -16.13,-12.03 -24.56,-20.2 -10.06,-9.76 -42.09,-31.7 -61.66,-31.69 0.01,20.18 6.16,19.54 17.72,42.91l22.74 38.53c18.37,23.5 11.57,41.82 55.17,65.04 11.63,6.2 17.09,5.62 27.04,13.64 9.63,7.75 52.08,28.36 65.41,34.46 4.79,2.19 9.9,3.16 14.73,5.71 5.84,3.09 5.79,4.33 12.47,7.57l67.25 34.65c5.86,3.73 8.88,2.91 14.84,5.76 7.11,3.41 2.98,4.04 12.89,7.46l27.98 12.62c9.28,4.28 27.65,14.71 40.1,18.73 8.39,2.71 8.03,3.58 14.11,6.53l40.58 20.18c5.52,2.52 9.52,2.66 15.25,5.21 16.66,7.38 11.56,6.22 33.31,7.78 25.59,1.83 52.25,1.67 79.44,1.94 29.54,0.3 49.85,2.24 77.44,3.88 101.04,5.98 215.47,5.78 317.43,1.98l-0.19 -9.96c-4.49,-2.2 -6.59,-2.17 -11.65,-3.76l-7.35 -3.16c-0.39,-0.22 -0.86,-0.57 -1.24,-0.8 -10.38,-6.23 -7.87,-3.25 -18.18,-6.14 -11.01,-3.09 -3.06,-2.53 -11.58,-6.79 -7.1,-3.55 -18.63,-3.25 -28.94,-8.04 -11.84,-5.51 -17.56,-1.7 -27.47,-9.05 -9.95,-7.36 -16.39,-4.06 -26.88,-9.78 -6.49,-3.54 -5.36,-4.5 -11.5,-6.3l-55.49 -18.54c-14.34,-2.86 -4.57,-3.31 -27.31,-9.4 -14.63,-3.92 3.73,-3.5 -26.3,-10.41 -6.88,-1.59 -6.87,-2.34 -13.26,-5.03 -23.15,-9.75 -12.87,1.26 -26.13,-10.3 -5.4,-4.71 -45.89,-14.44 -54.21,-19.14 -17.13,-9.67 -16.58,-1.97 -25.44,-11.45 -10.81,-11.56 -1.08,1.8 -24.69,-11.25l-30.14 -14.05c-5.56,-1.4 -3.1,-0.05 -8.4,-2.42 -6.13,-2.74 -4.94,-3.51 -12.23,-5.67 -4.22,-1.25 -2.02,-0.21 -6.52,-1.93 -9.86,-3.76 -4.03,-4.06 -20.89,-7.64 -18.13,-3.85 -26.46,-14.62 -53.18,-20.43 -7.95,-1.72 -6.59,-2.49 -12.9,-5.58 -6.22,-3.05 -6.95,-2.06 -14.88,-3.68l-25.74 -10.8c-5.78,-2.58 -5.4,-4.13 -12.24,-6.11l-38.94 -16.01c-7.1,-3.68 -5.4,-2.91 -13.48,-5.03l-63.24 -28.22c-5.21,-2.71 -20.25,-7.08 -27.27,-9.74 -7.87,-2.99 -6.3,-3.59 -11.17,-6.88 -6.03,-4.07 -6.69,-2.74 -14.29,-4.39 -9.8,-2.14 -4.7,-2.15 -12.1,-6.06 -5.2,-2.73 -7.94,-2.3 -13.39,-5.03 -6.49,-3.27 -4.09,-3.8 -11.82,-6.69 -21.22,-7.96 -14.09,-9.57 -25.93,-10.98 -7.89,-0.95 -11.19,-0.11 -17.2,-2.1 -0.88,31.29 2.07,20.41 3.82,39.76 1.22,13.51 2.37,29.24 -5.04,36.08z"/>
    </clipPath>
    <clipPath id="id4">
     <path d="M3576.17 1644.46c9.92,10.1 33.38,20.66 48.18,28.42l21.49 11.14c6.81,2.64 5.88,0.96 11.96,4.39 26.87,15.16 8.88,0.09 30.24,16.52 5.12,3.95 4.2,2.4 11.35,4.6 12.58,3.88 29.41,15.83 44.59,20.89 8.32,2.77 13.79,6.23 21.06,9.55l66.03 29.74c15.42,9.87 10.16,4.44 21.27,9.09 20.37,8.53 26.49,9.65 52.03,12.77 10.23,1.25 21.12,0.7 31.59,0.71 85.97,0.06 163.09,5.46 248.49,6.63 85.45,1.17 171.57,-0.09 254.65,-1.61 -0.65,-13.75 -5.91,-10.11 -17.99,-14.77 -9.98,-3.85 -11.95,-7.74 -24.04,-10.62l-11.66 -4.57c-4.15,-2.72 -6.22,-4.25 -12.35,-6.02 -10.13,-2.9 -19.41,-2.24 -27.83,-6.92 -6.27,-3.48 -2.51,-3.33 -10.5,-5.6 -4.29,-1.21 -9.35,-1.55 -13.76,-2.47 -16.09,-3.38 -6.8,-5.42 -25.59,-9.17 -16.58,-3.31 -12.01,-7.3 -24.35,-10.35 -5.27,-1.31 -10.24,-0.7 -14.77,-1.85 -5.85,-1.49 -5.88,-4.35 -10.47,-7.34 -6.94,-4.53 -15.29,-3.68 -24.14,-8.59 -19.13,-10.65 -11.86,-4.25 -25.28,-9.23 -6.43,-2.39 -4.18,-2.89 -11.17,-5.25 -6.12,-2.07 -8.94,-1.5 -14.58,-3.86 -13.27,-5.57 -4.9,-7.24 -24.54,-9.92 -19.69,-2.69 -5.82,-6.05 -36.92,-12.09 -10.3,-2 -5.14,-1.73 -12.02,-6.14 -7.84,-5.03 -17.64,-3.58 -26.73,-8.08 -5.39,-2.67 -4.78,-3.64 -10.91,-5.53 -5.89,-1.81 -9.36,-1.34 -15.06,-3.3 -9.81,-3.38 -9.88,-7.12 -21.5,-10.55 -11.28,-3.33 -16.37,-9.32 -22.9,-11.38 -16.47,-5.19 0.68,2.85 -25.94,-8.9 -37,-16.33 -54.22,-0.25 -86.95,1.28 -12.9,0.6 -20.48,-1.63 -33.78,1.05 -11.24,2.27 -19.17,3.53 -31.54,3.14 -21.6,-0.68 -39.85,-2.42 -62.55,0.64 -8.48,1.13 -18.11,4.97 -28.37,6.6 -11.23,1.78 -21.97,0.32 -32.84,1.7 -29.74,3.76 -11,7.51 -61.52,6.71 -13.44,-0.21 -52.81,3.75 -60.4,8.54z"/>
    </clipPath>
    <clipPath id="id5">
     <path d="M3991.9 2778.58l-0.61 -243.31c119.58,-9.37 236.14,-5.76 232.01,126.75 -1.89,60.93 -26.23,93.34 -72.36,109.35 -31.47,10.91 -127.64,23.15 -159.03,7.21zm0.2 -522.37c54.52,-5.01 121.24,-8.97 161.53,18.03 44.41,29.75 53.98,145.18 -63.32,159.97 -11.37,1.42 -82.81,3.02 -90.71,0.52 -12.23,-3.87 -8.77,5.93 -8.47,-41.33 0.09,-15.31 0.07,-30.64 0.08,-45.95 0.01,-29.02 -1.67,-62.85 0.89,-91.24zm232.57 214.93c8.98,-8.92 20.95,-14.9 32.45,-24.65 93.85,-79.56 59.69,-205.36 -15.58,-256.61 -88.11,-60 -258.42,-44.78 -380.17,-36.38l0.08 735c99.94,6.11 273.83,12.51 365.98,-26.41 162.48,-68.62 157.53,-262.53 75.83,-341.65 -32.37,-31.35 -63.98,-37.3 -78.58,-49.29z"/>
    </clipPath>
    <clipPath id="id6">
     <path d="M2246.35 2453.74c13.92,10.79 251.57,325.04 276.09,356.15 17.13,21.73 30.27,38.74 46.31,59.77 21.99,28.89 19.5,34.79 72.2,27.3l-0.39 -715.17 -119.24 0.1 -0.56 422.52c-10.05,-5.11 -161.05,-201.12 -181.33,-226.37 -30.93,-38.52 -58.74,-76.77 -90.04,-114.92 -21.42,-26.08 -55.08,-79.3 -73.62,-81.55 -10.85,-1.32 -37.17,-0.14 -49.62,0.43l0.09 707.19 119.05 -1.51 1.07 -433.94z"/>
    </clipPath>
    <clipPath id="id7">
     <path d="M232.06 2637.57c6.76,-36.33 58.47,-179.13 75.87,-235.38 1.72,-5.54 3.35,-11.89 4.9,-16.2l7.6 -14.72c8.75,13 81.46,237.09 88.63,267.06l-177.01 -0.76zm-39.29 100.94l255.43 1.58 52.54 148.91 143.41 -0.57 -295.05 -746.87 -57.22 0.49 -291.88 747.11 142.84 -0.9 49.93 -149.75z"/>
    </clipPath>
    <clipPath id="id8">
     <path d="M2913.96 2291.62l322.81 -0.36 -0.76 -109.62 -448.75 0.57 0.08 706.92 449.48 -0.28 -1.28 -109.3 -323.08 -0.17 1.84 -215.55 228.76 -1.47 -1.58 -103.25 -229.01 -0.17 1.47 -167.31z"/>
    </clipPath>
    <clipPath id="id9">
     <path d="M1395.16 2288.66c44.27,-6.67 116.51,-0.89 152.02,15.81 41.34,19.45 66.38,45.07 62.84,106.49 -6,103.72 -100.87,114.98 -183.6,111.92 -37.96,-1.41 -29.11,-3.08 -33.18,-9.35l1.93 -224.87zm-1.22 340.77c102.15,3.98 196.9,1.77 265.57,-52.51 57.54,-45.48 92.54,-133.01 73.88,-236.2 -15.68,-86.67 -80.85,-131.67 -168.36,-149.74 -68.91,-14.22 -234.14,-21.2 -295.89,-7.51l1.25 705.76 122.84 -0.47 0.72 -259.33z"/>
    </clipPath>
    <clipPath id="id10">
     <path d="M3676.76 2321.8c8.38,-25.83 33.61,-85.4 35.73,-108.32 -56.29,-31.46 -87.54,-41.33 -165.7,-43.46 -233.05,-6.39 -285.09,226.63 -164.38,334.78 70.34,63 204.87,86.23 235.28,178.13 24.49,74.03 -29.92,105.7 -95.61,108.1 -78.44,2.84 -105.27,-24.98 -155.52,-51.13 -9.45,9.16 -44.13,98.43 -46.28,109.35 33.24,29.28 106.47,47.58 159.76,51.18 231.48,15.63 331.15,-179.5 226.35,-323.83 -56.59,-77.96 -188.06,-99.24 -245.47,-175.07 -54.07,-71.43 24.57,-163.36 149.42,-114.04 28.17,11.13 43.7,22.96 66.42,34.33z"/>
    </clipPath>
    <clipPath id="id11">
     <path d="M5582.24 2291.53l225.34 0.99 0.18 596.6 124.48 -0.4 0.92 -597.05 235.03 -1.36 -0.54 -108.66 -585.34 0.26 -0.09 109.61z"/>
    </clipPath>
    <clipPath id="id12">
     <path d="M720.29 2889.18l445.06 -0.72 -1.11 -108.57c-55.84,-2.84 -291.69,4.28 -319.25,-2.46l-0.94 -595.82 -123.87 0.44 0.11 707.12z"/>
    </clipPath>
    <clipPath id="id13">
     <path d="M5171.52 2889.25l440.31 -0.02c5.9,-15.85 3.59,-89.22 1.69,-109.67 -47.27,-0.47 -295.67,3.47 -319.61,-2.11l-0.76 -595.94 -123.35 1.32 1.71 706.43z"/>
    </clipPath>
    <clipPath id="id14">
     <path d="M4624.81 2191.58l14.09 124.12c45.78,-28.5 84.8,-50.22 157.59,-30.65 180.66,48.59 140.26,355.46 90.93,423.16l5.75 154.82c32.15,-9.23 72.49,-52.05 90.16,-75.56 78.28,-104.24 91.74,-277.87 56.73,-399.34 -41.31,-143.35 -135.89,-209.76 -274.02,-217.5 -83.64,-4.68 -95.86,12.62 -141.23,20.95z"/>
    </clipPath>
    <clipPath id="id15">
     <path d="M4888.86 2866.75l-26.68 -122.4c-76.49,64.91 -200.68,70.13 -253.28,-24.31 -42.54,-76.39 -57.56,-222.24 -22.38,-314.8 0.81,-23.22 -18.11,-158.85 -25.92,-170.96 -162.92,117.82 -182.69,555.93 65.41,648.77 74.72,27.96 200.07,21.68 262.85,-16.31z"/>
    </clipPath>
    <clipPath id="id16">
     <path d="M1852.45 2870.46c0.05,16.79 -1.64,18.73 15.44,19.19l108.55 -0.69c4.61,-220.95 1.68,-481.66 0.22,-707.32l-124.02 1.77 -0.2 687.05z"/>
    </clipPath>
  <linearGradient id="id17" gradientUnits="objectBoundingBox" x1="1.27428e-05%" y1="50%" x2="100%" y2="50%">
   <stop offset="0" style="stop-opacity:1; stop-color:#B4C9CC"/>
   <stop offset="1" style="stop-opacity:1; stop-color:#9DC6CA"/>
  </linearGradient>
  <linearGradient id="id18" gradientUnits="objectBoundingBox" xlink:href="#id17" x1="8.65152e-14%" y1="50%" x2="100%" y2="50%">
  </linearGradient>
  <linearGradient id="id19" gradientUnits="objectBoundingBox" xlink:href="#id17" x1="100%" y1="50%" x2="0%" y2="50%">
  </linearGradient>
 </defs>
 <g id="Layer_x0020_1">
  <metadata id="CorelCorpID_0Corel-Layer"/>
  <path class="fil0" d="M1651.76 1828.76c17.92,5.56 321.9,2.07 367.58,2.12l745.47 0.14c61.77,0.18 123.56,0.11 185.34,0.22 30.35,0.05 64.02,-0.7 92.09,1.59 15.06,1.23 30.54,-0.7 45.83,1.1 12.47,1.46 31.44,3.19 40.21,-2.08 -5.24,-15.03 -66.26,-22.42 -84.37,-24.34 -13.1,-1.4 -17.83,-7.63 -27.46,-10.81l-62.94 -12.86c-13.24,-2.55 -14.07,-6.34 -27.37,-9.2 -7.73,-1.66 -23.73,-5.09 -31.18,-7.78 -11.52,-4.17 -15.3,-4.65 -29.32,-7.09 -17.13,-2.99 -21.47,-7.94 -34.5,-12.11 -1.07,-0.35 -5.2,-1.89 -7.36,-2.71 -4.61,-1.74 -7.24,-3.3 -13.55,-4.74 -17.72,-4.05 -15.99,1.49 -32.08,-6.89 -11.2,-5.83 -17.35,-4.56 -28.38,-8.17 -19.63,-6.43 -3.74,-4.5 -30.79,-8.15 -17.04,-2.29 -45.91,-11.44 -58.27,-17.42 -13.2,-6.38 -18.76,-1.93 -30.68,-6.02 -10.31,-3.53 -15.28,-7.06 -28,-10.52 -12.73,-3.47 -11.53,-8.22 -26.1,-10.3 -13.22,-1.89 -18.78,-3.69 -30.2,-8.68 -17.51,-7.66 -47.29,-4.71 -70.15,-4.7l-224.04 -2.03c-17.68,-0.07 -62.28,5.52 -69.75,-6.59 -2.72,-4.41 -3.47,-9.67 -1.13,-15.51l18.37 -28.98c7.1,-9.47 13.56,-16.66 19.06,-27.63l43.75 -68.86c1.92,-3.87 4.43,-7.5 6.85,-11.29l15.42 -21.42c2.19,-3.37 1.13,-1.49 4.44,-5.28l27.19 -38.03c4.06,-5.77 2.5,-7.39 7.72,-12.67 12.6,-12.76 13.44,-22.11 22.61,-32.39l17.18 -21.31c0.32,-0.5 1.22,-2.06 1.56,-2.56l48.97 -79.56c5.45,-6.31 12.35,-14.01 16.49,-20.17 5.38,-7.99 8.85,-15.15 15.42,-23.2l29.42 -46.22c12.05,-19.37 -4.43,-26.26 -1.25,-64.47 0.95,-11.51 -1.58,-57.43 -4.78,-67 -12.79,-38.3 -5.41,-39.96 -11.05,-64.59 -2.23,-9.72 -5.51,-16.7 -6.35,-29.35 -0.98,-14.69 1.31,-22.99 -1.81,-37.35 -2.44,-11.23 -2.18,-22.43 -4.76,-32.24 -2.56,-9.78 -6.94,-17.88 -9.08,-29.33 -5.24,-27.88 3.72,-39.01 -7.74,-67.82 -11.08,-27.85 -8.36,-37.86 -15.19,-60.22 -9.33,3.39 -8.08,9.33 -12.35,17.97l-10.12 18.3c-3.31,6.05 -6.54,12.47 -10.13,18.43l-21.8 35.35c-0.21,0.38 -0.52,0.9 -0.74,1.26l-27.61 41.36c-0.36,0.47 -1.41,1.82 -1.76,2.3 -0.26,0.35 -0.59,0.86 -0.85,1.22 -0.26,0.36 -0.58,0.87 -0.84,1.23 -8.12,11.16 -8.37,9.26 -13.75,23.46 -2.43,6.42 -6.57,10.17 -12.63,15.22 -10.52,8.76 -14.29,25.58 -21.81,35.4 -2.34,3.06 -4.13,4.09 -6.3,7.81 -8.48,14.47 -15.98,31.18 -28.99,42.34l-16.36 20.32c-8.01,9.25 -12.81,20.81 -20.88,30 -8.67,9.87 -14.19,23.15 -20.88,36.25 -4.72,9.27 -7.6,7.83 -12.1,16.67 -6.69,13.13 -22.83,27.06 -32.03,38.94 -4.11,5.32 -2.55,5.38 -5.55,10.89 -3.73,6.84 -7.99,8.53 -12.29,16.06 -6.55,11.47 -13.48,18.09 -19.66,29.43 -0.22,0.41 -0.49,0.94 -0.71,1.34l-79.55 101.59c-8.88,10.83 -6.05,1.37 -11.93,16.92 -5.35,14.13 -16.04,20.74 -24.35,32.26 -5.03,6.97 -5.3,11.91 -10.75,17.76 -3.76,4.04 -3.33,2.26 -6.72,7.88 -2.76,4.61 -1.74,4.51 -5.15,8.96l-13.83 14.31c-6.23,4.82 -5.56,7.98 -10.59,14.08 -0.26,0.32 -0.68,0.76 -0.94,1.1l-31.38 43.8c-1.89,3.33 -3.26,5.83 -5.1,9.34 -5.56,10.58 -26.5,36.32 -35.81,51.96 -11.31,19 -25.63,32.4 -35.87,51.73 -1.35,2.56 -3.28,5.45 -5.75,8.32 -2.36,2.74 -5.21,4.99 -7.21,7.01 -8.04,8.18 -3.54,12.04 -9.28,19.38l-14.17 14.21c-8.73,9.23 -4.79,7.72 -11.03,17.77 -5.27,8.51 -13.8,15.66 -18.75,24.17 -3.61,6.21 -2.22,3.28 -5.71,8.17 -5.34,7.49 -4.43,11.84 -11.64,18.64 -16.98,16.01 -16.53,26 -29.09,42.49 -9.89,12.99 -28.56,40.24 -38.08,49.25 -10.84,10.27 -29.04,25.46 -28.55,42.84z"/>
  <g style="clip-path:url(#id0)">
   <g id="_2781922361472">
    <rect class="fil1" x="-1221.87" y="-3613.97" width="1881.22" height="1655.45"/>
   </g>
  </g>
  <path class="fil2" d="M1651.76 1828.76c17.92,5.56 321.9,2.07 367.58,2.12l745.47 0.14c61.77,0.18 123.56,0.11 185.34,0.22 30.35,0.05 64.02,-0.7 92.09,1.59 15.06,1.23 30.54,-0.7 45.83,1.1 12.47,1.46 31.44,3.19 40.21,-2.08 -5.24,-15.03 -66.26,-22.42 -84.37,-24.34 -13.1,-1.4 -17.83,-7.63 -27.46,-10.81l-62.94 -12.86c-13.24,-2.55 -14.07,-6.34 -27.37,-9.2 -7.73,-1.66 -23.73,-5.09 -31.18,-7.78 -11.52,-4.17 -15.3,-4.65 -29.32,-7.09 -17.13,-2.99 -21.47,-7.94 -34.5,-12.11 -1.07,-0.35 -5.2,-1.89 -7.36,-2.71 -4.61,-1.74 -7.24,-3.3 -13.55,-4.74 -17.72,-4.05 -15.99,1.49 -32.08,-6.89 -11.2,-5.83 -17.35,-4.56 -28.38,-8.17 -19.63,-6.43 -3.74,-4.5 -30.79,-8.15 -17.04,-2.29 -45.91,-11.44 -58.27,-17.42 -13.2,-6.38 -18.76,-1.93 -30.68,-6.02 -10.31,-3.53 -15.28,-7.06 -28,-10.52 -12.73,-3.47 -11.53,-8.22 -26.1,-10.3 -13.22,-1.89 -18.78,-3.69 -30.2,-8.68 -17.51,-7.66 -47.29,-4.71 -70.15,-4.7l-224.04 -2.03c-17.68,-0.07 -62.28,5.52 -69.75,-6.59 -2.72,-4.41 -3.47,-9.67 -1.13,-15.51l18.37 -28.98c7.1,-9.47 13.56,-16.66 19.06,-27.63l43.75 -68.86c1.92,-3.87 4.43,-7.5 6.85,-11.29l15.42 -21.42c2.19,-3.37 1.13,-1.49 4.44,-5.28l27.19 -38.03c4.06,-5.77 2.5,-7.39 7.72,-12.67 12.6,-12.76 13.44,-22.11 22.61,-32.39l17.18 -21.31c0.32,-0.5 1.22,-2.06 1.56,-2.56l48.97 -79.56c5.45,-6.31 12.35,-14.01 16.49,-20.17 5.38,-7.99 8.85,-15.15 15.42,-23.2l29.42 -46.22c12.05,-19.37 -4.43,-26.26 -1.25,-64.47 0.95,-11.51 -1.58,-57.43 -4.78,-67 -12.79,-38.3 -5.41,-39.96 -11.05,-64.59 -2.23,-9.72 -5.51,-16.7 -6.35,-29.35 -0.98,-14.69 1.31,-22.99 -1.81,-37.35 -2.44,-11.23 -2.18,-22.43 -4.76,-32.24 -2.56,-9.78 -6.94,-17.88 -9.08,-29.33 -5.24,-27.88 3.72,-39.01 -7.74,-67.82 -11.08,-27.85 -8.36,-37.86 -15.19,-60.22 -9.33,3.39 -8.08,9.33 -12.35,17.97l-10.12 18.3c-3.31,6.05 -6.54,12.47 -10.13,18.43l-21.8 35.35c-0.21,0.38 -0.52,0.9 -0.74,1.26l-27.61 41.36c-0.36,0.47 -1.41,1.82 -1.76,2.3 -0.26,0.35 -0.59,0.86 -0.85,1.22 -0.26,0.36 -0.58,0.87 -0.84,1.23 -8.12,11.16 -8.37,9.26 -13.75,23.46 -2.43,6.42 -6.57,10.17 -12.63,15.22 -10.52,8.76 -14.29,25.58 -21.81,35.4 -2.34,3.06 -4.13,4.09 -6.3,7.81 -8.48,14.47 -15.98,31.18 -28.99,42.34l-16.36 20.32c-8.01,9.25 -12.81,20.81 -20.88,30 -8.67,9.87 -14.19,23.15 -20.88,36.25 -4.72,9.27 -7.6,7.83 -12.1,16.67 -6.69,13.13 -22.83,27.06 -32.03,38.94 -4.11,5.32 -2.55,5.38 -5.55,10.89 -3.73,6.84 -7.99,8.53 -12.29,16.06 -6.55,11.47 -13.48,18.09 -19.66,29.43 -0.22,0.41 -0.49,0.94 -0.71,1.34l-79.55 101.59c-8.88,10.83 -6.05,1.37 -11.93,16.92 -5.35,14.13 -16.04,20.74 -24.35,32.26 -5.03,6.97 -5.3,11.91 -10.75,17.76 -3.76,4.04 -3.33,2.26 -6.72,7.88 -2.76,4.61 -1.74,4.51 -5.15,8.96l-13.83 14.31c-6.23,4.82 -5.56,7.98 -10.59,14.08 -0.26,0.32 -0.68,0.76 -0.94,1.1l-31.38 43.8c-1.89,3.33 -3.26,5.83 -5.1,9.34 -5.56,10.58 -26.5,36.32 -35.81,51.96 -11.31,19 -25.63,32.4 -35.87,51.73 -1.35,2.56 -3.28,5.45 -5.75,8.32 -2.36,2.74 -5.21,4.99 -7.21,7.01 -8.04,8.18 -3.54,12.04 -9.28,19.38l-14.17 14.21c-8.73,9.23 -4.79,7.72 -11.03,17.77 -5.27,8.51 -13.8,15.66 -18.75,24.17 -3.61,6.21 -2.22,3.28 -5.71,8.17 -5.34,7.49 -4.43,11.84 -11.64,18.64 -16.98,16.01 -16.53,26 -29.09,42.49 -9.89,12.99 -28.56,40.24 -38.08,49.25 -10.84,10.27 -29.04,25.46 -28.55,42.84z"/>
  <path class="fil3" d="M2757.91 836.35c8.66,-3.73 8.39,-4.14 9.45,-14.69 1.33,-13.23 1.12,-7.73 7.78,-14.06l13.68 -21.38c3.67,-7.97 10.2,-13.95 13.44,-21.14l9.02 -15.44c5.42,-9.93 7.42,-3.47 13.91,-20.56 6.39,-16.81 15.89,-19.51 20.02,-26.84l7.73 -14.57c8.17,-13.02 11.69,-13.02 14.58,-22.67 2.66,-8.9 2.3,-7.4 7.78,-13.97l5.27 -7.1c3.08,-4.08 2.29,-2.73 5.83,-6.21 9.26,-9.13 11.83,-19.45 19.81,-27.03l20.85 -26.16c3.16,-4.31 8.05,-6.73 10.42,-11.62l9.33 -15.35c3.68,-8.12 4.93,-9.09 7.84,-14.65 4.19,-8.02 2.42,-9.61 8.87,-15.32 8.15,-7.23 5,-10.68 12.65,-22.4l14.09 -20.96c5.99,-13.92 3.05,-2 10.01,-14.22 11.22,-19.7 -5.88,3.97 11.59,-16.22l6.9 -12.05c1.36,-2.38 2.2,-3.47 3.84,-6.11 6.06,-9.75 25.18,-48.98 29.87,-53.42l26.96 -42.27c3.39,-5.77 4.4,-10.83 7.97,-16.71 4.79,-7.89 4.5,-17.46 10.55,-23.88l5.59 -7.02c10.62,-16.65 20.96,-2.22 17.03,15.63 -3.06,13.96 -8.22,2.83 -9.3,37.09 -0.67,21.02 -7.39,23.59 -9.76,37.1 -2.44,13.9 -0.83,30.43 -4.71,42.48 -8.87,27.46 -4.18,12.08 -7,40.18 -1.46,14.64 -5.91,24.51 -8.5,37.76 -2.28,11.71 -1.09,31.81 -6.14,40.86 -13.48,24.19 -6.6,27 -16.24,52.71 -2.49,6.64 -2.07,13.09 -3.88,20.69 -2.69,11.35 -8.67,15.61 -12.28,34.11 -2.61,13.44 -7.96,22.72 -10.65,36.29 -2.97,15 -7.63,19.39 -10.5,36.61 -2.85,17.13 -11.27,12.57 -10.55,36.89 10.46,-2.56 16.16,-21.3 22.56,-30.86l34.87 -53.05c3.27,-6.66 2.82,-9.04 6.84,-13.12 3.61,-3.66 1.61,-0.78 5.82,-6.56 7.59,-10.4 6.33,-5.92 11.2,-17.75l39.89 -53.48c5.14,-9.11 12.77,-14.49 17.99,-22.68 3.64,-5.72 2.29,-2.83 6.58,-7.51 8.41,-9.22 13.48,-21.22 23.23,-29.79 6.67,-5.86 6.61,-8.99 18.63,-8.17 2.13,5.39 4.25,8.39 7.76,12.8 8.7,10.93 2.57,5.33 7.66,16.6 3.9,8.64 6.31,4.77 9.89,14.45l7.45 17.52c2.77,5.97 2.34,10.85 4.8,17.63 3.28,9.09 6.39,7.69 9.27,14.77 3.64,8.97 1.69,9.84 7.27,17.51 5.08,6.99 3.68,11.04 8.15,16.39 6.56,7.83 5.25,-0.83 8.21,13.46 1.55,7.5 11.79,26.73 16.36,33.02 6.32,8.7 2.98,8.54 7.17,17.48 5.19,11.06 18.57,17.89 6.53,33.44 -9.38,12.11 -3.28,-0.77 -7.84,16.87l-16.29 30.27c-4.13,7.78 -3.06,12.38 -5.96,18.84 -3.63,8.06 -4.39,0.82 -9.74,14.66 -2.63,6.82 -4.33,9.39 -8.12,16.14 -6.18,11.02 -12.14,19.72 -15.13,32.08 -2.38,9.84 -11.38,27.72 -16.98,35.65l-11.92 18.48c-1.81,2.11 -1.39,1.28 -2.85,3.42l-11.5 19.05c-7.89,18.09 -3.61,14.52 -14.78,32.08 -4.35,6.84 -6.4,7.16 -9.98,14.73 -1.26,2.67 -2.75,6.69 -3.76,8.36l-4.3 5.85c-4.6,6.92 -6.97,11.74 -7.54,21.4 12.21,-2.1 13.53,-7.63 21.3,-18.31 2.33,-3.19 2.62,-2.62 5.91,-5.97 4.24,-4.32 6.67,-8.77 11.19,-13.37 11.01,-11.24 13.74,-19.27 22.18,-26.62 8.01,-6.96 15.45,-18.23 21.93,-26.99 3.58,-4.84 7.47,-8.6 10.99,-13.5 9.16,-12.74 42.43,-45.35 46.83,-57.5 0.26,-0.71 0.93,-3.87 1.25,-5.04 2.96,-10.97 14.22,-17.4 22.17,-26.04 18.36,-19.95 6.4,-1.49 14.82,-20.33 7.29,-2.77 12.72,-2.9 15.7,4.74 1.4,3.61 1.3,6.33 2.2,10.11 1.95,8.16 0.66,3.76 4.54,9.92 5.31,8.42 3.76,21.05 7.23,31.2 5.29,15.51 9.52,6.6 9.93,30.08 0.28,16.08 0.63,11.84 7.08,20.41 4.52,6 3.24,12.4 5.31,20.68 1.73,6.96 7.15,10.96 9.03,17.2 2.28,7.52 0.03,15.99 4.77,22.62 13.78,19.29 10.84,66.77 1.16,88.17 -1.22,2.68 -0.4,0.16 -1.83,4.34 -4.28,12.42 -2.74,22.47 -9.73,37.25 -4.9,10.35 -4.25,12.77 -4.02,27.15 10.11,-1.71 16.94,-7.58 22.52,-15.73 10.89,-15.93 9.28,-10.41 18.93,-17.16 7.32,-5.13 3.84,-8.03 12.9,-13.08l6.71 -3.85c9.33,-5.61 12.88,-11.24 20.99,-15.79l39.82 -31.56c17.69,-18.58 36.2,-36.28 56.8,-51.03 4.39,-3.14 5.27,-4 10.78,-7.59 15.28,-9.97 34.26,-31.08 48.53,-43.18 5.9,-5.01 15.28,-11.58 19.84,-17.1 24.98,-30.21 59.99,-20.97 25.19,-72.97 -4.3,-6.43 -5.46,-5.27 -8.51,-9.71 -3.41,-4.96 -2.51,-8.72 -4.92,-13.43l-10.25 -14.18c-0.24,-0.39 -0.55,-0.9 -0.79,-1.28l-17.72 -29.1c-2.33,-3.53 -14.85,-31.59 -25.46,-47.89l-12.53 -24.15c-3.72,-6.93 -3.27,-4.42 -6.27,-12.39 -6.27,-16.63 -19.21,-26.94 -26.62,-44.14 -2.91,-6.75 -4.16,-6.79 -7.09,-11.44 -3.85,-6.13 -2.01,-5.24 -7.2,-11.28 -9.59,-11.15 -3.94,-13.92 -13.13,-23.53 -9.26,-9.68 -12.32,-24.53 -19.05,-35.91l-21.79 -32.71c-4.17,-7.64 -3.65,-3.12 -8.87,-9.81 -0.16,-0.2 -2.53,-4.45 -2.68,-4.79l-10.42 -18.57c-1.77,-2.91 -0.69,-2.33 -3.72,-5.12 -2.89,-2.67 0.16,-1.22 -5.3,-2.65 -0.49,-12.74 -3.64,-17.93 -9.98,-28.32 -3.32,-5.44 -2.91,-7.74 -5.99,-12.43 -5.9,-9.03 -4.13,-0.62 -7.84,-10.01 -3.63,-9.17 -5.43,-17.2 -12.32,-25.1 -13.86,-15.88 -6.24,-14.17 -13.84,-24.7 -4.91,-6.81 -8.05,-18.17 -12.95,-23.78 -4.32,-4.96 -4.54,-5.88 -6.86,-11.07 -3.84,-8.57 -3.18,-6.17 -7.97,-12.66 -5.69,-7.72 -10.97,-12.65 -14.29,-21.88 -4.41,-12.23 -10.08,-9.7 -11.5,-28 -11.78,-6.7 -10.59,-11.38 -17.36,-23.19 -3.13,-5.45 -1.91,-5.8 -4.22,-10.06 -5.86,-10.83 -5.05,0.51 -11.02,-15.05 -2.46,-6.4 -1.1,-4.9 -4.71,-9.9 -7.91,-10.96 -4.58,-10.96 -9.08,-17.47l-10.13 -18.01c-2.3,-5.5 -0.96,-2.18 -2.29,-4.16l-22.61 -42.55c-12.97,-17.64 -20.83,-34.52 -30.41,-53 -5.34,-10.31 -7.84,-4.98 -10.04,-18.02 -2.97,-17.59 -4.96,-11.24 -9.66,-17.25 -4.8,-6.11 0.5,-10.3 -7.91,-20.78l-1.87 -2.2c-14.38,-19.45 -17.26,-25.37 -39.03,-40.33 -5.07,-3.48 -38.67,-10.42 -48.09,-9.82 -10.65,0.69 -14.3,3.32 -23.95,5.19 -17.55,3.4 -38.58,21.09 -48.8,34.8 -4.8,6.45 -1.67,4.28 -4.37,10.18 -4.3,9.4 0.26,-0.52 -6.09,7.83l-19.89 35.06c-5.3,5.94 -6.17,10.6 -10.82,17.67l-30.86 52.76c-3.82,8.01 -6.8,9.43 -10.16,18.39 -7.34,19.59 -20.26,35.52 -29.48,54.12l-9.22 17.04c-4.34,5.03 -4.98,12.23 -9.97,18.6 -0.65,0.81 -2.83,2.96 -2.89,3.04 -3.85,4.76 -3.3,8.65 -6.77,13.92 -2,3.04 -3.86,3.95 -6.57,7.45 -8.77,11.29 -10.37,12.85 -14.99,27.48 -3.44,10.91 -16.08,23.71 -21.06,33.93l-17.98 39.18c-2.1,4.08 -2.62,5.88 -4.19,10.01 -2.33,6.1 -18.37,27.42 -24.46,44.48 -2.52,7.09 -7.76,11.02 -10.3,18.36 -1.77,5.1 -1.48,5.93 -4.07,10.47 -2.79,4.92 -2.19,2.09 -5.1,9.07 -1.8,4.32 -1.65,5.25 -3.64,8.72 -9.5,16.47 -14.64,29.68 -26.65,44.68 -5.26,6.58 -2.13,2.37 -4.6,10.08 -2.87,8.93 0.97,1.11 -4.85,9.13 -6.51,8.96 -3.48,10.18 -8.15,18.45 -4.16,7.39 -2.34,1.95 -6.13,7.92l-9.5 19.33c-5.73,11.07 -9.74,20.32 -5.25,32.9 9.57,26.77 6.95,59.5 12.88,99.16 2.41,16.16 8.9,24.93 9.34,45.41 0.49,22.6 0.69,30.93 5.33,51.5z"/>
  <g style="clip-path:url(#id1)">
   <g id="_2781922360080">
    <rect class="fil1" x="3325.31" y="-3165.34" width="1434.29" height="1655.45"/>
   </g>
  </g>
  <path class="fil2" d="M2757.91 836.35c8.66,-3.73 8.39,-4.14 9.45,-14.69 1.33,-13.23 1.12,-7.73 7.78,-14.06l13.68 -21.38c3.67,-7.97 10.2,-13.95 13.44,-21.14l9.02 -15.44c5.42,-9.93 7.42,-3.47 13.91,-20.56 6.39,-16.81 15.89,-19.51 20.02,-26.84l7.73 -14.57c8.17,-13.02 11.69,-13.02 14.58,-22.67 2.66,-8.9 2.3,-7.4 7.78,-13.97l5.27 -7.1c3.08,-4.08 2.29,-2.73 5.83,-6.21 9.26,-9.13 11.83,-19.45 19.81,-27.03l20.85 -26.16c3.16,-4.31 8.05,-6.73 10.42,-11.62l9.33 -15.35c3.68,-8.12 4.93,-9.09 7.84,-14.65 4.19,-8.02 2.42,-9.61 8.87,-15.32 8.15,-7.23 5,-10.68 12.65,-22.4l14.09 -20.96c5.99,-13.92 3.05,-2 10.01,-14.22 11.22,-19.7 -5.88,3.97 11.59,-16.22l6.9 -12.05c1.36,-2.38 2.2,-3.47 3.84,-6.11 6.06,-9.75 25.18,-48.98 29.87,-53.42l26.96 -42.27c3.39,-5.77 4.4,-10.83 7.97,-16.71 4.79,-7.89 4.5,-17.46 10.55,-23.88l5.59 -7.02c10.62,-16.65 20.96,-2.22 17.03,15.63 -3.06,13.96 -8.22,2.83 -9.3,37.09 -0.67,21.02 -7.39,23.59 -9.76,37.1 -2.44,13.9 -0.83,30.43 -4.71,42.48 -8.87,27.46 -4.18,12.08 -7,40.18 -1.46,14.64 -5.91,24.51 -8.5,37.76 -2.28,11.71 -1.09,31.81 -6.14,40.86 -13.48,24.19 -6.6,27 -16.24,52.71 -2.49,6.64 -2.07,13.09 -3.88,20.69 -2.69,11.35 -8.67,15.61 -12.28,34.11 -2.61,13.44 -7.96,22.72 -10.65,36.29 -2.97,15 -7.63,19.39 -10.5,36.61 -2.85,17.13 -11.27,12.57 -10.55,36.89 10.46,-2.56 16.16,-21.3 22.56,-30.86l34.87 -53.05c3.27,-6.66 2.82,-9.04 6.84,-13.12 3.61,-3.66 1.61,-0.78 5.82,-6.56 7.59,-10.4 6.33,-5.92 11.2,-17.75l39.89 -53.48c5.14,-9.11 12.77,-14.49 17.99,-22.68 3.64,-5.72 2.29,-2.83 6.58,-7.51 8.41,-9.22 13.48,-21.22 23.23,-29.79 6.67,-5.86 6.61,-8.99 18.63,-8.17 2.13,5.39 4.25,8.39 7.76,12.8 8.7,10.93 2.57,5.33 7.66,16.6 3.9,8.64 6.31,4.77 9.89,14.45l7.45 17.52c2.77,5.97 2.34,10.85 4.8,17.63 3.28,9.09 6.39,7.69 9.27,14.77 3.64,8.97 1.69,9.84 7.27,17.51 5.08,6.99 3.68,11.04 8.15,16.39 6.56,7.83 5.25,-0.83 8.21,13.46 1.55,7.5 11.79,26.73 16.36,33.02 6.32,8.7 2.98,8.54 7.17,17.48 5.19,11.06 18.57,17.89 6.53,33.44 -9.38,12.11 -3.28,-0.77 -7.84,16.87l-16.29 30.27c-4.13,7.78 -3.06,12.38 -5.96,18.84 -3.63,8.06 -4.39,0.82 -9.74,14.66 -2.63,6.82 -4.33,9.39 -8.12,16.14 -6.18,11.02 -12.14,19.72 -15.13,32.08 -2.38,9.84 -11.38,27.72 -16.98,35.65l-11.92 18.48c-1.81,2.11 -1.39,1.28 -2.85,3.42l-11.5 19.05c-7.89,18.09 -3.61,14.52 -14.78,32.08 -4.35,6.84 -6.4,7.16 -9.98,14.73 -1.26,2.67 -2.75,6.69 -3.76,8.36l-4.3 5.85c-4.6,6.92 -6.97,11.74 -7.54,21.4 12.21,-2.1 13.53,-7.63 21.3,-18.31 2.33,-3.19 2.62,-2.62 5.91,-5.97 4.24,-4.32 6.67,-8.77 11.19,-13.37 11.01,-11.24 13.74,-19.27 22.18,-26.62 8.01,-6.96 15.45,-18.23 21.93,-26.99 3.58,-4.84 7.47,-8.6 10.99,-13.5 9.16,-12.74 42.43,-45.35 46.83,-57.5 0.26,-0.71 0.93,-3.87 1.25,-5.04 2.96,-10.97 14.22,-17.4 22.17,-26.04 18.36,-19.95 6.4,-1.49 14.82,-20.33 7.29,-2.77 12.72,-2.9 15.7,4.74 1.4,3.61 1.3,6.33 2.2,10.11 1.95,8.16 0.66,3.76 4.54,9.92 5.31,8.42 3.76,21.05 7.23,31.2 5.29,15.51 9.52,6.6 9.93,30.08 0.28,16.08 0.63,11.84 7.08,20.41 4.52,6 3.24,12.4 5.31,20.68 1.73,6.96 7.15,10.96 9.03,17.2 2.28,7.52 0.03,15.99 4.77,22.62 13.78,19.29 10.84,66.77 1.16,88.17 -1.22,2.68 -0.4,0.16 -1.83,4.34 -4.28,12.42 -2.74,22.47 -9.73,37.25 -4.9,10.35 -4.25,12.77 -4.02,27.15 10.11,-1.71 16.94,-7.58 22.52,-15.73 10.89,-15.93 9.28,-10.41 18.93,-17.16 7.32,-5.13 3.84,-8.03 12.9,-13.08l6.71 -3.85c9.33,-5.61 12.88,-11.24 20.99,-15.79l39.82 -31.56c17.69,-18.58 36.2,-36.28 56.8,-51.03 4.39,-3.14 5.27,-4 10.78,-7.59 15.28,-9.97 34.26,-31.08 48.53,-43.18 5.9,-5.01 15.28,-11.58 19.84,-17.1 24.98,-30.21 59.99,-20.97 25.19,-72.97 -4.3,-6.43 -5.46,-5.27 -8.51,-9.71 -3.41,-4.96 -2.51,-8.72 -4.92,-13.43l-10.25 -14.18c-0.24,-0.39 -0.55,-0.9 -0.79,-1.28l-17.72 -29.1c-2.33,-3.53 -14.85,-31.59 -25.46,-47.89l-12.53 -24.15c-3.72,-6.93 -3.27,-4.42 -6.27,-12.39 -6.27,-16.63 -19.21,-26.94 -26.62,-44.14 -2.91,-6.75 -4.16,-6.79 -7.09,-11.44 -3.85,-6.13 -2.01,-5.24 -7.2,-11.28 -9.59,-11.15 -3.94,-13.92 -13.13,-23.53 -9.26,-9.68 -12.32,-24.53 -19.05,-35.91l-21.79 -32.71c-4.17,-7.64 -3.65,-3.12 -8.87,-9.81 -0.16,-0.2 -2.53,-4.45 -2.68,-4.79l-10.42 -18.57c-1.77,-2.91 -0.69,-2.33 -3.72,-5.12 -2.89,-2.67 0.16,-1.22 -5.3,-2.65 -0.49,-12.74 -3.64,-17.93 -9.98,-28.32 -3.32,-5.44 -2.91,-7.74 -5.99,-12.43 -5.9,-9.03 -4.13,-0.62 -7.84,-10.01 -3.63,-9.17 -5.43,-17.2 -12.32,-25.1 -13.86,-15.88 -6.24,-14.17 -13.84,-24.7 -4.91,-6.81 -8.05,-18.17 -12.95,-23.78 -4.32,-4.96 -4.54,-5.88 -6.86,-11.07 -3.84,-8.57 -3.18,-6.17 -7.97,-12.66 -5.69,-7.72 -10.97,-12.65 -14.29,-21.88 -4.41,-12.23 -10.08,-9.7 -11.5,-28 -11.78,-6.7 -10.59,-11.38 -17.36,-23.19 -3.13,-5.45 -1.91,-5.8 -4.22,-10.06 -5.86,-10.83 -5.05,0.51 -11.02,-15.05 -2.46,-6.4 -1.1,-4.9 -4.71,-9.9 -7.91,-10.96 -4.58,-10.96 -9.08,-17.47l-10.13 -18.01c-2.3,-5.5 -0.96,-2.18 -2.29,-4.16l-22.61 -42.55c-12.97,-17.64 -20.83,-34.52 -30.41,-53 -5.34,-10.31 -7.84,-4.98 -10.04,-18.02 -2.97,-17.59 -4.96,-11.24 -9.66,-17.25 -4.8,-6.11 0.5,-10.3 -7.91,-20.78l-1.87 -2.2c-14.38,-19.45 -17.26,-25.37 -39.03,-40.33 -5.07,-3.48 -38.67,-10.42 -48.09,-9.82 -10.65,0.69 -14.3,3.32 -23.95,5.19 -17.55,3.4 -38.58,21.09 -48.8,34.8 -4.8,6.45 -1.67,4.28 -4.37,10.18 -4.3,9.4 0.26,-0.52 -6.09,7.83l-19.89 35.06c-5.3,5.94 -6.17,10.6 -10.82,17.67l-30.86 52.76c-3.82,8.01 -6.8,9.43 -10.16,18.39 -7.34,19.59 -20.26,35.52 -29.48,54.12l-9.22 17.04c-4.34,5.03 -4.98,12.23 -9.97,18.6 -0.65,0.81 -2.83,2.96 -2.89,3.04 -3.85,4.76 -3.3,8.65 -6.77,13.92 -2,3.04 -3.86,3.95 -6.57,7.45 -8.77,11.29 -10.37,12.85 -14.99,27.48 -3.44,10.91 -16.08,23.71 -21.06,33.93l-17.98 39.18c-2.1,4.08 -2.62,5.88 -4.19,10.01 -2.33,6.1 -18.37,27.42 -24.46,44.48 -2.52,7.09 -7.76,11.02 -10.3,18.36 -1.77,5.1 -1.48,5.93 -4.07,10.47 -2.79,4.92 -2.19,2.09 -5.1,9.07 -1.8,4.32 -1.65,5.25 -3.64,8.72 -9.5,16.47 -14.64,29.68 -26.65,44.68 -5.26,6.58 -2.13,2.37 -4.6,10.08 -2.87,8.93 0.97,1.11 -4.85,9.13 -6.51,8.96 -3.48,10.18 -8.15,18.45 -4.16,7.39 -2.34,1.95 -6.13,7.92l-9.5 19.33c-5.73,11.07 -9.74,20.32 -5.25,32.9 9.57,26.77 6.95,59.5 12.88,99.16 2.41,16.16 8.9,24.93 9.34,45.41 0.49,22.6 0.69,30.93 5.33,51.5z"/>
  <path class="fil4" d="M3757.2 715.23l238.64 -0.21c-7.49,11.94 -270.68,256.39 -280.3,264.98l-92.94 88.04c8.59,4.53 63.13,13.84 77.35,16.47 15.7,2.9 67.11,10.53 77.48,16.12 -2.73,6.33 -4.38,5.91 -9.53,11.17 -3.83,3.92 -5.99,6.65 -9.63,10.74l-39.41 42.08c-47.79,53.02 -111.18,114.87 -158.58,167.29l-99.02 106.88c5.18,-2.8 12.44,-9.79 16.03,-12.65 5.4,-4.31 10.15,-8.85 15.4,-13.16l431.86 -372.63c9.47,-8.23 22.96,-21.78 32.26,-26.91 -0.47,-0.36 -1.26,-1.36 -1.56,-0.89 -0.28,0.47 -1.16,-0.66 -1.56,-0.81l-13.76 -2.09c-7.25,-0.35 -14.59,-0.83 -21.84,-1.33l-123.64 -7.54c3.01,-7.25 85.78,-82.81 96.19,-92.1l72.76 -67.78c16.7,-18.03 74.8,-68.12 97.71,-91.7l48.91 -44.82c8.65,-7.7 15.37,-15.33 24.03,-22.78 8.62,-7.42 15.32,-15.19 24.08,-22.75 4.94,-4.26 21.47,-17.72 23.86,-23.8l-217.12 -17.06c3.78,-6.57 187.54,-180.49 197.44,-189.22 5.48,-4.84 9.56,-8.44 15.03,-13.47 5.19,-4.76 8.84,-9.85 13.96,-14.57l114.38 -107.63c9.78,-10.91 18.03,-17.53 28.24,-26.76 9.67,-8.75 18.27,-18.16 27.97,-27.01l56.13 -54.52c-23.19,-1.8 -49.14,-0.97 -72.67,-1.36 -46.07,-0.74 -44.23,-6.08 -62.03,13.98 -22.9,25.79 -50.81,49.48 -75.15,73.53l-151.08 148.33c-73.66,74.45 -149.98,147.34 -225.08,220.99 -12.71,12.47 -24.79,25.62 -37.48,37.88 -9.15,8.84 -31.69,28.35 -37.34,37.1z"/>
  <path class="fil4" d="M2582.64 563.73l-136.76 16.86c-0.25,7.61 114.76,171.81 121.54,181.73 9.48,13.85 119.35,172.4 123.99,183.53l-102.41 10.67c2.15,8.48 102.35,141.12 116.54,160.63 52.52,72.22 123.55,171.22 177.42,240.08 6.22,7.96 14.74,18.24 19.63,25.95 -9.5,-20.93 -152.45,-255.17 -175.47,-293.75 -7.32,-12.27 -20.84,-31.66 -25.25,-43.9l99.08 -30.68c-3.86,-9.9 -110.12,-163.97 -118.54,-176.07 -13.64,-19.61 -116.8,-168.95 -118.69,-177.48l150.92 0.07c-5.27,-14.05 -285.24,-440.34 -322.71,-499.59 -6.61,-10.45 -14.33,-23.62 -22.27,-33.22l-74.73 1.41c0.63,7.83 11.51,19.94 16.23,27.06 6.42,9.71 11.89,17.81 18.01,26.79l108.71 162.16c10.78,16.34 140.62,206.21 144.75,217.73z"/>
  <g id="_2781922362240">
   <path class="fil3" d="M3999.89 993.38c-5.3,2.79 -6.73,3.35 -13.22,13.18 -4.92,7.45 -3.9,12.26 -3.65,22.77l-24.49 165.16c-3.68,11.47 -4.94,4.64 -6.11,20.11 -1.21,16.07 -1.83,35.34 -4.36,50.79 -3.3,20.17 -1.77,28.56 12.37,38.88l53.61 40.03c17.18,11.52 16.34,14.1 39.84,29.42l108.47 80.98c6.69,6.13 9.35,6.02 16.48,12.01 7.07,5.94 9.48,4.97 16.65,10.09 5.39,3.85 9.71,9.11 14.88,13.52 6.12,5.22 8.86,4.65 15.67,10.66l44.81 36.7c11.96,8.66 17.05,9.51 32.07,22.95 16.53,14.79 31.21,19.3 60.81,49.17 8.75,8.83 25.7,18.31 43.96,35.47 6.9,6.48 11.14,7.29 16.49,12.04l42.05 39.33c5.73,4.33 11.06,8.17 15.86,12.71 18.53,17.57 28.12,22.8 44.07,35.43 9.54,7.55 6.85,5.95 20.25,8.73l41.86 12.68c10.76,3.62 8.56,6.2 17.19,8.91 8.14,2.56 15.94,1.58 23.43,5.37 11.07,5.61 2.08,4.26 19.42,6.88 9.43,1.42 13.33,2.88 20.8,6.21 15.02,6.68 29.95,4.4 44.43,10.47 8.41,3.53 11.98,4.12 21.1,5.46 14.28,2.1 9.62,3.85 19.94,7.75 15.34,5.8 54.51,9.48 15.93,-27.69 -2.79,-2.7 -15.01,-20.46 -24.31,-28.64 -5.25,-4.62 -9.17,-9.2 -13.6,-14.91 -5.09,-6.55 -7.17,-8.05 -12.55,-13.92l-42.99 -50.81c-9.21,-14.22 -2.35,-6.53 -18.3,-22.36l-61.58 -74.97c-7.05,-9.92 -16.59,-16.53 -26.92,-27.97 -4.52,-5 -7.45,-9.18 -12.15,-14.35l-75.7 -89.19c-7.09,-7.24 -5.29,-8.54 -10.64,-15.97 -3.5,-4.86 -8.83,-9.37 -12.71,-13.68 -4.34,-4.83 -7.23,-9.32 -12.05,-14.44 -17.78,-18.9 -49.23,-60.93 -63.32,-75.2 -22.87,-23.16 -25.48,-17.45 -48.39,1.85 -7.72,6.51 -30.15,37.42 -37.83,45.69 -15.86,17.09 -21.09,10.45 -34.2,-2.47l-60.64 -73.6c-7.33,-13.69 -12.89,-15.7 -22.11,-33.07l-30.9 -50.87c-9.2,-25.1 -15.92,-12.37 -30.03,-51.93 -3.43,-9.62 -5.93,-8.54 -11.26,-16.67 -2.13,-3.25 -9.47,-14.32 -10.39,-16.22 -5.13,-10.46 1.86,-6.01 -18.41,-36.48 -7.1,-10.66 -4.18,-11.38 -9.33,-16.93 -7.28,-7.85 -3.42,2.33 -11.76,-14.77 -2.72,-5.57 -7.66,-11.56 -11.62,-16.82 -6.2,-8.23 -5.88,-6.38 -9.44,-17.06 -1.25,-3.74 -21.97,-38.88 -27.74,-41.56 -7.25,-3.37 -8.35,0.39 -9.78,1.14z"/>
   <g style="clip-path:url(#id2)">
    <g>
     <rect class="fil5" x="5839.52" y="1771.64" width="2152.39" height="1270.04"/>
    </g>
   </g>
   <path class="fil2" d="M3999.89 993.38c-5.3,2.79 -6.73,3.35 -13.22,13.18 -4.92,7.45 -3.9,12.26 -3.65,22.77l-24.49 165.16c-3.68,11.47 -4.94,4.64 -6.11,20.11 -1.21,16.07 -1.83,35.34 -4.36,50.79 -3.3,20.17 -1.77,28.56 12.37,38.88l53.61 40.03c17.18,11.52 16.34,14.1 39.84,29.42l108.47 80.98c6.69,6.13 9.35,6.02 16.48,12.01 7.07,5.94 9.48,4.97 16.65,10.09 5.39,3.85 9.71,9.11 14.88,13.52 6.12,5.22 8.86,4.65 15.67,10.66l44.81 36.7c11.96,8.66 17.05,9.51 32.07,22.95 16.53,14.79 31.21,19.3 60.81,49.17 8.75,8.83 25.7,18.31 43.96,35.47 6.9,6.48 11.14,7.29 16.49,12.04l42.05 39.33c5.73,4.33 11.06,8.17 15.86,12.71 18.53,17.57 28.12,22.8 44.07,35.43 9.54,7.55 6.85,5.95 20.25,8.73l41.86 12.68c10.76,3.62 8.56,6.2 17.19,8.91 8.14,2.56 15.94,1.58 23.43,5.37 11.07,5.61 2.08,4.26 19.42,6.88 9.43,1.42 13.33,2.88 20.8,6.21 15.02,6.68 29.95,4.4 44.43,10.47 8.41,3.53 11.98,4.12 21.1,5.46 14.28,2.1 9.62,3.85 19.94,7.75 15.34,5.8 54.51,9.48 15.93,-27.69 -2.79,-2.7 -15.01,-20.46 -24.31,-28.64 -5.25,-4.62 -9.17,-9.2 -13.6,-14.91 -5.09,-6.55 -7.17,-8.05 -12.55,-13.92l-42.99 -50.81c-9.21,-14.22 -2.35,-6.53 -18.3,-22.36l-61.58 -74.97c-7.05,-9.92 -16.59,-16.53 -26.92,-27.97 -4.52,-5 -7.45,-9.18 -12.15,-14.35l-75.7 -89.19c-7.09,-7.24 -5.29,-8.54 -10.64,-15.97 -3.5,-4.86 -8.83,-9.37 -12.71,-13.68 -4.34,-4.83 -7.23,-9.32 -12.05,-14.44 -17.78,-18.9 -49.23,-60.93 -63.32,-75.2 -22.87,-23.16 -25.48,-17.45 -48.39,1.85 -7.72,6.51 -30.15,37.42 -37.83,45.69 -15.86,17.09 -21.09,10.45 -34.2,-2.47l-60.64 -73.6c-7.33,-13.69 -12.89,-15.7 -22.11,-33.07l-30.9 -50.87c-9.2,-25.1 -15.92,-12.37 -30.03,-51.93 -3.43,-9.62 -5.93,-8.54 -11.26,-16.67 -2.13,-3.25 -9.47,-14.32 -10.39,-16.22 -5.13,-10.46 1.86,-6.01 -18.41,-36.48 -7.1,-10.66 -4.18,-11.38 -9.33,-16.93 -7.28,-7.85 -3.42,2.33 -11.76,-14.77 -2.72,-5.57 -7.66,-11.56 -11.62,-16.82 -6.2,-8.23 -5.88,-6.38 -9.44,-17.06 -1.25,-3.74 -21.97,-38.88 -27.74,-41.56 -7.25,-3.37 -8.35,0.39 -9.78,1.14z"/>
   <path class="fil3" d="M2854.43 1540.22c-11.79,-0.51 -17.78,-12.7 -24.66,-19.81 -7.84,-8.09 -16.13,-12.03 -24.56,-20.2 -10.06,-9.76 -42.09,-31.7 -61.66,-31.69 0.01,20.18 6.16,19.54 17.72,42.91l22.74 38.53c18.37,23.5 11.57,41.82 55.17,65.04 11.63,6.2 17.09,5.62 27.04,13.64 9.63,7.75 52.08,28.36 65.41,34.46 4.79,2.19 9.9,3.16 14.73,5.71 5.84,3.09 5.79,4.33 12.47,7.57l67.25 34.65c5.86,3.73 8.88,2.91 14.84,5.76 7.11,3.41 2.98,4.04 12.89,7.46l27.98 12.62c9.28,4.28 27.65,14.71 40.1,18.73 8.39,2.71 8.03,3.58 14.11,6.53l40.58 20.18c5.52,2.52 9.52,2.66 15.25,5.21 16.66,7.38 11.56,6.22 33.31,7.78 25.59,1.83 52.25,1.67 79.44,1.94 29.54,0.3 49.85,2.24 77.44,3.88 101.04,5.98 215.47,5.78 317.43,1.98l-0.19 -9.96c-4.49,-2.2 -6.59,-2.17 -11.65,-3.76l-7.35 -3.16c-0.39,-0.22 -0.86,-0.57 -1.24,-0.8 -10.38,-6.23 -7.87,-3.25 -18.18,-6.14 -11.01,-3.09 -3.06,-2.53 -11.58,-6.79 -7.1,-3.55 -18.63,-3.25 -28.94,-8.04 -11.84,-5.51 -17.56,-1.7 -27.47,-9.05 -9.95,-7.36 -16.39,-4.06 -26.88,-9.78 -6.49,-3.54 -5.36,-4.5 -11.5,-6.3l-55.49 -18.54c-14.34,-2.86 -4.57,-3.31 -27.31,-9.4 -14.63,-3.92 3.73,-3.5 -26.3,-10.41 -6.88,-1.59 -6.87,-2.34 -13.26,-5.03 -23.15,-9.75 -12.87,1.26 -26.13,-10.3 -5.4,-4.71 -45.89,-14.44 -54.21,-19.14 -17.13,-9.67 -16.58,-1.97 -25.44,-11.45 -10.81,-11.56 -1.08,1.8 -24.69,-11.25l-30.14 -14.05c-5.56,-1.4 -3.1,-0.05 -8.4,-2.42 -6.13,-2.74 -4.94,-3.51 -12.23,-5.67 -4.22,-1.25 -2.02,-0.21 -6.52,-1.93 -9.86,-3.76 -4.03,-4.06 -20.89,-7.64 -18.13,-3.85 -26.46,-14.62 -53.18,-20.43 -7.95,-1.72 -6.59,-2.49 -12.9,-5.58 -6.22,-3.05 -6.95,-2.06 -14.88,-3.68l-25.74 -10.8c-5.78,-2.58 -5.4,-4.13 -12.24,-6.11l-38.94 -16.01c-7.1,-3.68 -5.4,-2.91 -13.48,-5.03l-63.24 -28.22c-5.21,-2.71 -20.25,-7.08 -27.27,-9.74 -7.87,-2.99 -6.3,-3.59 -11.17,-6.88 -6.03,-4.07 -6.69,-2.74 -14.29,-4.39 -9.8,-2.14 -4.7,-2.15 -12.1,-6.06 -5.2,-2.73 -7.94,-2.3 -13.39,-5.03 -6.49,-3.27 -4.09,-3.8 -11.82,-6.69 -21.22,-7.96 -14.09,-9.57 -25.93,-10.98 -7.89,-0.95 -11.19,-0.11 -17.2,-2.1 -0.88,31.29 2.07,20.41 3.82,39.76 1.22,13.51 2.37,29.24 -5.04,36.08z"/>
   <g style="clip-path:url(#id3)">
    <g>
     <rect class="fil5" x="5839.52" y="1771.64" width="2152.39" height="1270.04"/>
    </g>
   </g>
   <path class="fil2" d="M2854.43 1540.22c-11.79,-0.51 -17.78,-12.7 -24.66,-19.81 -7.84,-8.09 -16.13,-12.03 -24.56,-20.2 -10.06,-9.76 -42.09,-31.7 -61.66,-31.69 0.01,20.18 6.16,19.54 17.72,42.91l22.74 38.53c18.37,23.5 11.57,41.82 55.17,65.04 11.63,6.2 17.09,5.62 27.04,13.64 9.63,7.75 52.08,28.36 65.41,34.46 4.79,2.19 9.9,3.16 14.73,5.71 5.84,3.09 5.79,4.33 12.47,7.57l67.25 34.65c5.86,3.73 8.88,2.91 14.84,5.76 7.11,3.41 2.98,4.04 12.89,7.46l27.98 12.62c9.28,4.28 27.65,14.71 40.1,18.73 8.39,2.71 8.03,3.58 14.11,6.53l40.58 20.18c5.52,2.52 9.52,2.66 15.25,5.21 16.66,7.38 11.56,6.22 33.31,7.78 25.59,1.83 52.25,1.67 79.44,1.94 29.54,0.3 49.85,2.24 77.44,3.88 101.04,5.98 215.47,5.78 317.43,1.98l-0.19 -9.96c-4.49,-2.2 -6.59,-2.17 -11.65,-3.76l-7.35 -3.16c-0.39,-0.22 -0.86,-0.57 -1.24,-0.8 -10.38,-6.23 -7.87,-3.25 -18.18,-6.14 -11.01,-3.09 -3.06,-2.53 -11.58,-6.79 -7.1,-3.55 -18.63,-3.25 -28.94,-8.04 -11.84,-5.51 -17.56,-1.7 -27.47,-9.05 -9.95,-7.36 -16.39,-4.06 -26.88,-9.78 -6.49,-3.54 -5.36,-4.5 -11.5,-6.3l-55.49 -18.54c-14.34,-2.86 -4.57,-3.31 -27.31,-9.4 -14.63,-3.92 3.73,-3.5 -26.3,-10.41 -6.88,-1.59 -6.87,-2.34 -13.26,-5.03 -23.15,-9.75 -12.87,1.26 -26.13,-10.3 -5.4,-4.71 -45.89,-14.44 -54.21,-19.14 -17.13,-9.67 -16.58,-1.97 -25.44,-11.45 -10.81,-11.56 -1.08,1.8 -24.69,-11.25l-30.14 -14.05c-5.56,-1.4 -3.1,-0.05 -8.4,-2.42 -6.13,-2.74 -4.94,-3.51 -12.23,-5.67 -4.22,-1.25 -2.02,-0.21 -6.52,-1.93 -9.86,-3.76 -4.03,-4.06 -20.89,-7.64 -18.13,-3.85 -26.46,-14.62 -53.18,-20.43 -7.95,-1.72 -6.59,-2.49 -12.9,-5.58 -6.22,-3.05 -6.95,-2.06 -14.88,-3.68l-25.74 -10.8c-5.78,-2.58 -5.4,-4.13 -12.24,-6.11l-38.94 -16.01c-7.1,-3.68 -5.4,-2.91 -13.48,-5.03l-63.24 -28.22c-5.21,-2.71 -20.25,-7.08 -27.27,-9.74 -7.87,-2.99 -6.3,-3.59 -11.17,-6.88 -6.03,-4.07 -6.69,-2.74 -14.29,-4.39 -9.8,-2.14 -4.7,-2.15 -12.1,-6.06 -5.2,-2.73 -7.94,-2.3 -13.39,-5.03 -6.49,-3.27 -4.09,-3.8 -11.82,-6.69 -21.22,-7.96 -14.09,-9.57 -25.93,-10.98 -7.89,-0.95 -11.19,-0.11 -17.2,-2.1 -0.88,31.29 2.07,20.41 3.82,39.76 1.22,13.51 2.37,29.24 -5.04,36.08z"/>
   <path class="fil3" d="M3576.17 1644.46c9.92,10.1 33.38,20.66 48.18,28.42l21.49 11.14c6.81,2.64 5.88,0.96 11.96,4.39 26.87,15.16 8.88,0.09 30.24,16.52 5.12,3.95 4.2,2.4 11.35,4.6 12.58,3.88 29.41,15.83 44.59,20.89 8.32,2.77 13.79,6.23 21.06,9.55l66.03 29.74c15.42,9.87 10.16,4.44 21.27,9.09 20.37,8.53 26.49,9.65 52.03,12.77 10.23,1.25 21.12,0.7 31.59,0.71 85.97,0.06 163.09,5.46 248.49,6.63 85.45,1.17 171.57,-0.09 254.65,-1.61 -0.65,-13.75 -5.91,-10.11 -17.99,-14.77 -9.98,-3.85 -11.95,-7.74 -24.04,-10.62l-11.66 -4.57c-4.15,-2.72 -6.22,-4.25 -12.35,-6.02 -10.13,-2.9 -19.41,-2.24 -27.83,-6.92 -6.27,-3.48 -2.51,-3.33 -10.5,-5.6 -4.29,-1.21 -9.35,-1.55 -13.76,-2.47 -16.09,-3.38 -6.8,-5.42 -25.59,-9.17 -16.58,-3.31 -12.01,-7.3 -24.35,-10.35 -5.27,-1.31 -10.24,-0.7 -14.77,-1.85 -5.85,-1.49 -5.88,-4.35 -10.47,-7.34 -6.94,-4.53 -15.29,-3.68 -24.14,-8.59 -19.13,-10.65 -11.86,-4.25 -25.28,-9.23 -6.43,-2.39 -4.18,-2.89 -11.17,-5.25 -6.12,-2.07 -8.94,-1.5 -14.58,-3.86 -13.27,-5.57 -4.9,-7.24 -24.54,-9.92 -19.69,-2.69 -5.82,-6.05 -36.92,-12.09 -10.3,-2 -5.14,-1.73 -12.02,-6.14 -7.84,-5.03 -17.64,-3.58 -26.73,-8.08 -5.39,-2.67 -4.78,-3.64 -10.91,-5.53 -5.89,-1.81 -9.36,-1.34 -15.06,-3.3 -9.81,-3.38 -9.88,-7.12 -21.5,-10.55 -11.28,-3.33 -16.37,-9.32 -22.9,-11.38 -16.47,-5.19 0.68,2.85 -25.94,-8.9 -37,-16.33 -54.22,-0.25 -86.95,1.28 -12.9,0.6 -20.48,-1.63 -33.78,1.05 -11.24,2.27 -19.17,3.53 -31.54,3.14 -21.6,-0.68 -39.85,-2.42 -62.55,0.64 -8.48,1.13 -18.11,4.97 -28.37,6.6 -11.23,1.78 -21.97,0.32 -32.84,1.7 -29.74,3.76 -11,7.51 -61.52,6.71 -13.44,-0.21 -52.81,3.75 -60.4,8.54z"/>
   <g style="clip-path:url(#id4)">
    <g>
     <rect class="fil5" x="5839.52" y="1771.64" width="2152.39" height="1270.04"/>
    </g>
   </g>
   <path class="fil2" d="M3576.17 1644.46c9.92,10.1 33.38,20.66 48.18,28.42l21.49 11.14c6.81,2.64 5.88,0.96 11.96,4.39 26.87,15.16 8.88,0.09 30.24,16.52 5.12,3.95 4.2,2.4 11.35,4.6 12.58,3.88 29.41,15.83 44.59,20.89 8.32,2.77 13.79,6.23 21.06,9.55l66.03 29.74c15.42,9.87 10.16,4.44 21.27,9.09 20.37,8.53 26.49,9.65 52.03,12.77 10.23,1.25 21.12,0.7 31.59,0.71 85.97,0.06 163.09,5.46 248.49,6.63 85.45,1.17 171.57,-0.09 254.65,-1.61 -0.65,-13.75 -5.91,-10.11 -17.99,-14.77 -9.98,-3.85 -11.95,-7.74 -24.04,-10.62l-11.66 -4.57c-4.15,-2.72 -6.22,-4.25 -12.35,-6.02 -10.13,-2.9 -19.41,-2.24 -27.83,-6.92 -6.27,-3.48 -2.51,-3.33 -10.5,-5.6 -4.29,-1.21 -9.35,-1.55 -13.76,-2.47 -16.09,-3.38 -6.8,-5.42 -25.59,-9.17 -16.58,-3.31 -12.01,-7.3 -24.35,-10.35 -5.27,-1.31 -10.24,-0.7 -14.77,-1.85 -5.85,-1.49 -5.88,-4.35 -10.47,-7.34 -6.94,-4.53 -15.29,-3.68 -24.14,-8.59 -19.13,-10.65 -11.86,-4.25 -25.28,-9.23 -6.43,-2.39 -4.18,-2.89 -11.17,-5.25 -6.12,-2.07 -8.94,-1.5 -14.58,-3.86 -13.27,-5.57 -4.9,-7.24 -24.54,-9.92 -19.69,-2.69 -5.82,-6.05 -36.92,-12.09 -10.3,-2 -5.14,-1.73 -12.02,-6.14 -7.84,-5.03 -17.64,-3.58 -26.73,-8.08 -5.39,-2.67 -4.78,-3.64 -10.91,-5.53 -5.89,-1.81 -9.36,-1.34 -15.06,-3.3 -9.81,-3.38 -9.88,-7.12 -21.5,-10.55 -11.28,-3.33 -16.37,-9.32 -22.9,-11.38 -16.47,-5.19 0.68,2.85 -25.94,-8.9 -37,-16.33 -54.22,-0.25 -86.95,1.28 -12.9,0.6 -20.48,-1.63 -33.78,1.05 -11.24,2.27 -19.17,3.53 -31.54,3.14 -21.6,-0.68 -39.85,-2.42 -62.55,0.64 -8.48,1.13 -18.11,4.97 -28.37,6.6 -11.23,1.78 -21.97,0.32 -32.84,1.7 -29.74,3.76 -11,7.51 -61.52,6.71 -13.44,-0.21 -52.81,3.75 -60.4,8.54z"/>
  </g>
  <g id="_2781922364256">
   <path class="fil0" d="M3991.9 2778.58l-0.61 -243.31c119.58,-9.37 236.14,-5.76 232.01,126.75 -1.89,60.93 -26.23,93.34 -72.36,109.35 -31.47,10.91 -127.64,23.15 -159.03,7.21zm0.2 -522.37c54.52,-5.01 121.24,-8.97 161.53,18.03 44.41,29.75 53.98,145.18 -63.32,159.97 -11.37,1.42 -82.81,3.02 -90.71,0.52 -12.23,-3.87 -8.77,5.93 -8.47,-41.33 0.09,-15.31 0.07,-30.64 0.08,-45.95 0.01,-29.02 -1.67,-62.85 0.89,-91.24zm232.57 214.93c8.98,-8.92 20.95,-14.9 32.45,-24.65 93.85,-79.56 59.69,-205.36 -15.58,-256.61 -88.11,-60 -258.42,-44.78 -380.17,-36.38l0.08 735c99.94,6.11 273.83,12.51 365.98,-26.41 162.48,-68.62 157.53,-262.53 75.83,-341.65 -32.37,-31.35 -63.98,-37.3 -78.58,-49.29z"/>
   <g style="clip-path:url(#id5)">
    <g>
     <rect class="fil6" x="-799.05" y="3284.88" width="7221.86" height="2872.17"/>
    </g>
   </g>
   <path class="fil2" d="M3991.9 2778.58l-0.61 -243.31c119.58,-9.37 236.14,-5.76 232.01,126.75 -1.89,60.93 -26.23,93.34 -72.36,109.35 -31.47,10.91 -127.64,23.15 -159.03,7.21zm0.2 -522.37c54.52,-5.01 121.24,-8.97 161.53,18.03 44.41,29.75 53.98,145.18 -63.32,159.97 -11.37,1.42 -82.81,3.02 -90.71,0.52 -12.23,-3.87 -8.77,5.93 -8.47,-41.33 0.09,-15.31 0.07,-30.64 0.08,-45.95 0.01,-29.02 -1.67,-62.85 0.89,-91.24zm232.57 214.93c8.98,-8.92 20.95,-14.9 32.45,-24.65 93.85,-79.56 59.69,-205.36 -15.58,-256.61 -88.11,-60 -258.42,-44.78 -380.17,-36.38l0.08 735c99.94,6.11 273.83,12.51 365.98,-26.41 162.48,-68.62 157.53,-262.53 75.83,-341.65 -32.37,-31.35 -63.98,-37.3 -78.58,-49.29z"/>
   <path class="fil0" d="M2246.35 2453.74c13.92,10.79 251.57,325.04 276.09,356.15 17.13,21.73 30.27,38.74 46.31,59.77 21.99,28.89 19.5,34.79 72.2,27.3l-0.39 -715.17 -119.24 0.1 -0.56 422.52c-10.05,-5.11 -161.05,-201.12 -181.33,-226.37 -30.93,-38.52 -58.74,-76.77 -90.04,-114.92 -21.42,-26.08 -55.08,-79.3 -73.62,-81.55 -10.85,-1.32 -37.17,-0.14 -49.62,0.43l0.09 707.19 119.05 -1.51 1.07 -433.94z"/>
   <g style="clip-path:url(#id6)">
    <g>
     <rect class="fil6" x="-799.05" y="3284.88" width="7221.86" height="2872.17"/>
    </g>
   </g>
   <path class="fil2" d="M2246.35 2453.74c13.92,10.79 251.57,325.04 276.09,356.15 17.13,21.73 30.27,38.74 46.31,59.77 21.99,28.89 19.5,34.79 72.2,27.3l-0.39 -715.17 -119.24 0.1 -0.56 422.52c-10.05,-5.11 -161.05,-201.12 -181.33,-226.37 -30.93,-38.52 -58.74,-76.77 -90.04,-114.92 -21.42,-26.08 -55.08,-79.3 -73.62,-81.55 -10.85,-1.32 -37.17,-0.14 -49.62,0.43l0.09 707.19 119.05 -1.51 1.07 -433.94z"/>
   <path class="fil0" d="M232.06 2637.57c6.76,-36.33 58.47,-179.13 75.87,-235.38 1.72,-5.54 3.35,-11.89 4.9,-16.2l7.6 -14.72c8.75,13 81.46,237.09 88.63,267.06l-177.01 -0.76zm-39.29 100.94l255.43 1.58 52.54 148.91 143.41 -0.57 -295.05 -746.87 -57.22 0.49 -291.88 747.11 142.84 -0.9 49.93 -149.75z"/>
   <g style="clip-path:url(#id7)">
    <g>
     <rect class="fil6" x="-799.05" y="3284.88" width="7221.86" height="2872.17"/>
    </g>
   </g>
   <path class="fil2" d="M232.06 2637.57c6.76,-36.33 58.47,-179.13 75.87,-235.38 1.72,-5.54 3.35,-11.89 4.9,-16.2l7.6 -14.72c8.75,13 81.46,237.09 88.63,267.06l-177.01 -0.76zm-39.29 100.94l255.43 1.58 52.54 148.91 143.41 -0.57 -295.05 -746.87 -57.22 0.49 -291.88 747.11 142.84 -0.9 49.93 -149.75z"/>
   <polygon class="fil0" points="2913.96,2291.62 3236.78,2291.26 3236.02,2181.64 2787.27,2182.21 2787.35,2889.12 3236.83,2888.84 3235.55,2779.54 2912.47,2779.37 2914.31,2563.82 3143.07,2562.34 3141.49,2459.1 2912.49,2458.93 "/>
   <g style="clip-path:url(#id8)">
    <g>
     <rect class="fil6" x="-799.05" y="3284.88" width="7221.86" height="2872.17"/>
    </g>
   </g>
   <polygon class="fil2" points="2913.96,2291.62 3236.78,2291.26 3236.02,2181.64 2787.27,2182.21 2787.35,2889.12 3236.83,2888.84 3235.55,2779.54 2912.47,2779.37 2914.31,2563.82 3143.07,2562.34 3141.49,2459.1 2912.49,2458.93 "/>
   <path class="fil0" d="M1395.16 2288.66c44.27,-6.67 116.51,-0.89 152.02,15.81 41.34,19.45 66.38,45.07 62.84,106.49 -6,103.72 -100.87,114.98 -183.6,111.92 -37.96,-1.41 -29.11,-3.08 -33.18,-9.35l1.93 -224.87zm-1.22 340.77c102.15,3.98 196.9,1.77 265.57,-52.51 57.54,-45.48 92.54,-133.01 73.88,-236.2 -15.68,-86.67 -80.85,-131.67 -168.36,-149.74 -68.91,-14.22 -234.14,-21.2 -295.89,-7.51l1.25 705.76 122.84 -0.47 0.72 -259.33z"/>
   <g style="clip-path:url(#id9)">
    <g>
     <rect class="fil6" x="-799.05" y="3284.88" width="7221.86" height="2872.17"/>
    </g>
   </g>
   <path class="fil2" d="M1395.16 2288.66c44.27,-6.67 116.51,-0.89 152.02,15.81 41.34,19.45 66.38,45.07 62.84,106.49 -6,103.72 -100.87,114.98 -183.6,111.92 -37.96,-1.41 -29.11,-3.08 -33.18,-9.35l1.93 -224.87zm-1.22 340.77c102.15,3.98 196.9,1.77 265.57,-52.51 57.54,-45.48 92.54,-133.01 73.88,-236.2 -15.68,-86.67 -80.85,-131.67 -168.36,-149.74 -68.91,-14.22 -234.14,-21.2 -295.89,-7.51l1.25 705.76 122.84 -0.47 0.72 -259.33z"/>
   <path class="fil0" d="M3676.76 2321.8c8.38,-25.83 33.61,-85.4 35.73,-108.32 -56.29,-31.46 -87.54,-41.33 -165.7,-43.46 -233.05,-6.39 -285.09,226.63 -164.38,334.78 70.34,63 204.87,86.23 235.28,178.13 24.49,74.03 -29.92,105.7 -95.61,108.1 -78.44,2.84 -105.27,-24.98 -155.52,-51.13 -9.45,9.16 -44.13,98.43 -46.28,109.35 33.24,29.28 106.47,47.58 159.76,51.18 231.48,15.63 331.15,-179.5 226.35,-323.83 -56.59,-77.96 -188.06,-99.24 -245.47,-175.07 -54.07,-71.43 24.57,-163.36 149.42,-114.04 28.17,11.13 43.7,22.96 66.42,34.33z"/>
   <g style="clip-path:url(#id10)">
    <g>
     <rect class="fil6" x="-799.05" y="3284.88" width="7221.86" height="2872.17"/>
    </g>
   </g>
   <path class="fil2" d="M3676.76 2321.8c8.38,-25.83 33.61,-85.4 35.73,-108.32 -56.29,-31.46 -87.54,-41.33 -165.7,-43.46 -233.05,-6.39 -285.09,226.63 -164.38,334.78 70.34,63 204.87,86.23 235.28,178.13 24.49,74.03 -29.92,105.7 -95.61,108.1 -78.44,2.84 -105.27,-24.98 -155.52,-51.13 -9.45,9.16 -44.13,98.43 -46.28,109.35 33.24,29.28 106.47,47.58 159.76,51.18 231.48,15.63 331.15,-179.5 226.35,-323.83 -56.59,-77.96 -188.06,-99.24 -245.47,-175.07 -54.07,-71.43 24.57,-163.36 149.42,-114.04 28.17,11.13 43.7,22.96 66.42,34.33z"/>
   <polygon class="fil0" points="5582.24,2291.53 5807.59,2292.52 5807.77,2889.12 5932.25,2888.72 5933.18,2291.68 6168.21,2290.32 6167.67,2181.66 5582.33,2181.92 "/>
   <g style="clip-path:url(#id11)">
    <g>
     <rect class="fil6" x="-799.05" y="3284.88" width="7221.86" height="2872.17"/>
    </g>
   </g>
   <polygon class="fil2" points="5582.24,2291.53 5807.59,2292.52 5807.77,2889.12 5932.25,2888.72 5933.18,2291.68 6168.21,2290.32 6167.67,2181.66 5582.33,2181.92 "/>
   <path class="fil0" d="M720.29 2889.18l445.06 -0.72 -1.11 -108.57c-55.84,-2.84 -291.69,4.28 -319.25,-2.46l-0.94 -595.82 -123.87 0.44 0.11 707.12z"/>
   <g style="clip-path:url(#id12)">
    <g>
     <rect class="fil6" x="-799.05" y="3284.88" width="7221.86" height="2872.17"/>
    </g>
   </g>
   <path class="fil2" d="M720.29 2889.18l445.06 -0.72 -1.11 -108.57c-55.84,-2.84 -291.69,4.28 -319.25,-2.46l-0.94 -595.82 -123.87 0.44 0.11 707.12z"/>
   <path class="fil0" d="M5171.52 2889.25l440.31 -0.02c5.9,-15.85 3.59,-89.22 1.69,-109.67 -47.27,-0.47 -295.67,3.47 -319.61,-2.11l-0.76 -595.94 -123.35 1.32 1.71 706.43z"/>
   <g style="clip-path:url(#id13)">
    <g>
     <rect class="fil6" x="-799.05" y="3284.88" width="7221.86" height="2872.17"/>
    </g>
   </g>
   <path class="fil2" d="M5171.52 2889.25l440.31 -0.02c5.9,-15.85 3.59,-89.22 1.69,-109.67 -47.27,-0.47 -295.67,3.47 -319.61,-2.11l-0.76 -595.94 -123.35 1.32 1.71 706.43z"/>
   <path class="fil3" d="M4624.81 2191.58l14.09 124.12c45.78,-28.5 84.8,-50.22 157.59,-30.65 180.66,48.59 140.26,355.46 90.93,423.16l5.75 154.82c32.15,-9.23 72.49,-52.05 90.16,-75.56 78.28,-104.24 91.74,-277.87 56.73,-399.34 -41.31,-143.35 -135.89,-209.76 -274.02,-217.5 -83.64,-4.68 -95.86,12.62 -141.23,20.95z"/>
   <g style="clip-path:url(#id14)">
    <g>
     <rect class="fil6" x="-799.05" y="3284.88" width="7221.86" height="2872.17"/>
    </g>
   </g>
   <path class="fil2" d="M4624.81 2191.58l14.09 124.12c45.78,-28.5 84.8,-50.22 157.59,-30.65 180.66,48.59 140.26,355.46 90.93,423.16l5.75 154.82c32.15,-9.23 72.49,-52.05 90.16,-75.56 78.28,-104.24 91.74,-277.87 56.73,-399.34 -41.31,-143.35 -135.89,-209.76 -274.02,-217.5 -83.64,-4.68 -95.86,12.62 -141.23,20.95z"/>
   <path class="fil0" d="M4888.86 2866.75l-26.68 -122.4c-76.49,64.91 -200.68,70.13 -253.28,-24.31 -42.54,-76.39 -57.56,-222.24 -22.38,-314.8 0.81,-23.22 -18.11,-158.85 -25.92,-170.96 -162.92,117.82 -182.69,555.93 65.41,648.77 74.72,27.96 200.07,21.68 262.85,-16.31z"/>
   <g style="clip-path:url(#id15)">
    <g>
     <rect class="fil6" x="-799.05" y="3284.88" width="7221.86" height="2872.17"/>
    </g>
   </g>
   <path class="fil2" d="M4888.86 2866.75l-26.68 -122.4c-76.49,64.91 -200.68,70.13 -253.28,-24.31 -42.54,-76.39 -57.56,-222.24 -22.38,-314.8 0.81,-23.22 -18.11,-158.85 -25.92,-170.96 -162.92,117.82 -182.69,555.93 65.41,648.77 74.72,27.96 200.07,21.68 262.85,-16.31z"/>
   <path class="fil0" d="M1852.45 2870.46c0.05,16.79 -1.64,18.73 15.44,19.19l108.55 -0.69c4.61,-220.95 1.68,-481.66 0.22,-707.32l-124.02 1.77 -0.2 687.05z"/>
   <g style="clip-path:url(#id16)">
    <g>
     <rect class="fil6" x="-799.05" y="3284.88" width="7221.86" height="2872.17"/>
    </g>
   </g>
   <path class="fil2" d="M1852.45 2870.46c0.05,16.79 -1.64,18.73 15.44,19.19l108.55 -0.69c4.61,-220.95 1.68,-481.66 0.22,-707.32l-124.02 1.77 -0.2 687.05z"/>
  </g>
  <path class="fil4" d="M4560.59 2234.29c7.81,12.11 26.72,147.74 25.92,170.96 8.46,12.03 21.56,126.25 24.78,150.53 18.85,-5.37 92.06,-72.87 116.5,-81.95l25.26 233.91c27.53,-4.17 66.11,-37.95 94.16,-42.05 5,12.25 15.16,64.7 14.95,78.67l26.68 122.4 4.32 -3.73 -5.75 -154.82 -6.86 -132.21c-23.28,8.39 -63.25,46.41 -85.96,51.4 -4.07,-37.43 -19.37,-221.04 -28.65,-239.24 -32.18,9.46 -83.5,58.96 -112.61,65.62l-14.44 -138.08 -14.09 -124.12 -7.29 -23.02c-19.72,10.13 -35.86,26.46 -55.61,38.41l-1.32 27.32z"/>
 </g>
</svg>
